<svg width="1333" height="434" viewBox="0 0 1333 434" fill="none" xmlns="http://www.w3.org/2000/svg">
<g style="mix-blend-mode:color-burn" opacity="0.4">
<path d="M384.869 206.359V420.334H333.476V206.359H340.511V189.163L357.121 155.748L359.075 151.84L361.029 155.748L377.834 189.163V206.359H384.869Z" fill="#4283D1"/>
<path d="M795.035 215.739V202.451H791.518V195.612H787.805V201.084H783.506L779.012 196.589V170.6H769.632H767.873H758.494V196.589L753.999 201.084H749.505V195.612H745.987V202.451H742.47V215.739H737.389H732.504V202.451H728.987V195.612H725.469V201.084H720.975L716.48 196.589V170.6H707.101H705.342H695.962V196.589L691.468 201.084H686.973V195.612H683.456V202.451H679.939V215.739H675.053V418.771H705.342H707.101H737.389H767.873H769.632H799.921V215.739H795.035Z" fill="#4283D1"/>
<path d="M895.672 421.311V193.071H836.072V209.486L825.52 216.521V271.235H816.922V421.311H895.672Z" fill="#4283D1"/>
<path d="M277.784 296.248V421.506H200.793V296.248H202.942V210.854H206.655V185.841H209.977V174.898H214.862V167.863L235.966 147.541L239.288 144.219L242.806 147.541L263.715 167.863V174.898H268.6V185.841H271.922V210.854H275.635V296.248H277.784Z" fill="#4283D1"/>
<path d="M1085.42 179.979V179.783H1085.22L1078.18 173.53V173.335H1077.99L1076.82 172.162L1072.52 168.254L1046.72 145.196L1046.53 145H1046.33L1040.28 139.333L1040.08 139.138C1040.08 139.138 1039.1 138.356 1038.52 138.356H1037.73C1037.34 138.356 1036.95 138.747 1036.95 139.138C1036.95 139.333 1036.95 139.334 1036.95 139.529V168.254V172.162V173.335V175.875V179.783V182.519V185.841V186.427V187.6V188.968V189.359V191.313V192.876V194.83V195.612V196.393V198.347V199.324V200.106V202.06V203.037V204.601V205.968V208.509V212.417V215.153V218.865V221.601V225.509V228.05V229.027V230.786V231.958V234.694V238.602V241.142V245.05V247.786V251.499V254.235V255.212V256.775V258.143V260.683V264.592V267.327V271.235V273.776V277.684V280.42V281.201V282.96V284.133V286.868V290.777V293.317V297.225V299.961V303.674V306.409V307.386V308.95V310.318V312.858V316.766V319.502V323.41V325.95V329.859V332.594V333.571V335.135V336.307V339.043V342.951V345.491V349.4V352.135V356.044V358.584V359.561V361.124V362.492V365.228V368.941V371.676V375.585V378.125V382.033V384.769V385.746V387.309V388.677V391.217V395.126V397.666V401.574V404.31V408.218V410.758V410.954H1051.8H1060.21H1069.78H1088.35H1097.92H1105.74H1117.46V410.758V408.218V404.31V401.574V397.666V395.126V391.217V388.677V387.309V385.746V384.769V382.033V378.125V375.585V371.676V368.941V365.228V362.492V361.124V359.561V358.584V356.044V352.135V349.4V345.491V342.951V339.043V336.307V335.135V333.571V332.594V329.859V325.95V323.41V319.502V316.766V312.858V310.318V308.95V307.386V306.409V303.674V299.961V297.225V293.317V290.777V286.868V284.133V282.96V281.201V280.42V277.684V273.776V271.235V267.327V264.592V260.683V258.143V256.775V255.212V254.235V251.499V247.786V245.05V241.142V238.602V234.694V233.521V231.958V230.786V229.027V228.05V225.509V221.601V218.865V215.153V212.417V211.635V209.095L1085.42 179.979ZM1061.38 168.45L1052.78 154.966L1064.51 168.45H1061.38ZM1059.03 168.45H1055.91L1050.63 154.966L1059.03 168.45ZM1070.17 168.45H1066.85L1055.32 155.162L1070.17 168.45ZM1043.99 145.196L1039.3 154.575V140.897L1043.99 145.196ZM1039.3 158.484L1044.97 147.15L1053.37 168.45H1039.3V158.484Z" fill="#4283D1"/>
<path d="M950.582 94.9754L947.651 0.787598L944.72 94.9754C939.444 95.1708 934.558 95.757 930.259 96.7341C930.259 95.3011 930.259 93.8681 930.259 92.4351C929.673 91.8488 925.96 88.3314 920.293 88.9177C916.385 89.3085 913.649 91.6534 912.868 92.4351V416.621H923.224V417.207H972.272C972.272 310.904 972.272 204.601 972.272 98.2974C966.996 96.7341 959.571 95.1708 950.582 94.9754Z" fill="#004CA3"/>
<path d="M181.447 200.106V430.495C180.079 430.69 147.055 430.495 140.606 430.495C140.606 430.495 140.281 430.495 139.629 430.495C133.376 430.495 100.352 430.69 98.7887 430.495V200.106H102.697V187.991H105.823V175.875H110.513V165.127H117.939V150.863H127.709V138.747H132.399V125.264H137.285L140.216 98.688L142.951 125.264H147.837V138.747H152.527V150.863H162.297V165.127H169.918V175.875H173.826V187.991H177.539V200.106H181.447Z" fill="#004CA3"/>
<path d="M68.109 152.23L65.5687 138.16H58.3385L60.8789 152.23C63.3541 166.039 65.1779 179.978 66.3503 194.048H55.0166V176.461H22.5784V194.048H9.87677C11.1795 179.978 13.0033 166.039 15.3483 152.23L17.8886 138.16H10.8538L8.31348 152.23C3.0374 180.955 0.49707 209.876 0.49707 238.992V422.482H4.7961H7.72725H68.4999H72.0173H75.73V238.992C75.73 209.876 73.1897 180.955 68.109 152.23Z" fill="#004CA3"/>
<path d="M521.266 142.265V433.427H444.274V142.265L447.401 136.403V127.805L449.55 121.747L452.09 128.196H458.539V117.839L480.23 83.642V73.0898L481.793 69.3771L482.77 67.2275L483.552 69.3771L485.31 73.0898V83.642L506.805 117.839V128.196H513.254L515.794 121.747L517.944 127.805V136.403L521.266 142.265Z" fill="#004CA3"/>
<path d="M660.789 100.447H648.282V91.0668H638.316V72.5028H627.373V63.1232H621.316V36.5474H614.867H610.373H603.729V63.1232H597.867V72.5028H586.924V91.0668H576.958V100.447H564.451C564.451 100.447 563.474 415.839 564.451 415.839C565.428 415.839 607.637 415.839 612.327 415.839C612.327 415.839 612.457 415.839 612.718 415.839C617.407 415.839 659.812 415.839 660.789 415.839C661.766 415.839 660.789 100.447 660.789 100.447Z" fill="#004CA3"/>
<path d="M1200.9 263.223V238.992H1175.11V262.246H1157.72V285.891H1141.89V268.499H1124.69V278.856H1116.68V310.512H1093.43V278.856H1080.73V268.499H1064.31V285.891H1044.77V262.246H1027.38V238.992H1001.58V263.223H981.652V424.046H1090.69H1093.43H1109.06H1118.24H1213.8V263.223H1200.9Z" fill="#004CA3"/>
<path d="M1283.37 417.99H1333V281.593C1333 275.34 1331.24 269.282 1327.92 264.006L1316.78 246.224C1315.22 244.074 1313.07 242.316 1310.33 241.143V235.085H1297.04V240.948C1294.31 242.12 1291.77 243.879 1290.4 246.224L1279.07 264.006C1275.74 269.282 1273.99 275.34 1273.99 281.593V417.99C1277.11 417.859 1280.24 417.859 1283.37 417.99Z" fill="#004CA3"/>
<path d="M908.374 337.285V334.354H903.488V317.939H894.304V312.858H870.464H867.533H843.693V317.939H834.508V334.354H829.428V337.285H834.508V369.723H830.991V371.872H834.313V424.633H856.785V365.619C856.785 359.757 861.475 355.262 867.533 355.262H870.464C876.326 355.262 881.211 359.757 881.211 365.619V424.633H903.684V371.872H907.006V369.723H903.488V337.285H908.374Z" fill="#001836"/>
<path d="M428.25 334.744V425.024H359.857V334.744H364.351V318.916L367.478 321.652H371.386L377.444 306.41H410.663L416.721 321.652H420.629L423.756 318.916V334.744H428.25Z" fill="#001836"/>
<path d="M330.35 289.604V277.879L320.188 259.706H306.705H302.601H289.118L278.957 277.879V289.604H271.531V422.678H297.325H311.981H336.994V289.604H330.35Z" fill="#001836"/>
<path d="M264.692 341.583C264.692 341.583 259.025 341.388 256.68 341.388C254.53 341.388 248.864 341.583 248.864 341.583L238.898 349.79H240.852V422.483H256.485H257.071H272.704V349.79H274.658L264.692 341.583Z" fill="#001836"/>
<path d="M734.849 400.012C713.159 400.012 695.572 382.425 695.572 360.735C695.572 339.044 713.159 321.457 734.849 321.457C756.54 321.457 774.127 339.044 774.127 360.735C774.127 382.425 756.54 400.012 734.849 400.012ZM734.849 328.492C717.067 328.492 702.607 342.952 702.607 360.735C702.607 378.517 717.067 392.977 734.849 392.977C752.632 392.977 767.092 378.517 767.092 360.735C767.092 342.952 752.632 328.492 734.849 328.492Z" fill="white"/>
<path d="M736.608 397.666H733.091V324.387H736.608V397.666Z" fill="white"/>
<path d="M747.356 395.517L719.217 327.905L722.539 326.537L750.482 394.149L747.356 395.517Z" fill="white"/>
<path d="M759.471 388.286L707.687 336.307L710.228 333.962L762.011 385.746L759.471 388.286Z" fill="white"/>
<path d="M768.069 376.758L700.261 348.619L701.629 345.492L769.437 373.436L768.069 376.758Z" fill="white"/>
<path d="M771.586 362.883H698.307V359.366H771.586V362.883Z" fill="white"/>
<path d="M701.629 376.758L700.261 373.436L768.069 345.492L769.437 348.619L701.629 376.758Z" fill="white"/>
<path d="M710.228 388.286L707.687 385.746L759.471 333.962L762.011 336.307L710.228 388.286Z" fill="white"/>
<path d="M722.539 395.517L719.217 394.149L747.356 326.537L750.482 327.905L722.539 395.517Z" fill="white"/>
<path d="M736.608 397.666H733.091V324.387H736.608V397.666Z" fill="white"/>
<path d="M730.746 402.357C730.746 400.012 732.7 398.253 734.849 398.253C737.194 398.253 738.953 400.012 738.953 402.357C738.953 404.702 737.194 406.461 734.849 406.461C732.7 406.461 730.746 404.702 730.746 402.357Z" fill="white"/>
<path d="M712.963 396.299C713.94 394.345 716.285 393.368 718.435 394.54C720.389 395.517 721.366 397.862 720.389 400.012C719.412 401.966 716.871 402.943 714.917 401.966C712.768 400.793 711.986 398.448 712.963 396.299Z" fill="white"/>
<path d="M699.48 383.206C701.239 381.838 703.779 382.033 705.147 383.792C706.515 385.551 706.32 388.286 704.561 389.654C702.802 391.022 700.066 390.827 698.699 389.068C697.331 387.309 697.526 384.574 699.48 383.206Z" fill="white"/>
<path d="M692.836 365.423C695.181 365.033 697.33 366.401 697.917 368.55C698.307 370.895 696.94 373.044 694.79 373.435C692.641 374.022 690.296 372.654 689.905 370.504C689.319 368.159 690.686 366.01 692.836 365.423Z" fill="white"/>
<path d="M694.79 346.665C696.94 347.251 698.503 349.4 697.917 351.55C697.331 353.895 695.181 355.263 693.032 354.676C690.687 354.286 689.319 351.941 689.905 349.791C690.296 347.642 692.641 346.274 694.79 346.665Z" fill="white"/>
<path d="M704.561 330.641C706.319 332.009 706.71 334.549 705.342 336.308C703.779 338.262 701.239 338.457 699.48 337.089C697.721 335.721 697.33 332.986 698.894 331.227C700.262 329.468 702.802 329.273 704.561 330.641Z" fill="white"/>
<path d="M720.389 320.284C721.366 322.433 720.584 324.778 718.63 325.951C716.481 326.928 713.94 325.951 712.963 323.997C711.986 321.847 712.963 319.502 714.917 318.525C717.067 317.353 719.412 318.33 720.389 320.284Z" fill="white"/>
<path d="M739.148 317.939C739.148 320.284 737.39 322.043 735.045 322.043C732.7 322.043 730.941 320.284 730.941 317.939C730.941 315.79 732.7 313.835 735.045 313.835C737.39 313.835 739.148 315.79 739.148 317.939Z" fill="white"/>
<path d="M757.126 323.996C756.149 326.146 753.608 326.927 751.654 325.95C749.505 324.973 748.723 322.433 749.7 320.479C750.677 318.329 753.022 317.548 755.172 318.525C757.126 319.502 758.103 322.042 757.126 323.996Z" fill="white"/>
<path d="M770.609 337.09C768.851 338.654 766.31 338.263 764.747 336.504C763.379 334.746 763.574 332.205 765.529 330.642C767.287 329.274 769.828 329.665 771.195 331.424C772.563 333.182 772.368 335.723 770.609 337.09Z" fill="white"/>
<path d="M777.058 354.872C774.908 355.458 772.564 354.09 772.173 351.745C771.587 349.596 772.954 347.446 775.299 346.86C777.449 346.274 779.598 347.837 780.185 349.987C780.575 352.136 779.208 354.481 777.058 354.872Z" fill="white"/>
<path d="M775.104 373.632C772.954 373.241 771.586 370.896 772.173 368.746C772.563 366.597 774.713 365.034 777.058 365.62C779.207 366.206 780.575 368.356 780.184 370.505C779.598 372.85 777.449 374.218 775.104 373.632Z" fill="white"/>
<path d="M765.333 389.85C763.575 388.287 763.184 385.747 764.747 383.988C766.115 382.229 768.655 381.838 770.414 383.402C772.173 384.77 772.563 387.31 771.196 389.069C769.632 390.827 767.092 391.218 765.333 389.85Z" fill="white"/>
<path d="M749.505 400.011C748.528 398.057 749.31 395.517 751.459 394.54C753.413 393.563 755.954 394.345 756.931 396.494C757.908 398.448 757.126 400.988 754.977 401.965C753.022 402.943 750.482 402.161 749.505 400.011Z" fill="white"/>
<path d="M742.666 416.427H727.619V396.886H742.666V416.427Z" fill="#001836"/>
<path d="M1258.16 329.858L1260.7 338.065H1138.18L1143.45 321.846H1132.9L1100.85 424.046H1296.65L1267.15 329.858H1258.16Z" fill="#001836"/>
<path d="M1065.48 381.251V385.355H1062.16V416.816H963.48V385.355H959.962V381.251H970.905L983.607 377.538V371.09H992.987V373.044L1012.14 364.055L1012.72 363.859L1013.31 364.055L1052.98 381.251H1065.48Z" fill="#001836"/>
<path d="M618.971 382.229L606.465 376.171L598.257 380.08V377.539V376.367H598.844V374.999H598.257V373.631H576.371V374.999H575.785V376.367H576.371V377.539V380.275H574.026H573.831H573.049L571.877 379.493H572.072V373.045H571.682V370.505H568.36V366.792H569.337V366.206V365.815V364.447V364.252V363.861H568.164V363.665H567.578V352.527H568.164V351.159H568.36V349.791H568.555V348.423H568.75V347.446V347.055H569.141V346.469H567.773V345.883H566.015L566.601 344.906H565.233V344.515H564.842V340.216V339.63H565.233V339.239V338.262H564.061V337.676H564.451V337.48H564.061C563.67 332.986 560.934 328.491 557.417 325.365L555.072 323.215L554.876 323.02L554.485 322.629H554.681V321.261H553.704V321.066H553.508V320.48H553.313V319.503H553.508V318.916H551.945V315.985V315.594H552.336V315.008H552.727V314.617H552.531C552.531 313.054 551.75 311.882 550.773 311.1V310.709H550.968V310.123H550.577V309.732H549.405V307.973C549.405 307.843 549.34 307.713 549.209 307.583C549.209 307.583 549.209 307.517 549.209 307.387V306.996C549.209 306.801 549.209 306.605 549.014 306.605C548.819 306.605 548.623 306.801 548.623 306.996V307.387C548.623 307.387 548.623 307.452 548.623 307.583C548.493 307.713 548.428 307.843 548.428 307.973V309.732H547.255V310.123H546.864V310.709H547.06V311.1C546.083 311.882 545.301 313.054 545.301 314.617H544.91V315.008H545.497V315.594H545.887V315.985V318.916H544.324V319.503H544.52V320.48H544.324V321.066H543.933V321.261H542.956V322.629H543.542L542.956 323.02L542.761 323.215L540.416 325.365C536.898 328.491 534.163 332.986 533.772 337.48H533.381V337.676H533.772V338.262H532.404V339.239V339.63H532.99V340.216V344.515H532.404V344.906H531.232L532.013 345.883H530.059V346.469H528.691V347.055H529.082V347.446V348.423H529.473V349.791V351.159H529.864V352.527H530.45V363.665H529.864V363.861H529.278V364.252V364.447V365.815H528.887V366.792H529.864V370.505H526.542V373.045H525.76V379.493H525.956L524.783 380.275H524.001H521.657V377.539V376.367H522.047V374.999H521.657V373.631H499.575V374.999H499.184V376.367H499.575V377.539V380.08L491.563 376.171H491.368L479.057 382.229H478.666V384.379H479.252V385.16H480.816V386.528V406.851H480.034V408.219H480.816V409.587V421.311H489.609H490.977H491.368H492.736H496.253H497.426H498.012H499.38H500.943H501.529H502.897H503.679H505.047H505.633H507.001H508.955H510.323H510.714H512.081H514.231H515.403H515.99H517.357H519.312H520.679H521.266H522.438H524.783H524.978H525.174H528.105H528.496H528.691H530.45H530.841H534.163H537.289H537.485H539.634H542.956H543.933H544.715H545.106H547.06H550.382H550.968H551.359H551.75H553.704H557.026H558.003H558.394H558.785H560.348H563.67H566.015H566.405H568.555H568.946H569.532H572.463H572.854H573.049H574.417H575.394H576.762H577.348H578.521H580.67H582.038H582.429H583.797H585.947H587.119H587.705H589.073H591.027H592.395H592.981H594.154H596.303H596.499H597.085H598.453H599.821H600.407H601.775H605.097H606.465H607.051H608.419H611.35H612.718H613.109H614.476H617.212V408.219H617.994V406.851H617.212V385.16H618.775V384.379H619.362V382.229H618.971ZM529.864 365.815H529.668V364.447H529.864V365.815ZM545.887 320.675H545.106V319.503H545.887V320.675ZM552.922 320.675H552.141V319.503H552.922V320.675ZM568.75 364.642H569.141V366.01H568.75V364.642ZM568.164 364.642H568.555V366.01H568.164V364.642Z" fill="#001836"/>
<path d="M189.068 391.608V383.987H189.85V383.206H190.827V382.62H190.241V382.033V381.056V380.47H184.183L183.206 380.275L181.447 379.493H181.643L159.561 368.941L146.273 367.377L137.089 364.251L132.204 366.205L127.318 364.251L122.629 366.01L117.743 364.251L113.054 366.01L108.364 364.251L98.5932 367.377L85.6961 368.941L63.6147 379.493H63.8101L61.856 380.47H61.2698H55.2121V381.056V382.033V382.62H56.1891V383.206H57.1662V383.987H57.9478V391.608H53.4534V393.172V394.149V396.103V396.884V398.839V399.816V401.574V402.551V404.31V405.287V407.241V408.023V409.977V410.954V412.322V412.908V413.299V413.494H59.1203H59.7065H60.2927H61.4652H61.6606H62.0514H63.4193H64.0055H65.3734H65.7642H67.1321H67.7183H69.0862H69.477H70.8449H71.4311H72.0173H105.042H106.996H107.387H107.777H109.927H110.709H112.663H113.444H115.398H116.18H118.134H118.916H121.065H121.847H123.801H124.583H126.537H127.318H129.273H130.054H132.204H132.985H134.939H135.721H137.675H138.457H140.411H175.194H175.78H176.171H177.539H177.734H178.125H179.493H179.884H181.447H181.838H183.206H183.597H185.16H185.551H186.919H187.309H188.091H193.367V412.322V410.954V409.977V408.023V407.241V405.287V404.31V402.551V401.574V399.816V398.839V396.884V396.103V394.149V393.172V391.608H189.068Z" fill="#001836"/>
</g>
</svg>
