<svg width="32" height="32" viewBox="0 0 32 32" fill="none" xmlns="http://www.w3.org/2000/svg">
<path d="M6.66675 28V6.66667C6.66675 5.95942 6.9477 5.28115 7.4478 4.78105C7.94789 4.28095 8.62617 4 9.33341 4H22.6667C23.374 4 24.0523 4.28095 24.5524 4.78105C25.0525 5.28115 25.3334 5.95942 25.3334 6.66667V28L21.3334 25.3333L18.6667 28L16.0001 25.3333L13.3334 28L10.6667 25.3333L6.66675 28Z" stroke="white" strokeWidth="2" strokeLinecap="round" strokeLinejoin="round"/>
<path d="M18.6666 10.667H15.3333C14.8028 10.667 14.2941 10.8777 13.919 11.2528C13.544 11.6279 13.3333 12.1366 13.3333 12.667C13.3333 13.1974 13.544 13.7061 13.919 14.0812C14.2941 14.4563 14.8028 14.667 15.3333 14.667H16.6666C17.197 14.667 17.7057 14.8777 18.0808 15.2528C18.4559 15.6279 18.6666 16.1366 18.6666 16.667C18.6666 17.1974 18.4559 17.7061 18.0808 18.0812C17.7057 18.4563 17.197 18.667 16.6666 18.667H13.3333M15.9999 18.667V20.667M15.9999 8.66699V10.667" stroke="white" strokeWidth="2" strokeLinecap="round" strokeLinejoin="round"/>
</svg>
