<svg width="32" height="32" viewBox="0 0 32 32" fill="none" xmlns="http://www.w3.org/2000/svg">
<path d="M8 5.33301H6.66667C5.95942 5.33301 5.28115 5.61396 4.78105 6.11406C4.28095 6.61415 4 7.29243 4 7.99967V12.6663C4 14.6113 4.77262 16.4765 6.14788 17.8518C7.52315 19.2271 9.38841 19.9997 11.3333 19.9997C13.2783 19.9997 15.1435 19.2271 16.5188 17.8518C17.8941 16.4765 18.6667 14.6113 18.6667 12.6663V7.99967C18.6667 7.29243 18.3857 6.61415 17.8856 6.11406C17.3855 5.61396 16.7072 5.33301 16 5.33301H14.6667" stroke="white" strokeWidth="2" strokeLinecap="round" strokeLinejoin="round"/>
<path d="M10.6667 20C10.6667 21.0506 10.8737 22.0909 11.2757 23.0615C11.6777 24.0321 12.267 24.914 13.0099 25.6569C13.7528 26.3997 14.6347 26.989 15.6053 27.391C16.5759 27.7931 17.6162 28 18.6667 28C19.7173 28 20.7576 27.7931 21.7282 27.391C22.6988 26.989 23.5807 26.3997 24.3236 25.6569C25.0665 24.914 25.6557 24.0321 26.0578 23.0615C26.4598 22.0909 26.6667 21.0506 26.6667 20V16" stroke="white" strokeWidth="2" strokeLinecap="round" strokeLinejoin="round"/>
<path d="M14.6667 4V6.66667" stroke="white" strokeWidth="2" strokeLinecap="round" strokeLinejoin="round"/>
<path d="M8 4V6.66667" stroke="white" strokeWidth="2" strokeLinecap="round" strokeLinejoin="round"/>
<path d="M24 13.3337C24 14.0409 24.281 14.7192 24.781 15.2193C25.2811 15.7194 25.9594 16.0003 26.6667 16.0003C27.3739 16.0003 28.0522 15.7194 28.5523 15.2193C29.0524 14.7192 29.3333 14.0409 29.3333 13.3337C29.3333 12.6264 29.0524 11.9481 28.5523 11.448C28.0522 10.9479 27.3739 10.667 26.6667 10.667C25.9594 10.667 25.2811 10.9479 24.781 11.448C24.281 11.9481 24 12.6264 24 13.3337Z" stroke="white" strokeWidth="2" strokeLinecap="round" strokeLinejoin="round"/>
</svg>
