<svg width="32" height="32" viewBox="0 0 32 32" fill="none" xmlns="http://www.w3.org/2000/svg">
<path d="M13.7667 26.244C13.6817 25.8921 13.5148 25.5653 13.2795 25.2901C13.0442 25.015 12.7473 24.7994 12.4128 24.6608C12.0784 24.5223 11.7159 24.4647 11.355 24.4928C10.9941 24.5209 10.6449 24.634 10.336 24.8227C8.27867 26.076 5.92267 23.7213 7.176 21.6627C7.36414 21.3538 7.47673 21.0049 7.50465 20.6443C7.53256 20.2837 7.47499 19.9216 7.33663 19.5875C7.19827 19.2533 6.98301 18.9566 6.70836 18.7213C6.43371 18.486 6.10742 18.3188 5.756 18.2333C3.41467 17.6653 3.41467 14.3347 5.756 13.7667C6.10773 13.6814 6.43437 13.5144 6.70933 13.2791C6.98429 13.0437 7.19981 12.7468 7.33833 12.4125C7.47685 12.0781 7.53447 11.7158 7.50649 11.355C7.47852 10.9941 7.36574 10.645 7.17733 10.336C5.924 8.27867 8.27867 5.92267 10.3373 7.176C11.6707 7.98667 13.3987 7.26933 13.7667 5.756C14.3347 3.41467 17.6653 3.41467 18.2333 5.756C18.3186 6.10773 18.4856 6.43437 18.7209 6.70933C18.9563 6.98429 19.2532 7.19981 19.5875 7.33833C19.9219 7.47685 20.2842 7.53447 20.645 7.50649C21.0059 7.47852 21.355 7.36574 21.664 7.17733C23.7213 5.924 26.0773 8.27867 24.824 10.3373C24.6359 10.6462 24.5233 10.9951 24.4954 11.3557C24.4674 11.7163 24.525 12.0784 24.6634 12.4125C24.8017 12.7467 25.017 13.0434 25.2916 13.2787C25.5663 13.514 25.8926 13.6812 26.244 13.7667C26.5547 13.8353 26.8471 13.9697 27.1015 14.1608C27.3558 14.3519 27.5663 14.5953 27.7187 14.8747" stroke="white" strokeWidth="2" strokeLinecap="round" strokeLinejoin="round"/>
<path d="M19.8533 14.9267C19.6786 14.2984 19.353 13.7222 18.9048 13.2485C18.4566 12.7747 17.8994 12.4177 17.2817 12.2085C16.664 11.9993 16.0045 11.9443 15.3607 12.0482C14.7169 12.1521 14.1082 12.4118 13.5876 12.8047C13.0671 13.1975 12.6505 13.7117 12.374 14.3024C12.0976 14.8931 11.9698 15.5424 12.0016 16.1938C12.0334 16.8452 12.224 17.4789 12.5567 18.0398C12.8895 18.6007 13.3543 19.0718 13.9106 19.412" stroke="white" strokeWidth="2" strokeLinecap="round" strokeLinejoin="round"/>
<path d="M23.7334 27.756L20.8374 29.2733C20.7515 29.318 20.6548 29.338 20.5582 29.331C20.4615 29.3239 20.3688 29.2902 20.2902 29.2335C20.2116 29.1768 20.1504 29.0993 20.1133 29.0098C20.0762 28.9203 20.0647 28.8223 20.0801 28.7266L20.6334 25.512L18.2907 23.236C18.2208 23.1684 18.1713 23.0825 18.1479 22.9881C18.1244 22.8937 18.128 22.7946 18.1582 22.7022C18.1883 22.6097 18.2439 22.5276 18.3185 22.4652C18.3931 22.4028 18.4837 22.3626 18.5801 22.3493L21.8174 21.88L23.2654 18.956C23.3087 18.8689 23.3755 18.7956 23.4581 18.7444C23.5408 18.6932 23.6361 18.666 23.7334 18.666C23.8307 18.666 23.926 18.6932 24.0087 18.7444C24.0914 18.7956 24.1581 18.8689 24.2014 18.956L25.6494 21.88L28.8867 22.3493C28.9828 22.3631 29.0731 22.4035 29.1473 22.466C29.2216 22.5284 29.2769 22.6104 29.307 22.7027C29.3371 22.7949 29.3408 22.8938 29.3177 22.988C29.2945 23.0823 29.2455 23.1682 29.1761 23.236L26.8334 25.512L27.3854 28.7253C27.402 28.8211 27.3913 28.9197 27.3547 29.0098C27.3181 29.0998 27.2569 29.1778 27.1782 29.2349C27.0995 29.292 27.0063 29.3258 26.9093 29.3326C26.8123 29.3394 26.7153 29.3189 26.6294 29.2733L23.7334 27.756Z" stroke="white" strokeWidth="2" strokeLinecap="round" strokeLinejoin="round"/>
</svg>
