<svg width="32" height="32" viewBox="0 0 32 32" fill="none" xmlns="http://www.w3.org/2000/svg">
<path d="M22.6666 10.6663V6.66634C22.6666 6.31272 22.5261 5.97358 22.2761 5.72353C22.026 5.47348 21.6869 5.33301 21.3333 5.33301H7.99992C7.29267 5.33301 6.6144 5.61396 6.1143 6.11406C5.6142 6.61415 5.33325 7.29243 5.33325 7.99967M5.33325 7.99967C5.33325 8.70692 5.6142 9.3852 6.1143 9.88529C6.6144 10.3854 7.29267 10.6663 7.99992 10.6663H23.9999C24.3535 10.6663 24.6927 10.8068 24.9427 11.0569C25.1928 11.3069 25.3333 11.6461 25.3333 11.9997V15.9997M5.33325 7.99967V23.9997C5.33325 24.7069 5.6142 25.3852 6.1143 25.8853C6.6144 26.3854 7.29267 26.6663 7.99992 26.6663H23.9999C24.3535 26.6663 24.6927 26.5259 24.9427 26.2758C25.1928 26.0258 25.3333 25.6866 25.3333 25.333V21.333" stroke="white" strokeWidth="2" strokeLinecap="round" strokeLinejoin="round"/>
<path d="M26.6667 16V21.3333H21.3334C20.6262 21.3333 19.9479 21.0524 19.4478 20.5523C18.9477 20.0522 18.6667 19.3739 18.6667 18.6667C18.6667 17.9594 18.9477 17.2811 19.4478 16.781C19.9479 16.281 20.6262 16 21.3334 16H26.6667Z" stroke="white" strokeWidth="2" strokeLinecap="round" strokeLinejoin="round"/>
</svg>
