<svg width="32" height="32" viewBox="0 0 32 32" fill="none" xmlns="http://www.w3.org/2000/svg">
<path d="M12.0001 6.66699H9.33341C8.62617 6.66699 7.94789 6.94794 7.4478 7.44804C6.9477 7.94814 6.66675 8.62641 6.66675 9.33366V25.3337C6.66675 26.0409 6.9477 26.7192 7.4478 27.2193C7.94789 27.7194 8.62617 28.0003 9.33341 28.0003H22.6667C23.374 28.0003 24.0523 27.7194 24.5524 27.2193C25.0525 26.7192 25.3334 26.0409 25.3334 25.3337V9.33366C25.3334 8.62641 25.0525 7.94814 24.5524 7.44804C24.0523 6.94794 23.374 6.66699 22.6667 6.66699H20.0001" stroke="white" strokeWidth="2" strokeLinecap="round" strokeLinejoin="round"/>
<path d="M12 6.66667C12 5.95942 12.281 5.28115 12.781 4.78105C13.2811 4.28095 13.9594 4 14.6667 4H17.3333C18.0406 4 18.7189 4.28095 19.219 4.78105C19.719 5.28115 20 5.95942 20 6.66667C20 7.37391 19.719 8.05219 19.219 8.55229C18.7189 9.05238 18.0406 9.33333 17.3333 9.33333H14.6667C13.9594 9.33333 13.2811 9.05238 12.781 8.55229C12.281 8.05219 12 7.37391 12 6.66667Z" stroke="white" strokeWidth="2" strokeLinecap="round" strokeLinejoin="round"/>
<path d="M18.6666 14.667H15.3333C14.8028 14.667 14.2941 14.8777 13.919 15.2528C13.544 15.6279 13.3333 16.1366 13.3333 16.667C13.3333 17.1974 13.544 17.7061 13.919 18.0812C14.2941 18.4563 14.8028 18.667 15.3333 18.667H16.6666C17.197 18.667 17.7057 18.8777 18.0808 19.2528C18.4559 19.6279 18.6666 20.1366 18.6666 20.667C18.6666 21.1974 18.4559 21.7061 18.0808 22.0812C17.7057 22.4563 17.197 22.667 16.6666 22.667H13.3333" stroke="white" strokeWidth="2" strokeLinecap="round" strokeLinejoin="round"/>
<path d="M16 22.6663V23.9997M16 13.333V14.6663" stroke="white" strokeWidth="2" strokeLinecap="round" strokeLinejoin="round"/>
</svg>
