<svg width="51" height="92" viewBox="0 0 51 92" fill="none" xmlns="http://www.w3.org/2000/svg">
<path d="M34.5459 59.5749L34.0176 60.9788L34.0255 60.9818L34.0333 60.9846L34.5459 59.5749ZM43.5119 91.6821C44.3402 91.6749 45.0059 90.9975 44.9987 90.1691L44.8811 76.6696C44.8738 75.8412 44.1964 75.1755 43.368 75.1828C42.5396 75.19 41.8739 75.8674 41.8812 76.6958L41.9858 88.6953L29.9862 88.7999C29.1578 88.8071 28.4921 89.4845 28.4993 90.3129C28.5066 91.1413 29.184 91.807 30.0124 91.7998L43.5119 91.6821ZM4.737 1.90482C4.85813 1.0853 4.29197 0.322753 3.47244 0.201624C2.65292 0.0804948 1.89037 0.646659 1.76924 1.46619L4.737 1.90482ZM34.5459 59.5749L34.0333 60.9846C38.6591 62.6665 42.5952 62.4301 45.5367 60.6588C48.467 58.8941 50.1148 55.7823 50.5279 52.3243C51.3519 45.4268 47.3708 36.7666 38.1384 32.2299L37.4768 33.5762L36.8153 34.9224C44.9927 38.9407 48.2107 46.4302 47.5491 51.9685C47.2194 54.7284 45.9531 56.906 43.989 58.0888C42.0361 59.2648 39.0973 59.6337 35.0585 58.1652L34.5459 59.5749ZM37.4768 33.5762L38.1384 32.2299C33.4387 29.9206 28.5646 29.7901 24.6064 31.7782C20.6325 33.7741 17.8185 37.7867 17.0256 43.2747C15.4532 54.1584 21.7423 70.9048 42.4474 91.2521L43.4988 90.1822L44.5502 89.1123C24.0581 68.9744 18.6314 53.1404 19.9948 43.7037C20.6698 39.0315 22.9867 35.9488 25.9529 34.459C28.9348 32.9613 32.8101 32.9543 36.8153 34.9224L37.4768 33.5762ZM34.5459 59.5749L35.0742 58.171C29.0933 55.9205 20.0555 51.8602 13.2411 43.4216C6.47153 35.0386 1.74573 22.1433 4.737 1.90482L3.25312 1.6855L1.76924 1.46619C-1.32623 22.4096 3.53712 36.1798 10.907 45.3064C18.2321 54.3773 27.884 58.6708 34.0176 60.9788L34.5459 59.5749Z" fill="#FFBB00"/>
</svg>
