<svg width="352" height="406" viewBox="0 0 352 406" fill="none" xmlns="http://www.w3.org/2000/svg">
<path d="M327.746 316.863L315.175 316.055L290.781 309.337L273.107 288.253L260.661 257.465L252.073 231.156L240.436 196.885L225.501 162.18L232.222 118.828L244.046 90.7154L261.657 61.6073L272.298 49.1058L206.521 62.9135L126.803 99.4852L77.8903 75.726M77.8903 75.726L142.672 23.2319L94.3813 13.4048L85.109 44.0056L77.8903 75.726ZM77.8903 75.726L74.5298 114.786L76.4589 154.778L80.1928 190.355L89.9007 226.802L107.574 252.241L135.205 281.846L172.854 318.791L215.918 333.905L239.627 343.67" stroke="white" stroke-linecap="round" stroke-linejoin="round"/>
<path d="M21.945 168.026L76.4589 154.778L134.52 143.023M134.52 143.023L191.71 161.869L225.501 162.18L266.573 118.642L290.159 102.409L300.924 95.0072L261.657 61.6076L206.521 62.9137L155.181 0.530273L142.672 23.2321L132.591 57.627L126.803 99.4854L134.52 143.023ZM134.52 143.023L152.754 169.519L162.835 187.183L178.206 195.455L173.787 213.803L180.944 235.634L182.313 262.13L204.654 293.042L218.718 314.749L237.449 331.604L239.627 343.67L254.874 348.273" stroke="white" stroke-linecap="round" stroke-linejoin="round"/>
<path d="M17.8378 152.539L30.4706 100.169L46.4017 76.0992L85.109 44.0057L142.672 23.2319L215.918 33.059L261.657 61.6074L290.159 102.408L295.448 132.574L280.077 149.243L285.865 150.051L285.242 157.701L275.908 171.26L293.021 184.881L301.733 196.015L307.272 214.301L311.193 232.151L313.868 247.016L322.27 254.293M322.27 254.293L329.799 259.082L298.933 268.847M322.27 254.293L314.366 259.455L298.933 268.847M322.27 254.293L331.417 248.82M298.933 268.847L332.226 279.918L325.692 280.105L318.1 278.674L309.948 275.875L298.933 268.847Z" stroke="white" stroke-linecap="round" stroke-linejoin="round"/>
<path d="M74.5298 114.786L126.803 99.4855L192.457 105.892L232.222 118.829L266.573 118.642L295.448 132.574L300.924 95.0073L306.587 135.684L303.725 154.405L309.077 172.131L316.855 185.131L324.261 193.154L334.965 201.239L351.269 206.215L333.533 215.172L325.941 217.97L315.051 222.635L316.918 230.596L311.192 232.151L304.036 242.103L287.047 258.087L273.107 288.253L253.443 299.448L218.718 314.749L215.917 333.905L210.628 360.961L210.379 405.121" stroke="white" stroke-linecap="round" stroke-linejoin="round"/>
<path d="M191.71 161.869L174.534 174.495L178.206 195.455" stroke="white" stroke-linecap="round" stroke-linejoin="round"/>
<path d="M1.34679 216.664L80.1928 190.355L152.754 169.519L174.534 174.495L162.835 187.183L147.713 190.542L132.84 197.321L130.351 210.756L131.72 228.295L141.863 240.175L154.683 249.504L171.174 256.657" stroke="white" stroke-linecap="round" stroke-linejoin="round"/>
<path d="M308.081 153.846L303.725 154.405L275.908 171.261L267.445 170.328L259.479 168.213L247.282 166.969" stroke="white" stroke-linecap="round" stroke-linejoin="round"/>
<path d="M317.976 170.514L309.077 172.131L275.908 171.261" stroke="white" stroke-linecap="round" stroke-linejoin="round"/>
<path d="M338.387 195.766L334.965 201.239L328.804 207.707L323.514 213.803L315.362 215.233L307.272 214.3L300.053 222.324L280.077 226.802L252.073 231.156L215.42 239.801L182.313 262.13L135.205 281.846L121.949 244.217M121.949 244.217L141.863 240.174L145.473 224.687L130.351 210.755L121.949 244.217ZM121.949 244.217L107.574 252.24L117.593 219.711" stroke="white" stroke-linecap="round" stroke-linejoin="round"/>
<path d="M329.862 223.63L325.941 217.97L323.514 213.803L317.913 201.675L301.733 196.015L296.382 209.76L294.39 198.378L278.273 193.154L257.985 182.083L247.282 166.969L275.037 141.344L295.448 132.574L310.881 136.866" stroke="white" stroke-linecap="round" stroke-linejoin="round"/>
<path d="M350.958 221.205L338.201 230.472" stroke="white" stroke-linecap="round" stroke-linejoin="round"/>
<path d="M30.4707 100.17L77.8904 75.7262L132.591 57.627L206.521 62.9137L244.046 90.7157L266.573 118.642L275.037 141.344L276.53 149.865M276.53 149.865L280.077 149.243L285.242 157.702L267.445 170.328L284.682 178.227L283.749 185.877L261.408 175.49L259.479 168.213L276.53 149.865Z" stroke="white" stroke-linecap="round" stroke-linejoin="round"/>
<path d="M283.749 185.877L294.39 198.379L293.021 184.882L278.273 193.154L240.436 196.886" stroke="white" stroke-linecap="round" stroke-linejoin="round"/>
<path d="M252.073 231.156L205.276 201.675" stroke="white" stroke-linecap="round" stroke-linejoin="round"/>
<path d="M322.643 180.528L316.855 185.13L317.913 201.675L328.804 207.708L333.533 215.171L334.902 223.07L338.201 230.472L323.203 234.328" stroke="white" stroke-linecap="round" stroke-linejoin="round"/>
<path d="M296.382 209.76L300.053 222.324L260.661 257.465L287.047 258.087" stroke="white" stroke-linecap="round" stroke-linejoin="round"/>
<path d="M306.214 253.485L304.036 242.103L300.053 222.324L287.047 258.087L293.395 268.225L298.933 268.847L324.883 268.536L318.1 278.675" stroke="white" stroke-linecap="round" stroke-linejoin="round"/>
<path d="M325.692 280.105L318.411 297.271L309.761 296.463L299.12 294.286L286.674 286.262L293.395 268.225L306.214 253.485L313.868 247.016L321.71 243.906" stroke="white" stroke-linecap="round" stroke-linejoin="round"/>
<path d="M315.175 316.055L279.953 325.197L290.781 309.337L309.761 296.463L318.1 278.674L299.12 294.286L273.107 288.253L233.28 274.756L182.313 262.13L172.854 318.791L210.628 360.961" stroke="white" stroke-linecap="round" stroke-linejoin="round"/>
<path d="M279.953 325.198L239.627 343.67L309.699 337.886L315.175 316.055L318.411 297.271" stroke="white" stroke-linecap="round" stroke-linejoin="round"/>
<path d="M309.948 275.875L286.674 286.262L290.781 309.337L253.443 299.448L237.449 331.603L215.918 333.905" stroke="white" stroke-linecap="round" stroke-linejoin="round"/>
<path d="M315.175 316.055L319.469 340.312L309.699 337.886L279.953 325.198L253.443 299.448L233.28 274.756L215.42 239.801L205.276 201.675L191.71 161.869L192.457 105.892L206.521 62.9137L215.918 33.0593L224.256 13.9648L244.046 90.7157" stroke="white" stroke-linecap="round" stroke-linejoin="round"/>
<path d="M237.449 331.604L279.953 325.197L204.654 293.042" stroke="white" stroke-linecap="round" stroke-linejoin="round"/>
<path d="M276.53 149.865L267.444 170.328L278.273 193.154L252.073 231.156L294.39 198.379L301.733 196.015L309.077 172.132L317.913 201.675L307.272 214.301" stroke="white" stroke-linecap="round" stroke-linejoin="round"/>
<path d="M175.032 208.579L165.2 200.68L158.977 213.617L145.473 224.688L156.736 235.883L180.944 235.634" stroke="white" stroke-linecap="round" stroke-linejoin="round"/>
<path d="M162.835 187.183L165.2 200.68L132.84 197.321L158.977 213.617L156.736 235.883" stroke="white" stroke-linecap="round" stroke-linejoin="round"/>
<path d="M119.087 198.938L80.1927 190.355L135.018 179.222" stroke="white" stroke-linecap="round" stroke-linejoin="round"/>
<path d="M16.6554 325.135L107.574 252.241" stroke="white" stroke-linecap="round" stroke-linejoin="round"/>
<path d="M165.324 269.221L156.736 235.883L132.84 197.321L152.754 169.519L135.018 179.222L119.087 198.938L117.593 219.712L121.95 244.218L140.37 257.092L165.324 269.221ZM165.324 269.221L180.944 235.634L205.276 201.675L240.436 196.886L257.985 182.083L261.408 175.49L267.445 170.328L285.865 150.052L306.588 135.684L308.081 153.846L309.077 172.131L293.021 184.882" stroke="white" stroke-linecap="round" stroke-linejoin="round"/>
<path d="M76.4589 154.778L152.753 169.519L191.71 161.869L126.803 99.4854" stroke="white" stroke-linecap="round" stroke-linejoin="round"/>
<path d="M215.918 33.0592L272.298 49.106M272.298 49.106L155.181 0.530273M272.298 49.106L224.257 13.9648L155.181 0.530273M272.298 49.106L300.925 95.0072L310.881 136.866L308.081 153.845L317.976 170.514L322.643 180.528L327.933 186.81L338.387 195.766L351.269 206.215L350.958 221.205L329.862 223.63L316.918 230.596L323.203 234.328L321.71 243.906L331.417 248.82L329.8 259.082L324.883 268.536L332.226 279.918L329.239 289.248L318.411 297.271L327.746 316.863L319.469 340.311L284.807 346.407L254.874 348.273L240.561 378.189L237.947 400.642M155.181 0.530273L85.1091 44.0058L33.7067 51.967L94.3815 13.405L155.181 0.530273Z" stroke="white" stroke-linecap="round" stroke-linejoin="round"/>
<path d="M272.298 49.1055L290.159 102.408L244.046 90.7151L192.457 105.891L225.501 162.179M225.501 162.179L178.206 195.455L205.276 201.674L225.501 162.179ZM225.501 162.179L247.282 166.968L232.222 118.828" stroke="white" stroke-linecap="round" stroke-linejoin="round"/>
<path d="M224.256 13.9648L142.672 23.2322" stroke="white" stroke-linecap="round" stroke-linejoin="round"/>
<path d="M132.591 57.6267L94.3814 13.4048" stroke="white" stroke-linecap="round" stroke-linejoin="round"/>
<path d="M338.387 195.766L316.855 185.13L317.976 170.514" stroke="white" stroke-linecap="round" stroke-linejoin="round"/>
<path d="M351.269 206.215L334.902 223.07L323.203 234.328L329.862 223.63L315.051 222.635L309.139 224.874L302.356 229.787L283.624 242.787L260.661 257.465L233.28 274.756L204.654 293.042L172.854 318.791L170.116 354.243L160.843 401.451" stroke="white" stroke-linecap="round" stroke-linejoin="round"/>
<path d="M315.362 215.233L315.051 222.635" stroke="white" stroke-linecap="round" stroke-linejoin="round"/>
<path d="M316.918 230.596L313.868 247.016L298.933 268.847L287.047 258.087L252.074 231.156L233.28 274.756L180.944 235.634L140.37 257.092L173.787 213.803M173.787 213.803L135.018 179.222L132.84 197.321L119.087 198.938L130.351 210.755L117.593 219.712L89.9007 226.802L131.72 228.295L158.977 213.617L173.787 213.803Z" stroke="white" stroke-linecap="round" stroke-linejoin="round"/>
<path d="M287.047 258.087L306.214 253.484L322.27 254.293" stroke="white" stroke-linecap="round" stroke-linejoin="round"/>
</svg>
