<svg width="50" height="92" viewBox="0 0 50 92" fill="none" xmlns="http://www.w3.org/2000/svg">
<path d="M16.116 59.5749L16.6442 60.9788L16.6364 60.9818L16.6285 60.9846L16.116 59.5749ZM7.15001 91.6821C6.32162 91.6749 5.65592 90.9975 5.66315 90.1691L5.78081 76.6696C5.78803 75.8412 6.46543 75.1755 7.29383 75.1828C8.12222 75.19 8.78792 75.8674 8.7807 76.6958L8.67611 88.6953L20.6756 88.7999C21.504 88.8071 22.1697 89.4845 22.1625 90.3129C22.1553 91.1413 21.4779 91.807 20.6495 91.7998L7.15001 91.6821ZM45.9249 1.90482C45.8037 1.0853 46.3699 0.322753 47.1894 0.201624C48.0089 0.0804948 48.7715 0.646659 48.8926 1.46619L45.9249 1.90482ZM16.116 59.5749L16.6285 60.9846C12.0028 62.6665 8.0667 62.4301 5.1252 60.6588C2.19482 58.8941 0.547076 55.7823 0.133972 52.3243C-0.690035 45.4268 3.29111 36.7666 12.5235 32.2299L13.185 33.5762L13.8465 34.9224C5.66914 38.9407 2.45117 46.4302 3.11279 51.9685C3.4425 54.7284 4.70876 56.906 6.67282 58.0888C8.62576 59.2648 11.5645 59.6337 15.6034 58.1652L16.116 59.5749ZM13.185 33.5762L12.5235 32.2299C17.2232 29.9206 22.0972 29.7901 26.0555 31.7782C30.0293 33.7741 32.8433 37.7867 33.6362 43.2747C35.2087 54.1584 28.9195 70.9048 8.21446 91.2521L7.16309 90.1822L6.11171 89.1123C26.6038 68.9744 32.0305 53.1404 30.6671 43.7037C29.992 39.0315 27.6752 35.9488 24.7089 34.459C21.7271 32.9613 17.8518 32.9543 13.8465 34.9224L13.185 33.5762ZM16.116 59.5749L15.5877 58.171C21.5686 55.9205 30.6064 51.8602 37.4208 43.4216C44.1903 35.0386 48.9161 22.1433 45.9249 1.90482L47.4087 1.6855L48.8926 1.46619C51.9881 22.4096 47.1247 36.1798 39.7548 45.3064C32.4298 54.3773 22.7778 58.6708 16.6442 60.9788L16.116 59.5749Z" fill="#FFBB00"/>
</svg>
