<svg width="720" height="960" viewBox="0 0 720 960" fill="none" xmlns="http://www.w3.org/2000/svg">
<rect width="720" height="960" fill="#F6FBFF"/>
<path d="M220 537.699C220 537.41 220.124 537.136 220.341 536.946L497.341 294.452C497.988 293.886 499 294.345 499 295.204V422.301C499 422.59 498.876 422.864 498.659 423.054L221.659 665.548C221.012 666.114 220 665.655 220 664.796V537.699Z" fill="#4C96D7"/>
<path d="M42 537.699C42 537.41 42.1244 537.136 42.3413 536.946L319.341 294.452C319.988 293.886 321 294.345 321 295.204V422.301C321 422.59 320.876 422.864 320.659 423.054L43.6587 665.548C43.0121 666.114 42 665.655 42 664.796V537.699Z" fill="#8DCAFF"/>
<path d="M399 537.697C399 537.41 399.124 537.136 399.34 536.946L675.34 294.458C675.986 293.891 677 294.35 677 295.21V422.303C677 422.59 676.876 422.864 676.66 423.054L400.66 665.542C400.014 666.109 399 665.65 399 664.79V537.697Z" fill="#1761A0"/>
<g opacity="0.17">
<path d="M664.476 806.133L816.452 663.585H763.092L611.041 806.133H664.476Z" fill="#4883B2"/>
<path d="M530.137 1034.38L766.844 812.395H713.483L476.702 1034.38H530.137Z" fill="#57A0CF"/>
<path d="M527.435 965.636L616.369 882.261H562.934L474 965.636H527.435Z" fill="#4883B2"/>
<path d="M689.543 993.428L890 805.499H836.565L636.107 993.428H689.543Z" fill="#4883B2"/>
<path fill-rule="evenodd" clip-rule="evenodd" d="M517.228 1080.18H500.042L735.173 859.676H752.434L517.228 1080.18ZM501.618 1079.55H516.928L750.708 860.379H735.398L501.618 1079.55Z" fill="#81ECED"/>
<path fill-rule="evenodd" clip-rule="evenodd" d="M672.056 830.336H620.497L627.552 823.792H679.036L672.056 830.336ZM622.223 829.703H671.831L677.46 824.355H627.852L622.223 829.703Z" fill="#81ECED"/>
<path fill-rule="evenodd" clip-rule="evenodd" d="M684.739 818.515H633.18L640.159 811.901H691.718L684.739 818.515ZM634.831 817.882H684.439L690.067 812.605H640.459L634.831 817.882Z" fill="#81ECED"/>
<path fill-rule="evenodd" clip-rule="evenodd" d="M709.956 794.805H658.472L665.451 788.191H717.01L709.956 794.805ZM660.048 794.172H709.656L715.284 788.895H665.677L660.048 794.172Z" fill="#81ECED"/>
<path fill-rule="evenodd" clip-rule="evenodd" d="M634.156 865.867H582.597L589.651 859.324H641.135L634.156 865.867ZM584.323 865.234H633.856L639.484 859.957H589.952L584.323 865.234Z" fill="#81ECED"/>
<path fill-rule="evenodd" clip-rule="evenodd" d="M659.448 842.156H607.889L614.868 835.613H666.427L659.448 842.156ZM609.54 841.523H659.147L664.776 836.246H615.243L609.54 841.523Z" fill="#81ECED"/>
<path fill-rule="evenodd" clip-rule="evenodd" d="M646.764 854.046H595.28L602.26 847.503H653.819L646.764 854.046ZM596.856 853.343H646.464L652.093 848.066H602.485L596.856 853.343Z" fill="#81ECED"/>
<path fill-rule="evenodd" clip-rule="evenodd" d="M697.348 806.625H645.789L652.844 800.082H704.328L697.348 806.625ZM647.515 805.992H697.123L702.752 800.715H653.144L647.515 805.992Z" fill="#81ECED"/>
<path fill-rule="evenodd" clip-rule="evenodd" d="M760.539 747.382H709.055L716.034 740.838H767.518L760.539 747.382ZM710.706 746.678H760.314L765.942 741.401H716.335L710.706 746.678Z" fill="#81ECED"/>
<path fill-rule="evenodd" clip-rule="evenodd" d="M735.248 771.093H683.764L690.743 764.479H742.302L735.248 771.093ZM685.34 770.46H734.947L740.576 765.183H690.968L685.34 770.46Z" fill="#81ECED"/>
<path fill-rule="evenodd" clip-rule="evenodd" d="M722.639 782.913H671.08L678.135 776.37H729.619L722.639 782.913ZM672.806 782.28H722.339L728.043 777.003H678.435L672.806 782.28Z" fill="#81ECED"/>
<path fill-rule="evenodd" clip-rule="evenodd" d="M747.93 759.203H696.371L703.351 752.66H754.91L747.93 759.203ZM698.022 758.57H747.63L753.259 753.293H703.726L698.022 758.57Z" fill="#81ECED"/>
<path d="M571.64 1063.5L753.26 893.236H733.597L551.977 1063.5H571.64Z" fill="#57A0CF"/>
<path d="M588.075 831.884L716.935 711.148H697.272L568.412 831.884H588.075Z" fill="#57A0CF"/>
<path d="M577.043 957.897L576.593 957.475L848.948 702.142L849.398 702.564L577.043 957.897Z" fill="#81ECED"/>
<path d="M621.623 750.901L621.098 750.408L737.875 641L738.325 641.422L621.623 750.901Z" fill="#81ECED"/>
</g>
<g opacity="0.17">
<path d="M35.4664 91.875L176.58 -40.4608H144.769L3.61078 91.875H35.4664Z" fill="#57A0CF"/>
<path d="M33.8556 50.8946L86.8739 1.19006H55.0182L2 50.8946H33.8556Z" fill="#4883B2"/>
<path d="M130.497 67.463L250 -44.5715H218.144L98.6409 67.463H130.497Z" fill="#4883B2"/>
<path fill-rule="evenodd" clip-rule="evenodd" d="M27.7708 119.181H17.5251L157.699 -12.2742H167.989L27.7708 119.181ZM18.4646 118.803H27.5918L166.96 -11.8547H157.833L18.4646 118.803Z" fill="#81ECED"/>
<path fill-rule="evenodd" clip-rule="evenodd" d="M212.372 9.07579H181.68L185.841 5.17493H216.578L212.372 9.07579ZM182.619 8.69829H212.193L215.549 5.55243H185.975L182.619 8.69829Z" fill="#81ECED"/>
<path fill-rule="evenodd" clip-rule="evenodd" d="M219.934 2.02856H189.196L193.357 -1.87231H224.094L219.934 2.02856ZM190.181 1.60911H219.755L223.11 -1.53675H193.536L190.181 1.60911Z" fill="#81ECED"/>
<path fill-rule="evenodd" clip-rule="evenodd" d="M189.778 30.3H159.041L163.247 26.3572H193.939L189.778 30.3ZM160.07 29.9225H189.599L193 26.7766H163.426L160.07 29.9225Z" fill="#81ECED"/>
<path fill-rule="evenodd" clip-rule="evenodd" d="M204.856 16.164H174.118L178.279 12.2212H209.016L204.856 16.164ZM175.103 15.7865H204.677L208.032 12.6406H178.503L175.103 15.7865Z" fill="#81ECED"/>
<path fill-rule="evenodd" clip-rule="evenodd" d="M197.295 23.2108H166.602L170.763 19.3099H201.501L197.295 23.2108ZM167.542 22.8333H197.116L200.471 19.6874H170.898L167.542 22.8333Z" fill="#81ECED"/>
<path d="M60.2082 109.239L168.482 7.73291H156.759L48.486 109.239H60.2082Z" fill="#57A0CF"/>
<path d="M63.4294 46.2807L63.161 46.029L225.527 -106.189L225.795 -105.937L63.4294 46.2807Z" fill="#81ECED"/>
</g>
</svg>
