<svg width="64" height="64" viewBox="0 0 64 64" fill="none" xmlns="http://www.w3.org/2000/svg">
<path d="M45.2581 27.8064C45.2581 20.6802 39.4811 14.9032 32.3549 14.9032C25.2286 14.9032 19.4517 20.6802 19.4517 27.8064" stroke="white" stroke-width="2"/>
<path d="M7.83868 33.6129L7.66056 33.4348C6.53534 32.3096 5.9032 30.7834 5.9032 29.1921V27.4839C5.9032 26.2655 6.47685 25.1181 7.45159 24.3871V24.3871C8.12164 23.8846 8.9366 23.6129 9.77417 23.6129H9.84012C11.3813 23.6129 12.7902 22.7422 13.4794 21.3637L13.6398 21.0428C14.4136 19.4954 14.1103 17.6264 12.8869 16.4031V16.4031C12.1331 15.6493 11.7096 14.6269 11.7096 13.5609V13.505C11.7096 12.3405 12.1984 11.2294 13.0568 10.4425L14.3138 9.29024C15.1286 8.54336 16.1938 8.12903 17.2991 8.12903H17.5449C18.5592 8.12903 19.5319 8.53195 20.2491 9.24914V9.24914C21.3309 10.3309 22.9757 10.6549 24.3961 10.0867V10.0867C25.8766 9.49452 26.8709 8.0512 26.8709 6.45666V6.06777C26.8709 4.91773 27.3674 3.82367 28.2329 3.06637V3.06637C29.0144 2.38257 30.0317 2.03053 31.0687 2.08511L34.2661 2.2534C35.1124 2.29794 35.9122 2.65414 36.5114 3.25336V3.25336C37.1547 3.89666 37.5161 4.76917 37.5161 5.67893V6.47878C37.5161 8.06701 38.4626 9.50242 39.9224 10.1281V10.1281C41.2277 10.6875 42.7324 10.5071 43.8686 9.65501L44.8676 8.90577C45.5398 8.40158 46.3574 8.12903 47.1978 8.12903V8.12903C48.2278 8.12903 49.2156 8.5382 49.9439 9.26653L51.9649 11.2875C52.8072 12.1298 53.1458 13.3522 52.8569 14.5078V14.5078C52.7386 14.9809 52.5197 15.4229 52.2151 15.8037L51.6482 16.5123C50.6861 17.7149 50.428 19.335 50.9688 20.777L51.038 20.9616C51.636 22.5564 53.1606 23.6129 54.8638 23.6129H54.9355C55.773 23.6129 56.588 23.8846 57.258 24.3871V24.3871C58.2328 25.1181 58.8064 26.2655 58.8064 27.4839V29.1921C58.8064 30.7834 58.1743 32.3096 57.0491 33.4348L56.8709 33.6129" stroke="white" stroke-width="2" stroke-linecap="round"/>
<circle cx="32.3548" cy="30.387" r="5.45161" stroke="white" stroke-width="2"/>
<circle cx="49.129" cy="34.9033" r="5.45161" stroke="white" stroke-width="2"/>
<circle cx="15.5806" cy="34.9033" r="5.45161" stroke="white" stroke-width="2"/>
<path d="M18.8065 61.0322H9.46509C9.02731 61.0322 8.58934 60.9917 8.17122 60.862C6.1331 60.2296 3 58.4762 3 55.2258C3 52.5816 3 51.0432 3 50.2819C3 49.922 3.02715 49.5636 3.11465 49.2144C3.73501 46.739 5.85835 42.6451 10.4194 42.6451C15.3226 42.6451 19.129 42.6451 20.4194 42.6451" stroke="white" stroke-width="2" stroke-linecap="round"/>
<path d="M45.9033 61.0322H55.9033C57.8387 60.6021 61.7097 58.8387 61.7097 55.2258C61.7097 51.6129 61.7097 50.0645 61.7097 49.7419C61.2796 47.3763 59.1936 42.6451 54.2904 42.6451C49.3871 42.6451 45.5807 42.6451 44.2904 42.6451" stroke="white" stroke-width="2" stroke-linecap="round"/>
<path d="M26.2258 46.5161V60.7097C24.1828 60.9247 20.0968 60.5806 20.0968 57.4838C20.0968 54.3871 20.0968 48.8817 20.0968 46.5161C20.5269 43.9355 22.4839 38.7742 26.871 38.7742C31.2581 38.7742 35.3656 38.7742 36.871 38.7742C39.4516 38.9892 44.6129 40.8387 44.6129 46.5161C44.6129 52.1935 44.6129 56.1935 44.6129 57.4838C43.6452 60.0645 42.0968 60.7097 38.4839 60.7097C38.4839 60.7097 38.4839 51.3548 38.4839 46.5161" stroke="white" stroke-width="2" stroke-linecap="round"/>
<line x1="28.4839" y1="61" x2="36.2258" y2="61" stroke="white" stroke-width="2"/>
<line x1="9.8064" y1="48.4517" x2="9.8064" y2="60.0646" stroke="white" stroke-width="2"/>
<line x1="56.2581" y1="48.4517" x2="56.2581" y2="60.7097" stroke="white" stroke-width="2"/>
</svg>
