<svg width="64" height="64" viewBox="0 0 64 64" fill="none" xmlns="http://www.w3.org/2000/svg">
<path d="M11.7959 32C11.7959 45.7345 24.624 51.2583 31.0598 52.309C31.0748 52.3114 31.0892 52.3125 31.1044 52.3125C31.2609 52.3125 31.3877 52.4393 31.3877 52.5958V59.9416C31.3877 61.0784 30.4662 62 29.3294 62C28.3812 62 27.5556 61.3522 27.3301 60.4313L26.8165 58.334C26.609 57.487 26.0432 56.7721 25.2664 56.3756L19.6661 53.5171C19.3221 53.3415 18.9415 53.25 18.5554 53.25C17.9485 53.25 17.3632 53.4759 16.9137 53.8838L15.4813 55.1836C15.0796 55.5481 14.5567 55.75 14.0142 55.75C13.3829 55.75 12.7824 55.4767 12.3678 55.0005L9.57984 51.7987C8.71385 50.8042 8.59886 49.3607 9.29648 48.2416L9.81115 47.416C10.108 46.9399 10.2653 46.3901 10.2653 45.829V45.6385C10.2653 45.2986 10.2076 44.9613 10.0945 44.6407L8.02675 38.7773C7.7028 37.8587 6.95304 37.1545 6.01595 36.8888L4.18157 36.3686C2.89081 36.0026 2 34.8241 2 33.4824V30.3981C2 29.1137 2.81764 27.9718 4.03358 27.558L6.14744 26.8387C7.00893 26.5456 7.69079 25.8772 8.00115 25.0218L10.1209 19.1792C10.408 18.388 10.3495 17.5127 9.95979 16.7668L9.19543 15.3038C8.56339 14.094 8.82764 12.6101 9.83844 11.6929L11.9126 9.81081C12.9253 8.89188 14.4312 8.77408 15.5745 9.52435L17.3437 10.6854C17.699 10.9185 18.1521 10.9432 18.5306 10.75C20.9425 9.80302 24.788 8.51169 26.1572 7.34557C26.3999 7.13894 26.5437 6.84673 26.6257 6.53878C26.9505 5.31994 27.0763 3.93667 27.2979 2.99103C27.4565 2.31415 28.106 2 28.8013 2C30.2297 2 31.3877 3.158 31.3877 4.58647V10.75C31.3877 11.6875 31.5467 12.3125 31.0816 12.3125C28.9388 12.3125 11.7959 14.8125 11.7959 32Z" stroke="white" stroke-width="2"/>
<path d="M31.0808 47.0155C22.9656 47.0155 16.3869 40.3662 16.3869 32.164C16.3869 23.9617 22.9656 17.3125 31.0808 17.3125V46.6875" stroke="white" stroke-width="2" stroke-linecap="round"/>
<path d="M31.3869 21.6875H44.244" stroke="white" stroke-width="2" stroke-linecap="round"/>
<path d="M31.3869 21.6875H44.244" stroke="white" stroke-width="2" stroke-linecap="round"/>
<path d="M31.3869 32H57.1012" stroke="white" stroke-width="2" stroke-linecap="round"/>
<path d="M31.3869 42.3125H44.244" stroke="white" stroke-width="2" stroke-linecap="round"/>
<path d="M31.0822 46.375H37.6125C38.6839 46.375 39.6716 46.954 40.1949 47.8889V47.8889C40.4421 48.3306 40.5719 48.8283 40.5719 49.3344V55.4375" stroke="white" stroke-width="2" stroke-linecap="round"/>
<path d="M31.0822 17.3125H37.6125C38.6839 17.3125 39.6716 16.7335 40.1949 15.7986V15.7986C40.4421 15.3569 40.5719 14.8592 40.5719 14.3531V8.25" stroke="white" stroke-width="2" stroke-linecap="round"/>
<path d="M31.0822 26.6875H48.0207C49.092 26.6875 50.0797 26.1085 50.603 25.1736V25.1736C50.8503 24.7319 50.9801 24.2342 50.9801 23.7281V18.25" stroke="white" stroke-width="2" stroke-linecap="round"/>
<path d="M31.0822 37H48.0207C49.092 37 50.0797 37.579 50.603 38.5139V38.5139C50.8503 38.9556 50.9801 39.4533 50.9801 39.9594V45.4375" stroke="white" stroke-width="2" stroke-linecap="round"/>
<ellipse cx="40.5705" cy="5.74987" rx="2.47436" ry="2.47436" stroke="white" stroke-width="2"/>
<ellipse cx="50.9805" cy="15.7502" rx="2.47436" ry="2.47436" stroke="white" stroke-width="2"/>
<ellipse cx="59.5254" cy="31.9999" rx="2.47436" ry="2.47436" stroke="white" stroke-width="2"/>
<ellipse cx="50.9805" cy="48.2501" rx="2.47436" ry="2.47436" stroke="white" stroke-width="2"/>
<ellipse cx="40.5705" cy="58.2499" rx="2.47436" ry="2.47436" stroke="white" stroke-width="2"/>
</svg>
