<svg width="101" height="100" viewBox="0 0 101 100" fill="none" xmlns="http://www.w3.org/2000/svg">
<path d="M69.5 44C69.5 32.9543 60.5457 24 49.5 24C38.4543 24 29.5 32.9543 29.5 44" stroke="#0F8EE8" stroke-width="3"/>
<path d="M11.5 53L10.2574 51.7574C9.13214 50.6321 8.5 49.106 8.5 47.5147V43.5C8.5 41.6115 9.38917 39.8331 10.9 38.7V38.7C11.9386 37.9211 13.2018 37.5 14.5 37.5H14.7918C17.0644 37.5 19.142 36.216 20.1584 34.1833L20.566 33.368C21.721 31.0581 21.2682 28.2682 19.4421 26.4421L19.2574 26.2574C18.1321 25.1321 17.5 23.606 17.5 22.0147V21.6394C17.5 19.9576 18.2059 18.3529 19.4457 17.2165L21.7796 15.0771C22.8861 14.0627 24.3328 13.5 25.8339 13.5H26.5447C28.1168 13.5 29.6245 14.1245 30.7362 15.2362V15.2362C32.4129 16.9129 34.9275 17.429 37.1291 16.5484L37.2283 16.5087C39.5063 15.5975 41 13.3912 41 10.9378V10.2226C41 8.49243 41.7469 6.84648 43.049 5.70715L43.1665 5.60429C44.3422 4.57555 45.8728 4.04594 47.4329 4.12805L52.4625 4.39276C53.7742 4.4618 55.0139 5.01392 55.9427 5.94271V5.94271C56.9398 6.93982 57.5 8.29221 57.5 9.70234V11.0436C57.5 13.4438 58.9304 15.613 61.1365 16.5585L61.3116 16.6335C63.2842 17.479 65.5582 17.2064 67.2751 15.9187L68.9 14.7C69.9386 13.9211 71.2083 13.5 72.5066 13.5V13.5C74.0979 13.5 75.6321 14.1321 76.7574 15.2574L79.8957 18.3957C81.2012 19.7012 81.726 21.596 81.2782 23.3871V23.3871C81.0949 24.1204 80.7556 24.8055 80.2834 25.3958L79.1299 26.8376C77.8092 28.4885 77.4548 30.7128 78.1972 32.6925L78.54 33.6067C79.4182 35.9486 81.6569 37.5 84.158 37.5H84.5C85.7982 37.5 87.0614 37.9211 88.1 38.7V38.7C89.6108 39.8331 90.5 41.6115 90.5 43.5V47.5147C90.5 49.106 89.8679 50.6321 88.7426 51.7574L87.5 53" stroke="#0F8EE8" stroke-width="3" stroke-linecap="round"/>
<circle cx="49.5" cy="48" r="8.5" stroke="#0F8EE8" stroke-width="3"/>
<circle cx="75.5" cy="55" r="8.5" stroke="#0F8EE8" stroke-width="3"/>
<circle cx="23.5" cy="55" r="8.5" stroke="#0F8EE8" stroke-width="3"/>
<path d="M28.5 95.5H13.6586C13.2209 95.5 12.7839 95.4574 12.3625 95.3388C9.22643 94.456 4 91.7265 4 86.5C4 82.0215 4 79.5897 4 78.5395C4 78.1795 4.02836 77.8236 4.10827 77.4727C4.97287 73.6752 8.24904 67 15.5 67C23.1 67 29 67 31 67" stroke="#0F8EE8" stroke-width="3" stroke-linecap="round"/>
<path d="M70.5 95.5H86C89 94.8333 95 92.1 95 86.5C95 80.9 95 78.5 95 78C94.3333 74.3333 91.1 67 83.5 67C75.9 67 70 67 68 67" stroke="#0F8EE8" stroke-width="3" stroke-linecap="round"/>
<path d="M40 73V95C36.8333 95.3333 30.5 94.8 30.5 90C30.5 85.2 30.5 76.6667 30.5 73C31.1667 69 34.2 61 41 61C47.8 61 54.1667 61 56.5 61C60.5 61.3333 68.5 64.2 68.5 73C68.5 81.8 68.5 88 68.5 90C67 94 64.6 95 59 95C59 95 59 80.5 59 73" stroke="#0F8EE8" stroke-width="3" stroke-linecap="round"/>
<line x1="43.5" y1="95.5" x2="55.5" y2="95.5" stroke="#0F8EE8" stroke-width="3"/>
<line x1="14.5" y1="76" x2="14.5" y2="94" stroke="#0F8EE8" stroke-width="3"/>
<line x1="86.5" y1="76" x2="86.5" y2="95" stroke="#0F8EE8" stroke-width="3"/>
</svg>
