<svg width="100" height="100" viewBox="0 0 100 100" fill="none" xmlns="http://www.w3.org/2000/svg">
<path d="M52.4335 59.2425L53.1238 56.4812C53.1996 56.178 53.4128 55.9277 53.7001 55.8046L56.2864 54.6962C56.5747 54.5726 56.9042 54.5915 57.1765 54.7471L59.6323 56.1504C59.9992 56.36 60.4583 56.3164 60.7792 56.0414L63.0492 54.0957C63.4425 53.7585 63.5133 53.1768 63.2121 52.7552L61.5712 50.4579C61.3681 50.1736 61.3282 49.8039 61.4658 49.4828L62.5672 46.9128C62.6798 46.6502 62.8992 46.4483 63.1702 46.358L66.5604 45.2279C66.9687 45.0918 67.2441 44.7097 67.2441 44.2792V40.8828C67.2441 40.3785 66.8686 39.9531 66.3682 39.8905L63.8133 39.5711C63.4608 39.5271 63.1581 39.2993 63.0182 38.9728L61.9023 36.3691C61.8008 36.1322 61.7946 35.8653 61.8851 35.624L63.0367 32.5533C63.1646 32.212 63.0968 31.8281 62.8596 31.5514L60.8398 29.195C60.5027 28.8016 59.9209 28.7309 59.4993 29.032L57.2021 30.6729C56.9177 30.876 56.548 30.916 56.2269 30.7783L53.7001 29.6954C53.4128 29.5723 53.1996 29.322 53.1238 29.0188L52.4335 26.2575C52.3222 25.8123 51.9222 25.5 51.4634 25.5H47.5463C47.0776 25.5 46.6718 25.8255 46.5701 26.2831L45.867 29.4473C45.7908 29.7902 45.5402 30.068 45.207 30.179L43.2272 30.839C42.9237 30.9401 42.5901 30.89 42.3298 30.704L39.9335 28.9924C39.5357 28.7083 38.9908 28.7533 38.6451 29.099L36.2538 31.4903C35.9494 31.7947 35.874 32.2597 36.0665 32.6447L37.5367 35.5852C37.6683 35.8483 37.6773 36.1559 37.5614 36.4263L36.4395 39.0441C36.3164 39.3313 36.0661 39.5445 35.7629 39.6203L33.0016 40.3106C32.5564 40.4219 32.2441 40.8219 32.2441 41.2808V44.1978C32.2441 44.6665 32.5697 45.0723 33.0272 45.174L36.1408 45.8659C36.5106 45.9481 36.8022 46.2321 36.894 46.5996L37.6467 49.6102C37.7092 49.8603 37.6727 50.125 37.5448 50.3489L36.1542 52.7824C35.9162 53.1989 36.0074 53.7257 36.3716 54.0378L38.74 56.0679C39.0455 56.3297 39.4782 56.383 39.838 56.2031L42.8293 54.7074C43.0924 54.5759 43.4001 54.5668 43.6704 54.6827L46.2882 55.8046C46.5755 55.9277 46.7886 56.178 46.8644 56.4812L47.5548 59.2425C47.6661 59.6877 48.066 60 48.5249 60H51.4634C51.9222 60 52.3222 59.6877 52.4335 59.2425Z" stroke="#1B8EE8" stroke-width="3" stroke-linecap="round"/>
<path d="M30.2435 61.5C34.7443 66 36.2441 70.5 36.7435 76.5C45.2441 76.5 51.2441 77 63.2427 76.5C63.2427 66.5 68.2414 64.0009 71.7427 59.0005C75.2441 54 78.2967 46.5 76.2427 37.0005C73.0427 22.2005 61.2436 16.5 52.2427 15.5C39.7436 15.5 32.2447 20 27.7439 26.5C17.0117 42 25.7427 57 30.2435 61.5Z" stroke="#1B8EE8" stroke-width="3" stroke-linecap="round"/>
<rect x="33.2441" y="77.5" width="33" height="7" rx="3.5" stroke="#1B8EE8" stroke-width="3"/>
<rect x="36.2441" y="84.5" width="27" height="7" rx="3.5" stroke="#1B8EE8" stroke-width="3"/>
<rect x="44.2441" y="91.5" width="11" height="5" rx="2.5" stroke="#1B8EE8" stroke-width="3"/>
<circle cx="49.7441" cy="43" r="7.5" stroke="#1B8EE8" stroke-width="3"/>
<path d="M18 63L11.7441 66.3027" stroke="#1B8EE8" stroke-width="3" stroke-linecap="round"/>
<path d="M80.7441 65L87 68.3027" stroke="#1B8EE8" stroke-width="3" stroke-linecap="round"/>
<path d="M14 45H7" stroke="#1B8EE8" stroke-width="3" stroke-linecap="round"/>
<path d="M85.7441 47H92.7441" stroke="#1B8EE8" stroke-width="3" stroke-linecap="round"/>
<path d="M18.7441 27L12.7441 24" stroke="#1B8EE8" stroke-width="3" stroke-linecap="round"/>
<path d="M81.7441 28L87.7441 25" stroke="#1B8EE8" stroke-width="3" stroke-linecap="round"/>
<path d="M32.7441 13L29.7441 8" stroke="#1B8EE8" stroke-width="3" stroke-linecap="round"/>
<path d="M50.7441 10V3" stroke="#1B8EE8" stroke-width="3" stroke-linecap="round"/>
<path d="M49.7441 75V60" stroke="#1B8EE8" stroke-width="3" stroke-linecap="round"/>
<path d="M69 14L72 9" stroke="#1B8EE8" stroke-width="3" stroke-linecap="round"/>
</svg>
