<svg width="26" height="23" viewBox="0 0 26 23" fill="none" xmlns="http://www.w3.org/2000/svg">
<path d="M20.1559 0.959998C21.8359 1.408 23.0679 2.36 23.8519 3.816C24.6359 5.23466 25.0279 6.80266 25.0279 8.52C25.0279 11.8053 24.0012 14.6427 21.9479 17.032C19.9319 19.4213 17.4865 21.232 14.6119 22.464L13.7159 20.84V20.336C14.7239 20 15.7319 19.328 16.7399 18.32C17.7852 17.312 18.6439 16.1173 19.3159 14.736C19.9879 13.3173 20.3239 11.88 20.3239 10.424C20.3239 9.15466 20.0252 8.016 19.4279 7.008C18.8305 6 17.9905 5.40266 16.9079 5.216L17.0199 4.32L20.1559 0.959998ZM6.99588 0.959998C8.67588 1.408 9.90788 2.36 10.6919 3.816C11.4759 5.23466 11.8679 6.80266 11.8679 8.52C11.8679 11.8053 10.8412 14.6427 8.78788 17.032C6.77188 19.4213 4.32654 21.232 1.45188 22.464L0.555875 20.84V20.336C1.56388 20 2.57188 19.328 3.57988 18.32C4.62521 17.312 5.48388 16.1173 6.15588 14.736C6.82788 13.3173 7.16388 11.88 7.16388 10.424C7.16388 9.15466 6.86521 8.016 6.26788 7.008C5.67054 6 4.83054 5.40266 3.74788 5.216L3.85988 4.32L6.99588 0.959998Z" fill="#ADC6D8"/>
</svg>
