<svg width="100" height="100" viewBox="0 0 100 100" fill="none" xmlns="http://www.w3.org/2000/svg">
<path d="M18.3469 50C18.3469 71.5173 38.4443 80.1714 48.527 81.8174C48.5505 81.8212 48.5732 81.8229 48.5969 81.8229C48.8421 81.8229 49.0408 82.0216 49.0408 82.2668V94C49.0408 95.6569 47.6977 97 46.0408 97H45.6397C44.2577 97 43.0545 96.0559 42.7258 94.7136L41.694 90.5007C41.4866 89.6536 40.9208 88.9387 40.144 88.5423L30.4996 83.6196C30.0773 83.4041 29.6099 83.2917 29.1358 83.2917H28.6174C27.8721 83.2917 27.1534 83.5691 26.6014 84.07L24.0006 86.43C23.4486 86.9309 22.73 87.2083 21.9846 87.2083H21.631C20.7634 87.2083 19.9382 86.8327 19.3685 86.1784L14.0492 80.0696C13.1832 79.075 13.0683 77.6316 13.7659 76.5125L15.4948 73.739C15.7916 73.2628 15.949 72.713 15.949 72.1519V71.076C15.949 70.7361 15.8912 70.3988 15.7782 70.0782L12.1492 59.7877C11.8253 58.8691 11.0755 58.1649 10.1384 57.8992L5.18157 56.4936C3.89081 56.1276 3 54.9491 3 53.6074V46.2731C3 44.9887 3.81765 43.8468 5.03359 43.433L10.2699 41.6512C11.1314 41.3581 11.8132 40.6897 12.1236 39.8343L15.9781 29.2104C16.2651 28.4193 16.2066 27.544 15.8169 26.798L13.6648 22.6788C13.0328 21.469 13.297 19.9851 14.3078 19.0679L19.5044 14.3525C20.5171 13.4335 22.0231 13.3157 23.1664 14.066L27.0384 16.6071C27.5951 16.9724 28.3049 17.011 28.898 16.7083C32.803 15.1751 39.1069 13.0657 41.0484 11.1921C41.2777 10.9708 41.4202 10.68 41.5078 10.3736C42.1258 8.21203 42.3052 5.65391 42.744 4.12441C42.9664 3.3493 43.7401 3 44.5465 3H46.0408C47.6977 3 49.0408 4.34314 49.0408 6V16.7083C49.0408 18.1771 49.2898 19.1562 48.5612 19.1562C45.2041 19.1562 18.3469 23.0729 18.3469 50Z" stroke="#1B8EE8" stroke-width="3"/>
<path d="M48.56 73.5245C35.8461 73.5245 25.5396 63.1074 25.5396 50.2572C25.5396 37.407 35.8461 26.9899 48.56 26.9899V73.0107" stroke="#1B8EE8" stroke-width="3" stroke-linecap="round"/>
<path d="M49.0396 33.8438H69.1824" stroke="#1B8EE8" stroke-width="3" stroke-linecap="round"/>
<path d="M49.0396 33.8438H69.1824" stroke="#1B8EE8" stroke-width="3" stroke-linecap="round"/>
<path d="M49.0396 50H89.3253" stroke="#1B8EE8" stroke-width="3" stroke-linecap="round"/>
<path d="M49.0396 66.1562H69.1824" stroke="#1B8EE8" stroke-width="3" stroke-linecap="round"/>
<path d="M48.5623 72.5211H58.7931C60.4716 72.5211 62.019 73.4283 62.8389 74.8929V74.8929C63.2262 75.5849 63.4296 76.3646 63.4296 77.1576V86.719" stroke="#1B8EE8" stroke-width="3" stroke-linecap="round"/>
<path d="M48.5623 26.9899H58.7931C60.4716 26.9899 62.019 26.0827 62.8389 24.6181V24.6181C63.2262 23.9261 63.4296 23.1464 63.4296 22.3534V12.792" stroke="#1B8EE8" stroke-width="3" stroke-linecap="round"/>
<path d="M48.5623 41.6774H75.0993C76.7777 41.6774 78.3252 40.7702 79.145 39.3056V39.3056C79.5323 38.6136 79.7357 37.8339 79.7357 37.0409V28.4586" stroke="#1B8EE8" stroke-width="3" stroke-linecap="round"/>
<path d="M48.5623 57.8336H75.0993C76.7777 57.8336 78.3252 58.7408 79.145 60.2054V60.2054C79.5323 60.8974 79.7357 61.6771 79.7357 62.4701V71.0524" stroke="#1B8EE8" stroke-width="3" stroke-linecap="round"/>
<circle cx="63.4273" cy="8.87479" r="3.87649" stroke="#1B8EE8" stroke-width="3"/>
<circle cx="79.7361" cy="24.542" r="3.87649" stroke="#1B8EE8" stroke-width="3"/>
<circle cx="93.1231" cy="49.9998" r="3.87649" stroke="#1B8EE8" stroke-width="3"/>
<circle cx="79.7361" cy="75.4584" r="3.87649" stroke="#1B8EE8" stroke-width="3"/>
<circle cx="63.4273" cy="91.1248" r="3.87649" stroke="#1B8EE8" stroke-width="3"/>
</svg>
