<svg width="60" height="65" viewBox="0 0 60 65" fill="none" xmlns="http://www.w3.org/2000/svg">
<path d="M31.6702 38.6426L32.0342 37.1866C32.11 36.8834 32.3231 36.6331 32.6104 36.51L34.0545 35.891C34.3428 35.7675 34.6723 35.7863 34.9446 35.9419L36.2581 36.6925C36.6251 36.9022 37.0842 36.8586 37.4051 36.5835L38.5329 35.6168C38.9262 35.2797 38.9969 34.6979 38.6958 34.2764L37.8707 33.1212C37.6676 32.8368 37.6277 32.4672 37.7653 32.146L38.3772 30.7181C38.4898 30.4556 38.7092 30.2537 38.9802 30.1633L40.9018 29.5228C41.3101 29.3866 41.5856 29.0045 41.5856 28.5741V26.8092C41.5856 26.3049 41.21 25.8795 40.7096 25.8169L39.4601 25.6607C39.1076 25.6166 38.805 25.3889 38.665 25.0623L38.0386 23.6007C37.9371 23.3639 37.931 23.097 38.0215 22.8557L38.6835 21.0902C38.8115 20.7489 38.7436 20.365 38.5064 20.0883L37.4657 18.874C37.1285 18.4806 36.5468 18.4099 36.1252 18.7111L34.9702 19.5361C34.6858 19.7392 34.3161 19.7792 33.995 19.6415L32.6104 19.0481C32.3231 18.925 32.11 18.6747 32.0342 18.3715L31.6702 16.9154C31.5589 16.4703 31.1589 16.158 30.7 16.158H28.5779C28.1092 16.158 27.7034 16.4835 27.6017 16.941L27.2249 18.6368C27.1487 18.9797 26.8982 19.2575 26.565 19.3686L25.5643 19.7022C25.2607 19.8034 24.9271 19.7532 24.6667 19.5672L23.4127 18.6714C23.0149 18.3873 22.47 18.4324 22.1243 18.7781L20.8752 20.0273C20.5709 20.3316 20.4954 20.7966 20.6879 21.1816L21.5055 22.8168C21.637 23.0799 21.6461 23.3876 21.5302 23.6579L20.8978 25.1336C20.7747 25.4209 20.5244 25.6341 20.2212 25.7099L18.7653 26.0739C18.3201 26.1852 18.0078 26.5851 18.0078 27.044V28.4927C18.0078 28.9614 18.3333 29.3672 18.7909 29.4688L20.4359 29.8344C20.8057 29.9166 21.0973 30.2006 21.1891 30.5681L21.6154 32.2735C21.678 32.5236 21.6415 32.7882 21.5136 33.0121L20.7756 34.3036C20.5376 34.7201 20.6289 35.2468 20.993 35.559L22.2192 36.6101C22.5247 36.8719 22.9574 36.9252 23.3173 36.7452L25.0031 35.9023C25.2662 35.7707 25.5739 35.7617 25.8443 35.8776L27.3198 36.51C27.6071 36.6331 27.8202 36.8834 27.896 37.1866L28.26 38.6426C28.3713 39.0878 28.7713 39.4001 29.2302 39.4001H30.7C31.1589 39.4001 31.5589 39.0878 31.6702 38.6426Z" stroke="white" strokeWidth="2" strokeLinecap="round"/>
<path d="M16.6567 40.4104C19.6886 43.442 20.699 46.4736 21.0354 50.5157C26.7618 50.5157 30.8037 50.8526 38.8866 50.5157C38.8866 43.7789 42.254 42.0953 44.6127 38.7265C46.9713 35.3578 49.0277 30.3051 47.6441 23.9055C45.4884 13.9349 37.5399 10.0946 31.4765 9.4209C23.0565 9.4209 18.0048 12.4525 14.9729 16.8314C7.74312 27.2736 13.6248 37.3788 16.6567 40.4104Z" stroke="white" strokeWidth="2" strokeLinecap="round"/>
<rect x="18.6719" y="51.1791" width="22.2514" height="4.73685" rx="2.36843" stroke="white" strokeWidth="2"/>
<rect x="20.6875" y="55.8949" width="18.2095" height="4.73685" rx="2.36843" stroke="white" strokeWidth="2"/>
<rect x="26.082" y="60.6105" width="7.4311" height="3.38948" rx="1.69474" stroke="white" strokeWidth="2"/>
<path d="M29.7949 22.884C32.591 22.884 34.8584 25.1511 34.8584 27.9475C34.8582 30.7437 32.5909 33.01 29.7949 33.01C26.9991 33.0098 24.7326 30.7436 24.7324 27.9475C24.7324 25.1513 26.999 22.8842 29.7949 22.884Z" stroke="white" strokeWidth="2"/>
<path d="M8.41016 41.4209L4.1959 43.6459" stroke="white" strokeWidth="2" strokeLinecap="round"/>
<path d="M50.6836 42.7684L54.8979 44.9934" stroke="white" strokeWidth="2" strokeLinecap="round"/>
<path d="M5.7168 29.2949H1.00125" stroke="white" strokeWidth="2" strokeLinecap="round"/>
<path d="M54.0488 30.6418H58.7644" stroke="white" strokeWidth="2" strokeLinecap="round"/>
<path d="M8.91016 17.1685L4.86826 15.1474" stroke="white" strokeWidth="2" strokeLinecap="round"/>
<path d="M51.3555 17.8419L55.3974 15.8209" stroke="white" strokeWidth="2" strokeLinecap="round"/>
<path d="M18.3457 7.73657L16.3248 4.36815" stroke="white" strokeWidth="2" strokeLinecap="round"/>
<path d="M30.4688 5.71582V1.00002" stroke="white" strokeWidth="2" strokeLinecap="round"/>
<path d="M29.7969 49.5055V39.4002" stroke="white" strokeWidth="2" strokeLinecap="round"/>
<path d="M42.7656 8.41052L44.7866 5.0421" stroke="white" strokeWidth="2" strokeLinecap="round"/>
</svg>
