<svg width="26" height="23" viewBox="0 0 26 23" fill="none" xmlns="http://www.w3.org/2000/svg">
<path d="M18.912 22.408C17.232 21.96 16 21.0267 15.216 19.608C14.432 18.152 14.04 16.5653 14.04 14.848C14.04 11.5627 15.048 8.72533 17.064 6.336C19.1173 3.94667 21.5813 2.136 24.456 0.903999L25.352 2.528V3.032C24.344 3.368 23.3173 4.04 22.272 5.048C21.264 6.056 20.424 7.26933 19.752 8.688C19.08 10.0693 18.744 11.488 18.744 12.944C18.744 14.2133 19.0427 15.352 19.64 16.36C20.2373 17.368 21.0773 17.9653 22.16 18.152L22.048 19.048L18.912 22.408ZM5.752 22.408C4.072 21.96 2.84 21.0267 2.056 19.608C1.272 18.152 0.88 16.5653 0.88 14.848C0.88 11.5627 1.888 8.72533 3.904 6.336C5.95733 3.94667 8.42133 2.136 11.296 0.903999L12.192 2.528V3.032C11.184 3.368 10.1573 4.04 9.112 5.048C8.104 6.056 7.264 7.26933 6.592 8.688C5.92 10.0693 5.584 11.488 5.584 12.944C5.584 14.2133 5.88267 15.352 6.48 16.36C7.07733 17.368 7.91733 17.9653 9 18.152L8.888 19.048L5.752 22.408Z" fill="#ADC6D8"/>
</svg>
