<svg width="178" height="48" viewBox="0 0 178 48" fill="none" xmlns="http://www.w3.org/2000/svg">
<g clip-path="url(#clip0_859_991)">
<path d="M47.752 30.4561V13.9619H50.7172V27.8615H59.6747V30.4561H47.752Z" fill="#0772EA"/>
<path d="M73.2045 13.9619L78.2084 22.0546L83.2122 13.9619H86.4246L79.691 24.6492V30.4561H76.7258V24.6492L69.9922 13.9619H73.2045Z" fill="#0772EA"/>
<path d="M99.6445 30.4561V13.9619H102.61V22.2399L111.135 13.9619H114.347L107.181 21.2515L114.718 30.4561H111.567L105.39 22.9812L102.61 25.4523V30.4561H99.6445Z" fill="#0772EA"/>
<path d="M128.062 30.4561L135.413 13.9619H137.822L145.112 30.4561H142.023L140.108 26.1936H133.127L131.274 30.4561H128.062ZM136.587 17.6067L133.807 23.599H139.367L136.587 17.6067Z" fill="#0772EA"/>
<path d="M169.575 18.1009C167.784 16.5565 164.201 15.8769 162.224 16.9889C162.027 17.1088 161.856 17.2668 161.722 17.4536C161.587 17.6404 161.491 17.8522 161.439 18.0766C161.387 18.301 161.381 18.5335 161.42 18.7604C161.459 18.9874 161.544 19.2042 161.668 19.3982C162.656 20.4483 164.262 20.5719 165.745 21.0043C167.228 21.4368 170.069 21.931 171.181 23.9078C171.799 24.958 171.676 26.9966 171.058 28.0468C168.525 32.124 161.05 30.8267 157.652 28.4792L159.011 25.9464C161.05 27.7379 165.004 28.6646 167.537 27.5526C168.896 26.7495 168.525 24.958 167.104 24.4638C164.139 23.0429 158.27 23.4136 158.332 18.8422C158.517 12.7881 167.228 12.8499 170.872 15.6916L169.575 18.1009Z" fill="#0772EA"/>
<path d="M32.8644 33.6681C32.432 30.4558 30.8258 27.7994 28.9725 26.9963L28.5401 24.8959C28.4166 24.34 28.0459 24.34 27.3664 24.4635L27.0575 24.5871L26.4397 20.8187L28.0459 20.4481C28.7254 20.3863 28.6019 19.3361 27.8606 19.3979L23.4127 20.3245C23.2652 20.3409 23.1303 20.4152 23.0377 20.531C22.945 20.6469 22.9021 20.7948 22.9185 20.9423C22.9349 21.0897 23.0092 21.2246 23.125 21.3173C23.2409 21.41 23.3888 21.4529 23.5363 21.4365L25.4513 21.0658L25.6366 22.116L23.9687 23.784C24.0305 23.2898 23.9687 23.1662 23.9069 23.0427L20.9417 19.8921C20.8139 19.7647 20.7189 19.6082 20.6651 19.436C20.6113 19.2638 20.6002 19.0811 20.6328 18.9037C20.7563 18.2241 20.7563 18.1006 21.127 14.0851C21.13 13.951 21.1727 13.8207 21.2497 13.7108C21.3266 13.6008 21.4344 13.5161 21.5594 13.4674C23.4127 12.6643 30.0845 9.82258 30.2081 9.69903C30.3316 9.57548 30.3316 9.5137 30.3316 9.5137C30.3316 9.5137 30.4552 9.2666 29.8992 9.39015L28.4783 9.5137C28.1695 9.39015 28.6637 9.08127 28.6637 8.95772C28.6637 8.83416 28.4166 8.77239 28.2312 8.95772L26.9339 10.1932C26.3162 10.5021 22.1772 11.5523 22.1772 11.5523C21.127 11.7994 20.6328 11.923 20.6328 11.4288C20.7047 11.2466 20.8094 11.0791 20.9417 10.9346C21.683 10.4403 21.9301 9.14304 21.7447 8.2164C21.7544 8.10964 21.7329 8.00237 21.683 7.90752C21.8316 7.80205 21.9537 7.6634 22.0395 7.50256C22.1253 7.34172 22.1724 7.16311 22.1772 6.98088H21.9919C21.6823 7.03186 21.3652 7.01072 21.0652 6.9191C20.7083 6.69883 20.3061 6.56218 19.8889 6.51939C19.4717 6.4766 19.0502 6.52877 18.6559 6.672C17.7911 7.04266 17.1733 8.33995 17.4822 9.08127C17.7938 9.50929 18.0241 9.9909 18.1617 10.5021C18.2853 10.9963 18.4088 10.9346 18.4088 10.9346L18.5942 10.7492C18.7795 10.6874 18.8413 10.9963 18.7795 11.2434C18.7177 11.367 18.6559 11.5523 18.4706 11.5523C18.2853 11.5523 11.5517 9.69903 10.2544 9.14304L8.71 7.90752C8.52467 7.78397 8.40111 7.78397 8.27756 7.90752C8.15401 8.03107 8.83355 8.33995 8.46289 8.46351C7.94536 8.47069 7.42829 8.42933 6.91849 8.33995C6.30073 8.27818 6.42428 8.46351 6.42428 8.46351C6.42428 8.46351 6.23895 8.58706 6.54783 8.71061C6.85671 8.83416 15.4436 12.3554 17.0498 13.282C17.0881 13.3108 17.1193 13.3481 17.1407 13.391C17.1622 13.4339 17.1733 13.4812 17.1733 13.5291C17.3586 14.8264 14.8258 20.201 16.432 21.3747C19.8297 24.0929 20.8799 21.6218 17.544 26.0079C14.8876 25.0195 13.4668 28.2318 13.8992 31.6913C14.0117 32.7781 14.3483 33.8299 14.8876 34.7801L10.5015 32.7415C9.94552 32.4944 9.57486 33.3593 10.1308 33.5446L16.3085 36.2627C19.9532 38.3013 21.2505 31.9384 19.8297 28.7878L22.1154 26.6257C22.239 28.5407 22.3625 30.7647 22.3007 31.1971C22.239 31.6295 21.7447 32.3091 22.6096 32.9268L24.2158 34.2859C24.4629 35.9539 25.1424 38.3013 25.8837 39.4133L23.8451 38.5485C23.741 38.5387 23.6364 38.5622 23.5465 38.6156C23.4565 38.6691 23.3859 38.7497 23.3446 38.8458C23.3034 38.942 23.2938 39.0487 23.3171 39.1507C23.3405 39.2527 23.3956 39.3446 23.4745 39.4133L27.6135 41.143C31.32 43.0581 33.4822 38.4249 32.8644 33.6681ZM19.0266 34.4095C18.5324 35.5214 17.7911 36.0774 16.8644 35.5214C16.8481 35.5214 16.8323 35.5149 16.8208 35.5033C16.8092 35.4917 16.8027 35.476 16.8027 35.4597C15.0729 34.4712 14.1463 30.0234 15.1965 27.923C15.6289 26.9346 16.1849 26.3786 16.988 26.6257C16.899 26.7336 16.8357 26.8604 16.8027 26.9963C16.533 27.1143 16.3089 27.3166 16.1641 27.5728C16.0193 27.829 15.9615 28.1253 15.9996 28.4172C16.11 28.9756 16.2971 29.5161 16.5556 30.0234C15.9378 30.6411 16.3702 32.7415 17.2969 32.6179C17.3643 32.6043 17.4275 32.5748 17.4812 32.5318C17.5349 32.4888 17.5776 32.4336 17.6058 32.3708C17.7706 32.1656 17.8845 31.9243 17.9382 31.6666C17.9918 31.4089 17.9838 31.1422 17.9146 30.8882C18.3471 30.8882 18.6559 30.6411 18.2853 29.7145C17.9146 28.7878 17.6058 28.3554 18.1 27.6141H18.1617C19.3973 29.0967 19.8915 32.6179 19.0266 34.4712V34.4095ZM19.459 27.9847C19.2813 27.6385 19.0746 27.3078 18.8413 26.9963L21.9301 23.784C21.9301 23.784 21.9919 24.5253 22.0536 25.4519L19.459 27.9847ZM27.5517 25.4519L27.7988 26.9345C27.2106 26.9611 26.647 27.1779 26.1926 27.5523L25.8837 25.8226L27.5517 25.4519ZM24.0305 31.3824L24.3393 25.0813L25.8837 23.4133L26.1308 24.8342C25.3278 24.9577 24.6482 25.2666 24.8336 26.0697L25.266 28.6025C24.7328 29.4703 24.3173 30.4051 24.0305 31.3824ZM31.2583 38.6102C28.4783 44.479 23.5363 35.3979 25.5749 30.4558L26.0691 33.0504C26.1306 33.3413 26.257 33.6146 26.4389 33.8499C26.6207 34.0852 26.8533 34.2765 27.1193 34.4095C27.4899 37.0041 29.7139 36.7569 29.4668 34.1006C29.2814 32.4326 27.7988 31.4442 27.2428 33.1122C27.2045 33.0834 27.1733 33.0461 27.1519 33.0032C27.1304 32.9603 27.1193 32.913 27.1193 32.8651L26.4397 28.7878C27.6135 27.3052 29.0343 27.8612 30.2081 29.4674C31.3818 31.0735 32.432 36.0774 31.2583 38.6102Z" fill="#0772EA"/>
</g>
<defs>
<clipPath id="clip0_859_991">
<rect width="177.915" height="48" fill="white"/>
</clipPath>
</defs>
</svg>
