<svg xmlns="http://www.w3.org/2000/svg" viewBox="0 0 225 42.05"><defs><style>.cls-1{fill:#ff6b00;}.cls-2{fill:#003a5d;}</style></defs><title>logo-nav</title><g id="Layer_2" data-name="Layer 2"><g id="Layer_1-2" data-name="Layer 1"><path class="cls-1" d="M11.27,23.54l9.17-3.4L31.73,16a.74.74,0,0,0,.39-1.06L24.07,1a.73.73,0,0,0-1.28,0L11.45,20.61l-1.08,1.87A.74.74,0,0,0,11.27,23.54Z"/><path class="cls-1" d="M47.23,40.35,35.88,20.7l-1.13-2a.74.74,0,0,0-1.37.24L31.65,29.14,29.7,40.6a.74.74,0,0,0,.73.86H46.59A.74.74,0,0,0,47.23,40.35Z"/><path class="cls-1" d="M18.1,33.9l-9-7.47a.74.74,0,0,0-1.11.2L.1,40.26a.74.74,0,0,0,.64,1.11H25.06a.74.74,0,0,0,.47-1.31Z"/><path class="cls-2" d="M64.3,20.67l1.21-2.1a.78.78,0,0,1,1.15-.23c.17.1,2.9,2.09,5.1,2.09a2.82,2.82,0,0,0,3.07-2.6c0-1.72-1.45-2.9-4.29-4-3.17-1.28-6.34-3.31-6.34-7.3,0-3,2.22-6.48,7.59-6.48a12,12,0,0,1,6.76,2.26.84.84,0,0,1,.2,1.12L77.47,5.3a.89.89,0,0,1-1.19.41c-.27-.17-2.83-1.86-4.69-1.86s-3,1.28-3,2.36c0,1.59,1.25,2.67,4,3.79,3.28,1.31,7.06,3.27,7.06,7.63,0,3.48-3,6.69-7.76,6.69a10.84,10.84,0,0,1-7.43-2.64C64.16,21.38,64,21.21,64.3,20.67Z"/><path class="cls-2" d="M90.4,1a.67.67,0,0,1,.65-.64h3.2A.64.64,0,0,1,94.9,1V14.79a4.91,4.91,0,1,0,9.82,0V1a.64.64,0,0,1,.65-.64h3.2a.67.67,0,0,1,.65.64V15A9.41,9.41,0,0,1,90.4,15Z"/><path class="cls-2" d="M124.25.51a.57.57,0,0,1,.61-.51h.54a.61.61,0,0,1,.57.34l7.43,15.94h.1L140.93.34a.59.59,0,0,1,.58-.34h.54a.56.56,0,0,1,.6.51l4,22.69A.59.59,0,0,1,146,24H143a.71.71,0,0,1-.64-.51l-2-12.8h-.1l-5.91,13.27a.57.57,0,0,1-.57.38h-.61a.6.6,0,0,1-.57-.38l-6-13.27h-.1l-2,12.8a.65.65,0,0,1-.61.51h-3a.62.62,0,0,1-.64-.78Z"/><path class="cls-2" d="M160.49.51A.57.57,0,0,1,161.1,0h.54a.61.61,0,0,1,.57.34l7.43,15.94h.1L177.17.34a.59.59,0,0,1,.58-.34h.54a.58.58,0,0,1,.61.51l4,22.69a.59.59,0,0,1-.61.78H179.2a.74.74,0,0,1-.64-.51l-2-12.8h-.11l-5.91,13.27a.56.56,0,0,1-.57.38h-.61a.6.6,0,0,1-.57-.38l-6-13.27h-.1l-2,12.8a.65.65,0,0,1-.61.51h-3a.62.62,0,0,1-.64-.78Z"/><path class="cls-2" d="M194.27,1a.66.66,0,0,1,.64-.64h3.14a.66.66,0,0,1,.64.64V23.34a.67.67,0,0,1-.64.64h-3.14a.67.67,0,0,1-.64-.64Z"/><path class="cls-2" d="M214.77,4.39H209.6a.64.64,0,0,1-.64-.64V1a.64.64,0,0,1,.64-.64h14.76A.64.64,0,0,1,225,1V3.75a.64.64,0,0,1-.64.64h-5.17v19a.67.67,0,0,1-.64.64h-3.14a.67.67,0,0,1-.64-.64Z"/><path class="cls-2" d="M66.32,34.67h-2a.22.22,0,0,1-.22-.23v-.67a.22.22,0,0,1,.22-.23h5.16a.22.22,0,0,1,.22.23v.67a.22.22,0,0,1-.22.23h-2v7a.23.23,0,0,1-.23.23h-.79a.23.23,0,0,1-.22-.23Z"/><path class="cls-2" d="M73.44,33.77a.22.22,0,0,1,.22-.23h4.8a.23.23,0,0,1,.23.23v.67a.23.23,0,0,1-.23.23H74.67v2.44h3.2a.24.24,0,0,1,.23.23V38a.23.23,0,0,1-.23.23h-3.2v2.58h3.79a.22.22,0,0,1,.23.22v.66a.23.23,0,0,1-.23.23h-4.8a.22.22,0,0,1-.22-.23Z"/><path class="cls-2" d="M86.58,33.42a4.12,4.12,0,0,1,2.89,1.12.22.22,0,0,1,0,.33l-.53.54c-.08.11-.19.11-.3,0a3.24,3.24,0,0,0-2.07-.8,3.11,3.11,0,0,0,0,6.22A3.24,3.24,0,0,0,88.66,40,.21.21,0,0,1,89,40l.55.54a.23.23,0,0,1,0,.32,4.13,4.13,0,0,1-2.91,1.16,4.32,4.32,0,1,1,0-8.63Z"/><path class="cls-2" d="M93.6,33.77a.24.24,0,0,1,.23-.23h.79a.23.23,0,0,1,.23.23v3.34h4.38V33.77a.23.23,0,0,1,.23-.23h.79a.24.24,0,0,1,.23.23V41.7a.24.24,0,0,1-.23.23h-.79a.23.23,0,0,1-.23-.23V38.24H94.85V41.7a.23.23,0,0,1-.23.23h-.79a.24.24,0,0,1-.23-.23Z"/><path class="cls-2" d="M105.2,33.64a.23.23,0,0,1,.23-.22h.3l5.2,6h0V33.77a.23.23,0,0,1,.23-.23h.77a.24.24,0,0,1,.23.23v8.07a.22.22,0,0,1-.23.21h-.31l-5.2-6.18h0V41.7a.22.22,0,0,1-.22.23h-.76a.24.24,0,0,1-.23-.23Z"/><path class="cls-2" d="M120.58,33.42a4.32,4.32,0,1,1-4.3,4.33A4.31,4.31,0,0,1,120.58,33.42Zm0,7.43a3.11,3.11,0,0,0,3.12-3.1,3.11,3.11,0,1,0-6.22,0A3.11,3.11,0,0,0,120.58,40.85Z"/><path class="cls-2" d="M129,33.77a.23.23,0,0,1,.23-.23H130a.24.24,0,0,1,.23.23v7h3.24a.22.22,0,0,1,.23.22v.66a.23.23,0,0,1-.23.23h-4.26a.23.23,0,0,1-.23-.23Z"/><path class="cls-2" d="M141,33.42a4.32,4.32,0,1,1-4.31,4.33A4.31,4.31,0,0,1,141,33.42Zm0,7.43a3.11,3.11,0,0,0,3.11-3.1,3.11,3.11,0,1,0-3.11,3.1Z"/><path class="cls-2" d="M153.13,33.42A4.34,4.34,0,0,1,156,34.54a.23.23,0,0,1,0,.33l-.54.57c-.09.1-.19.09-.31,0a3.2,3.2,0,0,0-2-.81,3.11,3.11,0,0,0,0,6.22,4.16,4.16,0,0,0,1.8-.41V39.08h-1.17a.22.22,0,0,1-.23-.22v-.69a.22.22,0,0,1,.23-.23H156a.22.22,0,0,1,.21.23c0,1,0,1.94,0,2.9a.28.28,0,0,1-.09.19,6,6,0,0,1-3,.79,4.32,4.32,0,1,1,0-8.63Z"/><path class="cls-2" d="M162.12,37.89l-2.81-4a.23.23,0,0,1,.2-.35h.88a.22.22,0,0,1,.19.11l2.17,3.06,2.17-3.06a.27.27,0,0,1,.19-.11h.9a.22.22,0,0,1,.19.35l-2.84,4V41.7a.23.23,0,0,1-.22.23h-.79a.23.23,0,0,1-.23-.23Z"/><path class="cls-2" d="M178.49,33.42a4.32,4.32,0,0,1,2.91,1.12.22.22,0,0,1,0,.33l-.53.57c-.1.1-.2.09-.32,0a3.17,3.17,0,0,0-2-.81,3.11,3.11,0,0,0,0,6.22,4.14,4.14,0,0,0,1.79-.41V39.08h-1.17a.22.22,0,0,1-.23-.22v-.69a.23.23,0,0,1,.23-.23h2.18a.23.23,0,0,1,.22.23c0,1,0,1.94,0,2.9a.3.3,0,0,1-.1.19,6,6,0,0,1-3,.79,4.32,4.32,0,0,1,0-8.63Z"/><path class="cls-2" d="M185.84,33.77a.23.23,0,0,1,.23-.23h3.26a2.58,2.58,0,0,1,2.61,2.57,2.66,2.66,0,0,1-1.77,2.43l1.64,3a.23.23,0,0,1-.21.35h-.93a.2.2,0,0,1-.19-.11l-1.6-3.17h-1.8V41.7a.24.24,0,0,1-.23.23h-.78a.23.23,0,0,1-.23-.23Zm3.39,3.85a1.49,1.49,0,0,0,1.46-1.49,1.46,1.46,0,0,0-1.46-1.42H187.1v2.91Z"/><path class="cls-2" d="M199.9,33.42a4.32,4.32,0,1,1-4.3,4.33A4.31,4.31,0,0,1,199.9,33.42Zm0,7.43a3.12,3.12,0,0,0,3.12-3.1,3.11,3.11,0,1,0-6.22,0A3.11,3.11,0,0,0,199.9,40.85Z"/><path class="cls-2" d="M208.22,33.77a.24.24,0,0,1,.23-.23h.8a.23.23,0,0,1,.23.23v4.95a2,2,0,1,0,4,0v-5a.23.23,0,0,1,.23-.23h.8a.24.24,0,0,1,.23.23v5a3.26,3.26,0,0,1-6.52,0Z"/><path class="cls-2" d="M219.36,33.77a.22.22,0,0,1,.22-.23h2.74a2.68,2.68,0,1,1,0,5.35h-1.74V41.7a.24.24,0,0,1-.23.23h-.78a.22.22,0,0,1-.22-.23Zm2.88,3.94a1.53,1.53,0,0,0,1.53-1.53,1.48,1.48,0,0,0-1.53-1.44h-1.65v3Z"/></g></g></svg>