<svg width="28" height="28" viewBox="0 0 28 28" fill="none" xmlns="http://www.w3.org/2000/svg">
<mask id="mask0_5311_21214" style="mask-type:alpha" maskUnits="userSpaceOnUse" x="0" y="0" width="28" height="28">
<path d="M5.83301 24.5V5.83333C5.83301 5.21449 6.07884 4.621 6.51643 4.18342C6.95401 3.74583 7.5475 3.5 8.16634 3.5H19.833C20.4518 3.5 21.0453 3.74583 21.4829 4.18342C21.9205 4.621 22.1663 5.21449 22.1663 5.83333V24.5L18.6663 22.1667L16.333 24.5L13.9997 22.1667L11.6663 24.5L9.33301 22.1667L5.83301 24.5Z" stroke="#064267" stroke-width="1.5" stroke-linecap="round" stroke-linejoin="round"/>
<path d="M17.2667 9.33339C17.0553 8.96678 16.7483 8.66455 16.3783 8.45904C16.0084 8.25353 15.5896 8.15249 15.1667 8.16673H12.8333C12.2145 8.16673 11.621 8.41256 11.1834 8.85014C10.7458 9.28773 10.5 9.88122 10.5 10.5001C10.5 11.1189 10.7458 11.7124 11.1834 12.15C11.621 12.5876 12.2145 12.8334 12.8333 12.8334H15.1667C15.7855 12.8334 16.379 13.0792 16.8166 13.5168C17.2542 13.9544 17.5 14.5479 17.5 15.1667C17.5 15.7856 17.2542 16.3791 16.8166 16.8166C16.379 17.2542 15.7855 17.5001 15.1667 17.5001H12.8333C12.4104 17.5143 11.9916 17.4133 11.6217 17.2077C11.2517 17.0022 10.9447 16.7 10.7333 16.3334" stroke="#064267" stroke-width="1.5" stroke-linecap="round" stroke-linejoin="round"/>
<path d="M14 7V18.6667" stroke="#064267" stroke-width="1.5" stroke-linecap="round" stroke-linejoin="round"/>
</mask>
<g mask="url(#mask0_5311_21214)">
<g filter="url(#filter0_d_5311_21214)">
<rect x="-1" y="-1" width="30" height="30" rx="12" fill="url(#paint0_linear_5311_21214)"/>
</g>
</g>
<defs>
<filter id="filter0_d_5311_21214" x="-3" y="-1" width="34" height="34" filterUnits="userSpaceOnUse" color-interpolation-filters="sRGB">
<feFlood flood-opacity="0" result="BackgroundImageFix"/>
<feColorMatrix in="SourceAlpha" type="matrix" values="0 0 0 0 0 0 0 0 0 0 0 0 0 0 0 0 0 0 127 0" result="hardAlpha"/>
<feOffset dy="2"/>
<feGaussianBlur stdDeviation="1"/>
<feComposite in2="hardAlpha" operator="out"/>
<feColorMatrix type="matrix" values="0 0 0 0 0 0 0 0 0 0 0 0 0 0 0 0 0 0 0.08 0"/>
<feBlend mode="normal" in2="BackgroundImageFix" result="effect1_dropShadow_5311_21214"/>
<feBlend mode="normal" in="SourceGraphic" in2="effect1_dropShadow_5311_21214" result="shape"/>
</filter>
<linearGradient id="paint0_linear_5311_21214" x1="-2.875" y1="-1" x2="29" y2="31.5" gradientUnits="userSpaceOnUse">
<stop stop-color="#052A47"/>
<stop offset="1" stop-color="#F47937"/>
</linearGradient>
</defs>
</svg>
