<svg class="svg-icon" style="width: 1em;height: 1em;vertical-align: middle;fill: currentColor;overflow: hidden;" viewBox="0 0 1024 1024" version="1.1" xmlns="http://www.w3.org/2000/svg"><path d="M909.6 210.1H114.8c-27.8 0-50.6 22.8-50.6 50.6v503.2c0 27.8 22.8 50.6 50.6 50.6h794.8c27.8 0 50.6-22.8 50.6-50.6V260.7c-0.1-27.8-22.8-50.6-50.6-50.6z m5.9 509.1c0 27.8-22.8 50.6-50.6 50.6H159.7c-27.8 0-50.6-22.8-50.6-50.6V305.3c0-27.8 22.8-50.6 50.6-50.6H865c27.8 0 50.6 22.8 50.6 50.6v413.9z" fill="#999999" /><path d="M216.5 397L511 629l294.5-232L511 505z" fill="#DDDDDD" /></svg>