<svg width="60" height="65" viewBox="0 0 60 65" fill="none" xmlns="http://www.w3.org/2000/svg">
<path d="M31.6702 38.6424L32.0342 37.1863C32.11 36.8831 32.3231 36.6328 32.6104 36.5097L34.0545 35.8908C34.3428 35.7672 34.6723 35.7861 34.9446 35.9417L36.2581 36.6923C36.6251 36.902 37.0842 36.8584 37.4051 36.5833L38.5329 35.6166C38.9262 35.2794 38.9969 34.6977 38.6958 34.2761L37.8707 33.1209C37.6676 32.8366 37.6277 32.4669 37.7653 32.1458L38.3772 30.7179C38.4898 30.4553 38.7092 30.2534 38.9802 30.1631L40.9018 29.5225C41.3101 29.3864 41.5856 29.0043 41.5856 28.5738V26.8089C41.5856 26.3046 41.21 25.8792 40.7096 25.8167L39.4601 25.6605C39.1076 25.6164 38.805 25.3886 38.665 25.0621L38.0386 23.6005C37.9371 23.3636 37.931 23.0967 38.0215 22.8555L38.6835 21.0899C38.8115 20.7486 38.7436 20.3648 38.5064 20.088L37.4657 18.8738C37.1285 18.4804 36.5468 18.4097 36.1252 18.7108L34.9702 19.5359C34.6858 19.739 34.3161 19.7789 33.995 19.6413L32.6104 19.0479C32.3231 18.9247 32.11 18.6744 32.0342 18.3712L31.6702 16.9152C31.5589 16.47 31.1589 16.1577 30.7 16.1577H28.5779C28.1092 16.1577 27.7034 16.4833 27.6017 16.9408L27.2249 18.6366C27.1487 18.9795 26.8982 19.2573 26.565 19.3684L25.5643 19.7019C25.2607 19.8031 24.9271 19.753 24.6667 19.567L23.4127 18.6712C23.0149 18.387 22.47 18.4321 22.1243 18.7778L20.8752 20.027C20.5709 20.3314 20.4954 20.7963 20.6879 21.1813L21.5055 22.8166C21.637 23.0797 21.6461 23.3873 21.5302 23.6577L20.8978 25.1334C20.7747 25.4206 20.5244 25.6338 20.2212 25.7096L18.7653 26.0736C18.3201 26.1849 18.0078 26.5849 18.0078 27.0438V28.4924C18.0078 28.9611 18.3333 29.3669 18.7909 29.4686L20.4359 29.8342C20.8057 29.9164 21.0973 30.2004 21.1891 30.5679L21.6154 32.2732C21.678 32.5234 21.6415 32.788 21.5136 33.0119L20.7756 34.3034C20.5376 34.7198 20.6289 35.2466 20.993 35.5587L22.2192 36.6098C22.5247 36.8717 22.9574 36.9249 23.3173 36.745L25.0031 35.902C25.2662 35.7705 25.5739 35.7614 25.8443 35.8773L27.3198 36.5097C27.6071 36.6328 27.8202 36.8832 27.896 37.1863L28.26 38.6424C28.3713 39.0876 28.7713 39.3999 29.2302 39.3999H30.7C31.1589 39.3999 31.5589 39.0876 31.6702 38.6424Z" stroke="white" stroke-width="2" stroke-linecap="round"/>
<path d="M16.6567 40.4104C19.6886 43.442 20.699 46.4736 21.0354 50.5157C26.7618 50.5157 30.8037 50.8526 38.8866 50.5157C38.8866 43.7789 42.254 42.0953 44.6127 38.7265C46.9713 35.3578 49.0277 30.3051 47.6441 23.9055C45.4884 13.9349 37.5399 10.0946 31.4765 9.4209C23.0565 9.4209 18.0048 12.4525 14.9729 16.8314C7.74312 27.2736 13.6248 37.3788 16.6567 40.4104Z" stroke="white" stroke-width="2" stroke-linecap="round"/>
<rect x="18.6719" y="51.1792" width="22.2514" height="4.73685" rx="2.36843" stroke="white" stroke-width="2"/>
<rect x="20.6875" y="55.895" width="18.2095" height="4.73685" rx="2.36843" stroke="white" stroke-width="2"/>
<rect x="26.082" y="60.6104" width="7.4311" height="3.38948" rx="1.69474" stroke="white" stroke-width="2"/>
<path d="M29.7949 22.8838C32.591 22.8838 34.8584 25.1509 34.8584 27.9473C34.8582 30.7435 32.5909 33.0098 29.7949 33.0098C26.9991 33.0096 24.7326 30.7434 24.7324 27.9473C24.7324 25.151 26.999 22.884 29.7949 22.8838Z" stroke="white" stroke-width="2"/>
<path d="M8.41016 41.4209L4.1959 43.6459" stroke="white" stroke-width="2" stroke-linecap="round"/>
<path d="M50.6836 42.7686L54.8979 44.9936" stroke="white" stroke-width="2" stroke-linecap="round"/>
<path d="M5.7168 29.2949H1.00125" stroke="white" stroke-width="2" stroke-linecap="round"/>
<path d="M54.0488 30.6416H58.7644" stroke="white" stroke-width="2" stroke-linecap="round"/>
<path d="M8.91016 17.1685L4.86826 15.1474" stroke="white" stroke-width="2" stroke-linecap="round"/>
<path d="M51.3555 17.8418L55.3974 15.8207" stroke="white" stroke-width="2" stroke-linecap="round"/>
<path d="M18.3457 7.73633L16.3248 4.3679" stroke="white" stroke-width="2" stroke-linecap="round"/>
<path d="M30.4688 5.71582V1.00002" stroke="white" stroke-width="2" stroke-linecap="round"/>
<path d="M29.7969 49.5054V39.4001" stroke="white" stroke-width="2" stroke-linecap="round"/>
<path d="M42.7656 8.41064L44.7866 5.04222" stroke="white" stroke-width="2" stroke-linecap="round"/>
</svg>
