<svg id="Layer_1" data-name="Layer 1" xmlns="http://www.w3.org/2000/svg" xmlns:xlink="http://www.w3.org/1999/xlink" viewBox="0 0 163.57 101"><defs><style>.cls-1,.cls-2{fill:none;}.cls-1{clip-rule:evenodd;}.cls-3{clip-path:url(#clip-path);}.cls-4{clip-path:url(#clip-path-2);}.cls-5{fill:#2674b9;}.cls-6{clip-path:url(#clip-path-3);}.cls-7{fill:#fff;}.cls-8{clip-path:url(#clip-path-5);}.cls-9{clip-path:url(#clip-path-7);}.cls-10{clip-path:url(#clip-path-9);}.cls-11{clip-path:url(#clip-path-11);}.cls-12{clip-path:url(#clip-path-13);}</style><clipPath id="clip-path" transform="translate(5 4.12)"><path class="cls-1" d="M146.42.88H7.15A7.18,7.18,0,0,0,0,8.05V84.71a7.18,7.18,0,0,0,7.15,7.17H146.42a7.18,7.18,0,0,0,7.15-7.17V8.05A7.18,7.18,0,0,0,146.42.88"/></clipPath><clipPath id="clip-path-2" transform="translate(5 4.12)"><rect class="cls-2" x="-110" y="-83" width="375" height="667"/></clipPath><clipPath id="clip-path-3" transform="translate(5 4.12)"><path class="cls-1" d="M50.5,74.81A1.54,1.54,0,0,1,49,76.35H16.86a1.54,1.54,0,0,1-1.53-1.54v-57a1.54,1.54,0,0,1,1.53-1.54H49a1.54,1.54,0,0,1,1.53,1.54Z"/></clipPath><clipPath id="clip-path-5" transform="translate(5 4.12)"><polygon class="cls-1" points="73.86 68.02 58.76 68.02 58.76 25.13 67.24 25.13 67.24 60.43 75.26 60.43 73.86 68.02"/></clipPath><clipPath id="clip-path-7" transform="translate(5 4.12)"><polygon class="cls-1" points="95.04 68.02 93.78 58.82 87.19 58.82 85.93 68.02 77.63 68.02 85.55 25.13 95.47 25.13 103.34 68.02 95.04 68.02"/></clipPath><clipPath id="clip-path-9" transform="translate(5 4.12)"><polygon class="cls-1" points="131.51 68.02 124.41 68.02 119.78 43.44 115.47 68.02 108.37 68.02 100.26 25.13 108.32 25.13 112.17 48.5 116.27 25.13 123.26 25.13 127.49 48.4 130.97 25.13 139.03 25.13 131.51 68.02"/></clipPath><clipPath id="clip-path-11" transform="translate(5 4.12)"><polygon class="cls-1" points="88.43 51.23 92.55 51.23 90.49 38.16 88.43 51.23"/></clipPath><clipPath id="clip-path-13" transform="translate(5 4.12)"><path class="cls-1" d="M32.71,26a52.43,52.43,0,0,1-10,5.43l-.62.27v5.72h6.79V67.28H39.74V25.79H33Z"/></clipPath></defs><title>1law-logo</title><g class="cls-3"><g class="cls-4"><rect class="cls-5" width="163.57" height="101"/></g></g><g class="cls-6"><g class="cls-4"><rect class="cls-7" x="15.32" y="15.39" width="45.18" height="70.08"/></g></g><g class="cls-8"><g class="cls-4"><rect class="cls-7" x="58.76" y="24.25" width="26.51" height="52.89"/></g></g><g class="cls-9"><g class="cls-4"><rect class="cls-7" x="77.63" y="24.25" width="35.71" height="52.89"/></g></g><g class="cls-10"><g class="cls-4"><rect class="cls-7" x="100.26" y="24.25" width="48.77" height="52.89"/></g></g><g class="cls-11"><g class="cls-4"><rect class="cls-5" x="88.43" y="37.28" width="14.12" height="23.07"/></g></g><g class="cls-12"><g class="cls-4"><rect class="cls-5" x="22.1" y="24.91" width="27.64" height="51.49"/></g></g></svg>
