<svg width="32" height="32" viewBox="0 0 32 32" fill="none" xmlns="http://www.w3.org/2000/svg">
<path d="M4 16H5.33333M16 4V5.33333M26.6667 16H28M7.46667 7.46667L8.4 8.4M24.5333 7.46667L23.6 8.4" stroke="#666666" stroke-width="1.5" stroke-linecap="round" stroke-linejoin="round"/>
<path d="M12 21.333C10.8807 20.4935 10.0538 19.323 9.63662 17.9875C9.21942 16.6519 9.23301 15.2189 9.67549 13.8915C10.118 12.5641 10.9669 11.4095 12.102 10.5914C13.2371 9.77326 14.6008 9.33301 16 9.33301C17.3993 9.33301 18.763 9.77326 19.8981 10.5914C21.0332 11.4095 21.8821 12.5641 22.3246 13.8915C22.7671 15.2189 22.7807 16.6519 22.3635 17.9875C21.9463 19.323 21.1194 20.4935 20 21.333C19.4795 21.8483 19.0875 22.4789 18.8559 23.1738C18.6242 23.8687 18.5594 24.6084 18.6667 25.333C18.6667 26.0403 18.3858 26.7185 17.8857 27.2186C17.3856 27.7187 16.7073 27.9997 16 27.9997C15.2928 27.9997 14.6145 27.7187 14.1144 27.2186C13.6143 26.7185 13.3334 26.0403 13.3334 25.333C13.4406 24.6084 13.3758 23.8687 13.1442 23.1738C12.9126 22.4789 12.5206 21.8483 12 21.333Z" stroke="#666666" stroke-width="1.5" stroke-linecap="round" stroke-linejoin="round"/>
<path d="M12.9333 22.667H19.0667" stroke="#666666" stroke-width="1.5" stroke-linecap="round" stroke-linejoin="round"/>
</svg>
