<svg width="32" height="32" viewBox="0 0 32 32" fill="none" xmlns="http://www.w3.org/2000/svg">
<path d="M5.33337 17.333C7.71083 17.6156 9.9241 18.6897 11.6171 20.3827C13.31 22.0756 14.3842 24.2889 14.6667 26.6663C15.8453 25.9869 16.8311 25.0181 17.531 23.8516C18.2309 22.6851 18.6218 21.3593 18.6667 19.9997C20.9055 19.2121 22.8605 17.7783 24.2845 15.8797C25.7085 13.981 26.5375 11.7028 26.6667 9.33301C26.6667 8.27214 26.2453 7.25473 25.4951 6.50458C24.745 5.75444 23.7276 5.33301 22.6667 5.33301C20.2969 5.46222 18.0187 6.29123 16.12 7.71521C14.2214 9.13919 12.7876 11.0942 12 13.333C10.6404 13.3779 9.31465 13.7688 8.14813 14.4687C6.9816 15.1686 6.01283 16.1544 5.33337 17.333Z" stroke="#666666" stroke-width="1.5" stroke-linecap="round" stroke-linejoin="round"/>
<path d="M9.33328 18.667C7.94559 19.4504 6.82349 20.6304 6.11082 22.0558C5.39816 23.4811 5.12741 25.0868 5.33328 26.667C6.91349 26.8729 8.51918 26.6021 9.94451 25.8895C11.3698 25.1768 12.5499 24.0547 13.3333 22.667" stroke="#666666" stroke-width="1.5" stroke-linecap="round" stroke-linejoin="round"/>
<path d="M18.6666 12.0003C18.6666 12.3539 18.8071 12.6931 19.0572 12.9431C19.3072 13.1932 19.6463 13.3337 20 13.3337C20.3536 13.3337 20.6927 13.1932 20.9428 12.9431C21.1928 12.6931 21.3333 12.3539 21.3333 12.0003C21.3333 11.6467 21.1928 11.3076 20.9428 11.0575C20.6927 10.8075 20.3536 10.667 20 10.667C19.6463 10.667 19.3072 10.8075 19.0572 11.0575C18.8071 11.3076 18.6666 11.6467 18.6666 12.0003Z" stroke="#666666" stroke-width="1.5" stroke-linecap="round" stroke-linejoin="round"/>
</svg>
