<svg width="32" height="32" viewBox="0 0 32 32" fill="none" xmlns="http://www.w3.org/2000/svg">
<path d="M16 22.667L13.3334 25.3337L16 28.0003" stroke="#666666" stroke-width="1.5" stroke-linecap="round" stroke-linejoin="round"/>
<path d="M13.3334 25.333H25.3334C25.7582 25.3111 26.1716 25.1879 26.5391 24.9737C26.9066 24.7594 27.2175 24.4604 27.4458 24.1015C27.6742 23.7427 27.8134 23.3344 27.8518 22.9108C27.8903 22.4871 27.8268 22.0604 27.6667 21.6663L26.9334 20.333" stroke="#666666" stroke-width="1.5" stroke-linecap="round" stroke-linejoin="round"/>
<path d="M11.3814 14.6671L10.4054 11.0244L6.7627 12.0004" stroke="#666666" stroke-width="1.5" stroke-linecap="round" stroke-linejoin="round"/>
<path d="M10.4053 11.0244L4.40527 21.4164C4.212 21.7952 4.1121 22.2147 4.11392 22.6399C4.11573 23.0651 4.21921 23.4837 4.41572 23.8608C4.61223 24.2379 4.89607 24.5626 5.24355 24.8077C5.59104 25.0527 5.9921 25.2112 6.41327 25.2697L7.93461 25.3017" stroke="#666666" stroke-width="1.5" stroke-linecap="round" stroke-linejoin="round"/>
<path d="M20.6187 14.6667L24.2613 15.6427L25.2373 12" stroke="#666666" stroke-width="1.5" stroke-linecap="round" stroke-linejoin="round"/>
<path d="M24.2613 15.6424L18.2613 5.25043C18.0298 4.89368 17.7164 4.59745 17.3472 4.38648C16.978 4.1755 16.5636 4.05589 16.1388 4.03762C15.7139 4.01935 15.2908 4.10296 14.9048 4.28146C14.5189 4.45997 14.1812 4.72819 13.92 5.06376L13.132 6.36509" stroke="#666666" stroke-width="1.5" stroke-linecap="round" stroke-linejoin="round"/>
</svg>
