<svg width="32" height="32" viewBox="0 0 32 32" fill="none" xmlns="http://www.w3.org/2000/svg">
<path d="M4 27.9997V22.6663C4 21.6115 4.31279 20.5804 4.89883 19.7033C5.48486 18.8262 6.31782 18.1427 7.29236 17.739C8.26689 17.3353 9.33925 17.2297 10.3738 17.4355C11.4084 17.6413 12.3587 18.1492 13.1046 18.8951C13.8505 19.641 14.3584 20.5913 14.5642 21.6259C14.77 22.6604 14.6644 23.7328 14.2607 24.7073C13.857 25.6819 13.1734 26.5148 12.2964 27.1008C11.4193 27.6869 10.3882 27.9997 9.33333 27.9997H4Z" stroke="#666666" strokeWidth="1.5" strokeLinecap="round" strokeLinejoin="round"/>
<path d="M28 4C24.1944 4.52053 20.6 6.05886 17.5961 8.45259C14.5922 10.8463 12.2903 14.0067 10.9333 17.6" stroke="#666666" strokeWidth="1.5" strokeLinecap="round" strokeLinejoin="round"/>
<path d="M28 4C27.4795 7.80558 25.9412 11.4 23.5474 14.4039C21.1537 17.4078 17.9934 19.7097 14.4 21.0667" stroke="#666666" strokeWidth="1.5" strokeLinecap="round" strokeLinejoin="round"/>
<path d="M14.1333 12C16.7242 13.1958 18.8041 15.2758 20 17.8667" stroke="#666666" strokeWidth="1.5" strokeLinecap="round" strokeLinejoin="round"/>
</svg>
