<svg width="32" height="32" viewBox="0 0 32 32" fill="none" xmlns="http://www.w3.org/2000/svg">
<path d="M17.3334 12.0003C17.3334 11.6467 17.4739 11.3076 17.7239 11.0575C17.9739 10.8075 18.3131 10.667 18.6667 10.667H26.6667C27.0203 10.667 27.3595 10.8075 27.6095 11.0575C27.8596 11.3076 28 11.6467 28 12.0003V25.3337C28 25.6873 27.8596 26.0264 27.6095 26.2765C27.3595 26.5265 27.0203 26.667 26.6667 26.667H18.6667C18.3131 26.667 17.9739 26.5265 17.7239 26.2765C17.4739 26.0264 17.3334 25.6873 17.3334 25.3337V12.0003Z" stroke="#666666" stroke-width="1.5" stroke-linecap="round" stroke-linejoin="round"/>
<path d="M24 10.6663V6.66634C24 6.31272 23.8595 5.97358 23.6095 5.72353C23.3594 5.47348 23.0203 5.33301 22.6667 5.33301H5.33333C4.97971 5.33301 4.64057 5.47348 4.39052 5.72353C4.14048 5.97358 4 6.31272 4 6.66634V22.6663C4 23.02 4.14048 23.3591 4.39052 23.6092C4.64057 23.8592 4.97971 23.9997 5.33333 23.9997H17.3333" stroke="#666666" stroke-width="1.5" stroke-linecap="round" stroke-linejoin="round"/>
<path d="M21.3334 12H24" stroke="#666666" stroke-width="1.5" stroke-linecap="round" stroke-linejoin="round"/>
</svg>
