<svg width="82" height="48" viewBox="0 0 82 48" fill="none" xmlns="http://www.w3.org/2000/svg">
<path d="M0 31.8001C0 31.5121 0.12419 31.2381 0.340766 31.0482L34.0959 1.45467C34.7422 0.887984 35.7551 1.34699 35.7551 2.20661V16.1999C35.7551 16.4879 35.6309 16.7619 35.4143 16.9518L1.65923 46.5453C1.01286 47.112 0 46.653 0 45.7934V31.8001Z" fill="#8DCAFF"/>
<path d="M22.8979 31.8001C22.8979 31.5121 23.0221 31.2381 23.2387 31.0482L56.9938 1.45467C57.6402 0.887984 58.653 1.34699 58.653 2.20661V16.1999C58.653 16.4879 58.5289 16.7619 58.3123 16.9518L24.5572 46.5453C23.9108 47.112 22.8979 46.653 22.8979 45.7934V31.8001Z" fill="#4C96D7"/>
<path d="M45.7959 31.8001C45.7959 31.5121 45.9201 31.2381 46.1367 31.0482L79.8918 1.45467C80.5381 0.887984 81.551 1.34699 81.551 2.20661V16.1999C81.551 16.4879 81.4268 16.7619 81.2102 16.9518L47.4551 46.5453C46.8088 47.112 45.7959 46.653 45.7959 45.7934V31.8001Z" fill="#1761A0"/>
</svg>
