<svg width="296" height="48" viewBox="0 0 296 48" fill="none" xmlns="http://www.w3.org/2000/svg">
<path d="M214 31.8001C214 31.5121 214.124 31.2381 214.341 31.0482L248.096 1.45467C248.742 0.887984 249.755 1.34699 249.755 2.20661V16.1999C249.755 16.4879 249.631 16.7619 249.414 16.9518L215.659 46.5453C215.013 47.112 214 46.653 214 45.7934V31.8001Z" fill="#8DCAFF"/>
<path d="M236.898 31.8001C236.898 31.5121 237.022 31.2381 237.239 31.0482L270.994 1.45467C271.64 0.887984 272.653 1.34699 272.653 2.20661V16.1999C272.653 16.4879 272.529 16.7619 272.312 16.9518L238.557 46.5453C237.911 47.112 236.898 46.653 236.898 45.7934V31.8001Z" fill="#4C96D7"/>
<path d="M259.796 31.8001C259.796 31.5121 259.92 31.2381 260.137 31.0482L293.892 1.45467C294.538 0.887984 295.551 1.34699 295.551 2.20661V16.1999C295.551 16.4879 295.427 16.7619 295.21 16.9518L261.455 46.5453C260.809 47.112 259.796 46.653 259.796 45.7934V31.8001Z" fill="#1761A0"/>
<path d="M11.184 13.88V20.696H22.176V27.032H11.184V34.424H23.616V41H2.976V7.304H23.616V13.88H11.184ZM40.0328 33.32L45.8408 14.216H54.5768L45.0728 41H34.9448L25.4408 14.216H34.2248L40.0328 33.32ZM69.2636 41.384C66.6396 41.384 64.2716 40.824 62.1596 39.704C60.0796 38.584 58.4316 36.984 57.2156 34.904C56.0316 32.824 55.4396 30.392 55.4396 27.608C55.4396 24.856 56.0476 22.44 57.2636 20.36C58.4796 18.248 60.1436 16.632 62.2556 15.512C64.3676 14.392 66.7356 13.832 69.3596 13.832C71.9836 13.832 74.3516 14.392 76.4636 15.512C78.5756 16.632 80.2396 18.248 81.4556 20.36C82.6716 22.44 83.2796 24.856 83.2796 27.608C83.2796 30.36 82.6556 32.792 81.4076 34.904C80.1916 36.984 78.5116 38.584 76.3676 39.704C74.2556 40.824 71.8876 41.384 69.2636 41.384ZM69.2636 34.28C70.8316 34.28 72.1596 33.704 73.2476 32.552C74.3676 31.4 74.9276 29.752 74.9276 27.608C74.9276 25.464 74.3836 23.816 73.2956 22.664C72.2396 21.512 70.9276 20.936 69.3596 20.936C67.7596 20.936 66.4316 21.512 65.3756 22.664C64.3196 23.784 63.7916 25.432 63.7916 27.608C63.7916 29.752 64.3036 31.4 65.3276 32.552C66.3836 33.704 67.6956 34.28 69.2636 34.28ZM94.8821 5.48V41H86.6741V5.48H94.8821Z" fill="#2F5597"/>
<path d="M120.366 7.448V10.232H111.054V41H107.694V10.232H98.3344V7.448H120.366ZM147.464 26.552C147.464 27.704 147.432 28.584 147.368 29.192H125.624C125.72 31.176 126.2 32.872 127.064 34.28C127.928 35.688 129.064 36.76 130.472 37.496C131.88 38.2 133.416 38.552 135.08 38.552C137.256 38.552 139.08 38.024 140.552 36.968C142.056 35.912 143.048 34.488 143.528 32.696H147.08C146.44 35.256 145.064 37.352 142.952 38.984C140.872 40.584 138.248 41.384 135.08 41.384C132.616 41.384 130.408 40.84 128.456 39.752C126.504 38.632 124.968 37.064 123.848 35.048C122.76 33 122.216 30.616 122.216 27.896C122.216 25.176 122.76 22.792 123.848 20.744C124.936 18.696 126.456 17.128 128.408 16.04C130.36 14.952 132.584 14.408 135.08 14.408C137.576 14.408 139.752 14.952 141.608 16.04C143.496 17.128 144.936 18.6 145.928 20.456C146.952 22.28 147.464 24.312 147.464 26.552ZM144.056 26.456C144.088 24.504 143.688 22.84 142.856 21.464C142.056 20.088 140.952 19.048 139.544 18.344C138.136 17.64 136.6 17.288 134.936 17.288C132.44 17.288 130.312 18.088 128.552 19.688C126.792 21.288 125.816 23.544 125.624 26.456H144.056ZM150.155 27.896C150.155 25.176 150.699 22.808 151.787 20.792C152.875 18.744 154.379 17.176 156.299 16.088C158.219 14.968 160.411 14.408 162.875 14.408C166.107 14.408 168.763 15.208 170.843 16.808C172.955 18.408 174.315 20.584 174.923 23.336H171.323C170.875 21.448 169.899 19.976 168.395 18.92C166.923 17.832 165.083 17.288 162.875 17.288C161.115 17.288 159.531 17.688 158.123 18.488C156.715 19.288 155.595 20.488 154.763 22.088C153.963 23.656 153.563 25.592 153.563 27.896C153.563 30.2 153.963 32.152 154.763 33.752C155.595 35.352 156.715 36.552 158.123 37.352C159.531 38.152 161.115 38.552 162.875 38.552C165.083 38.552 166.923 38.024 168.395 36.968C169.899 35.88 170.875 34.376 171.323 32.456H174.923C174.315 35.144 172.955 37.304 170.843 38.936C168.731 40.568 166.075 41.384 162.875 41.384C160.411 41.384 158.219 40.84 156.299 39.752C154.379 38.632 152.875 37.064 151.787 35.048C150.699 33 150.155 30.616 150.155 27.896ZM191.689 14.312C193.673 14.312 195.449 14.728 197.017 15.56C198.617 16.392 199.865 17.672 200.761 19.4C201.689 21.096 202.153 23.176 202.153 25.64V41H198.841V26.024C198.841 23.176 198.121 21 196.681 19.496C195.273 17.992 193.337 17.24 190.873 17.24C188.345 17.24 186.329 18.04 184.825 19.64C183.321 21.24 182.569 23.592 182.569 26.696V41H179.209V5.48H182.569V19.256C183.401 17.688 184.617 16.472 186.217 15.608C187.849 14.744 189.673 14.312 191.689 14.312Z" fill="#8D9AAB"/>
</svg>
