<svg width="237" height="64" viewBox="0 0 237 64" fill="none" xmlns="http://www.w3.org/2000/svg">
<g clip-path="url(#clip0_4592_31574)">
<path d="M4.70845 36.8817H1.6908C1.2441 36.8817 0.815529 36.7051 0.498598 36.3902C0.181666 36.0754 0.00210121 35.6479 -0.000917008 35.2011V29.2447C-0.00890725 29.0204 0.0293852 28.7968 0.111574 28.5879C0.193763 28.379 0.318087 28.1892 0.476799 28.0305C0.63551 27.8718 0.825208 27.7474 1.03407 27.6652C1.24293 27.583 1.46649 27.5447 1.6908 27.5527H4.70845V17.8692C4.70845 7.01965 12.264 0 22.22 0C26.9932 0.172269 31.6565 1.48136 35.8223 3.81851C36.1903 4.05594 36.452 4.4269 36.5522 4.85335C36.6524 5.27979 36.5833 5.72848 36.3595 6.10504L33.3418 11.707C32.7246 12.9532 32.0045 13.0447 30.9414 12.5073C30.5871 12.3244 25.8777 10.015 22.3228 10.015C19.1223 10.015 15.8303 12.4159 15.8303 17.9264V27.5298H39.7201C40.1687 27.5298 40.599 27.7081 40.9163 28.0254C41.2335 28.3427 41.4118 28.7731 41.4118 29.2219V61.4162C41.3975 61.8604 41.2147 62.2826 40.9004 62.5968C40.5862 62.9111 40.1642 63.094 39.7201 63.1082H32.3474C31.8987 63.1082 31.4684 62.93 31.1512 62.6127C30.8339 62.2953 30.6557 61.865 30.6557 61.4162V36.8817H15.796V61.4162C15.796 63.1082 13.75 63.1082 12.3669 63.1082H6.40016C5.95603 63.094 5.53399 62.9111 5.21977 62.5968C4.90556 62.2826 4.72274 61.8604 4.70845 61.4162V36.8817Z" fill="#FF6B00"/>
<path d="M46.1215 29.7248C45.5843 28.5815 46.0301 27.5869 47.3674 27.5869H55.0945C55.4286 27.5654 55.7613 27.6471 56.0475 27.8209C56.3337 27.9947 56.5596 28.2522 56.6947 28.5586L63.8959 45.0903H64.0788L71.7144 28.5815C72.1602 27.6897 72.8575 27.6097 73.8519 27.6097H80.7788C82.1161 27.6097 82.642 28.5815 82.0247 29.7476L65.7705 63.1081C65.6254 63.3812 65.4078 63.609 65.1416 63.7663C64.8754 63.9237 64.5709 64.0045 64.2617 63.9999H63.8159C63.5067 64.0045 63.2023 63.9237 62.9361 63.7663C62.6699 63.609 62.4522 63.3812 62.3071 63.1081L46.1215 29.7248Z" fill="#FF6B00"/>
<path d="M100.588 26.6609C102.775 26.6177 104.948 27.0151 106.978 27.8295C109.008 28.6438 110.853 29.8584 112.404 31.401C113.955 32.9435 115.179 34.7824 116.005 36.8082C116.83 38.834 117.239 41.0052 117.208 43.1925C117.192 43.9955 117.131 44.7971 117.025 45.5934C116.975 46.0077 116.776 46.3896 116.465 46.6674C116.153 46.9452 115.751 47.0999 115.334 47.1025H92.587C92.7629 49.2322 93.7369 51.2168 95.3141 52.6586C96.8912 54.1003 98.9548 54.8926 101.091 54.8767C103.578 54.8291 105.992 54.0321 108.018 52.5901C108.91 52.0528 109.71 51.8813 110.304 52.5901L113.951 56.7631C114.117 56.9069 114.249 57.0863 114.336 57.2881C114.423 57.4898 114.464 57.7087 114.455 57.9284C114.447 58.148 114.388 58.3629 114.285 58.557C114.182 58.7512 114.036 58.9195 113.859 59.0496C110.235 62.3451 105.485 64.125 100.588 64.0228C89.9237 64.0228 82.3682 55.5741 82.3682 45.3533C82.4253 35.2811 89.9809 26.6609 100.588 26.6609ZM106.807 40.8831C106.661 39.2537 105.918 37.7355 104.722 36.6195C103.526 35.5035 101.961 34.8681 100.325 34.8352C98.6359 34.8386 97.0044 35.4525 95.7315 36.5638C94.4586 37.6752 93.6301 39.2091 93.3986 40.8831H106.807Z" fill="#FF6B00"/>
<path d="M138.95 26.6611C134.083 26.7481 129.446 28.7445 126.037 32.2198C122.629 35.6951 120.723 40.371 120.73 45.2392C120.73 55.46 128.902 63.9888 138.95 63.9888C148.997 63.9888 157.17 55.46 157.17 45.2392C157.177 40.371 155.27 35.6951 151.862 32.2198C148.454 28.7445 143.816 26.7481 138.95 26.6611ZM145.614 54.7626L138.95 49.9152L132.286 54.7626L134.88 46.8741L128.216 42.0266H136.458L138.95 34.2981L141.499 42.1295H149.74L143.065 46.8741L145.614 54.7626Z" fill="#FF6B00"/>
<path d="M174.967 40.6199C177.166 40.6297 179.353 40.957 181.459 41.5917C181.551 37.0186 180.122 35.4638 176.887 35.4638C173.512 35.514 170.155 35.963 166.885 36.8014C165.639 37.1558 165.022 36.3555 164.839 35.2008L164.039 30.6277C163.968 30.4003 163.944 30.1609 163.969 29.924C163.994 29.6871 164.067 29.4578 164.184 29.2501C164.301 29.0424 164.458 28.8608 164.648 28.7163C164.837 28.5718 165.054 28.4675 165.285 28.4098C169.223 27.3301 173.284 26.7615 177.367 26.7178C188.478 26.7178 191.084 32.4913 191.084 42.1862V61.4159C191.069 61.8601 190.887 62.2822 190.572 62.5965C190.258 62.9108 189.836 63.0936 189.392 63.1079H186.191C185.574 63.1079 185.128 62.845 184.683 61.8618L183.62 59.4609C182.205 60.9017 180.519 62.0477 178.659 62.8327C176.799 63.6176 174.802 64.0259 172.783 64.034C165.674 64.034 160.781 59.4609 160.781 51.8582C160.747 45.5016 165.902 40.6199 174.967 40.6199ZM175.15 56.4427C176.361 56.3599 177.539 56.0093 178.598 55.4162C179.658 54.8231 180.572 54.0023 181.276 53.0129V48.0854C179.698 47.4285 178.013 47.068 176.304 47.0222C172.875 47.0222 170.532 48.9772 170.532 51.8239C170.506 52.4363 170.607 53.0475 170.83 53.6188C171.052 54.19 171.39 54.709 171.823 55.143C172.256 55.577 172.774 55.9166 173.344 56.1403C173.915 56.364 174.526 56.4669 175.138 56.4427H175.15Z" fill="#FF6B00"/>
<path d="M199.336 2.5722C199.353 2.12999 199.537 1.71071 199.851 1.39885C200.165 1.08699 200.585 0.905732 201.028 0.891602H208.583C209.033 0.894199 209.465 1.07035 209.789 1.38339C210.113 1.69643 210.303 2.12225 210.321 2.5722V41.066L222.528 28.5815C223.103 27.9549 223.898 27.574 224.746 27.5183H232.827C233.131 27.5033 233.433 27.5807 233.692 27.7404C233.952 27.9 234.157 28.1343 234.28 28.4126C234.404 28.6909 234.44 29.0001 234.385 29.2996C234.33 29.5991 234.185 29.8748 233.97 30.0906L220.757 43.6383L236.611 60.5929C236.828 60.8017 236.975 61.073 237.031 61.369C237.087 61.6651 237.05 61.9713 236.924 62.2452C236.799 62.5191 236.591 62.7471 236.33 62.8976C236.069 63.0482 235.768 63.1137 235.468 63.0853H225.866C225.29 63.0542 224.749 62.8 224.357 62.3764L210.321 46.3936V61.4161C210.306 61.8603 210.124 62.2824 209.809 62.5967C209.495 62.911 209.073 63.0938 208.629 63.1081H201.073C200.629 63.0938 200.207 62.911 199.893 62.5967C199.579 62.2824 199.396 61.8603 199.382 61.4161L199.336 2.5722Z" fill="#FF6B00"/>
</g>
<defs>
<clipPath id="clip0_4592_31574">
<rect width="237" height="64" fill="white"/>
</clipPath>
</defs>
</svg>
