<svg width="635" height="374" viewBox="0 0 635 374" fill="none" xmlns="http://www.w3.org/2000/svg">
<g opacity="0.12">
<path d="M178 244.699C178 244.41 178.124 244.136 178.341 243.946L455.341 1.45206C455.988 0.886064 457 1.34521 457 2.20448V129.301C457 129.59 456.876 129.864 456.659 130.054L179.659 372.548C179.012 373.114 178 372.655 178 371.796V244.699Z" fill="#4C96D7"/>
<path d="M0 244.699C0 244.41 0.124407 244.136 0.341312 243.946L277.341 1.45206C277.988 0.886064 279 1.34521 279 2.20448V129.301C279 129.59 278.876 129.864 278.659 130.054L1.65868 372.548C1.01215 373.114 0 372.655 0 371.796V244.699Z" fill="#8DCAFF"/>
<path d="M357 244.697C357 244.41 357.124 244.136 357.34 243.946L633.34 1.45846C633.986 0.890765 635 1.34959 635 2.20971V129.303C635 129.59 634.876 129.864 634.66 130.054L358.66 372.542C358.014 373.109 357 372.65 357 371.79V244.697Z" fill="#1761A0"/>
</g>
</svg>
