<svg width="56" height="56" viewBox="0 0 56 56" fill="none" xmlns="http://www.w3.org/2000/svg">
<path d="M11.1633 28C11.1633 39.4454 21.8534 44.0486 27.2165 44.9241C27.229 44.9262 27.241 44.9271 27.2537 44.9271C27.3841 44.9271 27.4898 45.0328 27.4898 45.1632V51.2847C27.4898 52.232 26.7218 53 25.7745 53C24.9843 53 24.2964 52.4602 24.1084 51.6927L23.7349 50.1674C23.5274 49.3203 22.9616 48.6054 22.1848 48.2089L17.7217 45.9309C17.4351 45.7846 17.118 45.7083 16.7962 45.7083C16.2904 45.7083 15.8027 45.8966 15.4281 46.2365L14.2345 47.3197C13.8997 47.6234 13.4639 47.7917 13.0119 47.7917C12.4857 47.7917 11.9853 47.5639 11.6398 47.1671L9.55944 44.7779C8.69344 43.7834 8.57846 42.3399 9.27608 41.2208L9.45674 40.931C9.73843 40.4791 9.88775 39.9573 9.88775 39.4248C9.88775 39.1023 9.83295 38.7821 9.72568 38.4779L8.10839 33.8918C7.78444 32.9732 7.03468 32.2691 6.09758 32.0034L5.18157 31.7436C3.89081 31.3776 3 30.1991 3 28.8574V27.0231C3 25.7387 3.81765 24.5968 5.03358 24.183L6.22908 23.7762C7.09056 23.4831 7.77243 22.8147 8.08279 21.9593L9.69237 17.5229C9.9794 16.7318 9.92093 15.8565 9.53122 15.1105L9.17502 14.4288C8.54299 13.219 8.80724 11.7351 9.81803 10.8179L10.9738 9.76914C11.9865 8.85021 13.4925 8.73241 14.6357 9.48268L15.7864 10.2378C16.0825 10.4321 16.4601 10.4527 16.7755 10.2917C18.7506 9.51618 21.8795 8.46357 23.07 7.50519C23.3182 7.30535 23.4625 7.0133 23.5418 6.70462C23.7975 5.70826 23.9016 4.59387 24.0816 3.82586C24.2138 3.26179 24.7551 3 25.3344 3C26.5248 3 27.4898 3.965 27.4898 5.15539V10.2917C27.4898 11.0729 27.6222 11.5938 27.2347 11.5938C25.449 11.5938 11.1633 13.6771 11.1633 28Z" stroke="#A7D6FF" stroke-width="1.5"/>
<path d="M27.2337 40.5132C20.471 40.5132 14.9888 34.9722 14.9888 28.137C14.9888 21.3018 20.471 15.7607 27.2337 15.7607V40.2399" stroke="#A7D6FF" stroke-width="1.5" stroke-linecap="round"/>
<path d="M27.4888 19.4062H38.2031" stroke="#A7D6FF" stroke-width="1.5" stroke-linecap="round"/>
<path d="M27.4888 19.4062H38.2031" stroke="#A7D6FF" stroke-width="1.5" stroke-linecap="round"/>
<path d="M27.4888 28H48.9173" stroke="#A7D6FF" stroke-width="1.5" stroke-linecap="round"/>
<path d="M27.4888 36.5938H38.2031" stroke="#A7D6FF" stroke-width="1.5" stroke-linecap="round"/>
<path d="M27.2354 39.9795H32.6773C33.5701 39.9795 34.3932 40.462 34.8293 41.2411V41.2411C35.0353 41.6091 35.1435 42.0239 35.1435 42.4457V47.5316" stroke="#A7D6FF" stroke-width="1.5" stroke-linecap="round"/>
<path d="M27.2354 15.7607H32.6773C33.5701 15.7607 34.3932 15.2782 34.8293 14.4992V14.4992C35.0353 14.1311 35.1435 13.7163 35.1435 13.2945V8.20866" stroke="#A7D6FF" stroke-width="1.5" stroke-linecap="round"/>
<path d="M27.2354 23.5732H41.3508C42.2436 23.5732 43.0667 23.0907 43.5028 22.3117V22.3117C43.7088 21.9436 43.817 21.5288 43.817 21.107V16.542" stroke="#A7D6FF" stroke-width="1.5" stroke-linecap="round"/>
<path d="M27.2354 32.167H41.3508C42.2436 32.167 43.0667 32.6495 43.5028 33.4286V33.4286C43.7088 33.7966 43.817 34.2114 43.817 34.6332V39.1982" stroke="#A7D6FF" stroke-width="1.5" stroke-linecap="round"/>
<circle cx="35.1423" cy="6.12477" r="2.06197" stroke="#A7D6FF" stroke-width="1.5"/>
<circle cx="43.8168" cy="14.4588" r="2.06197" stroke="#A7D6FF" stroke-width="1.5"/>
<circle cx="50.9375" cy="27.9998" r="2.06197" stroke="#A7D6FF" stroke-width="1.5"/>
<circle cx="43.8168" cy="41.5418" r="2.06197" stroke="#A7D6FF" stroke-width="1.5"/>
<circle cx="35.1423" cy="49.8748" r="2.06197" stroke="#A7D6FF" stroke-width="1.5"/>
</svg>
