<svg width="57" height="56" viewBox="0 0 57 56" fill="none" xmlns="http://www.w3.org/2000/svg">
<path d="M39.2151 24.5054C39.2151 18.5668 34.401 13.7527 28.4624 13.7527C22.5239 13.7527 17.7097 18.5668 17.7097 24.5054" stroke="#A7D6FF" stroke-width="1.5"/>
<path d="M8.03234 29.3441V29.3441C6.99961 28.3114 6.41943 26.9107 6.41943 25.4502V24.2366C6.41943 23.2212 6.89748 22.2651 7.70976 21.6559V21.6559C8.26813 21.2371 8.94727 21.0108 9.64524 21.0108H9.70021C10.9845 21.0108 12.1586 20.2851 12.7329 19.1364L12.8666 18.869C13.5114 17.5795 13.2587 16.022 12.2392 15.0026V15.0026C11.611 14.3744 11.2581 13.5224 11.2581 12.6341V12.5875C11.2581 11.617 11.6654 10.6912 12.3808 10.0354L13.4283 9.0752C14.1073 8.4528 14.9949 8.10753 15.916 8.10753H16.1209C16.9661 8.10753 17.7767 8.44329 18.3744 9.04095V9.04095C19.2758 9.9424 20.6465 10.2124 21.8302 9.73893V9.73893C23.0639 9.24543 23.8926 8.04267 23.8926 6.71388V6.38981C23.8926 5.43144 24.3063 4.51973 25.0275 3.88864V3.88864C25.6787 3.3188 26.5266 3.02545 27.3907 3.07093L30.0552 3.21116C30.7604 3.24828 31.4269 3.54512 31.9263 4.04447V4.04447C32.4624 4.58055 32.7635 5.30764 32.7635 6.06578V6.73232C32.7635 8.05584 33.5523 9.25201 34.7688 9.77338V9.77338C35.8565 10.2396 37.1105 10.0892 38.0572 9.37918L38.8897 8.75481C39.4499 8.33465 40.1313 8.10753 40.8316 8.10753V8.10753C41.6899 8.10753 42.5131 8.4485 43.12 9.05544L44.8042 10.7396C45.5061 11.4415 45.7883 12.4602 45.5475 13.4232V13.4232C45.449 13.8174 45.2665 14.1858 45.0127 14.5031L44.5403 15.0936C43.7386 16.0957 43.5235 17.4459 43.9741 18.6475L44.0318 18.8014C44.5301 20.1303 45.8006 21.0108 47.2199 21.0108H47.2797C47.9776 21.0108 48.6568 21.2371 49.2151 21.6559V21.6559C50.0274 22.2651 50.5055 23.2212 50.5055 24.2366V25.4502C50.5055 26.9107 49.9253 28.3114 48.8926 29.3441V29.3441" stroke="#A7D6FF" stroke-width="1.5" stroke-linecap="round"/>
<circle cx="28.4623" cy="26.6559" r="4.62634" stroke="#A7D6FF" stroke-width="1.5"/>
<circle cx="42.4408" cy="30.4194" r="4.62634" stroke="#A7D6FF" stroke-width="1.5"/>
<circle cx="14.4838" cy="30.4194" r="4.62634" stroke="#A7D6FF" stroke-width="1.5"/>
<path d="M17.172 52.1936H9.49734C9.05957 52.1936 8.62095 52.154 8.20472 52.0184C6.50589 51.4648 4 50.0085 4 47.3548C4 45.2511 4 43.9874 4 43.3251C4 42.9652 4.02638 42.6064 4.11791 42.2583C4.66227 40.188 6.43497 36.871 10.1828 36.871C14.2688 36.871 17.4409 36.871 18.5161 36.871" stroke="#A7D6FF" stroke-width="1.5" stroke-linecap="round"/>
<path d="M39.7528 52.1936H48.0861C49.699 51.8351 52.9248 50.3656 52.9248 47.3548C52.9248 44.3441 52.9248 43.0538 52.9248 42.7849C52.5664 40.8136 50.828 36.871 46.742 36.871C42.656 36.871 39.4839 36.871 38.4087 36.871" stroke="#A7D6FF" stroke-width="1.5" stroke-linecap="round"/>
<path d="M23.3548 40.0968V51.9247C21.6523 52.1039 18.2473 51.8172 18.2473 49.2365C18.2473 46.6559 18.2473 42.0681 18.2473 40.0968C18.6057 37.9462 20.2366 33.6451 23.8925 33.6451C27.5484 33.6451 30.9713 33.6451 32.2258 33.6451C34.3763 33.8244 38.6774 35.3656 38.6774 40.0968C38.6774 44.8279 38.6774 48.1613 38.6774 49.2365C37.871 51.3871 36.5806 51.9247 33.5699 51.9247C33.5699 51.9247 33.5699 44.129 33.5699 40.0968" stroke="#A7D6FF" stroke-width="1.5" stroke-linecap="round"/>
<line x1="25.2366" y1="52.25" x2="31.6882" y2="52.25" stroke="#A7D6FF" stroke-width="1.5"/>
<line x1="9.58862" y1="41.7097" x2="9.58862" y2="51.3871" stroke="#A7D6FF" stroke-width="1.5"/>
<line x1="48.2983" y1="41.7097" x2="48.2983" y2="51.9247" stroke="#A7D6FF" stroke-width="1.5"/>
</svg>
