<svg width="56" height="56" viewBox="0 0 56 56" fill="none" xmlns="http://www.w3.org/2000/svg">
<path d="M29.0021 32.2425L29.2187 31.3759C29.2945 31.0728 29.5077 30.8224 29.7949 30.6993L30.7234 30.3014C31.0117 30.1779 31.3412 30.1967 31.6135 30.3523L32.4114 30.8083C32.7783 31.0179 33.2374 30.9743 33.5583 30.6993L34.1704 30.1746C34.5637 29.8375 34.6344 29.2557 34.3333 28.8341L33.8766 28.1948C33.6735 27.9104 33.6336 27.5407 33.7712 27.2196L34.1621 26.3075C34.2746 26.0449 34.4941 25.8431 34.765 25.7527L36.0237 25.3332C36.432 25.1971 36.7074 24.8149 36.7074 24.3845V23.3565C36.7074 22.8521 36.3319 22.4267 35.8315 22.3642L35.1713 22.2817C34.8188 22.2376 34.5162 22.0098 34.3762 21.6833L33.9709 20.7375C33.8694 20.5006 33.8632 20.2337 33.9537 19.9924L34.3947 18.8164C34.5227 18.4751 34.4548 18.0913 34.2176 17.8145L33.6189 17.116C33.2817 16.7226 32.7 16.6519 32.2784 16.9531L31.639 17.4098C31.3547 17.6128 30.985 17.6528 30.6639 17.5152L29.7949 17.1428C29.5077 17.0197 29.2945 16.7693 29.2187 16.4661L29.0021 15.5996C28.8908 15.1544 28.4908 14.8421 28.0319 14.8421H26.7201C26.2514 14.8421 25.8456 15.1676 25.7439 15.6252L25.5145 16.6578C25.4383 17.0007 25.1877 17.2785 24.8545 17.3896L24.2958 17.5758C23.9923 17.677 23.6587 17.6268 23.3983 17.4409L22.6599 16.9134C22.2621 16.6293 21.7172 16.6744 21.3716 17.0201L20.6381 17.7535C20.3338 18.0579 20.2583 18.5228 20.4508 18.9078L20.9737 19.9536C21.1052 20.2167 21.1143 20.5243 20.9984 20.7947L20.587 21.7546C20.4639 22.0419 20.2136 22.255 19.9104 22.3308L19.0438 22.5475C18.5987 22.6588 18.2864 23.0587 18.2864 23.5176V24.3031C18.2864 24.7718 18.6119 25.1776 19.0694 25.2793L20.0515 25.4975C20.4212 25.5797 20.7128 25.8637 20.8047 26.2312L21.0837 27.347C21.1462 27.5972 21.1097 27.8618 20.9818 28.0857L20.5385 28.8614C20.3005 29.2779 20.3918 29.8046 20.756 30.1168L21.4665 30.7258C21.7719 30.9876 22.2046 31.0409 22.5645 30.861L23.661 30.3127C23.9241 30.1811 24.2318 30.1721 24.5021 30.288L25.462 30.6993C25.7493 30.8224 25.9625 31.0728 26.0383 31.3759L26.2549 32.2425C26.3662 32.6877 26.7662 33 27.225 33H28.0319C28.4908 33 28.8908 32.6877 29.0021 32.2425Z" stroke="#A7D6FF" stroke-width="1.5" stroke-linecap="round"/>
<path d="M17.2332 33.7894C19.602 36.1579 20.3914 38.5263 20.6543 41.6842C25.1283 41.6842 28.2862 41.9473 34.6013 41.6842C34.6013 36.421 37.2321 35.1057 39.0749 32.4739C40.9177 29.8421 42.5244 25.8947 41.4434 20.895C39.7591 13.1055 33.5491 10.1052 28.8118 9.57892C22.2333 9.57892 18.2865 11.9473 15.9177 15.3684C10.2691 23.5263 14.8644 31.421 17.2332 33.7894Z" stroke="#A7D6FF" stroke-width="1.5" stroke-linecap="round"/>
<rect x="18.7732" y="42.171" width="17.4474" height="3.76316" rx="1.88158" stroke="#A7D6FF" stroke-width="1.5"/>
<rect x="20.3523" y="45.8553" width="14.2895" height="3.76316" rx="1.88158" stroke="#A7D6FF" stroke-width="1.5"/>
<rect x="24.5627" y="49.5395" width="5.86842" height="2.71053" rx="1.35526" stroke="#A7D6FF" stroke-width="1.5"/>
<circle cx="27.4969" cy="24.0526" r="3.98684" stroke="#A7D6FF" stroke-width="1.5"/>
<path d="M10.7896 34.5789L7.49699 36.3172" stroke="#A7D6FF" stroke-width="1.5" stroke-linecap="round"/>
<path d="M43.8127 35.6316L47.1053 37.3699" stroke="#A7D6FF" stroke-width="1.5" stroke-linecap="round"/>
<path d="M8.68433 25.1053H5.00012" stroke="#A7D6FF" stroke-width="1.5" stroke-linecap="round"/>
<path d="M46.4443 26.1579H50.1285" stroke="#A7D6FF" stroke-width="1.5" stroke-linecap="round"/>
<path d="M11.1812 15.6316L8.02326 14.0526" stroke="#A7D6FF" stroke-width="1.5" stroke-linecap="round"/>
<path d="M44.3391 16.1579L47.497 14.579" stroke="#A7D6FF" stroke-width="1.5" stroke-linecap="round"/>
<path d="M18.5496 8.26318L16.9706 5.6316" stroke="#A7D6FF" stroke-width="1.5" stroke-linecap="round"/>
<path d="M28.0232 6.6842V2.99999" stroke="#A7D6FF" stroke-width="1.5" stroke-linecap="round"/>
<path d="M27.4968 40.8947V33" stroke="#A7D6FF" stroke-width="1.5" stroke-linecap="round"/>
<path d="M37.6316 8.78949L39.2105 6.15791" stroke="#A7D6FF" stroke-width="1.5" stroke-linecap="round"/>
</svg>
