<svg width="197" height="54" viewBox="0 0 197 54" fill="none" xmlns="http://www.w3.org/2000/svg">
<path fill-rule="evenodd" clip-rule="evenodd" d="M75.0693 20.3945H86.2664V23.153H75.0693V30.1131H85.7188V32.8716H75.0693V42.6567H72.0551V20.3945H74.1072M99.0295 27.4212H101.952V42.6567H99.0295V40.5993C98.5177 41.2885 97.8712 41.8412 97.09 42.2575C96.1824 42.7385 95.1402 42.9791 93.9631 42.9791C92.5746 42.9791 91.3123 42.6311 90.1762 41.9351C89.0435 41.239 88.1514 40.2923 87.4997 39.0947C86.8481 37.8972 86.5223 36.5495 86.5223 35.0517C86.5223 33.5573 86.8481 32.2114 87.4997 31.0138C88.1514 29.8163 89.0384 28.8644 90.1608 28.1581C91.2833 27.4519 92.5507 27.0988 93.9631 27.0988C95.1197 27.0988 96.1517 27.3393 97.0592 27.8204C97.8508 28.24 98.5075 28.7961 99.0295 29.4887V27.4212ZM99.224 35.0568C99.224 34.0094 99.0261 33.095 98.6303 32.3137C98.2346 31.5358 97.6733 30.9268 96.9467 30.4867C96.22 30.05 95.3756 29.8316 94.4135 29.8316C93.4514 29.8316 92.6019 30.0551 91.865 30.502C91.1246 30.9524 90.5464 31.5682 90.1301 32.3495C89.7139 33.1274 89.5058 34.0196 89.5058 35.0261C89.5058 36.0531 89.7139 36.9572 90.1301 37.7385C90.5464 38.5164 91.1297 39.1305 91.8803 39.5809C92.6275 40.0313 93.4821 40.2564 94.4442 40.2564C95.8771 40.2564 97.032 39.7686 97.9088 38.7928C98.7856 37.8204 99.224 36.5751 99.224 35.0568ZM107.34 21.2185C107.682 21.5699 107.852 22.0015 107.852 22.5133C107.852 23.0489 107.682 23.4942 107.34 23.849C106.996 24.2004 106.557 24.3761 106.025 24.3761C105.49 24.3761 105.051 24.2004 104.71 23.849C104.369 23.4942 104.198 23.0489 104.198 22.5133C104.198 22.0015 104.369 21.5699 104.71 21.2185C105.051 20.8637 105.49 20.6862 106.025 20.6862C106.557 20.6862 106.996 20.8637 107.34 21.2185Z" fill="black"/>
<path fill-rule="evenodd" clip-rule="evenodd" d="M104.582 27.4212H107.469V42.6567H104.582V27.4212ZM120.974 28.8337L119.08 30.7886C118.76 30.4475 118.407 30.2018 118.021 30.0517C117.636 29.9016 117.187 29.8265 116.675 29.8265C115.604 29.8265 114.727 30.1694 114.045 30.8552C113.359 31.5375 113.016 32.5747 113.016 33.9668V42.6567H110.13V27.4212H113.016V29.197C113.098 29.0691 113.185 28.9463 113.272 28.8337C114.173 27.6771 115.467 27.0988 117.156 27.0988C117.924 27.0988 118.618 27.2335 119.239 27.5031C119.86 27.7692 120.438 28.2127 120.974 28.8337ZM137.186 32.6976C137.988 33.7347 138.389 34.9596 138.389 36.3721C138.389 37.5492 138.1 38.6068 137.524 39.5451C136.947 40.4867 136.118 41.2407 135.037 41.8071C133.959 42.3735 132.638 42.6567 131.076 42.6567H122.478V20.3945H130.82C132.273 20.3945 133.486 20.6572 134.459 21.1827C135.434 21.7047 136.173 22.3939 136.674 23.2502C137.176 24.1066 137.427 25.0483 137.427 26.0752C137.427 27.2728 137.101 28.3202 136.449 29.2175C136.016 29.8146 135.448 30.3263 134.745 30.7528C135.748 31.2441 136.562 31.8924 137.186 32.6976ZM125.498 23.025V29.632H130.887C131.954 29.632 132.804 29.3489 133.435 28.7825C134.066 28.2161 134.382 27.399 134.382 26.3311C134.382 25.2598 134.049 24.4409 133.384 23.8746C132.722 23.3082 131.845 23.025 130.753 23.025H125.498ZM135.349 36.1469C135.349 35.4202 135.189 34.7617 134.868 34.1715C134.547 33.5846 134.082 33.1206 133.471 32.7794C132.86 32.4348 132.149 32.2625 131.337 32.2625H125.498V40.0261H131.24C132.526 40.0261 133.532 39.6474 134.259 38.89C134.986 38.1292 135.349 37.2148 135.349 36.1469ZM143.143 21.2134C143.484 21.5648 143.655 21.9981 143.655 22.5133C143.655 23.0489 143.484 23.4925 143.143 23.8439C142.798 24.1953 142.36 24.371 141.828 24.371C141.292 24.371 140.854 24.1953 140.513 23.8439C140.171 23.4925 140.001 23.0489 140.001 22.5133C140.001 21.9981 140.171 21.5648 140.513 21.2134C140.854 20.862 141.292 20.6862 141.828 20.6862C142.36 20.6862 142.798 20.862 143.143 21.2134Z" fill="black"/>
<path fill-rule="evenodd" clip-rule="evenodd" d="M140.38 42.5046H143.266V27.2691H140.38V42.5046ZM157.477 19.5977V29.3623C156.938 28.656 156.265 28.0914 155.456 27.6683C154.535 27.1872 153.508 26.9467 152.375 26.9467C150.963 26.9467 149.7 27.2981 148.588 28.001C147.476 28.7072 146.594 29.6591 145.943 30.8567C145.291 32.0542 144.965 33.4019 144.965 34.8997C144.965 36.3975 145.291 37.7451 145.943 38.9427C146.594 40.1402 147.476 41.087 148.588 41.783C149.7 42.4756 150.963 42.8219 152.375 42.8219C153.532 42.8219 154.569 42.5814 155.487 42.1003C156.288 41.6807 156.952 41.1194 157.477 40.4166V42.5046H160.394V19.5977H157.477ZM155.374 39.4237C154.658 39.8707 153.818 40.0942 152.856 40.0942C151.894 40.0942 151.045 39.8707 150.308 39.4237C149.571 38.9734 148.994 38.3576 148.578 37.5762C148.158 36.7983 147.949 35.8959 147.949 34.869C147.949 33.8625 148.158 32.9686 148.578 32.1873C148.994 31.4094 149.566 30.7952 150.292 30.3449C151.019 29.8945 151.863 29.6694 152.826 29.6694C153.788 29.6694 154.627 29.8945 155.343 30.3449C156.06 30.7952 156.626 31.4043 157.042 32.1719C157.462 32.943 157.672 33.8522 157.672 34.8997C157.672 35.9062 157.469 36.7983 157.063 37.5762C156.653 38.3576 156.091 38.9734 155.374 39.4237Z" fill="black"/>
<path d="M48.1306 33.2607L59.2612 42.9998H37" fill="#EA0A8E"/>
<path d="M48.1307 33.2607V42.9998H59.2613" fill="#A90066"/>
<path d="M48.1306 11L59.2612 20.739V33.2621H37V20.739L48.1306 11Z" fill="#EA0A8E"/>
</svg>
