<svg xmlns="http://www.w3.org/2000/svg" viewBox="0 0 207.34 55.98"><defs><style>.a{fill:#102a43;}</style></defs><title>Fiveoak</title><path class="a" d="M4.12,32.26H1.48A1.48,1.48,0,0,1,0,30.79V25.58A1.43,1.43,0,0,1,1.48,24.1H4.12V15.63C4.12,6.14,10.73,0,19.44,0a26.26,26.26,0,0,1,11.9,3.34,1.48,1.48,0,0,1,.47,2l-2.64,4.9c-.54,1.09-1.17,1.17-2.1.7-.31-.16-4.43-2.18-7.54-2.18-2.8,0-5.68,2.1-5.68,6.92v8.4H34.75a1.48,1.48,0,0,1,1.48,1.48V53.72a1.53,1.53,0,0,1-1.48,1.48H28.3a1.48,1.48,0,0,1-1.48-1.48V32.26h-13V53.72c0,1.48-1.79,1.48-3,1.48H5.6a1.53,1.53,0,0,1-1.48-1.48Z"/><path class="a" d="M40.35,26c-.47-1-.08-1.87,1.09-1.87h6.76a1.43,1.43,0,0,1,1.4.85l6.3,14.46h.16L62.74,25c.39-.78,1-.85,1.87-.85h6.06c1.17,0,1.63.85,1.09,1.87L57.54,55.2a1.47,1.47,0,0,1-1.32.78h-.39a1.47,1.47,0,0,1-1.32-.78Z"/><path class="a" d="M88,23.32a14.26,14.26,0,0,1,14.54,14.46,19.09,19.09,0,0,1-.16,2.1,1.5,1.5,0,0,1-1.48,1.32H81A7.41,7.41,0,0,0,88.44,48,10.81,10.81,0,0,0,94.5,46c.78-.47,1.48-.62,2,0l3.19,3.65a1.28,1.28,0,0,1-.08,2A16.74,16.74,0,0,1,88,56c-9.33,0-15.94-7.39-15.94-16.33C72.11,30.86,78.72,23.32,88,23.32Zm5.44,12.44a5.81,5.81,0,0,0-5.67-5.29,6.13,6.13,0,0,0-6.06,5.29Z"/><path class="a" d="M121.56,23.32a16.23,16.23,0,0,0-15.94,16.25c0,8.94,7.15,16.4,15.94,16.4s15.94-7.46,15.94-16.4A16.23,16.23,0,0,0,121.56,23.32Zm5.83,24.58-5.83-4.24-5.83,4.24L118,41l-5.83-4.24h7.21L121.56,30l2.23,6.85H131L125.16,41Z"/><path class="a" d="M153.07,35.53a20,20,0,0,1,5.68.85c.08-4-1.17-5.36-4-5.36A37.48,37.48,0,0,0,146,32.19c-1.09.31-1.63-.39-1.79-1.4l-.7-4a1.53,1.53,0,0,1,1.09-1.94,41.67,41.67,0,0,1,10.57-1.48c9.72,0,12,5.05,12,13.53V53.72a1.53,1.53,0,0,1-1.48,1.48h-2.8c-.54,0-.93-.23-1.32-1.09l-.93-2.1a13.36,13.36,0,0,1-9.48,4c-6.22,0-10.5-4-10.5-10.65C140.63,39.8,145.14,35.53,153.07,35.53Zm.16,13.84a7.18,7.18,0,0,0,5.36-3V42.06a12.17,12.17,0,0,0-4.35-.93c-3,0-5.05,1.71-5.05,4.2A3.88,3.88,0,0,0,153.22,49.37Z"/><path class="a" d="M174.39,2.25A1.53,1.53,0,0,1,175.87.78h6.61A1.53,1.53,0,0,1,184,2.25V35.92L194.68,25a2.89,2.89,0,0,1,1.94-.93h7.07a1.32,1.32,0,0,1,1,2.25L193.13,38.17,207,53a1.27,1.27,0,0,1-1,2.18h-8.4a1.94,1.94,0,0,1-1.32-.62L184,40.58V53.72a1.53,1.53,0,0,1-1.48,1.48h-6.61a1.53,1.53,0,0,1-1.48-1.48Z"/></svg>