<svg width="300" height="56" viewBox="0 0 300 56" fill="none" xmlns="http://www.w3.org/2000/svg">
<path fill-rule="evenodd" clip-rule="evenodd" d="M7.32787 1.55164C9.79039 0.527246 12.4297 0 15.0951 0C17.7605 0 20.3999 0.527246 22.8624 1.55164C25.3249 2.57603 27.5624 4.0775 29.4472 5.97032C31.3319 7.86314 32.8269 10.1103 33.847 12.5834C34.867 15.0564 35.392 17.7071 35.392 20.384C35.392 23.0608 34.867 25.7115 33.847 28.1846C33.3107 29.4847 31.8266 30.102 30.5321 29.5635C29.2375 29.025 28.6228 27.5345 29.159 26.2344C29.924 24.3796 30.3178 22.3916 30.3178 20.384C30.3178 18.3763 29.924 16.3883 29.159 14.5335C28.394 12.6787 27.2727 10.9933 25.8591 9.57373C24.4456 8.15411 22.7675 7.02801 20.9206 6.25972C19.0737 5.49142 17.0942 5.09599 15.0951 5.09599C13.0961 5.09599 11.1166 5.49142 9.26968 6.25972C7.42279 7.02801 5.74466 8.15411 4.33111 9.57373C3.34031 10.5688 1.7339 10.5688 0.743101 9.57373C-0.2477 8.57868 -0.2477 6.96537 0.743101 5.97032C2.62784 4.0775 4.86534 2.57603 7.32787 1.55164ZM24.2355 35.8872C24.7717 37.1873 24.1569 38.6777 22.8624 39.2163C20.3999 40.2407 17.7605 40.7679 15.0951 40.7679C13.6939 40.7679 12.558 39.6271 12.558 38.2199C12.558 36.8127 13.6939 35.6719 15.0951 35.6719C17.0942 35.6719 19.0737 35.2765 20.9206 34.5082C22.2151 33.9697 23.6992 34.5871 24.2355 35.8872Z" fill="#594EDD"/>
<path fill-rule="evenodd" clip-rule="evenodd" d="M20.9051 26.2835C21.901 25.2876 23.5157 25.2876 24.5116 26.2835L35.9873 37.7592C36.9832 38.7551 36.9832 40.3698 35.9873 41.3657C34.9914 42.3616 33.3767 42.3616 32.3808 41.3657L20.9051 29.89C19.9092 28.8941 19.9092 27.2794 20.9051 26.2835Z" fill="#FFBA0C"/>
<path fill-rule="evenodd" clip-rule="evenodd" d="M13.2984 36.5779C14.3044 35.5938 15.9355 35.5938 16.9414 36.5779L32.3974 51.6979C33.4034 52.682 33.4034 54.2776 32.3974 55.2617C31.3914 56.2458 29.7604 56.2458 28.7544 55.2617L13.2984 40.1417C12.2924 39.1576 12.2924 37.5621 13.2984 36.5779Z" fill="#594EDD"/>
<path fill-rule="evenodd" clip-rule="evenodd" d="M10.1211 8.58714C11.6702 7.94549 13.3305 7.61523 15.0072 7.61523C16.684 7.61523 18.3443 7.94549 19.8933 8.58714C21.4424 9.22879 22.85 10.1693 24.0356 11.3549C25.2212 12.5405 26.1617 13.948 26.8033 15.4971C27.445 17.0462 27.7752 18.7065 27.7752 20.3832C27.7752 22.0599 27.445 23.7202 26.8033 25.2693C26.1617 26.8184 25.2212 28.2259 24.0356 29.4115C22.85 30.5971 21.4424 31.5376 19.8933 32.1793C18.3443 32.8209 16.684 33.1512 15.0072 33.1512C13.3305 33.1512 11.6702 32.8209 10.1211 32.1793C8.57206 31.5376 7.16453 30.5971 5.97891 29.4115C4.7933 28.2259 3.85281 26.8184 3.21116 25.2693C2.56951 23.7202 2.23926 22.0599 2.23926 20.3832C2.23926 18.7065 2.56951 17.0462 3.21116 15.4971C3.85281 13.948 4.7933 12.5405 5.97891 11.3549C7.16453 10.1693 8.57206 9.22879 10.1211 8.58714ZM15.0072 12.7224C14.0012 12.7224 13.005 12.9206 12.0756 13.3056C11.1461 13.6906 10.3016 14.2548 9.59025 14.9662C8.87888 15.6776 8.31459 16.5221 7.9296 17.4516C7.5446 18.381 7.34645 19.3772 7.34645 20.3832C7.34645 21.3892 7.5446 22.3854 7.9296 23.3149C8.31459 24.2443 8.87888 25.0888 9.59025 25.8002C10.3016 26.5116 11.1461 27.0759 12.0756 27.4608C13.005 27.8458 14.0012 28.044 15.0072 28.044C16.0133 28.044 17.0095 27.8458 17.9389 27.4608C18.8684 27.0759 19.7129 26.5116 20.4242 25.8002C21.1356 25.0888 21.6999 24.2443 22.0849 23.3149C22.4699 22.3854 22.668 21.3892 22.668 20.3832C22.668 19.3772 22.4699 18.381 22.0849 17.4516C21.6999 16.5221 21.1356 15.6776 20.4242 14.9662C19.7129 14.2548 18.8684 13.6906 17.9389 13.3056C17.0095 12.9206 16.0133 12.7224 15.0072 12.7224Z" fill="#FFBA0C"/>
<path d="M299.068 17.564V42.0003H296.252V17.564H299.068Z" fill="#666666"/>
<path d="M284.055 42.43C282.894 42.43 281.84 42.2112 280.893 41.7737C279.946 41.3283 279.195 40.6879 278.638 39.8527C278.081 39.0095 277.803 37.9913 277.803 36.7982C277.803 35.7482 278.01 34.897 278.423 34.2448C278.837 33.5845 279.39 33.0675 280.082 32.6936C280.774 32.3198 281.537 32.0414 282.373 31.8584C283.216 31.6675 284.063 31.5164 284.914 31.405C286.028 31.2618 286.931 31.1544 287.623 31.0828C288.323 31.0033 288.832 30.872 289.15 30.6891C289.476 30.5061 289.639 30.188 289.639 29.7346V29.6391C289.639 28.4618 289.317 27.5471 288.673 26.8948C288.036 26.2425 287.07 25.9164 285.773 25.9164C284.429 25.9164 283.375 26.2107 282.611 26.7993C281.848 27.388 281.311 28.0164 281 28.6846L278.328 27.73C278.805 26.6164 279.441 25.7493 280.237 25.1289C281.04 24.5005 281.915 24.063 282.862 23.8164C283.816 23.5618 284.755 23.4346 285.678 23.4346C286.266 23.4346 286.942 23.5062 287.706 23.6493C288.478 23.7846 289.221 24.067 289.937 24.4965C290.661 24.926 291.262 25.5743 291.739 26.4414C292.216 27.3084 292.455 28.4698 292.455 29.9255V42.0004H289.639V39.5186H289.496C289.305 39.9163 288.987 40.3419 288.541 40.7953C288.096 41.2487 287.503 41.6345 286.764 41.9527C286.024 42.2709 285.121 42.43 284.055 42.43ZM284.485 39.9004C285.598 39.9004 286.537 39.6817 287.3 39.2442C288.072 38.8067 288.653 38.2419 289.042 37.5499C289.44 36.8578 289.639 36.13 289.639 35.3664V32.7891C289.52 32.9323 289.257 33.0635 288.852 33.1828C288.454 33.2942 287.992 33.3936 287.467 33.4811C286.95 33.5607 286.445 33.6323 285.952 33.6959C285.467 33.7516 285.073 33.7993 284.771 33.8391C284.039 33.9345 283.355 34.0897 282.719 34.3044C282.09 34.5112 281.581 34.8254 281.191 35.247C280.81 35.6607 280.619 36.2254 280.619 36.9414C280.619 37.9198 280.981 38.6595 281.704 39.1607C282.436 39.6538 283.363 39.9004 284.485 39.9004Z" fill="#666666"/>
<path d="M259.518 42.0003V17.564H262.333V26.5844H262.572C262.779 26.2662 263.065 25.8605 263.431 25.3674C263.805 24.8662 264.338 24.4208 265.03 24.031C265.73 23.6333 266.677 23.4344 267.87 23.4344C269.413 23.4344 270.773 23.8202 271.951 24.5918C273.128 25.3634 274.047 26.4571 274.707 27.873C275.367 29.2889 275.697 30.9594 275.697 32.8844C275.697 34.8253 275.367 36.5077 274.707 37.9315C274.047 39.3474 273.132 40.4452 271.962 41.2247C270.793 41.9963 269.445 42.3821 267.918 42.3821C266.74 42.3821 265.798 42.1872 265.09 41.7974C264.382 41.3997 263.837 40.9503 263.455 40.4491C263.073 39.94 262.779 39.5185 262.572 39.1844H262.238V42.0003H259.518ZM262.286 32.8367C262.286 34.2207 262.489 35.4418 262.894 36.4997C263.3 37.5497 263.893 38.373 264.672 38.9696C265.452 39.5582 266.406 39.8525 267.536 39.8525C268.713 39.8525 269.695 39.5423 270.483 38.9219C271.278 38.2935 271.875 37.4503 272.273 36.3923C272.678 35.3264 272.881 34.1412 272.881 32.8367C272.881 31.548 272.682 30.3867 272.285 29.3526C271.895 28.3105 271.302 27.4872 270.507 26.8827C269.719 26.2702 268.729 25.9639 267.536 25.9639C266.39 25.9639 265.428 26.2543 264.648 26.835C263.869 27.4077 263.28 28.2111 262.882 29.2452C262.485 30.2713 262.286 31.4685 262.286 32.8367Z" fill="#666666"/>
<path d="M247.879 42.3822C246.224 42.3822 244.772 41.9885 243.524 41.201C242.283 40.4135 241.312 39.3118 240.612 37.8959C239.92 36.48 239.574 34.8255 239.574 32.9323C239.574 31.0232 239.92 29.3567 240.612 27.9329C241.312 26.509 242.283 25.4033 243.524 24.6158C244.772 23.8283 246.224 23.4346 247.879 23.4346C249.533 23.4346 250.981 23.8283 252.222 24.6158C253.471 25.4033 254.441 26.509 255.133 27.9329C255.833 29.3567 256.183 31.0232 256.183 32.9323C256.183 34.8255 255.833 36.48 255.133 37.8959C254.441 39.3118 253.471 40.4135 252.222 41.201C250.981 41.9885 249.533 42.3822 247.879 42.3822ZM247.879 39.8527C249.136 39.8527 250.17 39.5306 250.981 38.8862C251.792 38.2419 252.393 37.3948 252.783 36.3448C253.172 35.2948 253.367 34.1573 253.367 32.9323C253.367 31.7073 253.172 30.5658 252.783 29.5078C252.393 28.4499 251.792 27.5948 250.981 26.9425C250.17 26.2902 249.136 25.9641 247.879 25.9641C246.622 25.9641 245.588 26.2902 244.776 26.9425C243.965 27.5948 243.365 28.4499 242.975 29.5078C242.585 30.5658 242.39 31.7073 242.39 32.9323C242.39 34.1573 242.585 35.2948 242.975 36.3448C243.365 37.3948 243.965 38.2419 244.776 38.8862C245.588 39.5306 246.622 39.8527 247.879 39.8527Z" fill="#666666"/>
<path d="M236.62 17.564V42.0003H233.804V17.564H236.62Z" fill="#666666"/>
<path d="M227.263 25.1999C227 24.3965 226.654 23.6766 226.225 23.0403C225.803 22.396 225.298 21.8471 224.709 21.3937C224.128 20.9403 223.468 20.5943 222.728 20.3556C221.989 20.117 221.177 19.9977 220.294 19.9977C218.847 19.9977 217.53 20.3715 216.345 21.1193C215.16 21.867 214.217 22.9687 213.517 24.4244C212.817 25.88 212.467 27.6658 212.467 29.7817C212.467 31.8976 212.821 33.6834 213.529 35.1391C214.237 36.5948 215.196 37.6965 216.405 38.4442C217.614 39.1919 218.974 39.5658 220.485 39.5658C221.885 39.5658 223.118 39.2675 224.184 38.6709C225.258 38.0664 226.093 37.2152 226.69 36.1175C227.294 35.0118 227.597 33.7113 227.597 32.2158L228.503 32.4067H221.153V29.7817H230.46V32.4067C230.46 34.4192 230.031 36.1692 229.172 37.6567C228.321 39.1442 227.143 40.2976 225.64 41.1169C224.144 41.9283 222.426 42.334 220.485 42.334C218.322 42.334 216.421 41.8249 214.782 40.8067C213.151 39.7885 211.879 38.3408 210.964 36.4635C210.057 34.5863 209.604 32.359 209.604 29.7817C209.604 27.8488 209.862 26.1107 210.379 24.5675C210.904 23.0164 211.644 21.696 212.598 20.6062C213.553 19.5164 214.682 18.6812 215.987 18.1005C217.292 17.5198 218.727 17.2295 220.294 17.2295C221.583 17.2295 222.784 17.4244 223.898 17.8141C225.019 18.196 226.018 18.7408 226.893 19.4488C227.776 20.1488 228.511 20.988 229.1 21.9664C229.689 22.9369 230.094 24.0147 230.317 25.1999H227.263Z" fill="#666666"/>
<path d="M189.158 42.3465C187.989 42.3465 186.947 42.1436 186.032 41.7379C185.118 41.3243 184.394 40.7158 183.861 39.9124C183.336 39.101 183.073 38.0908 183.073 36.8817C183.073 35.8635 183.26 35.0084 183.634 34.3164C184.008 33.6243 184.517 33.0675 185.161 32.6459C185.806 32.2243 186.537 31.9061 187.357 31.6914C188.184 31.4766 189.051 31.3255 189.958 31.238C191.024 31.1266 191.883 31.0232 192.535 30.9277C193.187 30.8243 193.661 30.6732 193.955 30.4743C194.249 30.2755 194.397 29.9811 194.397 29.5914V29.5198C194.397 28.7641 194.158 28.1794 193.681 27.7658C193.211 27.3522 192.543 27.1454 191.676 27.1454C190.761 27.1454 190.033 27.3482 189.493 27.7539C188.952 28.1516 188.594 28.6527 188.419 29.2573L183.718 28.8755C183.956 27.7618 184.426 26.7993 185.126 25.988C185.826 25.1687 186.728 24.5402 187.834 24.1027C188.948 23.6573 190.236 23.4346 191.7 23.4346C192.718 23.4346 193.693 23.5539 194.623 23.7925C195.562 24.0312 196.393 24.401 197.117 24.9022C197.849 25.4033 198.425 26.0476 198.847 26.8351C199.269 27.6147 199.479 28.5493 199.479 29.6391V42.0004H194.659V39.459H194.516C194.222 40.0317 193.828 40.5368 193.335 40.9743C192.841 41.4038 192.249 41.7419 191.557 41.9885C190.865 42.2271 190.065 42.3465 189.158 42.3465ZM190.614 38.8385C191.362 38.8385 192.022 38.6913 192.595 38.397C193.168 38.0948 193.617 37.6891 193.943 37.18C194.269 36.6709 194.432 36.0942 194.432 35.4499V33.505C194.273 33.6084 194.054 33.7039 193.776 33.7914C193.506 33.8709 193.199 33.9465 192.857 34.0181C192.515 34.0817 192.173 34.1414 191.831 34.197C191.489 34.2448 191.179 34.2885 190.901 34.3283C190.304 34.4158 189.783 34.555 189.337 34.7459C188.892 34.9368 188.546 35.1953 188.299 35.5215C188.053 35.8397 187.929 36.2374 187.929 36.7147C187.929 37.4067 188.18 37.9357 188.681 38.3016C189.19 38.6595 189.835 38.8385 190.614 38.8385Z" fill="#010101"/>
<path d="M183.169 23.6729L176.762 42.0001H171.034L164.627 23.6729H169.996L173.803 36.7859H173.993L177.788 23.6729H183.169Z" fill="#010101"/>
<path d="M155.692 42.3584C153.839 42.3584 152.236 41.9646 150.884 41.1771C149.539 40.3817 148.501 39.276 147.77 37.8601C147.038 36.4362 146.672 34.7857 146.672 32.9084C146.672 31.0152 147.038 29.3607 147.77 27.9448C148.501 26.5209 149.539 25.4152 150.884 24.6277C152.236 23.8323 153.839 23.4346 155.692 23.4346C157.546 23.4346 159.145 23.8323 160.489 24.6277C161.841 25.4152 162.883 26.5209 163.615 27.9448C164.347 29.3607 164.713 31.0152 164.713 32.9084C164.713 34.7857 164.347 36.4362 163.615 37.8601C162.883 39.276 161.841 40.3817 160.489 41.1771C159.145 41.9646 157.546 42.3584 155.692 42.3584ZM155.716 38.4209C156.559 38.4209 157.263 38.1823 157.828 37.705C158.393 37.2198 158.818 36.5595 159.105 35.7243C159.399 34.8891 159.546 33.9385 159.546 32.8726C159.546 31.8067 159.399 30.8561 159.105 30.0209C158.818 29.1857 158.393 28.5255 157.828 28.0402C157.263 27.555 156.559 27.3124 155.716 27.3124C154.865 27.3124 154.149 27.555 153.568 28.0402C152.996 28.5255 152.562 29.1857 152.268 30.0209C151.982 30.8561 151.838 31.8067 151.838 32.8726C151.838 33.9385 151.982 34.8891 152.268 35.7243C152.562 36.5595 152.996 37.2198 153.568 37.705C154.149 38.1823 154.865 38.4209 155.716 38.4209Z" fill="#010101"/>
<path d="M132.936 31.405V42.0004H127.854V23.6732H132.698V26.9067H132.913C133.318 25.8408 133.998 24.9976 134.953 24.3772C135.907 23.7488 137.065 23.4346 138.425 23.4346C139.698 23.4346 140.807 23.713 141.754 24.2698C142.701 24.8266 143.436 25.6221 143.961 26.6562C144.486 27.6823 144.749 28.9073 144.749 30.3311V42.0004H139.666V31.238C139.674 30.1164 139.388 29.2414 138.807 28.613C138.226 27.9766 137.427 27.6584 136.409 27.6584C135.725 27.6584 135.12 27.8056 134.595 28.0999C134.078 28.3942 133.672 28.8238 133.378 29.3885C133.092 29.9453 132.944 30.6175 132.936 31.405Z" fill="#010101"/>
<path d="M113.379 31.405V42.0004H108.296V23.6732H113.14V26.9067H113.355C113.761 25.8408 114.441 24.9976 115.395 24.3772C116.35 23.7488 117.507 23.4346 118.867 23.4346C120.14 23.4346 121.25 23.713 122.196 24.2698C123.143 24.8266 123.879 25.6221 124.404 26.6562C124.929 27.6823 125.191 28.9073 125.191 30.3311V42.0004H120.108V31.238C120.116 30.1164 119.83 29.2414 119.249 28.613C118.669 27.9766 117.869 27.6584 116.851 27.6584C116.167 27.6584 115.562 27.8056 115.037 28.0999C114.52 28.3942 114.115 28.8238 113.82 29.3885C113.534 29.9453 113.387 30.6175 113.379 31.405Z" fill="#010101"/>
<path d="M100.485 42.0003V23.6731H105.568V42.0003H100.485ZM103.038 21.3106C102.283 21.3106 101.634 21.06 101.093 20.5589C100.56 20.0498 100.294 19.4413 100.294 18.7333C100.294 18.0333 100.56 17.4327 101.093 16.9316C101.634 16.4225 102.283 16.168 103.038 16.168C103.794 16.168 104.438 16.4225 104.971 16.9316C105.512 17.4327 105.783 18.0333 105.783 18.7333C105.783 19.4413 105.512 20.0498 104.971 20.5589C104.438 21.06 103.794 21.3106 103.038 21.3106Z" fill="#010101"/>
<path d="M90.1008 42.3584C88.2156 42.3584 86.5929 41.9766 85.2326 41.2129C83.8804 40.4413 82.8383 39.3516 82.1065 37.9436C81.3747 36.5277 81.0088 34.8533 81.0088 32.9203C81.0088 31.0351 81.3747 29.3806 82.1065 27.9567C82.8383 26.5329 83.8684 25.4232 85.1969 24.6277C86.5332 23.8323 88.1003 23.4346 89.898 23.4346C91.1071 23.4346 92.2326 23.6295 93.2747 24.0192C94.3247 24.401 95.2394 24.9777 96.019 25.7493C96.8065 26.5209 97.419 27.4914 97.8565 28.6607C98.294 29.8221 98.5127 31.1823 98.5127 32.7414V34.1374H83.0372V30.9874H93.7281C93.7281 30.2556 93.569 29.6073 93.2508 29.0425C92.9326 28.4777 92.4912 28.0363 91.9264 27.7181C91.3696 27.3919 90.7213 27.2289 89.9815 27.2289C89.2099 27.2289 88.5258 27.4079 87.9292 27.7658C87.3406 28.1158 86.8792 28.5891 86.5451 29.1857C86.2111 29.7743 86.04 30.4306 86.0321 31.1544V34.1493C86.0321 35.0561 86.1991 35.8396 86.5332 36.4999C86.8753 37.1601 87.3565 37.6692 87.977 38.0271C88.5974 38.3851 89.3332 38.5641 90.1843 38.5641C90.7491 38.5641 91.2662 38.4845 91.7355 38.3254C92.2048 38.1663 92.6065 37.9277 92.9406 37.6095C93.2747 37.2914 93.5292 36.9016 93.7042 36.4402L98.4054 36.7504C98.1667 37.88 97.6775 38.8663 96.9377 39.7095C96.2059 40.5448 95.2593 41.197 94.098 41.6663C92.9446 42.1277 91.6122 42.3584 90.1008 42.3584Z" fill="#010101"/>
<path d="M61.4336 42.0003V17.564H71.0745C72.9199 17.564 74.4949 17.8941 75.7995 18.5543C77.112 19.2066 78.1103 20.1333 78.7944 21.3344C79.4864 22.5276 79.8324 23.9316 79.8324 25.5463C79.8324 27.1691 79.4824 28.5651 78.7824 29.7344C78.0824 30.8957 77.0682 31.7867 75.7398 32.4071C74.4194 33.0276 72.8205 33.3378 70.9432 33.3378H64.4881V29.1855H70.108C71.0944 29.1855 71.9137 29.0503 72.566 28.7798C73.2182 28.5094 73.7035 28.1037 74.0216 27.5628C74.3478 27.0219 74.5108 26.3497 74.5108 25.5463C74.5108 24.735 74.3478 24.0509 74.0216 23.4941C73.7035 22.9372 73.2143 22.5157 72.554 22.2293C71.9018 21.935 71.0785 21.7878 70.0841 21.7878H66.6001V42.0003H61.4336ZM74.6302 30.8798L80.7034 42.0003H75L69.058 30.8798H74.6302Z" fill="#010101"/>
</svg>
