<svg width="259" height="626" viewBox="0 0 259 626" fill="none" xmlns="http://www.w3.org/2000/svg">
<g opacity="0.1">
<path d="M33.4763 235.522L185.452 32.7881H132.092L-19.959 235.522H33.4763Z" fill="#4883B2"/>
<path d="M-100.864 560.137L135.843 244.429H82.4827L-154.299 560.137H-100.864Z" fill="#57A0CF"/>
<path d="M58.5427 501.898L259 234.621H205.565L5.10742 501.898H58.5427Z" fill="#4883B2"/>
<path fill-rule="evenodd" clip-rule="evenodd" d="M-113.771 625.279H-130.957L104.173 311.672H121.435L-113.771 625.279ZM-129.381 624.379H-114.071L119.709 312.673H104.399L-129.381 624.379Z" fill="#81ECED"/>
<path fill-rule="evenodd" clip-rule="evenodd" d="M155.582 255.935H142.148L146.801 249.731H160.235L155.582 255.935ZM143.799 255.035H155.282L158.584 250.632H147.102L143.799 255.035Z" fill="#81ECED"/>
<path fill-rule="evenodd" clip-rule="evenodd" d="M163.462 245.328H150.104L154.757 239.124H168.115L163.462 245.328ZM151.755 244.428H163.237L166.464 240.025H155.057L151.755 244.428Z" fill="#81ECED"/>
<path fill-rule="evenodd" clip-rule="evenodd" d="M179.372 224.215H166.014L170.667 218.011H184.026L179.372 224.215ZM167.665 223.314H179.072L182.374 218.911H170.892L167.665 223.314Z" fill="#81ECED"/>
<path fill-rule="evenodd" clip-rule="evenodd" d="M131.716 287.656H118.357L123.01 281.452H136.369L131.716 287.656ZM120.008 286.756H131.416L134.718 282.453H123.311L120.008 286.756Z" fill="#81ECED"/>
<path fill-rule="evenodd" clip-rule="evenodd" d="M147.627 266.543H134.193L138.846 260.339H152.28L147.627 266.543ZM135.844 265.642H147.327L150.629 261.239H139.147L135.844 265.642Z" fill="#81ECED"/>
<path fill-rule="evenodd" clip-rule="evenodd" d="M139.671 277.148H126.312L130.966 270.944H144.324L139.671 277.148ZM127.964 276.148H139.371L142.673 271.845H131.191L127.964 276.148Z" fill="#81ECED"/>
<path fill-rule="evenodd" clip-rule="evenodd" d="M171.417 234.721H158.059L162.712 228.517H176.071L171.417 234.721ZM159.71 233.82H171.117L174.419 229.517H163.012L159.71 233.82Z" fill="#81ECED"/>
<path fill-rule="evenodd" clip-rule="evenodd" d="M219.075 171.279H205.641L210.294 165.075H223.728L219.075 171.279ZM207.367 170.379H218.774L222.077 165.976H210.594L207.367 170.379Z" fill="#81ECED"/>
<path fill-rule="evenodd" clip-rule="evenodd" d="M211.119 181.886H197.76L202.413 175.682H215.772L211.119 181.886ZM199.411 180.885H210.818L214.121 176.582H202.713L199.411 180.885Z" fill="#81ECED"/>
<path fill-rule="evenodd" clip-rule="evenodd" d="M234.91 150.065H221.551L226.204 143.861H239.563L234.91 150.065ZM223.202 149.165H234.684L237.912 144.762H226.504L223.202 149.165Z" fill="#81ECED"/>
<path fill-rule="evenodd" clip-rule="evenodd" d="M227.03 160.674H213.596L218.249 154.47H231.683L227.03 160.674ZM215.247 159.773H226.729L230.032 155.37H218.549L215.247 159.773Z" fill="#81ECED"/>
<path fill-rule="evenodd" clip-rule="evenodd" d="M195.208 203H181.85L186.503 196.796H199.862L195.208 203ZM183.501 202.1H194.983L198.21 197.697H186.803L183.501 202.1Z" fill="#81ECED"/>
<path fill-rule="evenodd" clip-rule="evenodd" d="M187.328 213.607H173.895L178.548 207.403H191.981L187.328 213.607ZM175.546 212.707H187.028L190.33 208.304H178.848L175.546 212.707Z" fill="#81ECED"/>
<path fill-rule="evenodd" clip-rule="evenodd" d="M203.164 192.393H189.805L194.458 186.188H207.817L203.164 192.393ZM191.456 191.492H202.863L206.166 187.089H194.758L191.456 191.492Z" fill="#81ECED"/>
<path fill-rule="evenodd" clip-rule="evenodd" d="M41.0572 269.945H-10.502L-3.44727 260.639H48.0368L41.0572 269.945ZM-8.77578 269.044H40.832L46.4607 261.439H-3.14705L-8.77578 269.044Z" fill="#81ECED"/>
<path fill-rule="evenodd" clip-rule="evenodd" d="M53.7387 253.133H2.17969L9.15934 243.727H60.7184L53.7387 253.133ZM3.83074 252.232H53.4386L59.0673 244.727H9.45946L3.83074 252.232Z" fill="#81ECED"/>
<path fill-rule="evenodd" clip-rule="evenodd" d="M78.9568 219.412H27.4727L34.4523 210.006H86.0114L78.9568 219.412ZM29.0488 218.511H78.6566L84.2853 211.007H34.6775L29.0488 218.511Z" fill="#81ECED"/>
<path fill-rule="evenodd" clip-rule="evenodd" d="M3.1568 320.478H-48.4023L-41.3477 311.172H10.1364L3.1568 320.478ZM-46.6762 319.577H2.85658L8.48531 312.072H-41.0474L-46.6762 319.577Z" fill="#81ECED"/>
<path fill-rule="evenodd" clip-rule="evenodd" d="M28.4477 286.755H-23.1113L-16.1318 277.449H35.4274L28.4477 286.755ZM-21.4603 285.855H28.1475L33.7762 278.35H-15.7565L-21.4603 285.855Z" fill="#81ECED"/>
<path fill-rule="evenodd" clip-rule="evenodd" d="M15.7653 303.666H-35.7188L-28.7391 294.36H22.82L15.7653 303.666ZM-34.1427 302.666H15.4651L21.0938 295.161H-28.514L-34.1427 302.666Z" fill="#81ECED"/>
<path fill-rule="evenodd" clip-rule="evenodd" d="M66.3481 236.223H14.7891L21.8437 226.917H73.3278L66.3481 236.223ZM16.5151 235.323H66.1229L71.7517 227.818H22.1439L16.5151 235.323Z" fill="#81ECED"/>
<path fill-rule="evenodd" clip-rule="evenodd" d="M142.223 135.155H90.6643L97.6439 125.749H149.203L142.223 135.155ZM92.3154 134.255H141.923L147.552 126.75H97.9441L92.3154 134.255Z" fill="#81ECED"/>
<path fill-rule="evenodd" clip-rule="evenodd" d="M129.539 151.965H78.0547L85.0343 142.659H136.518L129.539 151.965ZM79.7058 150.965H129.314L134.942 143.46H85.3346L79.7058 150.965Z" fill="#81ECED"/>
<path fill-rule="evenodd" clip-rule="evenodd" d="M167.441 101.433H115.957L122.937 92.0264H174.496L167.441 101.433ZM117.533 100.532H167.141L172.77 93.027H123.162L117.533 100.532Z" fill="#81ECED"/>
<path fill-rule="evenodd" clip-rule="evenodd" d="M154.833 118.243H103.273L110.328 108.937H161.812L154.833 118.243ZM105 117.342H154.607L160.236 109.837H110.628L105 117.342Z" fill="#81ECED"/>
<path fill-rule="evenodd" clip-rule="evenodd" d="M104.25 185.687H52.7656L59.7452 176.281H111.304L104.25 185.687ZM54.3416 184.787H103.949L109.578 177.282H59.9704L54.3416 184.787Z" fill="#81ECED"/>
<path fill-rule="evenodd" clip-rule="evenodd" d="M91.6411 202.499H40.082L47.1367 193.193H98.6207L91.6411 202.499ZM41.8082 201.599H91.341L97.0447 194.094H47.4369L41.8082 201.599Z" fill="#81ECED"/>
<path fill-rule="evenodd" clip-rule="evenodd" d="M116.932 168.778H65.373L72.3527 159.472H123.912L116.932 168.778ZM67.0242 167.877H116.632L122.261 160.372H72.7279L67.0242 167.877Z" fill="#81ECED"/>
<path fill-rule="evenodd" clip-rule="evenodd" d="M195.882 362.606H144.398L151.378 353.3H202.937L195.882 362.606ZM145.974 361.705H195.582L201.211 354.2H151.603L145.974 361.705Z" fill="#81ECED"/>
<path fill-rule="evenodd" clip-rule="evenodd" d="M208.567 345.793H157.008L163.987 336.487H215.547L208.567 345.793ZM158.659 344.793H208.267L213.895 337.288H164.288L158.659 344.793Z" fill="#81ECED"/>
<path fill-rule="evenodd" clip-rule="evenodd" d="M157.983 413.24H106.424L113.479 403.834H164.963L157.983 413.24ZM108.15 412.34H157.683L163.387 404.835H113.779L108.15 412.34Z" fill="#81ECED"/>
<path fill-rule="evenodd" clip-rule="evenodd" d="M183.274 379.516H131.715L138.694 370.109H190.254L183.274 379.516ZM133.366 378.615H182.974L188.602 371.11H139.07L133.366 378.615Z" fill="#81ECED"/>
<path fill-rule="evenodd" clip-rule="evenodd" d="M170.591 396.328H119.107L126.087 387.021H177.646L170.591 396.328ZM120.683 395.427H170.291L175.92 387.922H126.312L120.683 395.427Z" fill="#81ECED"/>
<path fill-rule="evenodd" clip-rule="evenodd" d="M221.174 328.983H169.615L176.67 319.577H228.154L221.174 328.983ZM171.341 328.083H220.949L226.578 320.578H176.97L171.341 328.083Z" fill="#81ECED"/>
<path d="M-59.3605 601.562L122.26 359.402H102.597L-79.0234 601.562H-59.3605Z" fill="#57A0CF"/>
<path d="M-42.9248 272.146L85.9353 100.433H66.2724L-62.5879 272.146H-42.9248Z" fill="#57A0CF"/>
<path d="M-53.9579 451.365L-54.4082 450.764L217.947 87.624L218.397 88.2244L-53.9579 451.365Z" fill="#81ECED"/>
<path d="M-9.37703 156.97L-9.90234 156.27L106.875 0.666992L107.325 1.26739L-9.37703 156.97Z" fill="#81ECED"/>
</g>
</svg>
