<svg width="224" height="336" viewBox="0 0 224 336" fill="none" xmlns="http://www.w3.org/2000/svg">
<g opacity="0.1">
<path d="M102.344 126.19L184.003 17.2588H155.332L73.6328 126.19H102.344Z" fill="#4883B2"/>
<path d="M30.1627 300.611L157.348 130.976H128.677L1.45117 300.611H30.1627Z" fill="#57A0CF"/>
<path d="M28.7115 248.08L76.4968 184.366H47.7853L0 248.08H28.7115Z" fill="#4883B2"/>
<path d="M115.815 269.318L223.523 125.707H194.812L87.1035 269.318H115.815Z" fill="#4883B2"/>
<path fill-rule="evenodd" clip-rule="evenodd" d="M23.2267 335.613H13.9922L140.331 167.107H149.606L23.2267 335.613ZM14.839 335.129H23.0653L148.678 167.645H140.452L14.839 335.129Z" fill="#81ECED"/>
<path fill-rule="evenodd" clip-rule="evenodd" d="M167.955 137.159H160.736L163.236 133.825H170.455L167.955 137.159ZM161.623 136.675H167.793L169.568 134.309H163.398L161.623 136.675Z" fill="#81ECED"/>
<path fill-rule="evenodd" clip-rule="evenodd" d="M172.188 131.46H165.01L167.51 128.126H174.688L172.188 131.46ZM165.897 130.976H172.067L173.801 128.61H167.671L165.897 130.976Z" fill="#81ECED"/>
<path fill-rule="evenodd" clip-rule="evenodd" d="M180.738 120.115H173.561L176.061 116.782H183.239L180.738 120.115ZM174.448 119.631H180.577L182.351 117.266H176.182L174.448 119.631Z" fill="#81ECED"/>
<path fill-rule="evenodd" clip-rule="evenodd" d="M155.131 154.203H147.953L150.453 150.87H157.631L155.131 154.203ZM148.84 153.719H154.97L156.744 151.407H150.615L148.84 153.719Z" fill="#81ECED"/>
<path fill-rule="evenodd" clip-rule="evenodd" d="M163.679 142.859H156.461L158.961 139.525H166.179L163.679 142.859ZM157.348 142.375H163.518L165.292 140.009H159.122L157.348 142.375Z" fill="#81ECED"/>
<path fill-rule="evenodd" clip-rule="evenodd" d="M159.406 148.557H152.229L154.729 145.224H161.907L159.406 148.557ZM153.116 148.02H159.245L161.019 145.708H154.85L153.116 148.02Z" fill="#81ECED"/>
<path fill-rule="evenodd" clip-rule="evenodd" d="M176.463 125.76H169.285L171.785 122.426H178.963L176.463 125.76ZM170.172 125.276H176.302L178.076 122.964H171.947L170.172 125.276Z" fill="#81ECED"/>
<path fill-rule="evenodd" clip-rule="evenodd" d="M202.07 91.6717H194.852L197.352 88.3381H204.57L202.07 91.6717ZM195.779 91.1878H201.908L203.683 88.822H197.513L195.779 91.1878Z" fill="#81ECED"/>
<path fill-rule="evenodd" clip-rule="evenodd" d="M197.795 97.3713H190.617L193.117 94.0377H200.295L197.795 97.3713ZM191.504 96.8336H197.634L199.408 94.5216H193.279L191.504 96.8336Z" fill="#81ECED"/>
<path fill-rule="evenodd" clip-rule="evenodd" d="M210.578 80.2735H203.4L205.901 76.9399H213.078L210.578 80.2735ZM204.288 79.7896H210.457L212.191 77.4238H206.062L204.288 79.7896Z" fill="#81ECED"/>
<path fill-rule="evenodd" clip-rule="evenodd" d="M206.345 85.9733H199.127L201.627 82.6398H208.845L206.345 85.9733ZM200.014 85.4894H206.184L207.958 83.1237H201.788L200.014 85.4894Z" fill="#81ECED"/>
<path fill-rule="evenodd" clip-rule="evenodd" d="M189.246 108.716H182.068L184.568 105.382H191.746L189.246 108.716ZM182.955 108.232H189.125L190.859 105.866H184.73L182.955 108.232Z" fill="#81ECED"/>
<path fill-rule="evenodd" clip-rule="evenodd" d="M185.011 114.415H177.793L180.293 111.082H187.511L185.011 114.415ZM178.68 113.931H184.85L186.624 111.566H180.454L178.68 113.931Z" fill="#81ECED"/>
<path fill-rule="evenodd" clip-rule="evenodd" d="M193.522 103.016H186.344L188.844 99.6826H196.022L193.522 103.016ZM187.231 102.532H193.36L195.135 100.167H189.005L187.231 102.532Z" fill="#81ECED"/>
<path fill-rule="evenodd" clip-rule="evenodd" d="M106.418 144.686H78.7148L82.5054 139.686H110.168L106.418 144.686ZM79.6423 144.202H106.297L109.322 140.116H82.6667L79.6423 144.202Z" fill="#81ECED"/>
<path fill-rule="evenodd" clip-rule="evenodd" d="M113.233 135.654H85.5293L89.2796 130.6H116.983L113.233 135.654ZM86.4164 135.17H113.071L116.096 131.137H89.4408L86.4164 135.17Z" fill="#81ECED"/>
<path fill-rule="evenodd" clip-rule="evenodd" d="M126.782 117.534H99.1191L102.869 112.48H130.573L126.782 117.534ZM99.966 117.05H126.621L129.645 113.018H102.99L99.966 117.05Z" fill="#81ECED"/>
<path fill-rule="evenodd" clip-rule="evenodd" d="M86.053 171.839H58.3496L62.1402 166.839H89.8032L86.053 171.839ZM59.2771 171.355H85.8917L88.9161 167.323H62.3015L59.2771 171.355Z" fill="#81ECED"/>
<path fill-rule="evenodd" clip-rule="evenodd" d="M99.6428 153.719H71.9395L75.6897 148.719H103.393L99.6428 153.719ZM72.8266 153.235H99.4815L102.506 149.203H75.8913L72.8266 153.235Z" fill="#81ECED"/>
<path fill-rule="evenodd" clip-rule="evenodd" d="M92.8291 162.805H65.166L68.9163 157.805H96.6196L92.8291 162.805ZM66.0128 162.268H92.6677L95.6921 158.235H69.0372L66.0128 162.268Z" fill="#81ECED"/>
<path fill-rule="evenodd" clip-rule="evenodd" d="M120.008 126.568H92.3047L96.0952 121.568H123.758L120.008 126.568ZM93.2321 126.084H119.887L122.911 122.051H96.2565L93.2321 126.084Z" fill="#81ECED"/>
<path fill-rule="evenodd" clip-rule="evenodd" d="M160.778 72.2627H133.074L136.824 67.2086H164.528L160.778 72.2627ZM133.961 71.7788H160.616L163.641 67.7463H136.986L133.961 71.7788Z" fill="#81ECED"/>
<path fill-rule="evenodd" clip-rule="evenodd" d="M153.96 81.2944H126.297L130.047 76.2941H157.71L153.96 81.2944ZM127.184 80.7567H153.839L156.863 76.7242H130.208L127.184 80.7567Z" fill="#81ECED"/>
<path fill-rule="evenodd" clip-rule="evenodd" d="M174.325 54.1431H146.662L150.412 49.089H178.116L174.325 54.1431ZM147.509 53.6592H174.164L177.188 49.6267H150.533L147.509 53.6592Z" fill="#81ECED"/>
<path fill-rule="evenodd" clip-rule="evenodd" d="M167.551 63.1748H139.848L143.638 58.1744H171.301L167.551 63.1748ZM140.775 62.6909H167.43L170.454 58.6583H143.8L140.775 62.6909Z" fill="#81ECED"/>
<path fill-rule="evenodd" clip-rule="evenodd" d="M140.372 99.4141H112.709L116.459 94.36H144.163L140.372 99.4141ZM113.556 98.9302H140.211L143.235 94.8977H116.58L113.556 98.9302Z" fill="#81ECED"/>
<path fill-rule="evenodd" clip-rule="evenodd" d="M133.598 108.447H105.895L109.685 103.447H137.348L133.598 108.447ZM106.822 107.963H133.437L136.501 103.931H109.846L106.822 107.963Z" fill="#81ECED"/>
<path fill-rule="evenodd" clip-rule="evenodd" d="M147.186 90.3286H119.482L123.233 85.3282H150.936L147.186 90.3286ZM120.37 89.8447H147.025L150.049 85.8122H123.434L120.37 89.8447Z" fill="#81ECED"/>
<path fill-rule="evenodd" clip-rule="evenodd" d="M189.608 194.475H161.945L165.696 189.474H193.399L189.608 194.475ZM162.792 193.991H189.447L192.471 189.958H165.817L162.792 193.991Z" fill="#81ECED"/>
<path fill-rule="evenodd" clip-rule="evenodd" d="M196.424 185.441H168.721L172.471 180.441H200.174L196.424 185.441ZM169.608 184.904H196.263L199.287 180.871H172.632L169.608 184.904Z" fill="#81ECED"/>
<path fill-rule="evenodd" clip-rule="evenodd" d="M169.244 221.681H141.541L145.332 216.627H172.995L169.244 221.681ZM142.468 221.197H169.083L172.148 217.165H145.493L142.468 221.197Z" fill="#81ECED"/>
<path fill-rule="evenodd" clip-rule="evenodd" d="M182.832 203.561H155.129L158.879 198.507H186.583L182.832 203.561ZM156.016 203.077H182.671L185.695 199.045H159.081L156.016 203.077Z" fill="#81ECED"/>
<path fill-rule="evenodd" clip-rule="evenodd" d="M176.02 212.594H148.357L152.108 207.593H179.811L176.02 212.594ZM149.204 212.11H175.859L178.884 208.077H152.229L149.204 212.11Z" fill="#81ECED"/>
<path fill-rule="evenodd" clip-rule="evenodd" d="M203.2 176.409H175.496L179.287 171.355H206.95L203.2 176.409ZM176.424 175.925H203.079L206.103 171.893H179.448L176.424 175.925Z" fill="#81ECED"/>
<path d="M52.4617 322.869L150.049 192.753H139.483L41.8965 322.869H52.4617Z" fill="#57A0CF"/>
<path d="M61.2937 145.869L130.532 53.6055H119.967L50.7285 145.869H61.2937Z" fill="#57A0CF"/>
<path d="M55.3669 242.166L55.125 241.843L201.465 46.7231L201.707 47.0457L55.3669 242.166Z" fill="#81ECED"/>
<path d="M79.3194 83.9838L79.0371 83.6075L141.783 0L142.025 0.3226L79.3194 83.9838Z" fill="#81ECED"/>
</g>
</svg>
