<svg width="416" height="278" viewBox="0 0 416 278" fill="none" xmlns="http://www.w3.org/2000/svg">
<g opacity="0.1">
<path d="M56.1365 212.803L292.843 -102.905H239.483L2.70117 212.803H56.1365Z" fill="#57A0CF"/>
<path d="M53.4353 115.037L142.369 -3.54102H88.9338L0 115.037H53.4353Z" fill="#4883B2"/>
<path d="M215.543 154.564L416 -112.713H362.565L162.107 154.564H215.543Z" fill="#4883B2"/>
<path fill-rule="evenodd" clip-rule="evenodd" d="M43.2294 277.945H26.043L261.173 -35.6621H278.435L43.2294 277.945ZM27.619 277.045H42.9291L276.709 -34.6614H261.399L27.619 277.045Z" fill="#81ECED"/>
<path fill-rule="evenodd" clip-rule="evenodd" d="M352.882 15.2719H301.398L308.378 5.96578H359.937L352.882 15.2719ZM302.974 14.3713H352.582L358.211 6.86637H308.603L302.974 14.3713Z" fill="#81ECED"/>
<path fill-rule="evenodd" clip-rule="evenodd" d="M314.983 65.9062H263.424L270.479 56.4999H321.963L314.983 65.9062ZM265.15 65.0056H314.683L320.387 57.5006H270.779L265.15 65.0056Z" fill="#81ECED"/>
<path fill-rule="evenodd" clip-rule="evenodd" d="M340.274 32.1815H288.715L295.694 22.7753H347.254L340.274 32.1815ZM290.366 31.281H339.974L345.602 23.776H296.07L290.366 31.281Z" fill="#81ECED"/>
<path fill-rule="evenodd" clip-rule="evenodd" d="M327.591 48.9936H276.107L283.087 39.6874H334.646L327.591 48.9936ZM277.683 48.093H327.291L332.92 40.5881H283.312L277.683 48.093Z" fill="#81ECED"/>
<path d="M97.6395 254.228L279.26 12.0684H259.597L77.9766 254.228H97.6395Z" fill="#57A0CF"/>
<path d="M103.042 104.03L102.592 103.43L374.947 -259.71L375.397 -259.11L103.042 104.03Z" fill="#81ECED"/>
</g>
</svg>
