<svg width="416" height="278" viewBox="0 0 416 278" fill="none" xmlns="http://www.w3.org/2000/svg">
<g opacity="0.1">
<path d="M56.1384 212.803L292.845 -102.905H239.485L2.70312 212.803H56.1384Z" fill="#57A0CF"/>
<path d="M53.4353 115.037L142.369 -3.54102H88.9338L0 115.037H53.4353Z" fill="#4883B2"/>
<path d="M215.545 154.564L416.002 -112.713H362.567L162.109 154.564H215.545Z" fill="#4883B2"/>
<path fill-rule="evenodd" clip-rule="evenodd" d="M43.2294 277.945H26.043L261.173 -35.6621H278.435L43.2294 277.945ZM27.619 277.045H42.9291L276.709 -34.6614H261.399L27.619 277.045Z" fill="#81ECED"/>
<path fill-rule="evenodd" clip-rule="evenodd" d="M352.882 15.272H301.398L308.378 5.96582H359.937L352.882 15.272ZM302.974 14.3714H352.582L358.211 6.86641H308.603L302.974 14.3714Z" fill="#81ECED"/>
<path fill-rule="evenodd" clip-rule="evenodd" d="M314.981 65.9062H263.422L270.477 56.5H321.961L314.981 65.9062ZM265.148 65.0056H314.681L320.385 57.5007H270.777L265.148 65.0056Z" fill="#81ECED"/>
<path fill-rule="evenodd" clip-rule="evenodd" d="M340.27 32.1816H288.711L295.691 22.7754H347.25L340.27 32.1816ZM290.362 31.281H339.97L345.599 23.7761H296.066L290.362 31.281Z" fill="#81ECED"/>
<path fill-rule="evenodd" clip-rule="evenodd" d="M327.589 48.9937H276.105L283.085 39.6875H334.644L327.589 48.9937ZM277.681 48.0931H327.289L332.918 40.5881H283.31L277.681 48.0931Z" fill="#81ECED"/>
<path d="M97.6395 254.228L279.26 12.0684H259.597L77.9766 254.228H97.6395Z" fill="#57A0CF"/>
<path d="M103.044 104.031L102.594 103.43L374.949 -259.71L375.399 -259.11L103.044 104.031Z" fill="#81ECED"/>
</g>
</svg>
