<svg width="190" height="40" viewBox="0 0 190 40" fill="none" xmlns="http://www.w3.org/2000/svg">
<path d="M-7.62939e-05 26.5756C-7.62939e-05 26.2876 0.124113 26.0136 0.34069 25.8237L28.1366 1.45467C28.783 0.887984 29.7958 1.34699 29.7958 2.20661V13.4244C29.7958 13.7124 29.6716 13.9864 29.4551 14.1763L1.65916 38.5453C1.01278 39.112 -7.62939e-05 38.653 -7.62939e-05 37.7934V26.5756Z" fill="#8DCAFF"/>
<path d="M19.082 26.5756C19.082 26.2876 19.2061 26.0136 19.4227 25.8237L47.2186 1.45467C47.865 0.887984 48.8778 1.34699 48.8778 2.20661V13.4244C48.8778 13.7124 48.7537 13.9864 48.5371 14.1763L20.7412 38.5453C20.0948 39.112 19.082 38.653 19.082 37.7934V26.5756Z" fill="#4C96D7"/>
<path d="M38.162 26.5756C38.162 26.2876 38.2862 26.0136 38.5028 25.8237L66.2987 1.45467C66.9451 0.887984 67.9579 1.34699 67.9579 2.20661V13.4244C67.9579 13.7124 67.8337 13.9864 67.6172 14.1763L39.8213 38.5453C39.1749 39.112 38.162 38.653 38.162 37.7934V26.5756Z" fill="#1761A0"/>
<path d="M84.6872 26.5398H93.3099V30.3981H80.6535V9.93743H93.1638V13.7957H84.6872V18.1509H92.4331V21.9508H84.6872V26.5398Z" fill="black"/>
<path d="M105.01 15.7834H109.16L103.607 30.3981H99.31L93.7564 15.7834H97.907L101.444 26.0137L105.01 15.7834Z" fill="black"/>
<path d="M122.275 28.5859C120.774 30.0669 118.943 30.8074 116.78 30.8074C114.617 30.8074 112.785 30.0669 111.285 28.5859C109.804 27.0855 109.063 25.2537 109.063 23.0907C109.063 20.9278 109.804 19.1058 111.285 17.6248C112.785 16.1244 114.617 15.3741 116.78 15.3741C118.943 15.3741 120.774 16.1244 122.275 17.6248C123.775 19.1058 124.526 20.9278 124.526 23.0907C124.526 25.2537 123.775 27.0855 122.275 28.5859ZM113.944 25.9845C114.704 26.7444 115.649 27.1244 116.78 27.1244C117.91 27.1244 118.855 26.7444 119.615 25.9845C120.375 25.2245 120.755 24.2599 120.755 23.0907C120.755 21.9216 120.375 20.957 119.615 20.197C118.855 19.437 117.91 19.0571 116.78 19.0571C115.649 19.0571 114.704 19.437 113.944 20.197C113.204 20.957 112.834 21.9216 112.834 23.0907C112.834 24.2599 113.204 25.2245 113.944 25.9845Z" fill="black"/>
<path d="M126.594 30.3981V9.06055H130.364V30.3981H126.594Z" fill="black"/>
<path d="M146.618 9.93743V11.3989H140.187V30.3981H138.609V11.3989H132.178V9.93743H146.618Z" fill="black"/>
<path d="M152.323 15.4618C154.467 15.4618 156.201 16.2218 157.526 17.7417C158.871 19.2617 159.543 21.0642 159.543 23.1492C159.543 23.2271 159.533 23.3441 159.514 23.5C159.514 23.6559 159.514 23.7728 159.514 23.8507H146.273C146.448 25.4876 147.101 26.8126 148.231 27.8259C149.381 28.8197 150.794 29.3166 152.469 29.3166C153.639 29.3166 154.662 29.0731 155.539 28.5859C156.415 28.0987 157.078 27.4557 157.526 26.6568L158.812 27.4167C158.208 28.43 157.351 29.2387 156.24 29.8428C155.129 30.4274 153.863 30.7197 152.44 30.7197C150.199 30.7197 148.358 30.0084 146.916 28.5859C145.474 27.1439 144.753 25.3122 144.753 23.0907C144.753 20.9083 145.454 19.096 146.857 17.654C148.28 16.1926 150.102 15.4618 152.323 15.4618ZM152.323 16.8648C150.667 16.8648 149.283 17.3812 148.173 18.414C147.062 19.4468 146.429 20.7816 146.273 22.4185H158.023C157.867 20.6842 157.244 19.3299 156.152 18.3556C155.081 17.3617 153.804 16.8648 152.323 16.8648Z" fill="black"/>
<path d="M168.483 30.7197C166.281 30.7197 164.45 29.9889 162.988 28.5274C161.527 27.066 160.796 25.2537 160.796 23.0907C160.796 20.9278 161.527 19.1155 162.988 17.654C164.45 16.1926 166.281 15.4618 168.483 15.4618C169.906 15.4618 171.192 15.8028 172.342 16.4849C173.491 17.1474 174.329 18.0535 174.855 19.2032L173.657 19.9047C173.228 18.9694 172.546 18.2289 171.611 17.6833C170.695 17.1377 169.653 16.8648 168.483 16.8648C166.73 16.8648 165.258 17.4689 164.07 18.6771C162.881 19.8657 162.287 21.337 162.287 23.0907C162.287 24.8445 162.881 26.3255 164.07 27.5336C165.258 28.7223 166.73 29.3166 168.483 29.3166C169.653 29.3166 170.695 29.0438 171.611 28.4982C172.546 27.9526 173.258 27.2121 173.745 26.2768L174.972 27.0075C174.388 28.1377 173.511 29.0438 172.342 29.7259C171.192 30.3884 169.906 30.7197 168.483 30.7197Z" fill="black"/>
<path d="M183.699 15.4618C185.433 15.4618 186.807 15.9977 187.82 17.0695C188.853 18.1217 189.369 19.5345 189.369 21.3077V30.3981H187.879V21.3077C187.879 19.9437 187.499 18.8622 186.739 18.0633C185.998 17.2643 184.946 16.8648 183.582 16.8648C182.081 16.8648 180.854 17.3617 179.899 18.3556C178.944 19.3494 178.467 20.7914 178.467 22.6815V30.3981H177.005V9.93743H178.467V18.5602C179.519 16.4946 181.263 15.4618 183.699 15.4618Z" fill="black"/>
</svg>
