<svg width="32" height="32" viewBox="0 0 32 32" fill="none" xmlns="http://www.w3.org/2000/svg">
<path d="M5.33325 18.6667V14.6667C5.33325 11.8377 6.45706 9.12458 8.45745 7.12419C10.4578 5.12381 13.1709 4 15.9999 4C18.8289 4 21.542 5.12381 23.5424 7.12419C25.5428 9.12458 26.6666 11.8377 26.6666 14.6667V18.6667" stroke="white" strokeWidth="2" strokeLinecap="round" strokeLinejoin="round"/>
<path d="M24 25.333C24 27.5423 20.4187 29.333 16 29.333" stroke="white" strokeWidth="2" strokeLinecap="round" strokeLinejoin="round"/>
<path d="M5.33325 18.6667C5.33325 17.9594 5.6142 17.2811 6.1143 16.781C6.6144 16.281 7.29267 16 7.99992 16H9.33325C10.0405 16 10.7188 16.281 11.2189 16.781C11.719 17.2811 11.9999 17.9594 11.9999 18.6667V22.6667C11.9999 23.3739 11.719 24.0522 11.2189 24.5523C10.7188 25.0524 10.0405 25.3333 9.33325 25.3333H7.99992C7.29267 25.3333 6.6144 25.0524 6.1143 24.5523C5.6142 24.0522 5.33325 23.3739 5.33325 22.6667V18.6667Z" stroke="white" strokeWidth="2" strokeLinecap="round" strokeLinejoin="round"/>
<path d="M20 18.6667C20 17.9594 20.281 17.2811 20.781 16.781C21.2811 16.281 21.9594 16 22.6667 16H24C24.7072 16 25.3855 16.281 25.8856 16.781C26.3857 17.2811 26.6667 17.9594 26.6667 18.6667V22.6667C26.6667 23.3739 26.3857 24.0522 25.8856 24.5523C25.3855 25.0524 24.7072 25.3333 24 25.3333H22.6667C21.9594 25.3333 21.2811 25.0524 20.781 24.5523C20.281 24.0522 20 23.3739 20 22.6667V18.6667Z" stroke="white" strokeWidth="2" strokeLinecap="round" strokeLinejoin="round"/>
</svg>
