<svg width="196" height="32" viewBox="0 0 196 32" fill="none" xmlns="http://www.w3.org/2000/svg">
<path d="M140.801 21.3512C140.801 21.0631 140.925 20.7891 141.142 20.5992L162.98 1.45457C163.626 0.887909 164.639 1.34692 164.639 2.20653V10.6488C164.639 10.9369 164.515 11.2109 164.298 11.4008L142.46 30.5454C141.814 31.1121 140.801 30.6531 140.801 29.7935V21.3512Z" fill="#8DCAFF"/>
<path d="M156.07 21.3512C156.07 21.0631 156.195 20.7891 156.411 20.5992L178.249 1.45457C178.896 0.887909 179.908 1.34692 179.908 2.20653V10.6488C179.908 10.9369 179.784 11.2109 179.568 11.4008L157.73 30.5454C157.083 31.1121 156.07 30.6531 156.07 29.7935V21.3512Z" fill="#4C96D7"/>
<path d="M171.33 21.3512C171.33 21.0631 171.454 20.7891 171.671 20.5992L193.509 1.45457C194.155 0.887909 195.168 1.34692 195.168 2.20653V10.6488C195.168 10.9369 195.044 11.2109 194.827 11.4008L172.989 30.5454C172.343 31.1121 171.33 30.6531 171.33 29.7935V21.3512Z" fill="#1761A0"/>
<path d="M4.74922 23.7763H14.9015V28.3183H0V4.23225H14.7295V8.77419H4.74922V13.9011H13.8691V18.3742H4.74922V23.7763Z" fill="white"/>
<path d="M28.6768 11.114H33.5637L27.0249 28.3183H21.966L15.4272 11.114H20.3141L24.4782 23.157L28.6768 11.114Z" fill="white"/>
<path d="M49.0046 26.1849C47.238 27.9283 45.0813 28.8 42.5346 28.8C39.9879 28.8 37.8313 27.9283 36.0647 26.1849C34.321 24.4186 33.4492 22.2624 33.4492 19.7161C33.4492 17.1699 34.321 15.0251 36.0647 13.2817C37.8313 11.5154 39.9879 10.6323 42.5346 10.6323C45.0813 10.6323 47.238 11.5154 49.0046 13.2817C50.7712 15.0251 51.6545 17.1699 51.6545 19.7161C51.6545 22.2624 50.7712 24.4186 49.0046 26.1849ZM39.1964 23.1226C40.0912 24.0172 41.2039 24.4645 42.5346 24.4645C43.8653 24.4645 44.9781 24.0172 45.8729 23.1226C46.7676 22.228 47.215 21.0925 47.215 19.7161C47.215 18.3398 46.7676 17.2043 45.8729 16.3097C44.9781 15.415 43.8653 14.9677 42.5346 14.9677C41.2039 14.9677 40.0912 15.415 39.1964 16.3097C38.3246 17.2043 37.8886 18.3398 37.8886 19.7161C37.8886 21.0925 38.3246 22.228 39.1964 23.1226Z" fill="white"/>
<path d="M54.0893 28.3183V3.2H58.5288V28.3183H54.0893Z" fill="white"/>
<path d="M77.6658 4.23225V5.95268H70.0946V28.3183H68.2362V5.95268H60.665V4.23225H77.6658Z" fill="white"/>
<path d="M84.3834 10.7355C86.9071 10.7355 88.9491 11.6301 90.5092 13.4193C92.0923 15.2086 92.8838 17.3305 92.8838 19.7849C92.8838 19.8767 92.8723 20.0143 92.8494 20.1978C92.8494 20.3814 92.8494 20.519 92.8494 20.6107H77.2596C77.466 22.5376 78.2346 24.0975 79.5653 25.2903C80.919 26.4602 82.5823 27.0452 84.5555 27.0452C85.932 27.0452 87.1366 26.7584 88.169 26.1849C89.2014 25.6115 89.9815 24.8545 90.5092 23.914L92.0234 24.8086C91.3122 26.0014 90.3027 26.9534 88.9949 27.6645C87.6872 28.3527 86.1959 28.6968 84.521 28.6968C81.8826 28.6968 79.7145 27.8595 78.0167 26.1849C76.3189 24.4874 75.47 22.3312 75.47 19.7161C75.47 17.1469 76.2959 15.0136 77.9478 13.3161C79.6227 11.5957 81.7679 10.7355 84.3834 10.7355ZM84.3834 12.3871C82.4332 12.3871 80.8043 12.995 79.4965 14.2107C78.1887 15.4265 77.4431 16.9978 77.2596 18.9247H91.0942C90.9107 16.8831 90.1765 15.2889 88.8917 14.1419C87.6298 12.972 86.1271 12.3871 84.3834 12.3871Z" fill="white"/>
<path d="M103.41 28.6968C100.818 28.6968 98.6609 27.8366 96.9402 26.1161C95.2194 24.3957 94.3591 22.2624 94.3591 19.7161C94.3591 17.1699 95.2194 15.0366 96.9402 13.3161C98.6609 11.5957 100.818 10.7355 103.41 10.7355C105.085 10.7355 106.599 11.1369 107.953 11.9398C109.306 12.7197 110.293 13.7864 110.912 15.1398L109.502 15.9656C108.997 14.8645 108.194 13.9928 107.092 13.3505C106.014 12.7082 104.787 12.3871 103.41 12.3871C101.345 12.3871 99.613 13.0982 98.2135 14.5204C96.814 15.9197 96.1142 17.6516 96.1142 19.7161C96.1142 21.7806 96.814 23.524 98.2135 24.9462C99.613 26.3455 101.345 27.0452 103.41 27.0452C104.787 27.0452 106.014 26.724 107.092 26.0817C108.194 25.4394 109.031 24.5677 109.605 23.4667L111.05 24.3269C110.362 25.6573 109.329 26.724 107.953 27.5269C106.599 28.3068 105.085 28.6968 103.41 28.6968Z" fill="white"/>
<path d="M121.325 10.7355C123.366 10.7355 124.984 11.3663 126.177 12.628C127.393 13.8667 128.001 15.5297 128.001 17.6172V28.3183H126.246V17.6172C126.246 16.0115 125.798 14.7383 124.904 13.7978C124.032 12.8573 122.793 12.3871 121.187 12.3871C119.42 12.3871 117.975 12.972 116.851 14.1419C115.726 15.3118 115.164 17.0093 115.164 19.2344V28.3183H113.444V4.23225H115.164V14.3828C116.403 11.9513 118.457 10.7355 121.325 10.7355Z" fill="white"/>
</svg>
