<svg width="393" height="797" viewBox="0 0 393 797" fill="none" xmlns="http://www.w3.org/2000/svg">
<g style="mix-blend-mode:overlay">
<path d="M146.439 429.787L134.979 424.557L114.573 409.598L105.56 383.603L104.886 350.402L106.224 322.759L107.546 286.591L105.941 248.842L127.65 210.721L148.705 188.657L175.523 167.723L189.917 159.827L123.532 149.32L36.0182 155.126L-1.23647 115.514M-1.23647 115.514L77.9865 89.5134L36.355 63.143L16.7989 88.4402L-1.23647 115.514ZM-1.23647 115.514L-18.2782 150.821L-30.7088 188.881L-39.8811 223.457L-43.7804 260.973L-36.3177 291.036L-21.0331 328.537L1.00254 376.462L35.8674 405.913L54.5495 423.477" stroke="white" strokeLinecap="round" strokeLinejoin="round"/>
<path d="M-86.3683 181.86L-30.7088 188.881L27.7344 198.56M27.7344 198.56L74.4725 236.525L105.94 248.842L159.818 222.773L187.637 215.996L200.332 212.911L175.523 167.723L123.532 149.321L97.7554 72.7499L77.9865 89.5136L56.3241 118.068L36.0182 155.126L27.7344 198.56ZM27.7344 198.56L35.3442 229.81L38.4789 249.905L49.8993 263.107L39.2402 278.681L38.1584 301.629L30.0079 326.878L39.8844 363.717L45.3022 389.007L56.8084 411.426L54.5495 423.477L67.1596 433.204" stroke="white" strokeLinecap="round" strokeLinejoin="round"/>
<path d="M-84.6946 165.925L-54.2506 121.481L-30.7961 104.656L16.799 88.4401L77.9866 89.5133L142.939 124.765L175.523 167.723L187.637 215.996L181.845 246.069L161.548 256.176L166.668 258.991L163.364 265.919L149.815 275.268L160.96 294.088L165.14 307.593L163.808 326.653L161.118 344.73L158.329 359.574L163.59 369.364M163.59 369.364L168.922 376.52L136.602 374.66M163.59 369.364L154.367 371.376L136.602 374.66M163.59 369.364L174.087 367.505M136.602 374.66L163.775 396.855L157.602 394.704L151.016 390.665L144.394 385.148L136.602 374.66Z" stroke="white" strokeLinecap="round" strokeLinejoin="round"/>
<path d="M-18.2783 150.821L36.0181 155.126L95.0926 184.479L127.65 210.722L159.818 222.773L181.844 246.069L200.332 212.911L191.147 252.94L181.809 269.417L180.502 287.887L183.145 302.803L187.21 312.937L194.335 324.302L207.801 334.755L188.039 336.813L179.948 336.727L168.111 337.21L167.022 345.314L161.118 344.73L150.889 351.483L129.323 360.374L105.56 383.604L83.1986 387.067L45.3021 389.007L35.8673 405.913L21.2949 429.315L5.3459 470.494" stroke="white" strokeLinecap="round" strokeLinejoin="round"/>
<path d="M74.4722 236.525L53.9275 242.211L49.8989 263.106" stroke="white" strokeLinecap="round" strokeLinejoin="round"/>
<path d="M-122.929 219.983L-39.8816 223.457L35.3437 229.81L53.9274 242.212L38.4784 249.905L23.1511 247.662L6.83905 248.704L-0.268542 260.373L-5.23137 277.252L0.0200485 291.964L8.67985 305.245L21.5455 317.798" stroke="white" strokeLinecap="round" strokeLinejoin="round"/>
<path d="M186.079 270.444L181.809 269.417L149.815 275.269L142.238 271.385L135.546 266.573L124.59 261.07" stroke="white" strokeLinecap="round" strokeLinejoin="round"/>
<path d="M189.394 289.543L180.502 287.887L149.815 275.268" stroke="white" strokeLinecap="round" strokeLinejoin="round"/>
<path d="M199.482 320.406L194.335 324.302L186.276 328.155L179.163 331.968L171.036 330.404L163.807 326.653L154.206 331.582L133.944 328.657L106.224 322.759L68.8937 317.793L30.0079 326.877L-21.0332 328.537L-20.0282 288.654M-20.0282 288.654L0.0205185 291.963L8.90542 278.775L-0.26807 260.373L-20.0282 288.654ZM-20.0282 288.654L-36.3177 291.036L-15.3776 264.203" stroke="white" strokeLinecap="round" strokeLinejoin="round"/>
<path d="M181.598 343.411L179.948 336.727L179.163 331.968L178.246 318.641L165.139 307.593L155.246 318.534L157.436 307.188L144.233 296.57L129.214 279.003L124.59 261.07L159.648 247L181.844 246.069L194.74 255.573" stroke="white" strokeLinecap="round" strokeLinejoin="round"/>
<path d="M202.176 348.653L186.956 352.773" stroke="white" strokeLinecap="round" strokeLinejoin="round"/>
<path d="M-54.2508 121.481L-1.23654 115.515L56.324 118.068L123.532 149.321L148.705 188.657L159.818 222.773L159.648 247L158.011 255.495M158.011 255.495L161.547 256.176L163.364 265.919L142.238 271.384L155.536 284.901L151.941 291.718L134.759 274.06L135.546 266.573L158.011 255.495Z" stroke="white" strokeLinecap="round" strokeLinejoin="round"/>
<path d="M151.941 291.718L157.436 307.189L160.96 294.088L144.233 296.57L107.546 286.591" stroke="white" strokeLinecap="round" strokeLinejoin="round"/>
<path d="M106.224 322.76L72.9833 278.553" stroke="white" strokeLinecap="round" strokeLinejoin="round"/>
<path d="M190.192 300.562L183.145 302.803L178.246 318.641L186.276 328.155L188.039 336.813L186.508 344.682L186.956 352.773L171.568 351.039" stroke="white" strokeLinecap="round" strokeLinejoin="round"/>
<path d="M155.246 318.534L154.206 331.582L104.887 350.402L129.323 360.374" stroke="white" strokeLinecap="round" strokeLinejoin="round"/>
<path d="M148.873 362.895L150.889 351.483L154.206 331.582L129.323 360.374L131.647 372.108L136.601 374.66L160.963 383.605L151.016 390.665" stroke="white" strokeLinecap="round" strokeLinejoin="round"/>
<path d="M157.602 394.704L144.688 408.155L136.892 404.321L127.723 398.499L118.947 386.572L131.647 372.108L148.873 362.895L158.329 359.574L166.763 359.458" stroke="white" strokeLinecap="round" strokeLinejoin="round"/>
<path d="M134.979 424.557L98.8089 420.565L114.573 409.597L136.892 404.321L151.016 390.665L127.723 398.499L105.56 383.603L73.1442 356.816L30.008 326.877L1.00259 376.462L21.2951 429.314" stroke="white" strokeLinecap="round" strokeLinejoin="round"/>
<path d="M98.8088 420.566L54.5495 423.477L122.092 443.01L134.979 424.557L144.688 408.155" stroke="white" strokeLinecap="round" strokeLinejoin="round"/>
<path d="M144.394 385.148L118.947 386.571L114.573 409.597L83.1989 387.067L56.8085 411.425L35.8675 405.912" stroke="white" strokeLinecap="round" strokeLinejoin="round"/>
<path d="M134.979 424.557L130.359 448.754L122.092 443.01L98.8088 420.566L83.1986 387.067L73.144 356.816L68.8937 317.794L72.9835 278.553L74.4725 236.526L95.0926 184.479L123.532 149.321L142.938 124.765L157.527 109.889L148.705 188.658" stroke="white" strokeLinecap="round" strokeLinejoin="round"/>
<path d="M56.8085 411.425L98.8089 420.565L39.8845 363.716" stroke="white" strokeLinecap="round" strokeLinejoin="round"/>
<path d="M158.011 255.495L142.238 271.385L144.233 296.57L106.224 322.76L157.436 307.189L165.139 307.593L180.502 287.887L178.246 318.641L163.807 326.653" stroke="white" strokeLinecap="round" strokeLinejoin="round"/>
<path d="M42.2621 274.241L35.8847 263.36L25.4648 273.235L8.90484 278.775L15.4466 293.247L38.1578 301.63" stroke="white" strokeLinecap="round" strokeLinejoin="round"/>
<path d="M38.4782 249.905L35.8846 263.36L6.83889 248.704L25.4648 273.235L15.4465 293.246" stroke="white" strokeLinecap="round" strokeLinejoin="round"/>
<path d="M-6.58905 245.321L-39.8817 223.457L15.3159 232.565" stroke="white" strokeLinecap="round" strokeLinejoin="round"/>
<path d="M11.6079 327.458L15.4472 293.246L6.83952 248.705L35.3441 229.81L15.3165 232.566L-6.58846 245.321L-15.3776 264.203L-20.0282 288.655L-7.39612 307.242L11.6079 327.458ZM11.6079 327.458L38.1584 301.63L72.9835 278.553L107.546 286.591L129.214 279.003L134.759 274.06L142.238 271.384L166.668 258.992L191.148 252.94L186.08 270.444L180.502 287.887L160.96 294.088" stroke="white" strokeLinecap="round" strokeLinejoin="round"/>
<path d="M-30.7094 188.881L35.3436 229.81L74.4719 236.525L36.0175 155.126" stroke="white" strokeLinecap="round" strokeLinejoin="round"/>
<path d="M142.938 124.765L189.917 159.827M189.917 159.827L97.7553 72.75M189.917 159.827L157.527 109.889L97.7553 72.75M189.917 159.827L200.332 212.911L194.74 255.573L186.08 270.444L189.394 289.543L190.192 300.562L192.899 308.315L199.482 320.406L207.801 334.755L202.176 348.653L181.598 343.411L167.022 345.314L171.568 351.039L166.763 359.458L174.087 367.505L168.922 376.52L160.963 383.605L163.775 396.855L157.663 404.511L144.688 408.155L146.439 429.787L130.359 448.754L95.7967 442.114L67.1596 433.204L43.1364 456.068L32.7028 476.121M97.7553 72.75L16.7988 88.4405L-34.0713 77.5863L36.3549 63.1433L97.7553 72.75Z" stroke="white" strokeLinecap="round" strokeLinejoin="round"/>
<path d="M189.917 159.827L187.637 215.996L148.705 188.657L95.0927 184.479L105.941 248.842M105.941 248.842L49.8994 263.106L72.9836 278.553L105.941 248.842ZM105.941 248.842L124.591 261.069L127.65 210.721" stroke="white" strokeLinecap="round" strokeLinejoin="round"/>
<path d="M157.527 109.889L77.9861 89.5136" stroke="white" strokeLinecap="round" strokeLinejoin="round"/>
<path d="M56.3237 118.068L36.3545 63.1429" stroke="white" strokeLinecap="round" strokeLinejoin="round"/>
<path d="M199.482 320.406L183.145 302.803L189.394 289.543" stroke="white" strokeLinecap="round" strokeLinejoin="round"/>
<path d="M207.801 334.755L186.508 344.682L171.568 351.039L181.598 343.411L168.111 337.21L161.789 337.198L153.701 339.376L131.57 344.858L104.886 350.402L73.144 356.816L39.8844 363.716L1.00248 376.462L-14.1738 408.619L-39.6402 449.435" stroke="white" strokeLinecap="round" strokeLinejoin="round"/>
<path d="M171.036 330.404L168.111 337.21" stroke="white" strokeLinecap="round" strokeLinejoin="round"/>
<path d="M167.022 345.314L158.328 359.574L136.601 374.66L129.323 360.374L106.224 322.759L73.1439 356.816L38.1582 301.629L-7.39627 307.242L39.24 278.681M39.24 278.681L15.3163 232.565L6.83936 248.704L-6.58862 245.321L-0.268225 260.373L-15.3777 264.203L-43.7806 260.973L-5.23105 277.252L25.4653 273.235L39.24 278.681Z" stroke="white" strokeLinecap="round" strokeLinejoin="round"/>
<path d="M129.323 360.374L148.873 362.895L163.59 369.364" stroke="white" strokeLinecap="round" strokeLinejoin="round"/>
<g style="mix-blend-mode:hard-light" opacity="0.25">
<path opacity="0.3" d="M142.952 124.904L123.941 148.944L109.793 106.885L142.952 124.904Z" fill="white"/>
<path opacity="0.6" d="M95.865 184.374L123.828 149.766L148.633 188.497L95.865 184.374Z" fill="white"/>
<path d="M73.8526 257.387L73.1164 278.204L50.7578 263.3L73.8526 257.387Z" fill="white"/>
<path opacity="0.5" d="M159.791 222.496L128.32 210.71L148.921 189.139L159.791 222.496Z" fill="white"/>
<path opacity="0.35" d="M95.3554 184.313L37.1089 155.409L123.34 149.647L95.3554 184.313Z" fill="white"/>
<path opacity="0.5" d="M95.1643 184.64L74.7656 236.105L36.8016 155.691L95.1643 184.64Z" fill="white"/>
<path d="M162.642 261.518L163.408 265.803L144.389 270.806L162.642 261.518Z" fill="white"/>
<path d="M163.746 265.266L162.986 261.316L166.469 259.514L163.746 265.266Z" fill="white"/>
<path d="M74.2899 257.288L105.486 249.335L73.5537 278.105L74.2899 257.288Z" fill="white"/>
<path d="M143.118 271.52L162.553 266.475L150.078 275.102L143.118 271.52Z" fill="white"/>
<path opacity="0.25" d="M160.166 246.865L160.383 223.387L181.67 246.003L160.166 246.865Z" fill="white"/>
<path d="M160.278 222.615L149.444 189.338L187.44 215.988L160.278 222.615Z" fill="white"/>
<path d="M162.944 260.901L162.157 256.674L166.507 259.063L162.944 260.901Z" fill="white"/>
<path d="M158.565 255.44L160.127 247.316L181.158 246.473L161.81 256.01L158.565 255.44Z" fill="white"/>
<path d="M150.908 351.956L148.998 362.742L130.467 360.344L150.908 351.956Z" fill="white"/>
<path d="M152.248 291.436L143.617 282.625L142.78 272.057L155.608 285.062L152.248 291.436Z" fill="white"/>
<path d="M136.252 266.642L157.228 256.328L142.501 271.218L136.252 266.642Z" fill="white"/>
<path d="M154.763 283.608L143.581 272.228L149.981 275.531L154.763 283.608Z" fill="white"/>
<path d="M161.361 293.908L150.621 275.775L180.167 287.892L161.361 293.908Z" fill="white"/>
<path opacity="0.25" d="M159.728 246.964L125.152 260.818L126.445 239.414L159.918 223.21L159.728 246.964Z" fill="white"/>
<path d="M158.091 255.459L135.809 266.407L125.413 261.183L159.631 247.393L158.091 255.459Z" fill="white"/>
<path d="M161.655 256.417L162.543 261.081L143.625 270.714L158.352 255.824L161.655 256.417Z" fill="white"/>
<path d="M106.723 323.549L119.757 344.752L105.426 350.209L106.723 323.549Z" fill="white"/>
<path opacity="0.25" d="M106.316 323.394L104.989 350.309L74.0991 356.581L106.316 323.394Z" fill="white"/>
<path opacity="0.35" d="M107.632 286.89L106.365 322.214L73.8336 278.944L107.632 286.89Z" fill="white"/>
<path d="M158.012 307.075L161.298 294.949L165.126 307.454L158.012 307.075Z" fill="white"/>
<path d="M121.799 347.259L131.911 345.187L145.445 341.822L129.688 360.114L121.799 347.259Z" fill="white"/>
<path d="M163.91 326.559L154.79 331.272L155.769 318.734L165.128 308.321L163.91 326.559Z" fill="white"/>
<path opacity="0.5" d="M180.591 287.654L150.892 275.412L181.873 269.774L180.591 287.654Z" fill="white"/>
<path d="M135.091 370.757L149.156 363.202L151.554 364.248L136.967 374.4L135.091 370.757Z" fill="white"/>
<path d="M21.831 317.574L14.1116 310.042L14.6834 304.869L37.8871 301.992L21.831 317.574Z" fill="white"/>
<path d="M15.9621 293.642L37.5684 301.605L14.7219 304.418L15.9621 293.642Z" fill="white"/>
<path opacity="0.6" d="M39.7052 278.858L50.2979 263.458L72.9612 278.612L38.6842 301.298L39.7052 278.858Z" fill="white"/>
<path opacity="0.25" d="M39.3177 279.176L38.2468 301.397L16.2335 293.28L39.3177 279.176Z" fill="white"/>
<path d="M69.0155 318.173L73.1769 356.03L51.6908 322.224L69.0155 318.173Z" fill="white"/>
<path opacity="0.25" d="M73.0609 279.049L68.9958 317.7L51.4524 321.8L38.7618 301.793L73.0609 279.049Z" fill="white"/>
<path opacity="0.25" d="M51.2533 322.323L72.7394 356.129L30.8081 327.049L51.2533 322.323Z" fill="white"/>
<path d="M5.27551 300.022L8.6441 305.165L-6.16414 306.979L5.27551 300.022Z" fill="white"/>
<path d="M-4.61354 277.554L7.52824 275.921L9.02151 278.82L0.407914 291.645L-4.61354 277.554Z" fill="white"/>
<path d="M14.2679 304.91L13.7349 309.632L9.45829 305.474L14.2679 304.91Z" fill="white"/>
<path d="M7.02202 248.575L-5.72199 245.319L15.0728 233.205L7.02202 248.575Z" fill="white"/>
<path d="M6.80908 248.959L0.0612787 260.033L-5.93491 245.703L6.80908 248.959Z" fill="white"/>
<path d="M5.6409 299.761L15.5247 293.742L14.3066 304.459L9.13971 305.087L5.6409 299.761Z" fill="white"/>
<path opacity="0.25" d="M69.4309 318.131L106.078 322.97L73.6119 356.462L69.4309 318.131Z" fill="white"/>
<path d="M9.1794 279.279L15.5051 293.269L5.38047 299.396L0.56582 292.105L9.1794 279.279Z" fill="white"/>
<path d="M119.741 386.409L131.987 372.438L136.767 374.924L144.299 385.046L119.741 386.409Z" fill="white"/>
<path d="M162.838 337.066L164.323 327.049L171.049 330.542L168.235 337.058L162.838 337.066Z" fill="white"/>
<path d="M151.39 351.74L161.174 345.283L158.431 359.48L149.435 362.643L151.39 351.74Z" fill="white"/>
<path d="M168.709 337.038L171.457 330.697L179.271 332.209L179.992 336.61L168.709 337.038Z" fill="white"/>
<path d="M179.23 331.794L171.415 330.282L164.572 326.744L178.404 319.1L179.23 331.794Z" fill="white"/>
<path d="M179.667 331.695L178.847 319.336L186.195 328.191L179.667 331.695Z" fill="white"/>
<path opacity="0.35" d="M164.391 326.343L165.61 308.105L178.223 318.699L164.391 326.343Z" fill="white"/>
<path d="M149.695 363.008L157.174 360.332L151.977 364.011L149.695 363.008Z" fill="white"/>
<path opacity="0.25" d="M126.426 238.94L128.165 211.117L159.636 222.903L126.426 238.94Z" fill="white"/>
<path d="M83.4367 387.491L98.4706 419.705L74.0715 396.17L83.4367 387.491Z" fill="white"/>
<path opacity="0.3" d="M105.364 383.595L83.658 386.91L73.9194 357.577L105.364 383.595Z" fill="white"/>
<path opacity="0.3" d="M84.0544 387.792L114.47 409.692L99.2323 420.328L84.0544 387.792Z" fill="white"/>
<path opacity="0.6" d="M105.008 350.782L105.635 383.233L73.922 357.046L105.008 350.782Z" fill="white"/>
<path opacity="0.25" d="M161.541 294.309L180.186 288.365L165.469 307.253L161.541 294.309Z" fill="white"/>
<path d="M117.965 392.122L114.78 408.878L106.241 384.263L117.965 392.122Z" fill="white"/>
<path opacity="0.35" d="M119.085 386.558C119.085 386.558 119.078 386.577 119.063 386.616L118.062 391.692L106.186 383.709L129.517 360.914L131.705 372.13L119.107 386.5C119.092 386.539 119.085 386.558 119.085 386.558Z" fill="white"/>
<path opacity="0.35" d="M84.0568 387.262L105.704 383.925L114.414 409.139L84.0568 387.262Z" fill="white"/>
<path d="M12.4985 275.285L23.5686 273.844L12.9033 277.369L12.4985 275.285Z" fill="white"/>
<path d="M12.5436 277.965L15.2223 291.564L9.56713 278.961L12.5436 277.965Z" fill="white"/>
<path d="M8.00154 275.902L12.083 275.327L12.5016 277.549L9.36466 278.618L8.00154 275.902Z" fill="white"/>
<path opacity="0.25" d="M0.277317 260.515L7.04725 249.383L11.9833 274.889L7.76349 275.478L0.277317 260.515Z" fill="white"/>
<path d="M13.0032 277.806L25.2882 273.7L15.865 292.673L13.0032 277.806Z" fill="white"/>
<path d="M33.1334 266.039L30.421 260.747L35.8408 263.476L33.1334 266.039Z" fill="white"/>
<path d="M39.0958 278.36L26.1353 273.224L33.0644 266.745L39.0958 278.36Z" fill="white"/>
<path opacity="0.3" d="M25.864 273.587L39.0571 278.811L16.294 292.771L25.864 273.587Z" fill="white"/>
<path d="M73.8911 256.936L50.5194 262.877L54.429 242.469L74.5721 236.963L73.8911 256.936Z" fill="white"/>
<path d="M54.271 242.01L36.6235 230.297L73.8162 236.675L54.271 242.01Z" fill="white"/>
<path opacity="0.25" d="M129.257 360.549L106.05 383.191L105.46 350.82L129.257 360.549Z" fill="white"/>
<path opacity="0.6" d="M12.3986 274.848L7.54847 249.64L25.371 273.133L12.3986 274.848Z" fill="white"/>
<path d="M29.4573 259.781L7.93057 248.987L23.2956 247.983L29.4573 259.781Z" fill="white"/>
<path d="M53.7892 242.226L38.9825 249.632L35.9533 230.309L53.7892 242.226Z" fill="white"/>
<path d="M19.378 240.435L7.70863 248.17L15.6266 233.149L19.378 240.435Z" fill="white"/>
<path d="M36.0539 263.092L30.1328 260.105L23.8271 247.986L38.5285 250.124L36.0539 263.092Z" fill="white"/>
<path opacity="0.5" d="M166.989 258.848L162.312 256.267L182.163 246.457L191.009 252.954L166.989 258.848Z" fill="white"/>
<path opacity="0.25" d="M182.622 244.901L188.08 216.232L200.235 213.34L182.622 244.901Z" fill="white"/>
<path d="M187.393 157.535L155.407 133.64L156.062 127.899L187.393 157.535Z" fill="white"/>
<path d="M154.983 133.878L154.367 139.168L144.367 125.909L154.983 133.878Z" fill="white"/>
<path opacity="0.5" d="M27.8587 198.408L-30.1331 188.768L-17.8575 151.114L36.1039 155.425L27.8587 198.408Z" fill="white"/>
<path opacity="0.3" d="M40.5434 364.434L64.8483 387.866L45.8198 388.872L40.5434 364.434Z" fill="white"/>
<path opacity="0.3" d="M7.89171 249.438L29.8034 260.445L32.8261 266.322L25.7503 273.011L7.89171 249.438Z" fill="white"/>
<path opacity="0.35" d="M73.3461 357.159L83.1846 386.929L65.4603 387.833L40.6043 363.924L73.3461 357.159Z" fill="white"/>
<path opacity="0.3" d="M50.1121 262.722L39.1625 250.033L53.9471 242.685L50.1121 262.722Z" fill="white"/>
<path d="M36.4748 263.385L38.9495 250.418L49.935 263.187L42.5918 273.901L36.4748 263.385Z" fill="white"/>
<path d="M33.3936 266.405L36.1813 263.806L42.2983 274.322L39.5692 278.341L33.3936 266.405Z" fill="white"/>
<path d="M148.904 188.134L124.338 149.827L152.111 159.605L148.904 188.134Z" fill="white"/>
<path d="M-9.90313 275.007L-0.558626 261.661L-5.08442 277.041L-9.90313 275.007Z" fill="white"/>
<path d="M7.34811 275.52L-4.63311 277.08L0.0780398 261.038L7.34811 275.52Z" fill="white"/>
<path d="M152.127 159.213L126.085 149.961L152.713 154.178L152.127 159.213Z" fill="white"/>
<path d="M153.235 295.14L144.751 296.434L143.708 283.259L152.071 291.901L153.235 295.14Z" fill="white"/>
<path opacity="0.25" d="M121.538 346.894L120.361 344.914L153.788 332.154L145.979 341.293L131.811 344.749L121.538 346.894Z" fill="white"/>
<path d="M152.987 339.503L146.657 341.086L154.173 332.368L152.987 339.503Z" fill="white"/>
<path opacity="0.35" d="M105.941 350.605L121.361 347.359L129.121 360.031L105.941 350.605Z" fill="white"/>
<path opacity="0.5" d="M134.265 328.513L107.404 322.809L157.477 307.603L155.362 318.578C155.347 318.617 155.34 318.636 155.34 318.636L154.33 331.429L134.265 328.513Z" fill="white"/>
<path opacity="0.6" d="M151.027 351.469L130.425 359.929L146.181 341.637L152.948 339.955L151.027 351.469Z" fill="white"/>
<path d="M121.101 346.994L107.788 349.777L119.959 345.095L121.101 346.994Z" fill="white"/>
<path d="M155.883 317.911L157.915 307.504L164.948 307.92L155.883 317.911Z" fill="white"/>
<path opacity="0.6" d="M106.076 249.36L107.67 286.439L73.7919 278.528L106.076 249.36Z" fill="white"/>
<path opacity="0.35" d="M106.358 248.27L95.7377 185.058L127.664 210.86L106.358 248.27Z" fill="white"/>
<path d="M157.679 306.549L153.83 295.499L161.024 294.445L157.679 306.549Z" fill="white"/>
<path opacity="0.35" d="M108.061 286.987L144.028 296.758L106.75 322.427L108.061 286.987Z" fill="white"/>
<path d="M124.701 260.779L106.705 248.934L125.963 239.63L124.701 260.779Z" fill="white"/>
<path opacity="0.25" d="M134.226 328.965L153.666 331.776L120.159 344.572L106.936 323.164L134.226 328.965Z" fill="white"/>
<path opacity="0.25" d="M106.491 249.318L124.721 261.252L129.295 278.967L108.086 286.397L106.491 249.318Z" fill="white"/>
<path d="M162.152 337.47L162.348 337.478L161.257 344.716L151.473 351.173L153.386 339.855L154.042 339.705L162.152 337.47Z" fill="white"/>
<path opacity="0.3" d="M95.3502 185.376L105.971 248.588L75.062 236.55L95.3502 185.376Z" fill="white"/>
<path d="M74.9652 236.98L105.583 248.906L74.3284 256.837L74.9652 236.98Z" fill="white"/>
<path d="M130.182 361.966L134.509 370.536L132.092 371.812L130.182 361.966Z" fill="white"/>
<path opacity="0.3" d="M135.618 266.733L134.84 274.024L129.66 278.707L125.222 261.51L135.618 266.733Z" fill="white"/>
<path d="M160.924 294.008L153.65 295.098L152.508 291.801L155.868 285.427L160.924 294.008Z" fill="white"/>
<path opacity="0.6" d="M148.472 363.075L134.911 370.356L130.057 360.721L148.472 363.075Z" fill="white"/>
<path d="M154.729 331.781L163.849 327.068L162.365 337.085L162.11 337.055C162.11 337.055 162.083 337.066 162.03 337.09L153.942 339.268L153.424 339.404L154.729 331.781Z" fill="white"/>
<path opacity="0.5" d="M136.421 374.259L132.411 372.199L134.69 370.937L136.421 374.259Z" fill="white"/>
<path d="M157.242 306.649L145.069 296.822L153.392 295.599L157.242 306.649Z" fill="white"/>
<path opacity="0.3" d="M107.764 322.214L144.552 296.957L157.298 307.202L107.764 322.214Z" fill="white"/>
<path d="M127.935 210.497L96.0811 184.856L148.594 188.948L127.935 210.497Z" fill="white"/>
<path d="M135.321 273.809L136.039 267.027L142.077 271.457L135.321 273.809Z" fill="white"/>
<path d="M108.587 286.655L129.475 279.369L143.95 296.262L108.587 286.655Z" fill="white"/>
<path d="M143.146 282.113L135.443 274.188L142.36 271.763L143.146 282.113Z" fill="white"/>
<path d="M144.294 296.061L129.84 279.109L135.078 274.448L143.215 282.805L144.294 296.061Z" fill="white"/>
<path d="M178.932 316.839L180.901 289.636L183.239 302.906L178.932 316.839Z" fill="white"/>
<path d="M186.351 271.479L189.402 289.346L181.078 287.773L186.351 271.479Z" fill="white"/>
<path d="M181.039 288.225L189.363 289.798L183.505 302.208L181.039 288.225Z" fill="white"/>
<path d="M189.513 290.453L190.272 300.526L183.846 302.537L189.513 290.453Z" fill="white"/>
<path d="M181.166 343.846L171.911 350.837L167.742 345.522L181.166 343.846Z" fill="white"/>
<path d="M199.865 217.459L194.872 255.224L191.737 252.965L199.865 217.459Z" fill="white"/>
<path d="M194.753 255.711L187.106 268.971L191.582 253.372L194.753 255.711Z" fill="white"/>
<path d="M190.372 300.963L193.029 308.498L198.767 319.135L183.807 302.989L190.372 300.963Z" fill="white"/>
<path d="M187.091 344.373L188.518 337.129L206.838 335.187L187.091 344.373Z" fill="white"/>
<path d="M201.658 348.788L187.415 352.615L187.045 345.02L201.658 348.788Z" fill="white"/>
<path opacity="0.25" d="M207.682 335.242L202.359 348.522L187.432 344.701L207.682 335.242Z" fill="white"/>
<path d="M187 352.656L172.711 351.008L186.629 345.061L187 352.656Z" fill="white"/>
<path d="M186.799 328.354L194.596 324.668L207.569 334.667L188.499 336.655L186.799 328.354Z" fill="white"/>
<path d="M199.72 320.829L207.361 333.988L194.961 324.408L199.72 320.829Z" fill="white"/>
<path opacity="0.25" d="M187.706 312.859L184.065 303.886L199.46 320.464L194.679 324.1L187.706 312.859Z" fill="white"/>
<path opacity="0.35" d="M182.412 246.152L200.092 214.417L191.316 252.671L182.412 246.152Z" fill="white"/>
<path d="M182.421 269.384L190.738 254.714L186.262 270.314L182.421 269.384Z" fill="white"/>
<path d="M189.1 192.394L200.296 212.831L188.177 215.803L189.1 192.394Z" fill="white"/>
<path d="M78.7366 89.4666L97.9352 73.1512L105.781 96.4383L78.7366 89.4666Z" fill="white"/>
<path opacity="0.3" d="M-32.7173 77.7025L36.1196 63.586L17.0397 88.3324L-32.7173 77.7025Z" fill="white"/>
<path opacity="0.35" d="M17.6154 88.2191L36.6068 63.7052L43.6484 83.1587L17.6154 88.2191Z" fill="white"/>
<path d="M99.7659 74.1149L156.56 109.454L129.865 102.616L99.7659 74.1149Z" fill="white"/>
<path d="M44.0859 83.0591L37.0582 63.744L62.0559 79.5868L44.0859 83.0591Z" fill="white"/>
<path opacity="0.35" d="M37.6343 63.6304L96.7861 72.8466L62.6902 79.4953L37.6343 63.6304Z" fill="white"/>
<path opacity="0.6" d="M63.1691 79.8111L97.3232 73.1846L78.2492 89.3478L63.1691 79.8111Z" fill="white"/>
<path d="M130.51 103.194L157.438 110.122L147.996 119.703L130.51 103.194Z" fill="white"/>
<path opacity="0.25" d="M176.126 167.886L190.016 160.264L188.751 190.864L176.126 167.886Z" fill="white"/>
<path opacity="0.35" d="M190.33 161.715L200.207 211.666L189.133 191.609L190.33 161.715Z" fill="white"/>
<path d="M167.544 156.499L189.573 160.03L175.866 167.521L167.544 156.499Z" fill="white"/>
<path d="M148.278 120.01L157.596 110.581L155.724 127.038L148.278 120.01Z" fill="white"/>
<path d="M154.722 139.636L155.346 134.15L189.415 159.57L167.19 156.031L154.722 139.636Z" fill="white"/>
<path opacity="0.6" d="M157.99 110.597L189.085 158.512L156.122 127.39L157.99 110.597Z" fill="white"/>
<path opacity="0.3" d="M106.268 96.5574L98.5086 73.5693L129.029 102.364L106.268 96.5574Z" fill="white"/>
<path opacity="0.3" d="M1.35394 376.064L-20.3936 328.781L29.9553 327.19L1.35394 376.064Z" fill="white"/>
<path opacity="0.3" d="M-7.26611 307.425L11.4333 327.391L-20.5156 328.402L-19.5075 289.385L-7.26611 307.425Z" fill="white"/>
<path opacity="0.3" d="M56.7223 411.127L36.4792 405.88L45.6345 389.534L56.7223 411.127Z" fill="white"/>
<path opacity="0.3" d="M21.6465 428.916L1.83608 377.246L35.8812 406.051L21.6465 428.916Z" fill="white"/>
<path opacity="0.5" d="M45.4184 389.052L36.0942 405.667L1.74447 376.612L40.0284 364.038L45.4184 389.052Z" fill="white"/>
<path opacity="0.3" d="M34.7624 229.589L-39.3276 223.402L-30.252 189.255L34.7624 229.589Z" fill="white"/>
<path d="M23.1154 247.582L7.96908 248.536L19.5802 240.779L23.1154 247.582Z" fill="white"/>
<path d="M131.017 448.073L135.436 424.931L146.43 429.984L131.017 448.073Z" fill="white"/>
<path d="M161.143 384.007L163.755 396.382L154.463 388.783L161.143 384.007Z" fill="white"/>
<path opacity="0.3" d="M163.766 397.052L157.845 404.381L145.746 407.826L157.943 395.033L163.766 397.052Z" fill="white"/>
<path d="M138.318 375.048L168.673 376.824L161.226 383.439L138.318 375.048Z" fill="white"/>
<path d="M158.968 359.818L166.987 359.743L173.992 367.403L163.969 369.243L158.968 359.818Z" fill="white"/>
<path d="M137.54 404.368L151.357 390.994L157.558 394.82L144.951 407.989L137.54 404.368Z" fill="white"/>
<path d="M154.729 371.647L163.792 369.708L168.77 376.395L138.67 374.649L154.729 371.647Z" fill="white"/>
<path opacity="0.3" d="M173.954 367.854L169.171 376.215L164.229 369.608L173.954 367.854Z" fill="white"/>
<path d="M55.0894 423.283L57.2876 411.741L97.6293 420.516L55.0894 423.283Z" fill="white"/>
<path d="M134.857 425.576L130.469 448.463L122.739 443.057L134.857 425.576Z" fill="white"/>
<path opacity="0.3" d="M129.683 448.43L96.1538 442.05L67.5167 433.141L55.8648 424.044L122.316 443.295L129.683 448.43Z" fill="white"/>
<path d="M144.852 408.95L146.527 429.554L135.591 424.524L144.852 408.95Z" fill="white"/>
<path opacity="0.5" d="M65.2832 388.298L73.4236 396.123L57.1958 411.107L45.9999 389.273L65.2832 388.298Z" fill="white"/>
<path opacity="0.35" d="M137.175 404.628L144.76 408.316L135.206 424.311L115.373 409.769L137.175 404.628Z" fill="white"/>
<path d="M158.985 359.424L167.377 345.782L171.64 351.199L166.946 359.328L158.985 359.424Z" fill="white"/>
<path opacity="0.3" d="M54.682 423.128L36.8696 406.428L56.9161 411.667L54.682 423.128Z" fill="white"/>
<path d="M187.775 214.585L176.44 169.337L188.696 191.708L187.775 214.585Z" fill="white"/>
<path d="M153.181 153.824L154.675 140.283L166.564 155.926L153.181 153.824Z" fill="white"/>
<path opacity="0.35" d="M181.97 269.345L151.069 274.947L163.807 266.155C163.807 266.155 163.814 266.135 163.829 266.097C163.829 266.097 163.836 266.077 163.851 266.038L167.111 259.227L191.051 253.369L181.97 269.345Z" fill="white"/>
<path opacity="0.25" d="M182.035 245.742L160.538 222.98L187.643 216.331L182.035 245.742Z" fill="white"/>
<path opacity="0.25" d="M187.595 215.581L149.389 188.785L175.68 168.183L187.595 215.581Z" fill="white"/>
<path d="M175.262 167.358L152.557 159.31L153.084 154.253L166.955 156.474L175.262 167.358Z" fill="white"/>
<path opacity="0.5" d="M149.311 188.289L152.518 159.761L175.398 167.875L149.311 188.289Z" fill="white"/>
<path d="M181.144 286.201L182.324 269.813L186.107 270.721L181.144 286.201Z" fill="white"/>
<path d="M180.092 337.048L181.628 343.157L169.282 337.456L180.092 337.048Z" fill="white"/>
<path d="M181.938 343.741L186.186 344.826L173.392 350.27L181.938 343.741Z" fill="white"/>
<path opacity="0.35" d="M168.568 337.584L181.146 343.373L167.62 345.143L168.568 337.584Z" fill="white"/>
<path opacity="0.3" d="M186.632 344.53L182.093 343.334L180.544 337.086L188.067 337.09L186.632 344.53Z" fill="white"/>
<path opacity="0.3" d="M165.707 307.676L180.549 288.637L178.378 318.292L165.707 307.676Z" fill="white"/>
<path d="M162.741 337.495L168.138 337.487L167.146 345.162L161.694 344.617L162.741 337.495Z" fill="white"/>
<path opacity="0.25" d="M180.444 336.649L179.687 332.168L186.398 328.534L188.084 336.697L180.444 336.649Z" fill="white"/>
<path opacity="0.35" d="M-0.422671 115.825L56.2933 118.323L36.303 154.902L-0.422671 115.825Z" fill="white"/>
<path d="M0.263989 115.421L49.5704 99.2574L56.3681 117.952L0.263989 115.421Z" fill="white"/>
<path d="M77.0089 89.8066L49.7697 98.7338L46.3861 89.259L77.0089 89.8066Z" fill="white"/>
<path opacity="0.6" d="M17.2197 88.7339L45.9125 89.2786L49.3904 98.8559L-0.433719 115.155L17.2197 88.7339Z" fill="white"/>
<path opacity="0.25" d="M38.545 249.731L23.5888 247.563L19.9455 240.518L35.5018 230.27L38.545 249.731Z" fill="white"/>
<path opacity="0.25" d="M36.4004 155.871L74.1843 235.883L28.266 198.562L36.4004 155.871Z" fill="white"/>
<path d="M74.0291 236.29L35.8395 229.733L28.4155 199.219L74.0291 236.29Z" fill="white"/>
<path opacity="0.5" d="M109.234 106.605L123.468 148.964L56.994 118.058L78.3851 89.8653L109.234 106.605Z" fill="white"/>
<path d="M109.004 105.985L79.9054 90.2446L105.939 96.8979L109.004 105.985Z" fill="white"/>
<path opacity="0.35" d="M147.689 119.985L143.223 124.541L109.541 106.323L106.426 97.0168L129.652 103L147.689 119.985Z" fill="white"/>
<path d="M155.663 127.548L155.044 133.369L143.586 124.812L147.971 120.293L155.663 127.548Z" fill="white"/>
<path d="M45.7544 88.8194L19.1661 88.344L43.8285 83.5602L45.7544 88.8194Z" fill="white"/>
<path opacity="0.25" d="M152.729 153.785L124.224 149.252L143.257 125.153L154.284 139.735L152.729 153.785Z" fill="white"/>
<path d="M77.5792 89.3584L46.206 88.8577L44.2661 83.4601L62.5933 79.9241L77.5792 89.3584Z" fill="white"/>
<path d="M56.7335 117.692L49.9498 99.1354L77.7289 90.0145L56.7335 117.692Z" fill="white"/>
<path opacity="0.25" d="M38.5267 302.235L51.0151 321.9L30.6059 326.706L38.5267 302.235Z" fill="white"/>
<path d="M-19.2944 289L0.222628 292.307L5.01513 299.656L-7.05301 307.04L-19.2944 289Z" fill="white"/>
<path opacity="0.25" d="M-10.1162 275.391L-5.06483 277.515L0.00650336 291.825L-19.3361 288.585L-10.1162 275.391Z" fill="white"/>
<path opacity="0.6" d="M8.96274 305.552L13.652 310.2L11.7628 327.051L-6.67622 307.45L8.96274 305.552Z" fill="white"/>
<path d="M-1.05396 115.385L-53.1211 121.312L-30.3754 104.95L16.5995 88.9635L-1.05396 115.385Z" fill="white"/>
<path opacity="0.25" d="M30.6532 327.456L72.9474 356.808L40.3439 363.559L30.6532 327.456Z" fill="white"/>
<path opacity="0.25" d="M12.4605 327.316L37.9646 302.488L30.1102 326.784L12.4605 327.316Z" fill="white"/>
<path opacity="0.25" d="M14.0508 310.551L21.5016 317.915L12.178 327.009L14.0508 310.551Z" fill="white"/>
<path opacity="0.3" d="M35.8074 154.98L-17.6444 150.73L-0.882207 115.982L35.8074 154.98Z" fill="white"/>
<path d="M19.7434 240.175L15.9561 232.809L34.7156 230.236L19.7434 240.175Z" fill="white"/>
<path opacity="0.25" d="M27.8201 198.859L35.3023 229.395L-29.3492 189.333L27.8201 198.859Z" fill="white"/>
<path d="M15.6376 232.421L-34.2987 224.186L33.7048 229.918L15.6376 232.421Z" fill="white"/>
<path opacity="0.25" d="M-0.246135 260.315L-14.6773 263.937L-6.27834 245.905L-0.246135 260.315Z" fill="white"/>
<path opacity="0.5" d="M15.0312 232.79L-6.2453 245.119L-38.66 223.923L15.0312 232.79Z" fill="white"/>
<path opacity="0.5" d="M160.78 383.735L154.1 388.512L137.989 375.388L160.78 383.735Z" fill="white"/>
<path d="M144.831 385.049L138.08 376.022L153.734 388.772L151.359 390.463L144.831 385.049Z" fill="white"/>
<path d="M82.9495 387.372L73.731 395.841L65.8953 388.264L82.9495 387.372Z" fill="white"/>
<path opacity="0.25" d="M161.597 345.045L166.992 345.569L159.062 358.522L161.597 345.045Z" fill="white"/>
<path opacity="0.25" d="M137.856 374.339L152.055 364.506L163.174 369.406L154.607 371.268L137.856 374.339Z" fill="white"/>
<path d="M157.981 394.583L151.722 390.735L154.097 389.044L163.027 396.371L157.981 394.583Z" fill="white"/>
<path opacity="0.25" d="M152.443 364.188L158.531 359.917L163.387 369.021L152.443 364.188Z" fill="white"/>
<path d="M118.447 391.906L119.395 387.142L127.085 397.725L118.447 391.906Z" fill="white"/>
<path opacity="0.35" d="M119.644 386.838L144.618 385.434L150.877 390.68L128.043 398.356L119.644 386.838Z" fill="white"/>
<path opacity="0.35" d="M99.091 420.873L121.634 442.637L56.0777 423.66L99.091 420.873Z" fill="white"/>
<path d="M128.464 398.649L150.459 391.252L137.155 404.155L128.464 398.649Z" fill="white"/>
<path opacity="0.3" d="M73.7645 396.452L98.446 420.294L57.6169 411.401L73.7645 396.452Z" fill="white"/>
<path opacity="0.3" d="M118.386 392.415L127.888 398.762L136.637 404.291L115.112 409.404L118.386 392.415Z" fill="white"/>
<path d="M99.7555 420.527L114.833 409.963L134.477 424.3L99.7555 420.527Z" fill="white"/>
</g>
<path d="M206.058 649.958L278.494 559.959L163.243 551.438L206.058 649.958Z" stroke="white" strokeWidth="0.9" strokeLinecap="round" strokeLinejoin="round"/>
<path opacity="0.1" d="M132.937 638.017L247.939 626.572L173.2 538.439L132.937 638.017Z" fill="white"/>
<path opacity="0.1" d="M-50.3939 601.444L29.759 518.225L-84.3095 499.566L-50.3939 601.444Z" fill="white"/>
<path opacity="0.1" d="M16.1928 680.87L20.9846 565.495L-76.7795 627.008L16.1928 680.87Z" fill="white"/>
<path opacity="0.1" d="M85.1441 280.695L89.998 165.32L-7.82835 226.832L85.1441 280.695Z" fill="white"/>
<path opacity="0.1" d="M144.948 279.139L121.798 319.007L167.786 315.4L144.948 279.139Z" fill="white"/>
<path d="M224.229 537.755L202.76 530.852L209.232 552.434L224.229 537.755Z" stroke="white" strokeWidth="0.9" strokeLinecap="round" strokeLinejoin="round"/>
<g filter="url(#filter0_f_4620_35173)">
<path d="M49.518 161.904C49.6035 162.383 50.0596 162.703 50.5389 162.62L50.6002 162.61C51.0837 162.526 51.4071 162.065 51.3208 161.582C51.2352 161.103 50.7791 160.784 50.2998 160.866L50.2385 160.877C49.755 160.96 49.4317 161.421 49.518 161.904Z" fill="white"/>
<path d="M162.092 273.759C162.178 274.258 161.843 274.731 161.345 274.817C160.847 274.903 160.373 274.569 160.288 274.071C160.202 273.573 160.536 273.099 161.034 273.013C161.532 272.927 162.006 273.261 162.092 273.759Z" fill="white"/>
<path d="M73.849 207.209C73.935 207.707 73.6003 208.18 73.1021 208.266C72.6041 208.352 72.1303 208.018 72.0444 207.52C71.9585 207.022 72.2932 206.548 72.7913 206.463C73.2893 206.377 73.7631 206.711 73.849 207.209Z" fill="white"/>
<path d="M81.0739 168.806C81.1567 169.286 80.8365 169.743 80.3573 169.828C79.8742 169.914 79.4132 169.591 79.3297 169.107L79.3195 169.048C79.2367 168.568 79.5569 168.112 80.0361 168.026C80.5192 167.94 80.9802 168.263 81.0637 168.747L81.0739 168.806Z" fill="white"/>
<path d="M130.666 127.69C130.751 128.171 130.431 128.631 129.95 128.717C129.469 128.803 129.009 128.483 128.923 128.002C128.837 127.521 129.158 127.061 129.639 126.975C130.12 126.89 130.58 127.21 130.666 127.69Z" fill="white"/>
<path d="M192.715 146.913C192.798 147.393 192.478 147.849 191.999 147.935C191.516 148.021 191.055 147.698 190.971 147.214L190.961 147.155C190.878 146.675 191.198 146.218 191.678 146.133C192.161 146.047 192.622 146.37 192.705 146.854L192.715 146.913Z" fill="white"/>
<path d="M140.436 156.115C140.522 156.596 140.201 157.056 139.72 157.141C139.239 157.227 138.779 156.907 138.693 156.426C138.608 155.945 138.928 155.486 139.409 155.4C139.89 155.314 140.35 155.634 140.436 156.115Z" fill="white"/>
<path d="M179.578 112.012C179.664 112.495 179.341 112.956 178.857 113.039L178.796 113.05C178.317 113.132 177.861 112.812 177.775 112.334C177.689 111.851 178.012 111.39 178.496 111.306L178.557 111.296C179.036 111.213 179.492 111.533 179.578 112.012Z" fill="white"/>
<path d="M92.9599 185.288C93.0427 185.768 92.7225 186.224 92.2433 186.31C91.7602 186.396 91.2992 186.073 91.2157 185.589L91.2055 185.53C91.1227 185.05 91.4429 184.593 91.9221 184.508C92.4052 184.422 92.8662 184.745 92.9497 185.229L92.9599 185.288Z" fill="white"/>
<path d="M2.85018 281.196C2.93293 281.675 2.61275 282.132 2.13355 282.217C1.65042 282.304 1.18938 281.98 1.10595 281.497L1.0957 281.437C1.01295 280.957 1.33312 280.501 1.81232 280.415C2.29546 280.329 2.75649 280.653 2.83992 281.136L2.85018 281.196Z" fill="white"/>
<path d="M155.619 202.135C155.705 202.618 155.382 203.079 154.899 203.162L154.837 203.173C154.358 203.255 153.902 202.935 153.816 202.457C153.73 201.974 154.053 201.513 154.537 201.429L154.598 201.419C155.077 201.336 155.534 201.656 155.619 202.135Z" fill="white"/>
<path d="M162.839 163.702C162.925 164.183 162.604 164.643 162.123 164.729C161.642 164.815 161.182 164.494 161.096 164.014C161.01 163.533 161.331 163.073 161.812 162.987C162.293 162.901 162.753 163.221 162.839 163.702Z" fill="white"/>
<path d="M91.8951 253.633C91.9814 254.116 91.6581 254.577 91.1746 254.661L91.1133 254.671C90.634 254.754 90.1779 254.434 90.0924 253.955C90.0061 253.472 90.3294 253.011 90.8129 252.928L90.8742 252.917C91.3535 252.835 91.8096 253.155 91.8951 253.633Z" fill="white"/>
<path d="M139.378 249.472C139.464 249.953 139.143 250.413 138.662 250.498C138.181 250.584 137.721 250.264 137.636 249.783C137.55 249.302 137.87 248.843 138.351 248.757C138.832 248.671 139.292 248.991 139.378 249.472Z" fill="white"/>
<path d="M97.5579 223.033C97.6442 223.516 97.3209 223.977 96.8374 224.06L96.7761 224.071C96.2968 224.153 95.8407 223.833 95.7552 223.355C95.6689 222.872 95.9922 222.411 96.4757 222.327L96.537 222.317C97.0163 222.234 97.4724 222.554 97.5579 223.033Z" fill="white"/>
<path d="M112.929 272.728C113.015 273.211 112.692 273.672 112.209 273.756L112.147 273.766C111.668 273.849 111.212 273.529 111.126 273.05C111.04 272.567 111.363 272.106 111.847 272.023L111.908 272.012C112.388 271.93 112.844 272.25 112.929 272.728Z" fill="white"/>
<path d="M161.787 257.126C161.87 257.606 161.55 258.062 161.07 258.148C160.587 258.234 160.126 257.91 160.043 257.427L160.032 257.367C159.95 256.888 160.27 256.431 160.749 256.346C161.232 256.259 161.693 256.583 161.777 257.066L161.787 257.126Z" fill="white"/>
<path d="M52.9397 337.045C53.0257 337.526 52.7049 337.985 52.2239 338.071C51.7431 338.157 51.2833 337.837 51.1973 337.356C51.1114 336.875 51.4321 336.415 51.9131 336.33C52.394 336.244 52.8538 336.564 52.9397 337.045Z" fill="white"/>
<path d="M30.2316 312.792C30.3144 313.272 29.9942 313.728 29.515 313.814C29.0319 313.9 28.5709 313.577 28.4874 313.093L28.4772 313.034C28.3944 312.554 28.7146 312.097 29.1938 312.012C29.6769 311.926 30.138 312.249 30.2214 312.733L30.2316 312.792Z" fill="white"/>
<path d="M3.77762 335.988C3.86356 336.469 3.54281 336.928 3.06182 337.014C2.58096 337.1 2.12111 336.78 2.0352 336.299C1.94926 335.818 2.27001 335.358 2.751 335.273C3.23186 335.187 3.69171 335.507 3.77762 335.988Z" fill="white"/>
<path d="M52.6286 320.376C52.7145 320.857 52.3938 321.317 51.9128 321.403C51.4319 321.489 50.9721 321.168 50.8862 320.688C50.8003 320.207 51.121 319.747 51.602 319.661C52.0828 319.575 52.5427 319.895 52.6286 320.376Z" fill="white"/>
<path d="M22.4467 56.0398C22.5326 56.5208 22.2119 56.9804 21.7309 57.0662C21.25 57.152 20.7902 56.8319 20.7043 56.3511C20.6183 55.8701 20.9391 55.4105 21.4201 55.3247C21.9009 55.2388 22.3608 55.5589 22.4467 56.0398Z" fill="white"/>
<path d="M84.4906 75.2584C84.5766 75.7394 84.2558 76.199 83.7749 76.2849C83.294 76.3707 82.8342 76.0506 82.7482 75.5697C82.6623 75.0888 82.983 74.6292 83.464 74.5433C83.9449 74.4575 84.4047 74.7776 84.4906 75.2584Z" fill="white"/>
<path d="M32.217 84.4634C32.3029 84.9444 31.9822 85.404 31.5012 85.4898C31.0203 85.5757 30.5605 85.2555 30.4746 84.7747C30.3887 84.2937 30.7094 83.8341 31.1904 83.7483C31.6712 83.6624 32.131 83.9825 32.217 84.4634Z" fill="white"/>
<path d="M71.3599 40.3971C71.4458 40.8952 71.1112 41.3688 70.613 41.4546C70.115 41.5405 69.6412 41.2064 69.5553 40.7084C69.4694 40.2103 69.804 39.7367 70.3022 39.6509C70.8002 39.565 71.274 39.8991 71.3599 40.3971Z" fill="white"/>
<path d="M5.76815 107.72C5.85444 108.203 5.53113 108.664 5.04762 108.747L4.98639 108.758C4.50707 108.84 4.05099 108.52 3.96544 108.042C3.87914 107.559 4.20245 107.098 4.68596 107.014L4.7472 107.004C5.22652 106.921 5.6826 107.241 5.76815 107.72Z" fill="white"/>
<path d="M47.4012 130.52C47.4871 131.018 47.1524 131.492 46.6543 131.578C46.1562 131.663 45.6825 131.329 45.5966 130.831C45.5106 130.333 45.8453 129.86 46.3434 129.774C46.8415 129.688 47.3152 130.022 47.4012 130.52Z" fill="white"/>
<path d="M54.6261 92.1177C54.7088 92.5974 54.3886 93.0538 53.9095 93.1393C53.4263 93.2256 52.9653 92.9022 52.8819 92.4186L52.8716 92.3591C52.7889 91.8794 53.109 91.4229 53.5882 91.3374C54.0713 91.2512 54.5324 91.5746 54.6158 92.0582L54.6261 92.1177Z" fill="white"/>
<path d="M14.1701 180.869C14.256 181.35 13.9353 181.809 13.4543 181.895C12.9735 181.981 12.5136 181.661 12.4277 181.18C12.3418 180.699 12.6625 180.24 13.1435 180.154C13.6243 180.068 14.0842 180.388 14.1701 180.869Z" fill="white"/>
<path d="M31.5324 179.998C31.6183 180.479 31.2976 180.938 30.8166 181.024C30.3358 181.11 29.8759 180.79 29.79 180.309C29.7041 179.828 30.0248 179.368 30.5058 179.283C30.9866 179.197 31.4465 179.517 31.5324 179.998Z" fill="white"/>
<path d="M10.6852 147.656C10.7711 148.136 10.4504 148.596 9.96946 148.682C9.4886 148.768 9.02877 148.448 8.94286 147.967C8.85693 147.486 9.17764 147.026 9.65862 146.94C10.1395 146.855 10.5993 147.175 10.6852 147.656Z" fill="white"/>
<path d="M216.855 198.502C216.941 199 216.606 199.473 216.108 199.559C215.61 199.645 215.136 199.311 215.05 198.813C214.964 198.315 215.299 197.841 215.797 197.755C216.295 197.669 216.769 198.003 216.855 198.502Z" fill="white"/>
<path d="M258.486 221.291C258.573 221.774 258.249 222.235 257.766 222.318L257.704 222.329C257.225 222.411 256.769 222.092 256.684 221.613C256.597 221.13 256.921 220.669 257.404 220.586L257.465 220.575C257.945 220.492 258.401 220.812 258.486 221.291Z" fill="white"/>
<path d="M200.93 226.96C201.013 227.44 200.693 227.897 200.213 227.982C199.73 228.068 199.269 227.745 199.186 227.261L199.176 227.202C199.093 226.722 199.413 226.266 199.892 226.18C200.375 226.094 200.836 226.417 200.92 226.901L200.93 226.96Z" fill="white"/>
<path d="M141.183 459.821C141.268 460.302 140.948 460.762 140.467 460.848C139.986 460.934 139.526 460.614 139.44 460.133C139.354 459.652 139.675 459.192 140.156 459.106C140.637 459.02 141.097 459.341 141.183 459.821Z" fill="white"/>
<path d="M203.288 479.035C203.374 479.518 203.051 479.979 202.567 480.062L202.506 480.073C202.027 480.156 201.57 479.836 201.485 479.357C201.399 478.874 201.722 478.413 202.205 478.33L202.267 478.319C202.746 478.236 203.202 478.556 203.288 479.035Z" fill="white"/>
<path d="M150.953 488.245C151.039 488.726 150.718 489.186 150.237 489.271C149.756 489.357 149.296 489.037 149.21 488.556C149.124 488.075 149.445 487.616 149.926 487.53C150.407 487.444 150.867 487.764 150.953 488.245Z" fill="white"/>
<path d="M190.095 444.204C190.181 444.687 189.858 445.148 189.374 445.232L189.313 445.242C188.834 445.325 188.378 445.005 188.292 444.526C188.206 444.043 188.529 443.582 189.013 443.499L189.074 443.488C189.553 443.406 190.009 443.726 190.095 444.204Z" fill="white"/>
<path d="M166.137 534.302C166.223 534.8 165.888 535.274 165.39 535.359C164.892 535.445 164.418 535.111 164.332 534.613C164.247 534.115 164.581 533.642 165.079 533.556C165.577 533.47 166.051 533.804 166.137 534.302Z" fill="white"/>
<path d="M173.362 495.9C173.445 496.379 173.124 496.836 172.645 496.921C172.162 497.007 171.701 496.684 171.618 496.2L171.607 496.141C171.525 495.661 171.845 495.205 172.324 495.119C172.807 495.033 173.268 495.357 173.352 495.84L173.362 495.9Z" fill="white"/>
<path d="M171.301 577.866C171.388 578.349 171.064 578.81 170.581 578.893L170.519 578.904C170.04 578.986 169.584 578.666 169.498 578.187C169.412 577.704 169.735 577.244 170.219 577.16L170.28 577.15C170.76 577.067 171.216 577.387 171.301 577.866Z" fill="white"/>
<path d="M186.43 623.963C186.513 624.443 186.193 624.899 185.714 624.985C185.231 625.071 184.769 624.747 184.686 624.264L184.676 624.204C184.593 623.725 184.913 623.268 185.392 623.183C185.876 623.096 186.337 623.42 186.42 623.903L186.43 623.963Z" fill="white"/>
<path d="M193.705 585.49C193.791 585.988 193.456 586.462 192.958 586.547C192.46 586.633 191.987 586.299 191.901 585.801C191.815 585.303 192.149 584.83 192.648 584.744C193.146 584.658 193.619 584.992 193.705 585.49Z" fill="white"/>
<path d="M101.48 375.513C101.565 376.011 101.231 376.485 100.733 376.571C100.235 376.656 99.7608 376.322 99.6749 375.824C99.5889 375.326 99.9236 374.853 100.422 374.767C100.92 374.681 101.394 375.015 101.48 375.513Z" fill="white"/>
<path d="M108.703 337.071C108.787 337.542 108.483 337.995 108.015 338.095C107.522 338.201 107.04 337.875 106.954 337.378L106.95 337.355C106.867 336.874 107.188 336.416 107.669 336.33C108.152 336.244 108.613 336.565 108.699 337.048L108.703 337.071Z" fill="white"/>
<path d="M137.324 301.873C137.41 302.371 137.076 302.844 136.577 302.93C136.079 303.016 135.606 302.682 135.52 302.184C135.434 301.686 135.769 301.212 136.267 301.126C136.765 301.041 137.238 301.375 137.324 301.873Z" fill="white"/>
<path d="M199.368 321.057C199.454 321.54 199.133 322.001 198.65 322.087L198.625 322.091C198.154 322.175 197.702 321.871 197.602 321.404C197.496 320.911 197.822 320.429 198.318 320.343L198.344 320.339C198.824 320.256 199.282 320.577 199.368 321.057Z" fill="white"/>
<path d="M147.095 330.296C147.181 330.795 146.846 331.268 146.348 331.354C145.85 331.44 145.376 331.106 145.29 330.608C145.204 330.11 145.539 329.636 146.037 329.55C146.535 329.464 147.009 329.798 147.095 330.296Z" fill="white"/>
<path d="M120.59 353.593C120.673 354.073 120.353 354.529 119.874 354.615C119.391 354.701 118.93 354.377 118.846 353.894L118.836 353.834C118.753 353.355 119.073 352.898 119.552 352.813C120.036 352.726 120.497 353.05 120.58 353.533L120.59 353.593Z" fill="white"/>
<path d="M162.216 376.353C162.302 376.834 161.982 377.294 161.501 377.38C161.02 377.465 160.56 377.145 160.474 376.664C160.388 376.184 160.709 375.724 161.19 375.638C161.671 375.552 162.131 375.872 162.216 376.353Z" fill="white"/>
<path d="M169.497 337.911C169.583 338.394 169.26 338.854 168.776 338.938L168.715 338.948C168.235 339.031 167.779 338.711 167.694 338.232C167.608 337.749 167.931 337.288 168.414 337.205L168.476 337.194C168.955 337.112 169.411 337.432 169.497 337.911Z" fill="white"/>
<path d="M-0.0815834 229.812C0.00471188 230.295 -0.318602 230.756 -0.802116 230.84L-0.86342 230.85C-1.34274 230.933 -1.79882 230.613 -1.88437 230.134C-1.97066 229.651 -1.64735 229.19 -1.16383 229.107L-1.10253 229.096C-0.62321 229.014 -0.16713 229.334 -0.0815834 229.812Z" fill="white"/>
<path d="M26.1243 248.48C26.2071 248.96 25.8869 249.416 25.4077 249.502C24.9246 249.588 24.4636 249.265 24.3801 248.781L24.3699 248.722C24.2871 248.242 24.6073 247.786 25.0865 247.7C25.5696 247.614 26.0307 247.937 26.1141 248.421L26.1243 248.48Z" fill="white"/>
<path d="M129.047 426.665C129.133 427.148 128.81 427.609 128.326 427.693L128.265 427.703C127.786 427.786 127.33 427.466 127.244 426.987C127.158 426.504 127.481 426.043 127.964 425.96L128.026 425.949C128.505 425.867 128.961 426.187 129.047 426.665Z" fill="white"/>
<path d="M167.388 419.957C167.47 420.437 167.15 420.893 166.671 420.979C166.188 421.065 165.727 420.741 165.643 420.258L165.633 420.198C165.55 419.719 165.871 419.262 166.35 419.177C166.833 419.09 167.294 419.414 167.377 419.897L167.388 419.957Z" fill="white"/>
<path d="M125.563 393.488C125.649 393.986 125.314 394.46 124.816 394.545C124.318 394.631 123.844 394.297 123.758 393.799C123.672 393.301 124.007 392.827 124.505 392.742C125.003 392.656 125.477 392.99 125.563 393.488Z" fill="white"/>
<path d="M140.933 443.147C141.019 443.63 140.696 444.091 140.212 444.175L140.151 444.185C139.672 444.268 139.216 443.948 139.13 443.469C139.044 442.986 139.367 442.525 139.851 442.442L139.912 442.431C140.391 442.349 140.847 442.669 140.933 443.147Z" fill="white"/>
<path d="M182.565 465.974C182.651 466.457 182.328 466.918 181.844 467.001L181.783 467.012C181.304 467.094 180.848 466.774 180.762 466.296C180.676 465.813 180.999 465.352 181.483 465.268L181.544 465.258C182.023 465.175 182.479 465.495 182.565 465.974Z" fill="white"/>
<path d="M189.791 427.545C189.873 428.025 189.553 428.481 189.074 428.567C188.591 428.653 188.13 428.33 188.047 427.846L188.036 427.787C187.953 427.307 188.274 426.851 188.753 426.765C189.236 426.679 189.697 427.002 189.78 427.486L189.791 427.545Z" fill="white"/>
<path d="M223.457 372.749C223.54 373.229 223.22 373.685 222.741 373.771C222.258 373.857 221.797 373.534 221.713 373.05L221.703 372.991C221.62 372.511 221.94 372.055 222.42 371.969C222.903 371.883 223.364 372.206 223.447 372.69L223.457 372.749Z" fill="white"/>
<path d="M265.084 395.51C265.17 395.991 264.849 396.45 264.368 396.536C263.887 396.622 263.427 396.302 263.341 395.821C263.255 395.34 263.576 394.881 264.057 394.795C264.538 394.709 264.998 395.029 265.084 395.51Z" fill="white"/>
<path d="M207.583 401.108C207.669 401.589 207.348 402.048 206.867 402.134C206.386 402.22 205.926 401.9 205.84 401.419C205.754 400.938 206.075 400.478 206.556 400.392C207.037 400.307 207.497 400.627 207.583 401.108Z" fill="white"/>
<path d="M42.8004 300.715C42.8838 301.199 43.3449 301.522 43.828 301.436C44.3072 301.351 44.6274 300.894 44.5446 300.415L44.5344 300.355C44.451 299.871 43.9899 299.548 43.5068 299.634C43.0276 299.72 42.7074 300.176 42.7902 300.656L42.8004 300.715Z" fill="white"/>
<path d="M42.8626 265.388C42.9461 265.872 43.4071 266.195 43.8902 266.109C44.3694 266.023 44.6895 265.567 44.6068 265.087L44.5965 265.028C44.5131 264.544 44.0521 264.221 43.5689 264.307C43.0898 264.392 42.7696 264.849 42.8524 265.329L42.8626 265.388Z" fill="white"/>
<path d="M37.3207 284.929C37.4063 285.408 37.8623 285.728 38.3417 285.645L38.403 285.635C38.8865 285.551 39.2098 285.091 39.1235 284.608C39.0379 284.129 38.5819 283.809 38.1025 283.891L38.0412 283.902C37.5577 283.985 37.2344 284.446 37.3207 284.929Z" fill="white"/>
<path d="M250.335 477.734C250.421 478.215 250.1 478.675 249.619 478.761C249.138 478.846 248.678 478.526 248.592 478.045C248.507 477.564 248.827 477.105 249.308 477.019C249.789 476.933 250.249 477.253 250.335 477.734Z" fill="white"/>
<path d="M315.987 557.465C316.074 557.948 315.75 558.409 315.267 558.492L315.205 558.503C314.726 558.586 314.27 558.266 314.184 557.787C314.098 557.304 314.421 556.843 314.905 556.76L314.966 556.749C315.446 556.666 315.902 556.986 315.987 557.465Z" fill="white"/>
<path d="M3.71528 646.256C3.21725 646.342 2.74346 646.008 2.65755 645.51C2.57162 645.012 2.90629 644.538 3.40446 644.452C3.90249 644.367 4.37628 644.701 4.46219 645.199C4.54813 645.697 4.21345 646.17 3.71528 646.256Z" fill="white"/>
<path d="M72.4541 557.688C71.971 557.774 71.51 557.451 71.4266 556.967L71.4163 556.908C71.3335 556.428 71.6537 555.972 72.1329 555.886C72.616 555.8 73.077 556.123 73.1605 556.607L73.1707 556.666C73.2535 557.146 72.9333 557.602 72.4541 557.688Z" fill="white"/>
<path d="M110.907 564.903C110.426 564.989 109.967 564.669 109.881 564.188C109.795 563.707 110.115 563.247 110.596 563.162C111.077 563.076 111.537 563.396 111.623 563.877C111.709 564.358 111.388 564.817 110.907 564.903Z" fill="white"/>
<path d="M146.135 593.513C145.652 593.599 145.191 593.275 145.107 592.792L145.097 592.732C145.014 592.253 145.335 591.796 145.814 591.711C146.297 591.624 146.758 591.948 146.841 592.431L146.852 592.491C146.934 592.971 146.614 593.427 146.135 593.513Z" fill="white"/>
<path d="M126.906 655.523C126.423 655.609 125.962 655.286 125.878 654.802L125.868 654.743C125.785 654.263 126.105 653.807 126.585 653.721C127.068 653.635 127.529 653.958 127.612 654.442L127.622 654.501C127.705 654.981 127.385 655.437 126.906 655.523Z" fill="white"/>
<path d="M117.696 603.277C117.212 603.363 116.751 603.04 116.668 602.556L116.658 602.497C116.575 602.017 116.895 601.561 117.374 601.475C117.857 601.389 118.319 601.713 118.402 602.196L118.412 602.256C118.495 602.735 118.175 603.192 117.696 603.277Z" fill="white"/>
<path d="M261.573 702.357C261.09 702.443 260.628 702.12 260.545 701.636L260.535 701.577C260.452 701.097 260.772 700.641 261.251 700.555C261.735 700.469 262.196 700.792 262.279 701.276L262.289 701.335C262.372 701.815 262.052 702.271 261.573 702.357Z" fill="white"/>
<path d="M94.4162 576.783C93.9354 576.868 93.4755 576.548 93.3896 576.067C93.3037 575.586 93.6244 575.127 94.1054 575.041C94.5862 574.955 95.0461 575.275 95.132 575.756C95.2179 576.237 94.8972 576.697 94.4162 576.783Z" fill="white"/>
<path d="M71.573 618.399C71.0937 618.481 70.6376 618.161 70.552 617.683C70.4657 617.2 70.7891 616.739 71.2726 616.655L71.3339 616.645C71.8132 616.562 72.2693 616.882 72.3548 617.361C72.4411 617.844 72.1178 618.305 71.6343 618.388L71.573 618.399Z" fill="white"/>
<path d="M185.766 794.353C185.287 794.436 184.83 794.116 184.745 793.637C184.659 793.154 184.982 792.693 185.465 792.61L185.527 792.599C186.006 792.517 186.462 792.837 186.548 793.315C186.634 793.798 186.311 794.259 185.827 794.343L185.766 794.353Z" fill="white"/>
<path d="M110.067 625.669C109.569 625.755 109.095 625.421 109.009 624.923C108.923 624.425 109.258 623.951 109.756 623.866C110.254 623.78 110.728 624.114 110.814 624.612C110.9 625.11 110.565 625.584 110.067 625.669Z" fill="white"/>
<path d="M21.2383 585.241C20.7552 585.327 20.2942 585.004 20.2108 584.52L20.2005 584.46C20.1178 583.981 20.4379 583.524 20.9171 583.439C21.4002 583.353 21.8612 583.676 21.9447 584.16L21.9549 584.219C22.0377 584.699 21.7175 585.155 21.2383 585.241Z" fill="white"/>
<path d="M28.0163 623.555C27.5355 623.641 27.0756 623.321 26.9897 622.84C26.9038 622.359 27.2245 621.899 27.7055 621.813C28.1864 621.727 28.6462 622.048 28.7321 622.528C28.818 623.009 28.4973 623.469 28.0163 623.555Z" fill="white"/>
<path d="M54.4694 581.758C53.9863 581.844 53.5252 581.52 53.4418 581.037L53.4315 580.977C53.3488 580.498 53.669 580.041 54.1481 579.956C54.6313 579.869 55.0923 580.193 55.1757 580.676L55.186 580.736C55.2687 581.216 54.9486 581.672 54.4694 581.758Z" fill="white"/>
<path d="M4.74725 597.12C4.26413 597.206 3.80311 596.882 3.71968 596.399L3.70941 596.339C3.62667 595.86 3.94682 595.403 4.426 595.318C4.90912 595.231 5.37014 595.555 5.45356 596.038L5.46383 596.098C5.54658 596.578 5.22642 597.034 4.74725 597.12Z" fill="white"/>
<path d="M20.3969 645.95C19.9263 646.034 19.4737 645.73 19.3735 645.263C19.2678 644.77 19.5936 644.288 20.0904 644.202L20.1156 644.198C20.5963 644.115 21.0538 644.436 21.1396 644.916C21.2258 645.399 20.9045 645.86 20.4221 645.946L20.3969 645.95Z" fill="white"/>
<path d="M75.2493 679.594C74.7685 679.68 74.3086 679.359 74.2227 678.879C74.1368 678.398 74.4575 677.938 74.9385 677.852C75.4194 677.766 75.8792 678.086 75.9651 678.567C76.0511 679.048 75.7303 679.508 75.2493 679.594Z" fill="white"/>
<path d="M52.4059 721.209C51.9266 721.292 51.4705 720.972 51.3849 720.493C51.2986 720.01 51.6219 719.549 52.1055 719.466L52.1667 719.456C52.6461 719.373 53.1022 719.693 53.1877 720.172C53.274 720.655 52.9507 721.116 52.4672 721.199L52.4059 721.209Z" fill="white"/>
<path d="M46.8151 663.733C46.332 663.819 45.8709 663.496 45.7875 663.012L45.7772 662.953C45.6945 662.473 46.0147 662.017 46.4939 661.931C46.977 661.845 47.438 662.168 47.5214 662.652L47.5317 662.711C47.6144 663.191 47.2943 663.647 46.8151 663.733Z" fill="white"/>
</g>
<path opacity="0.1" d="M402.144 609.648L483.542 527.673L369.785 507.21L402.144 609.648Z" fill="white"/>
<path opacity="0.1" d="M419.923 335L436 242L350 281.639L419.923 335Z" fill="white"/>
<path opacity="0.1" d="M221.709 325L229 282L190 300.328L221.709 325Z" fill="white"/>
<path opacity="0.1" d="M276.222 397.596L336.201 378.843L287.169 340.75L276.222 397.596Z" fill="white"/>
<path opacity="0.1" d="M391.355 405.289L354.54 353.066L332.997 412.278L391.355 405.289Z" fill="white"/>
<path opacity="0.1" d="M341.098 298.222L274.559 303.991L316.755 354.727L341.098 298.222Z" fill="white"/>
</g>
<defs>
<filter id="filter0_f_4620_35173" x="-317.79" y="37.6374" width="635.791" height="758.729" filterUnits="userSpaceOnUse" color-interpolation-filters="sRGB">
<feFlood flood-opacity="0" result="BackgroundImageFix"/>
<feBlend mode="normal" in="SourceGraphic" in2="BackgroundImageFix" result="shape"/>
<feGaussianBlur stdDeviation="1" result="effect1_foregroundBlur_4620_35173"/>
</filter>
</defs>
</svg>
