<svg width="1434" height="797" viewBox="0 0 1434 797" fill="none" xmlns="http://www.w3.org/2000/svg">
<g style="mix-blend-mode:overlay">
<path d="M458.439 429.786L446.979 424.556L426.573 409.597L417.56 383.603L416.886 350.402L418.224 322.759L419.546 286.59L417.94 248.841L439.65 210.721L460.705 188.657L487.523 167.722L501.917 159.826L435.532 149.32L348.018 155.126L310.763 115.514M310.763 115.514L389.986 89.5127L348.355 63.1423L328.799 88.4395L310.763 115.514ZM310.763 115.514L293.722 150.82L281.291 188.881L272.119 223.457L268.219 260.973L275.682 291.035L290.967 328.536L313.002 376.462L347.867 405.912L366.549 423.476" stroke="white" strokeLinecap="round" strokeLinejoin="round"/>
<path d="M225.632 181.86L281.291 188.881L339.734 198.559M339.734 198.559L386.472 236.525L417.94 248.842L471.818 222.772L499.637 215.996L512.332 212.911L487.523 167.723L435.532 149.32L409.755 72.7494L389.986 89.5131L368.324 118.068L348.018 155.126L339.734 198.559ZM339.734 198.559L347.344 229.81L350.479 249.905L361.899 263.106L351.24 278.68L350.158 301.629L342.008 326.877L351.884 363.716L357.302 389.007L368.808 411.425L366.549 423.476L379.159 433.204" stroke="white" strokeLinecap="round" strokeLinejoin="round"/>
<path d="M227.305 165.925L257.749 121.48L281.204 104.656L328.799 88.4395L389.986 89.5127L454.938 124.764L487.523 167.722L499.637 215.996L493.844 246.068L473.547 256.175L478.668 258.991L475.364 265.918L461.815 275.267L472.96 294.087L477.14 307.592L475.808 326.652L473.118 344.729L470.329 359.573L475.59 369.364M475.59 369.364L480.922 376.519L448.601 374.659M475.59 369.364L466.367 371.375L448.601 374.659M475.59 369.364L486.087 367.504M448.601 374.659L475.775 396.855L469.602 394.703L463.016 390.665L456.394 385.148L448.601 374.659Z" stroke="white" strokeLinecap="round" strokeLinejoin="round"/>
<path d="M293.722 150.82L348.018 155.126L407.092 184.479L439.65 210.721L471.818 222.772L493.844 246.069L512.332 212.911L503.147 252.939L493.809 269.416L492.502 287.886L495.145 302.803L499.21 312.936L506.335 324.302L519.801 334.755L500.039 336.812L491.948 336.726L480.111 337.209L479.022 345.314L473.118 344.729L462.888 351.482L441.323 360.374L417.56 383.603L395.198 387.067L357.302 389.007L347.867 405.912L333.295 429.314L317.346 470.494" stroke="white" strokeLinecap="round" strokeLinejoin="round"/>
<path d="M386.472 236.524L365.927 242.211L361.899 263.105" stroke="white" strokeLinecap="round" strokeLinejoin="round"/>
<path d="M189.071 219.982L272.118 223.457L347.344 229.81L365.927 242.211L350.478 249.905L335.151 247.662L318.839 248.704L311.731 260.373L306.769 277.251L312.02 291.963L320.68 305.244L333.545 317.798" stroke="white" strokeLinecap="round" strokeLinejoin="round"/>
<path d="M498.079 270.444L493.809 269.417L461.815 275.268L454.238 271.384L447.546 266.573L436.59 261.07" stroke="white" strokeLinecap="round" strokeLinejoin="round"/>
<path d="M501.394 289.542L492.502 287.886L461.815 275.268" stroke="white" strokeLinecap="round" strokeLinejoin="round"/>
<path d="M511.482 320.405L506.335 324.302L498.276 328.154L491.163 331.968L483.036 330.403L475.807 326.652L466.206 331.581L445.944 328.656L418.224 322.759L380.894 317.793L342.008 326.877L290.967 328.536L291.972 288.653M291.972 288.653L312.02 291.963L320.905 278.774L311.732 260.373L291.972 288.653ZM291.972 288.653L275.682 291.035L296.622 264.202" stroke="white" strokeLinecap="round" strokeLinejoin="round"/>
<path d="M493.598 343.411L491.948 336.726L491.163 331.968L490.246 318.64L477.139 307.592L467.246 318.533L469.436 307.188L456.233 296.569L441.214 279.003L436.59 261.069L471.648 247L493.844 246.069L506.739 255.572" stroke="white" strokeLinecap="round" strokeLinejoin="round"/>
<path d="M514.176 348.652L498.955 352.773" stroke="white" strokeLinecap="round" strokeLinejoin="round"/>
<path d="M257.749 121.48L310.763 115.514L368.324 118.068L435.532 149.32L460.705 188.657L471.818 222.772L471.648 247L470.011 255.494M470.011 255.494L473.547 256.175L475.364 265.919L454.238 271.384L467.536 284.9L463.94 291.718L446.759 274.06L447.546 266.572L470.011 255.494Z" stroke="white" strokeLinecap="round" strokeLinejoin="round"/>
<path d="M463.94 291.718L469.436 307.188L472.96 294.088L456.233 296.569L419.546 286.591" stroke="white" strokeLinecap="round" strokeLinejoin="round"/>
<path d="M418.224 322.759L384.983 278.553" stroke="white" strokeLinecap="round" strokeLinejoin="round"/>
<path d="M502.192 300.561L495.145 302.803L490.246 318.64L498.276 328.154L500.039 336.812L498.507 344.681L498.956 352.772L483.567 351.038" stroke="white" strokeLinecap="round" strokeLinejoin="round"/>
<path d="M467.246 318.533L466.206 331.581L416.886 350.402L441.323 360.374" stroke="white" strokeLinecap="round" strokeLinejoin="round"/>
<path d="M460.873 362.894L462.888 351.482L466.206 331.581L441.323 360.374L443.647 372.107L448.601 374.66L472.963 383.605L463.016 390.665" stroke="white" strokeLinecap="round" strokeLinejoin="round"/>
<path d="M469.602 394.703L456.688 408.154L448.892 404.32L439.722 398.499L430.947 386.571L443.647 372.107L460.873 362.894L470.329 359.573L478.763 359.458" stroke="white" strokeLinecap="round" strokeLinejoin="round"/>
<path d="M446.979 424.557L410.809 420.565L426.573 409.597L448.892 404.32L463.016 390.665L439.722 398.499L417.56 383.603L385.144 356.815L342.008 326.877L313.002 376.462L333.295 429.314" stroke="white" strokeLinecap="round" strokeLinejoin="round"/>
<path d="M410.809 420.565L366.549 423.476L434.092 443.009L446.979 424.557L456.688 408.155" stroke="white" strokeLinecap="round" strokeLinejoin="round"/>
<path d="M456.394 385.147L430.947 386.571L426.573 409.597L395.199 387.066L368.808 411.425L347.867 405.912" stroke="white" strokeLinecap="round" strokeLinejoin="round"/>
<path d="M446.979 424.557L442.359 448.754L434.092 443.01L410.809 420.566L395.199 387.067L385.144 356.816L380.894 317.793L384.983 278.553L386.472 236.525L407.092 184.479L435.532 149.32L454.938 124.765L469.527 109.889L460.705 188.657" stroke="white" strokeLinecap="round" strokeLinejoin="round"/>
<path d="M368.808 411.425L410.809 420.565L351.884 363.716" stroke="white" strokeLinecap="round" strokeLinejoin="round"/>
<path d="M470.011 255.495L454.237 271.384L456.233 296.57L418.224 322.759L469.436 307.188L477.139 307.593L492.502 287.887L490.245 318.641L475.807 326.653" stroke="white" strokeLinecap="round" strokeLinejoin="round"/>
<path d="M354.262 274.241L347.885 263.36L337.465 273.235L320.905 278.775L327.446 293.246L350.158 301.629" stroke="white" strokeLinecap="round" strokeLinejoin="round"/>
<path d="M350.478 249.905L347.885 263.36L318.839 248.704L337.465 273.235L327.446 293.246" stroke="white" strokeLinecap="round" strokeLinejoin="round"/>
<path d="M305.411 245.321L272.118 223.457L327.316 232.565" stroke="white" strokeLinecap="round" strokeLinejoin="round"/>
<path d="M164.773 326.799L275.682 291.036" stroke="white" strokeLinecap="round" strokeLinejoin="round"/>
<path d="M323.608 327.457L327.447 293.246L318.839 248.704L347.344 229.81L327.316 232.565L305.411 245.321L296.622 264.203L291.972 288.654L304.604 307.242L323.608 327.457ZM323.608 327.457L350.158 301.629L384.983 278.553L419.546 286.591L441.214 279.003L446.759 274.06L454.238 271.384L478.668 258.991L503.147 252.94L498.079 270.444L492.502 287.887L472.96 294.088" stroke="white" strokeLinecap="round" strokeLinejoin="round"/>
<path d="M281.29 188.881L347.343 229.81L386.472 236.525L348.017 155.126" stroke="white" strokeLinecap="round" strokeLinejoin="round"/>
<path d="M454.938 124.765L501.917 159.827M501.917 159.827L409.755 72.7497M501.917 159.827L469.527 109.889L409.755 72.7497M501.917 159.827L512.332 212.911L506.74 255.572L498.079 270.444L501.394 289.543L502.192 300.562L504.899 308.315L511.482 320.406L519.801 334.755L514.176 348.652L493.598 343.411L479.022 345.314L483.568 351.039L478.763 359.458L486.086 367.505L480.922 376.52L472.963 383.605L475.775 396.855L469.663 404.511L456.688 408.155L458.439 429.786L442.359 448.754L407.797 442.114L379.159 433.204L355.136 456.068L344.703 476.121M409.755 72.7497L328.799 88.4402L277.929 77.586L348.355 63.143L409.755 72.7497Z" stroke="white" strokeLinecap="round" strokeLinejoin="round"/>
<path d="M501.917 159.827L499.637 215.996L460.705 188.657L407.093 184.479L417.94 248.842M417.94 248.842L361.899 263.106L384.983 278.553L417.94 248.842ZM417.94 248.842L436.591 261.069L439.65 210.721" stroke="white" strokeLinecap="round" strokeLinejoin="round"/>
<path d="M469.527 109.888L389.986 89.5129" stroke="white" strokeLinecap="round" strokeLinejoin="round"/>
<path d="M368.324 118.068L348.354 63.1424" stroke="white" strokeLinecap="round" strokeLinejoin="round"/>
<path d="M511.482 320.405L495.145 302.803L501.394 289.542" stroke="white" strokeLinecap="round" strokeLinejoin="round"/>
<path d="M519.801 334.754L498.507 344.681L483.568 351.038L493.598 343.41L480.111 337.209L473.789 337.198L465.701 339.375L443.57 344.857L416.886 350.402L385.144 356.815L351.884 363.716L313.002 376.462L297.826 408.618L272.36 449.435" stroke="white" strokeLinecap="round" strokeLinejoin="round"/>
<path d="M483.036 330.403L480.111 337.209" stroke="white" strokeLinecap="round" strokeLinejoin="round"/>
<path d="M479.022 345.314L470.328 359.574L448.601 374.66L441.323 360.374L418.224 322.759L385.144 356.816L350.158 301.629L304.604 307.242L351.24 278.68M351.24 278.68L327.316 232.565L318.839 248.704L305.411 245.321L311.732 260.373L296.622 264.203L268.219 260.973L306.769 277.251L337.465 273.235L351.24 278.68Z" stroke="white" strokeLinecap="round" strokeLinejoin="round"/>
<path d="M441.323 360.374L460.873 362.894L475.59 369.364" stroke="white" strokeLinecap="round" strokeLinejoin="round"/>
<g style="mix-blend-mode:hard-light" opacity="0.25">
<path opacity="0.3" d="M454.952 124.903L435.941 148.944L421.793 106.884L454.952 124.903Z" fill="white"/>
<path opacity="0.6" d="M407.865 184.373L435.828 149.766L460.633 188.496L407.865 184.373Z" fill="white"/>
<path d="M385.853 257.386L385.116 278.204L362.758 263.3L385.853 257.386Z" fill="white"/>
<path opacity="0.5" d="M471.791 222.495L440.32 210.71L460.921 189.138L471.791 222.495Z" fill="white"/>
<path opacity="0.35" d="M407.355 184.313L349.109 155.409L435.34 149.647L407.355 184.313Z" fill="white"/>
<path opacity="0.5" d="M407.164 184.64L386.765 236.105L348.801 155.691L407.164 184.64Z" fill="white"/>
<path d="M474.642 261.518L475.408 265.803L456.389 270.806L474.642 261.518Z" fill="white"/>
<path d="M475.746 265.265L474.986 261.315L478.469 259.514L475.746 265.265Z" fill="white"/>
<path d="M386.29 257.287L417.486 249.334L385.554 278.104L386.29 257.287Z" fill="white"/>
<path d="M455.118 271.519L474.553 266.475L462.078 275.101L455.118 271.519Z" fill="white"/>
<path opacity="0.25" d="M472.166 246.864L472.383 223.387L493.67 246.002L472.166 246.864Z" fill="white"/>
<path d="M472.278 222.614L461.444 189.338L499.44 215.987L472.278 222.614Z" fill="white"/>
<path d="M474.944 260.9L474.157 256.674L478.507 259.063L474.944 260.9Z" fill="white"/>
<path d="M470.565 255.439L472.127 247.316L493.157 246.473L473.81 256.01L470.565 255.439Z" fill="white"/>
<path d="M462.908 351.955L460.998 362.742L442.467 360.343L462.908 351.955Z" fill="white"/>
<path d="M464.248 291.436L455.617 282.625L454.78 272.057L467.607 285.061L464.248 291.436Z" fill="white"/>
<path d="M448.252 266.642L469.228 256.327L454.5 271.217L448.252 266.642Z" fill="white"/>
<path d="M466.763 283.607L455.581 272.228L461.981 275.53L466.763 283.607Z" fill="white"/>
<path d="M473.361 293.907L462.621 275.774L492.167 287.891L473.361 293.907Z" fill="white"/>
<path opacity="0.25" d="M471.728 246.964L437.152 260.817L438.445 239.413L471.918 223.21L471.728 246.964Z" fill="white"/>
<path d="M470.091 255.459L447.809 266.407L437.413 261.183L471.631 247.393L470.091 255.459Z" fill="white"/>
<path d="M473.655 256.416L474.543 261.08L455.625 270.714L470.352 255.824L473.655 256.416Z" fill="white"/>
<path d="M418.723 323.548L431.757 344.751L417.426 350.208L418.723 323.548Z" fill="white"/>
<path opacity="0.25" d="M418.316 323.393L416.989 350.308L386.099 356.581L418.316 323.393Z" fill="white"/>
<path opacity="0.35" d="M419.632 286.889L418.365 322.213L385.833 278.943L419.632 286.889Z" fill="white"/>
<path d="M470.012 307.074L473.298 294.948L477.126 307.454L470.012 307.074Z" fill="white"/>
<path d="M433.798 347.259L443.91 345.186L457.444 341.822L441.688 360.114L433.798 347.259Z" fill="white"/>
<path d="M475.91 326.559L466.79 331.272L467.769 318.733L477.128 308.321L475.91 326.559Z" fill="white"/>
<path opacity="0.5" d="M492.59 287.654L462.892 275.412L493.873 269.773L492.59 287.654Z" fill="white"/>
<path d="M447.091 370.757L461.156 363.202L463.554 364.248L448.967 374.4L447.091 370.757Z" fill="white"/>
<path d="M333.831 317.573L326.111 310.041L326.683 304.868L349.887 301.991L333.831 317.573Z" fill="white"/>
<path d="M327.962 293.642L349.568 301.604L326.722 304.417L327.962 293.642Z" fill="white"/>
<path opacity="0.6" d="M351.705 278.858L362.298 263.458L384.961 278.611L350.684 301.297L351.705 278.858Z" fill="white"/>
<path opacity="0.25" d="M351.318 279.175L350.247 301.396L328.233 293.279L351.318 279.175Z" fill="white"/>
<path d="M381.015 318.172L385.177 356.029L363.691 322.223L381.015 318.172Z" fill="white"/>
<path opacity="0.25" d="M385.061 279.048L380.996 317.699L363.452 321.8L350.762 301.792L385.061 279.048Z" fill="white"/>
<path opacity="0.25" d="M363.253 322.322L384.739 356.128L342.808 327.048L363.253 322.322Z" fill="white"/>
<path d="M317.275 300.021L320.644 305.164L305.836 306.979L317.275 300.021Z" fill="white"/>
<path d="M307.386 277.553L319.528 275.921L321.021 278.819L312.408 291.645L307.386 277.553Z" fill="white"/>
<path d="M326.268 304.91L325.735 309.632L321.458 305.474L326.268 304.91Z" fill="white"/>
<path d="M319.022 248.574L306.278 245.318L327.073 233.205L319.022 248.574Z" fill="white"/>
<path d="M318.809 248.958L312.061 260.032L306.065 245.702L318.809 248.958Z" fill="white"/>
<path d="M317.641 299.761L327.525 293.741L326.306 304.459L321.14 305.087L317.641 299.761Z" fill="white"/>
<path opacity="0.25" d="M381.431 318.131L418.078 322.969L385.612 356.461L381.431 318.131Z" fill="white"/>
<path d="M321.179 279.278L327.505 293.268L317.38 299.395L312.566 292.104L321.179 279.278Z" fill="white"/>
<path d="M431.741 386.408L443.987 372.437L448.767 374.923L456.299 385.046L431.741 386.408Z" fill="white"/>
<path d="M474.838 337.065L476.322 327.048L483.049 330.542L480.235 337.057L474.838 337.065Z" fill="white"/>
<path d="M463.39 351.74L473.174 345.283L470.431 359.479L461.435 362.642L463.39 351.74Z" fill="white"/>
<path d="M480.709 337.038L483.456 330.697L491.271 332.209L491.992 336.61L480.709 337.038Z" fill="white"/>
<path d="M491.229 331.794L483.415 330.282L476.572 326.744L490.403 319.1L491.229 331.794Z" fill="white"/>
<path d="M491.667 331.694L490.847 319.336L498.195 328.191L491.667 331.694Z" fill="white"/>
<path opacity="0.35" d="M476.391 326.342L477.61 308.105L490.223 318.698L476.391 326.342Z" fill="white"/>
<path d="M461.695 363.008L469.174 360.332L463.977 364.01L461.695 363.008Z" fill="white"/>
<path opacity="0.25" d="M438.425 238.94L440.165 211.117L471.635 222.902L438.425 238.94Z" fill="white"/>
<path d="M395.437 387.49L410.47 419.704L386.071 396.17L395.437 387.49Z" fill="white"/>
<path opacity="0.3" d="M417.363 383.595L395.658 386.909L385.919 357.577L417.363 383.595Z" fill="white"/>
<path opacity="0.3" d="M396.054 387.792L426.47 409.691L411.232 420.327L396.054 387.792Z" fill="white"/>
<path opacity="0.6" d="M417.008 350.781L417.635 383.232L385.922 357.045L417.008 350.781Z" fill="white"/>
<path opacity="0.25" d="M473.541 294.309L492.186 288.365L477.469 307.252L473.541 294.309Z" fill="white"/>
<path d="M429.965 392.121L426.78 408.878L418.241 384.262L429.965 392.121Z" fill="white"/>
<path opacity="0.35" d="M431.085 386.558C431.085 386.558 431.078 386.577 431.063 386.616L430.062 391.692L418.186 383.708L441.517 360.914L443.705 372.129L431.107 386.499C431.092 386.538 431.085 386.558 431.085 386.558Z" fill="white"/>
<path opacity="0.35" d="M396.057 387.261L417.704 383.924L426.414 409.138L396.057 387.261Z" fill="white"/>
<path d="M324.498 275.284L335.568 273.843L324.903 277.369L324.498 275.284Z" fill="white"/>
<path d="M324.543 277.964L327.222 291.563L321.567 278.96L324.543 277.964Z" fill="white"/>
<path d="M320.001 275.902L324.083 275.326L324.502 277.549L321.365 278.617L320.001 275.902Z" fill="white"/>
<path opacity="0.25" d="M312.277 260.514L319.047 249.382L323.983 274.889L319.763 275.478L312.277 260.514Z" fill="white"/>
<path d="M325.003 277.806L337.288 273.699L327.865 292.673L325.003 277.806Z" fill="white"/>
<path d="M345.133 266.038L342.421 260.746L347.841 263.475L345.133 266.038Z" fill="white"/>
<path d="M351.096 278.359L338.135 273.224L345.064 266.744L351.096 278.359Z" fill="white"/>
<path opacity="0.3" d="M337.864 273.587L351.057 278.811L328.294 292.77L337.864 273.587Z" fill="white"/>
<path d="M385.891 256.935L362.519 262.876L366.429 242.469L386.572 236.962L385.891 256.935Z" fill="white"/>
<path d="M366.271 242.009L348.623 230.297L385.816 236.674L366.271 242.009Z" fill="white"/>
<path opacity="0.25" d="M441.257 360.548L418.05 383.19L417.46 350.82L441.257 360.548Z" fill="white"/>
<path opacity="0.6" d="M324.398 274.847L319.548 249.64L337.371 273.132L324.398 274.847Z" fill="white"/>
<path d="M341.457 259.78L319.93 248.986L335.296 247.983L341.457 259.78Z" fill="white"/>
<path d="M365.789 242.226L350.982 249.631L347.953 230.308L365.789 242.226Z" fill="white"/>
<path d="M331.378 240.434L319.709 248.17L327.626 233.149L331.378 240.434Z" fill="white"/>
<path d="M348.054 263.091L342.133 260.104L335.827 247.986L350.528 250.124L348.054 263.091Z" fill="white"/>
<path opacity="0.5" d="M478.989 258.847L474.312 256.267L494.163 246.456L503.009 252.953L478.989 258.847Z" fill="white"/>
<path opacity="0.25" d="M494.622 244.9L500.08 216.231L512.235 213.339L494.622 244.9Z" fill="white"/>
<path d="M499.393 157.534L467.407 133.639L468.062 127.899L499.393 157.534Z" fill="white"/>
<path d="M466.983 133.878L466.367 139.167L456.367 125.908L466.983 133.878Z" fill="white"/>
<path opacity="0.5" d="M339.859 198.407L281.867 188.768L294.142 151.114L348.104 155.425L339.859 198.407Z" fill="white"/>
<path opacity="0.3" d="M352.543 364.433L376.848 387.865L357.82 388.871L352.543 364.433Z" fill="white"/>
<path opacity="0.3" d="M319.892 249.437L341.803 260.444L344.826 266.321L337.75 273.01L319.892 249.437Z" fill="white"/>
<path opacity="0.35" d="M385.346 357.159L395.184 386.928L377.46 387.832L352.604 363.924L385.346 357.159Z" fill="white"/>
<path opacity="0.3" d="M362.112 262.721L351.162 250.032L365.947 242.685L362.112 262.721Z" fill="white"/>
<path d="M348.475 263.384L350.949 250.417L361.935 263.186L354.592 273.9L348.475 263.384Z" fill="white"/>
<path d="M345.393 266.404L348.181 263.805L354.298 274.321L351.569 278.34L345.393 266.404Z" fill="white"/>
<path d="M460.904 188.133L436.337 149.826L464.111 159.605L460.904 188.133Z" fill="white"/>
<path d="M302.097 275.006L311.441 261.66L306.915 277.041L302.097 275.006Z" fill="white"/>
<path d="M319.348 275.52L307.367 277.08L312.078 261.038L319.348 275.52Z" fill="white"/>
<path d="M464.127 159.212L438.085 149.96L464.713 154.178L464.127 159.212Z" fill="white"/>
<path d="M465.234 295.139L456.75 296.434L455.708 283.258L464.071 291.9L465.234 295.139Z" fill="white"/>
<path opacity="0.25" d="M433.538 346.893L432.361 344.914L465.788 332.154L457.979 341.293L443.811 344.749L433.538 346.893Z" fill="white"/>
<path d="M464.987 339.503L458.657 341.085L466.173 332.367L464.987 339.503Z" fill="white"/>
<path opacity="0.35" d="M417.941 350.604L433.361 347.358L441.121 360.031L417.941 350.604Z" fill="white"/>
<path opacity="0.5" d="M446.265 328.513L419.404 322.809L469.477 307.603L467.362 318.578C467.347 318.616 467.34 318.636 467.34 318.636L466.33 331.429L446.265 328.513Z" fill="white"/>
<path opacity="0.6" d="M463.027 351.468L442.425 359.928L458.181 341.636L464.948 339.954L463.027 351.468Z" fill="white"/>
<path d="M433.101 346.993L419.788 349.777L431.959 345.094L433.101 346.993Z" fill="white"/>
<path d="M467.883 317.91L469.915 307.503L476.948 307.919L467.883 317.91Z" fill="white"/>
<path opacity="0.6" d="M418.076 249.36L419.67 286.439L385.792 278.528L418.076 249.36Z" fill="white"/>
<path opacity="0.35" d="M418.358 248.269L407.738 185.058L439.663 210.86L418.358 248.269Z" fill="white"/>
<path d="M469.679 306.549L465.83 295.499L473.023 294.445L469.679 306.549Z" fill="white"/>
<path opacity="0.35" d="M420.061 286.986L456.028 296.757L418.75 322.426L420.061 286.986Z" fill="white"/>
<path d="M436.701 260.779L418.704 248.933L437.963 239.629L436.701 260.779Z" fill="white"/>
<path opacity="0.25" d="M446.226 328.964L465.666 331.775L432.158 344.571L418.936 323.163L446.226 328.964Z" fill="white"/>
<path opacity="0.25" d="M418.491 249.318L436.721 261.252L441.294 278.967L420.086 286.397L418.491 249.318Z" fill="white"/>
<path d="M474.152 337.469L474.348 337.478L473.257 344.716L463.473 351.172L465.386 339.855L466.042 339.705L474.152 337.469Z" fill="white"/>
<path opacity="0.3" d="M407.35 185.376L417.971 248.587L387.062 236.55L407.35 185.376Z" fill="white"/>
<path d="M386.965 236.979L417.583 248.906L386.328 256.836L386.965 236.979Z" fill="white"/>
<path d="M442.182 361.966L446.509 370.536L444.092 371.811L442.182 361.966Z" fill="white"/>
<path opacity="0.3" d="M447.618 266.733L446.84 274.024L441.66 278.706L437.222 261.509L447.618 266.733Z" fill="white"/>
<path d="M472.924 294.007L465.65 295.097L464.508 291.801L467.868 285.426L472.924 294.007Z" fill="white"/>
<path opacity="0.6" d="M460.471 363.074L446.911 370.356L442.057 360.72L460.471 363.074Z" fill="white"/>
<path d="M466.729 331.781L475.849 327.068L474.365 337.085L474.11 337.054C474.11 337.054 474.083 337.066 474.03 337.09L465.942 339.268L465.424 339.403L466.729 331.781Z" fill="white"/>
<path opacity="0.5" d="M448.421 374.258L444.411 372.198L446.69 370.936L448.421 374.258Z" fill="white"/>
<path d="M469.242 306.648L457.069 296.821L465.392 295.598L469.242 306.648Z" fill="white"/>
<path opacity="0.3" d="M419.764 322.213L456.551 296.956L469.297 307.201L419.764 322.213Z" fill="white"/>
<path d="M439.935 210.497L408.081 184.855L460.594 188.947L439.935 210.497Z" fill="white"/>
<path d="M447.321 273.808L448.039 267.027L454.077 271.456L447.321 273.808Z" fill="white"/>
<path d="M420.587 286.655L441.474 279.368L455.95 296.262L420.587 286.655Z" fill="white"/>
<path d="M455.146 282.112L447.443 274.187L454.359 271.763L455.146 282.112Z" fill="white"/>
<path d="M456.293 296.06L441.84 279.108L447.078 274.447L455.215 282.804L456.293 296.06Z" fill="white"/>
<path d="M490.931 316.839L492.901 289.636L495.239 302.906L490.931 316.839Z" fill="white"/>
<path d="M498.351 271.478L501.402 289.346L493.078 287.773L498.351 271.478Z" fill="white"/>
<path d="M493.039 288.224L501.363 289.797L495.505 302.208L493.039 288.224Z" fill="white"/>
<path d="M501.513 290.453L502.272 300.525L495.846 302.537L501.513 290.453Z" fill="white"/>
<path d="M493.166 343.845L483.911 350.836L479.742 345.522L493.166 343.845Z" fill="white"/>
<path d="M511.865 217.458L506.872 255.223L503.737 252.964L511.865 217.458Z" fill="white"/>
<path d="M506.753 255.71L499.106 268.971L503.582 253.371L506.753 255.71Z" fill="white"/>
<path d="M502.372 300.963L505.029 308.497L510.767 319.135L495.807 302.988L502.372 300.963Z" fill="white"/>
<path d="M499.091 344.372L500.518 337.129L518.837 335.187L499.091 344.372Z" fill="white"/>
<path d="M513.658 348.788L499.415 352.614L499.044 345.019L513.658 348.788Z" fill="white"/>
<path opacity="0.25" d="M519.682 335.242L514.358 348.522L499.432 344.701L519.682 335.242Z" fill="white"/>
<path d="M499 352.656L484.711 351.008L498.629 345.061L499 352.656Z" fill="white"/>
<path d="M498.799 328.354L506.596 324.667L519.569 334.666L500.499 336.655L498.799 328.354Z" fill="white"/>
<path d="M511.72 320.829L519.361 333.988L506.961 324.407L511.72 320.829Z" fill="white"/>
<path opacity="0.25" d="M499.706 312.859L496.065 303.885L511.46 320.463L506.678 324.1L499.706 312.859Z" fill="white"/>
<path opacity="0.35" d="M494.412 246.152L512.091 214.416L503.316 252.671L494.412 246.152Z" fill="white"/>
<path d="M494.421 269.383L502.738 254.714L498.262 270.314L494.421 269.383Z" fill="white"/>
<path d="M501.1 192.394L512.296 212.83L500.177 215.802L501.1 192.394Z" fill="white"/>
<path d="M390.736 89.4662L409.935 73.1509L417.781 96.4379L390.736 89.4662Z" fill="white"/>
<path opacity="0.3" d="M279.283 77.7019L348.12 63.5854L329.04 88.3319L279.283 77.7019Z" fill="white"/>
<path opacity="0.35" d="M329.615 88.2186L348.607 63.7046L355.648 83.1581L329.615 88.2186Z" fill="white"/>
<path d="M411.766 74.1145L468.56 109.454L441.865 102.615L411.766 74.1145Z" fill="white"/>
<path d="M356.086 83.0586L349.058 63.7436L374.056 79.5863L356.086 83.0586Z" fill="white"/>
<path opacity="0.35" d="M349.634 63.63L408.786 72.8462L374.69 79.4948L349.634 63.63Z" fill="white"/>
<path opacity="0.6" d="M375.169 79.8105L409.323 73.1841L390.249 89.3472L375.169 79.8105Z" fill="white"/>
<path d="M442.51 103.194L469.438 110.121L459.996 119.703L442.51 103.194Z" fill="white"/>
<path opacity="0.25" d="M488.126 167.885L502.016 160.264L500.751 190.863L488.126 167.885Z" fill="white"/>
<path opacity="0.35" d="M502.329 161.715L512.207 211.665L501.133 191.608L502.329 161.715Z" fill="white"/>
<path d="M479.544 156.498L501.573 160.029L487.866 167.521L479.544 156.498Z" fill="white"/>
<path d="M460.278 120.01L469.596 110.58L467.724 127.038L460.278 120.01Z" fill="white"/>
<path d="M466.722 139.635L467.346 134.149L501.415 159.569L479.19 156.03L466.722 139.635Z" fill="white"/>
<path opacity="0.6" d="M469.989 110.597L501.085 158.512L468.122 127.39L469.989 110.597Z" fill="white"/>
<path opacity="0.3" d="M418.268 96.5567L410.508 73.5686L441.029 102.363L418.268 96.5567Z" fill="white"/>
<path opacity="0.3" d="M313.354 376.063L291.606 328.78L341.955 327.189L313.354 376.063Z" fill="white"/>
<path opacity="0.3" d="M304.734 307.424L323.433 327.39L291.484 328.401L292.492 289.384L304.734 307.424Z" fill="white"/>
<path opacity="0.3" d="M368.722 411.127L348.479 405.88L357.634 389.533L368.722 411.127Z" fill="white"/>
<path opacity="0.3" d="M291.066 327.576L276.322 291.279L292.057 288.953L291.066 327.576Z" fill="white"/>
<path opacity="0.3" d="M333.646 428.915L313.836 377.245L347.881 406.051L333.646 428.915Z" fill="white"/>
<path opacity="0.5" d="M357.418 389.051L348.094 405.666L313.744 376.611L352.028 364.037L357.418 389.051Z" fill="white"/>
<path d="M295.207 272.115L292.111 270.803L296.545 265.104L295.207 272.115Z" fill="white"/>
<path opacity="0.3" d="M346.762 229.588L272.672 223.402L281.748 189.255L346.762 229.588Z" fill="white"/>
<path d="M335.115 247.582L319.969 248.535L331.58 240.778L335.115 247.582Z" fill="white"/>
<path d="M292.074 288.56L276.499 290.814L291.839 271.166L295.168 272.567L292.074 288.56Z" fill="white"/>
<path opacity="0.3" d="M276.092 290.659L268.851 261.413L291.454 270.953L276.092 290.659Z" fill="white"/>
<path d="M296.534 264.435L291.703 270.649L269.972 261.441L296.534 264.435Z" fill="white"/>
<path d="M443.017 448.073L447.436 424.931L458.43 429.983L443.017 448.073Z" fill="white"/>
<path d="M473.143 384.006L475.755 396.382L466.463 388.783L473.143 384.006Z" fill="white"/>
<path opacity="0.3" d="M475.766 397.051L469.845 404.38L457.746 407.825L469.942 395.033L475.766 397.051Z" fill="white"/>
<path d="M450.318 375.047L480.673 376.824L473.226 383.438L450.318 375.047Z" fill="white"/>
<path d="M470.968 359.817L478.987 359.743L485.992 367.402L475.969 369.242L470.968 359.817Z" fill="white"/>
<path d="M449.54 404.367L463.357 390.994L469.558 394.819L456.951 407.988L449.54 404.367Z" fill="white"/>
<path d="M466.729 371.647L475.792 369.707L480.77 376.395L450.67 374.649L466.729 371.647Z" fill="white"/>
<path opacity="0.3" d="M485.953 367.853L481.171 376.215L476.229 369.607L485.953 367.853Z" fill="white"/>
<path d="M367.089 423.282L369.287 411.74L409.629 420.515L367.089 423.282Z" fill="white"/>
<path d="M446.857 425.575L442.469 448.463L434.739 443.056L446.857 425.575Z" fill="white"/>
<path opacity="0.3" d="M441.683 448.429L408.154 442.049L379.517 433.14L367.865 424.044L434.316 443.294L441.683 448.429Z" fill="white"/>
<path d="M456.851 408.95L458.527 429.554L447.591 424.524L456.851 408.95Z" fill="white"/>
<path opacity="0.5" d="M377.283 388.297L385.423 396.122L369.196 411.107L358 389.272L377.283 388.297Z" fill="white"/>
<path opacity="0.35" d="M449.174 404.628L456.76 408.315L447.206 424.31L427.373 409.769L449.174 404.628Z" fill="white"/>
<path d="M470.985 359.424L479.377 345.781L483.64 351.198L478.946 359.327L470.985 359.424Z" fill="white"/>
<path opacity="0.3" d="M366.682 423.128L348.87 406.428L368.916 411.666L366.682 423.128Z" fill="white"/>
<path d="M499.775 214.584L488.44 169.336L500.696 191.707L499.775 214.584Z" fill="white"/>
<path d="M465.181 153.823L466.675 140.283L478.564 155.925L465.181 153.823Z" fill="white"/>
<path opacity="0.35" d="M493.97 269.344L463.069 274.947L475.807 266.154C475.807 266.154 475.814 266.135 475.829 266.096C475.829 266.096 475.836 266.077 475.851 266.038L479.111 259.226L503.05 253.369L493.97 269.344Z" fill="white"/>
<path opacity="0.25" d="M494.035 245.742L472.538 222.98L499.642 216.331L494.035 245.742Z" fill="white"/>
<path opacity="0.25" d="M499.595 215.581L461.389 188.784L487.68 168.182L499.595 215.581Z" fill="white"/>
<path d="M487.262 167.357L464.557 159.309L465.084 154.252L478.955 156.473L487.262 167.357Z" fill="white"/>
<path opacity="0.5" d="M461.311 188.289L464.518 159.76L487.398 167.875L461.311 188.289Z" fill="white"/>
<path d="M493.144 286.201L494.324 269.812L498.107 270.72L493.144 286.201Z" fill="white"/>
<path d="M492.092 337.047L493.628 343.156L481.282 337.456L492.092 337.047Z" fill="white"/>
<path d="M493.938 343.74L498.186 344.826L485.392 350.269L493.938 343.74Z" fill="white"/>
<path opacity="0.35" d="M480.567 337.583L493.146 343.372L479.62 345.142L480.567 337.583Z" fill="white"/>
<path opacity="0.3" d="M498.632 344.529L494.093 343.333L492.543 337.086L500.067 337.089L498.632 344.529Z" fill="white"/>
<path opacity="0.3" d="M477.707 307.675L492.549 288.636L490.378 318.291L477.707 307.675Z" fill="white"/>
<path d="M474.741 337.494L480.138 337.487L479.146 345.162L473.694 344.616L474.741 337.494Z" fill="white"/>
<path opacity="0.25" d="M492.444 336.648L491.687 332.167L498.398 328.533L500.083 336.696L492.444 336.648Z" fill="white"/>
<path opacity="0.35" d="M311.577 115.824L368.293 118.323L348.303 154.902L311.577 115.824Z" fill="white"/>
<path d="M312.264 115.42L361.57 99.2568L368.368 117.952L312.264 115.42Z" fill="white"/>
<path d="M389.009 89.8062L361.77 98.7333L358.386 89.2585L389.009 89.8062Z" fill="white"/>
<path opacity="0.6" d="M329.22 88.7334L357.912 89.2781L361.39 98.8554L311.566 115.154L329.22 88.7334Z" fill="white"/>
<path opacity="0.25" d="M350.545 249.731L335.589 247.562L331.945 240.518L347.502 230.269L350.545 249.731Z" fill="white"/>
<path opacity="0.25" d="M348.4 155.87L386.184 235.882L340.266 198.562L348.4 155.87Z" fill="white"/>
<path d="M386.029 236.29L347.839 229.732L340.415 199.218L386.029 236.29Z" fill="white"/>
<path opacity="0.5" d="M421.234 106.605L435.468 148.963L368.994 118.057L390.385 89.8647L421.234 106.605Z" fill="white"/>
<path d="M421.004 105.985L391.905 90.2441L417.939 96.8974L421.004 105.985Z" fill="white"/>
<path opacity="0.35" d="M459.688 119.985L455.223 124.54L421.541 106.322L418.426 97.0162L441.652 103L459.688 119.985Z" fill="white"/>
<path d="M467.663 127.547L467.044 133.368L455.586 124.812L459.971 120.292L467.663 127.547Z" fill="white"/>
<path d="M357.754 88.8187L331.166 88.3433L355.828 83.5595L357.754 88.8187Z" fill="white"/>
<path opacity="0.25" d="M464.729 153.784L436.224 149.251L455.257 125.152L466.284 139.735L464.729 153.784Z" fill="white"/>
<path d="M389.579 89.358L358.206 88.8573L356.266 83.4597L374.593 79.9238L389.579 89.358Z" fill="white"/>
<path d="M368.733 117.692L361.95 99.135L389.729 90.0142L368.733 117.692Z" fill="white"/>
<path opacity="0.25" d="M350.527 302.235L363.015 321.899L342.606 326.705L350.527 302.235Z" fill="white"/>
<path d="M292.705 289L312.223 292.306L317.015 299.655L304.947 307.039L292.705 289Z" fill="white"/>
<path d="M295.575 272.722L301.477 275.236L292.697 287.799L295.575 272.722Z" fill="white"/>
<path opacity="0.25" d="M301.884 275.391L306.935 277.514L312.006 291.824L292.664 288.584L301.884 275.391Z" fill="white"/>
<path opacity="0.6" d="M320.963 305.551L325.652 310.199L323.763 327.05L305.324 307.449L320.963 305.551Z" fill="white"/>
<path d="M310.946 115.384L258.879 121.312L281.624 104.949L328.599 88.9629L310.946 115.384Z" fill="white"/>
<path opacity="0.25" d="M342.653 327.456L384.947 356.807L352.344 363.558L342.653 327.456Z" fill="white"/>
<path opacity="0.25" d="M324.46 327.316L349.964 302.487L342.11 326.783L324.46 327.316Z" fill="white"/>
<path opacity="0.25" d="M326.051 310.551L333.501 317.914L324.178 327.009L326.051 310.551Z" fill="white"/>
<path d="M297.123 264.46L311.496 260.816L301.69 274.851L295.614 272.271L297.123 264.46Z" fill="white"/>
<path opacity="0.3" d="M347.807 154.979L294.355 150.729L311.118 115.982L347.807 154.979Z" fill="white"/>
<path d="M331.743 240.174L327.956 232.808L346.715 230.235L331.743 240.174Z" fill="white"/>
<path opacity="0.25" d="M339.82 198.858L347.302 229.394L282.651 189.332L339.82 198.858Z" fill="white"/>
<path d="M327.637 232.421L277.701 224.185L345.705 229.917L327.637 232.421Z" fill="white"/>
<path opacity="0.25" d="M311.754 260.314L297.323 263.937L305.722 245.904L311.754 260.314Z" fill="white"/>
<path opacity="0.5" d="M327.031 232.789L305.755 245.118L273.34 223.922L327.031 232.789Z" fill="white"/>
<path opacity="0.5" d="M472.78 383.735L466.1 388.512L449.989 375.388L472.78 383.735Z" fill="white"/>
<path d="M456.831 385.048L450.08 376.022L465.734 388.772L463.359 390.463L456.831 385.048Z" fill="white"/>
<path d="M394.949 387.371L385.731 395.84L377.895 388.264L394.949 387.371Z" fill="white"/>
<path opacity="0.25" d="M473.597 345.045L478.991 345.568L471.062 358.522L473.597 345.045Z" fill="white"/>
<path opacity="0.25" d="M449.856 374.339L464.055 364.505L475.174 369.405L466.607 371.268L449.856 374.339Z" fill="white"/>
<path d="M469.981 394.582L463.722 390.734L466.097 389.043L475.027 396.371L469.981 394.582Z" fill="white"/>
<path opacity="0.25" d="M464.443 364.187L470.531 359.917L475.387 369.021L464.443 364.187Z" fill="white"/>
<path d="M430.447 391.905L431.395 387.142L439.085 397.724L430.447 391.905Z" fill="white"/>
<path opacity="0.35" d="M431.644 386.837L456.618 385.433L462.877 390.679L440.043 398.355L431.644 386.837Z" fill="white"/>
<path opacity="0.35" d="M411.091 420.873L433.634 442.636L368.078 423.66L411.091 420.873Z" fill="white"/>
<path d="M440.464 398.648L462.459 391.251L449.155 404.154L440.464 398.648Z" fill="white"/>
<path opacity="0.3" d="M385.764 396.452L410.446 420.294L369.617 411.4L385.764 396.452Z" fill="white"/>
<path opacity="0.3" d="M430.386 392.414L439.888 398.762L448.637 404.29L427.112 409.403L430.386 392.414Z" fill="white"/>
<path d="M411.755 420.527L426.833 409.963L446.477 424.299L411.755 420.527Z" fill="white"/>
</g>
<path d="M518.058 649.958L590.494 559.959L475.243 551.438L518.058 649.958Z" stroke="white" strokeWidth="0.9" strokeLinecap="round" strokeLinejoin="round"/>
<path d="M72.7986 563.876L225.761 568.603L142.808 440.042L72.7986 563.876Z" stroke="white" strokeWidth="0.9" strokeLinecap="round" strokeLinejoin="round"/>
<path d="M59.0456 244.994L212.07 249.721L129.117 121.16L59.0456 244.994Z" stroke="white" strokeWidth="0.9" strokeLinecap="round" strokeLinejoin="round"/>
<path d="M131.606 679.875L186.431 537.009L37.6382 573.021L131.606 679.875Z" stroke="white" strokeWidth="0.9" strokeLinecap="round" strokeLinejoin="round"/>
<path d="M224.703 298.483L279.528 155.617L130.735 191.629L224.703 298.483Z" stroke="white" strokeWidth="0.9" strokeLinecap="round" strokeLinejoin="round"/>
<path opacity="0.1" d="M444.937 638.017L559.939 626.572L485.2 538.439L444.937 638.017Z" fill="white"/>
<path opacity="0.1" d="M200.246 651.762L281.644 569.786L167.887 549.324L200.246 651.762Z" fill="white"/>
<path opacity="0.1" d="M213.502 436.932L233.104 323.112L128.246 371.626L213.502 436.932Z" fill="white"/>
<path opacity="0.1" d="M261.606 601.444L341.759 518.225L227.69 499.566L261.606 601.444Z" fill="white"/>
<path opacity="0.15" d="M275.359 375.793L197.882 375.855L241.941 439.545L275.359 375.793Z" fill="white"/>
<path opacity="0.1" d="M328.193 680.87L332.984 565.495L235.22 627.008L328.193 680.87Z" fill="white"/>
<path opacity="0.1" d="M397.144 280.694L401.998 165.319L304.172 226.832L397.144 280.694Z" fill="white"/>
<path opacity="0.1" d="M456.948 279.139L433.798 319.007L479.786 315.399L456.948 279.139Z" fill="white"/>
<path d="M536.229 537.755L514.76 530.852L521.232 552.434L536.229 537.755Z" stroke="white" strokeWidth="0.9" strokeLinecap="round" strokeLinejoin="round"/>
<g filter="url(#filter0_f_3760_20775)">
<path d="M134.687 339.75C134.773 340.248 135.247 340.582 135.745 340.496C136.243 340.41 136.577 339.937 136.491 339.439C136.406 338.941 135.932 338.607 135.434 338.693C134.936 338.778 134.601 339.252 134.687 339.75Z" fill="white"/>
<path d="M82.9733 379.028C83.0592 379.508 83.519 379.829 83.9999 379.743C84.4808 379.657 84.8015 379.197 84.7156 378.716C84.6297 378.235 84.1699 377.915 83.689 378.001C83.208 378.087 82.8873 378.547 82.9733 379.028Z" fill="white"/>
<path d="M135.251 369.816C135.335 370.299 135.796 370.623 136.279 370.536C136.758 370.451 137.078 369.994 136.995 369.515L136.985 369.455C136.902 368.972 136.441 368.648 135.957 368.735C135.478 368.82 135.158 369.276 135.241 369.756L135.251 369.816Z" fill="white"/>
<path d="M83.4089 341.772C83.4948 342.253 83.9546 342.573 84.4355 342.487C84.9165 342.401 85.2372 341.941 85.1513 341.46C85.0654 340.98 84.6055 340.659 84.1247 340.745C83.6437 340.831 83.3229 341.291 83.4089 341.772Z" fill="white"/>
<path d="M136.807 418.267C136.89 418.751 137.351 419.074 137.834 418.988C138.314 418.903 138.634 418.446 138.551 417.966L138.541 417.907C138.457 417.423 137.996 417.1 137.513 417.186C137.034 417.272 136.714 417.728 136.797 418.208L136.807 418.267Z" fill="white"/>
<path d="M116.827 384.626C116.913 385.107 117.372 385.427 117.853 385.341C118.334 385.255 118.655 384.795 118.569 384.314C118.483 383.834 118.023 383.513 117.542 383.599C117.061 383.685 116.741 384.145 116.827 384.626Z" fill="white"/>
<path d="M146.884 460.941C146.97 461.422 147.43 461.742 147.911 461.656C148.392 461.57 148.712 461.111 148.626 460.63C148.54 460.149 148.081 459.829 147.6 459.915C147.119 460.001 146.798 460.46 146.884 460.941Z" fill="white"/>
<path d="M148.378 509.397C148.464 509.876 148.92 510.196 149.399 510.113L149.461 510.103C149.944 510.019 150.268 509.558 150.181 509.075C150.096 508.597 149.64 508.277 149.16 508.359L149.099 508.37C148.615 508.453 148.292 508.914 148.378 509.397Z" fill="white"/>
<path d="M128.402 475.749C128.488 476.227 128.944 476.547 129.423 476.465L129.485 476.454C129.968 476.371 130.292 475.91 130.205 475.427C130.12 474.948 129.664 474.628 129.184 474.711L129.123 474.721C128.64 474.805 128.316 475.266 128.402 475.749Z" fill="white"/>
<path d="M143.15 246.922C143.236 247.402 143.696 247.723 144.177 247.637C144.658 247.551 144.979 247.091 144.893 246.61C144.807 246.129 144.347 245.809 143.866 245.895C143.385 245.981 143.064 246.441 143.15 246.922Z" fill="white"/>
<path d="M123.174 213.273C123.26 213.754 123.72 214.074 124.201 213.988C124.682 213.902 125.003 213.443 124.917 212.962C124.831 212.481 124.371 212.161 123.89 212.247C123.409 212.333 123.088 212.792 123.174 213.273Z" fill="white"/>
<path d="M84.2188 190.017C84.3043 190.495 84.7604 190.815 85.2397 190.733L85.301 190.722C85.7845 190.639 86.1079 190.178 86.0216 189.695C85.936 189.216 85.4799 188.896 85.0006 188.979L84.9393 188.989C84.4558 189.073 84.1325 189.534 84.2188 190.017Z" fill="white"/>
<path d="M32.5052 229.263C32.5908 229.742 33.0469 230.061 33.5262 229.979L33.5874 229.968C34.0709 229.885 34.3942 229.424 34.3079 228.941C34.2224 228.462 33.7663 228.142 33.287 228.225L33.2258 228.236C32.7422 228.319 32.4189 228.78 32.5052 229.263Z" fill="white"/>
<path d="M84.7789 220.058C84.8645 220.537 85.3205 220.857 85.7999 220.774L85.8611 220.764C86.3446 220.68 86.6679 220.219 86.5816 219.736C86.4961 219.258 86.04 218.938 85.5607 219.02L85.4994 219.031C85.0159 219.114 84.6926 219.575 84.7789 220.058Z" fill="white"/>
<path d="M32.94 192.033C33.0259 192.531 33.4997 192.865 33.9977 192.779C34.4959 192.693 34.8305 192.22 34.7446 191.722C34.6587 191.223 34.1849 190.889 33.6869 190.975C33.1887 191.061 32.854 191.535 32.94 192.033Z" fill="white"/>
<path d="M117.64 232.859C117.723 233.342 118.184 233.666 118.667 233.579C119.147 233.494 119.467 233.037 119.384 232.558L119.374 232.498C119.29 232.015 118.829 231.691 118.346 231.777C117.867 231.863 117.547 232.319 117.63 232.799L117.64 232.859Z" fill="white"/>
<path d="M86.3337 268.504C86.4196 268.985 86.8794 269.305 87.3603 269.219C87.8413 269.133 88.162 268.673 88.076 268.192C87.9901 267.712 87.5303 267.391 87.0494 267.477C86.5684 267.563 86.2477 268.023 86.3337 268.504Z" fill="white"/>
<path d="M66.3577 234.855C66.4436 235.336 66.9035 235.656 67.3843 235.57C67.8653 235.485 68.1861 235.025 68.1001 234.544C68.0142 234.063 67.5544 233.743 67.0735 233.829C66.5925 233.915 66.2718 234.374 66.3577 234.855Z" fill="white"/>
<path d="M134.749 304.423C134.835 304.921 135.309 305.255 135.807 305.169C136.305 305.083 136.64 304.61 136.554 304.112C136.468 303.614 135.994 303.28 135.496 303.365C134.998 303.451 134.663 303.925 134.749 304.423Z" fill="white"/>
<path d="M96.4192 311.226C96.5026 311.71 96.9637 312.033 97.4468 311.947C97.926 311.862 98.2462 311.405 98.1634 310.925L98.1532 310.866C98.0697 310.382 97.6087 310.059 97.1256 310.145C96.6464 310.231 96.3262 310.687 96.4089 311.167L96.4192 311.226Z" fill="white"/>
<path d="M126.66 272.054C126.746 272.533 127.202 272.852 127.681 272.77L127.742 272.759C128.226 272.676 128.549 272.215 128.463 271.732C128.377 271.253 127.921 270.933 127.442 271.016L127.381 271.027C126.897 271.11 126.574 271.571 126.66 272.054Z" fill="white"/>
<path d="M129.273 323.983C129.359 324.464 129.818 324.784 130.299 324.698C130.78 324.612 131.101 324.153 131.015 323.672C130.929 323.191 130.469 322.871 129.989 322.957C129.508 323.043 129.187 323.502 129.273 323.983Z" fill="white"/>
<path d="M97.975 359.678C98.0584 360.162 98.5194 360.485 99.0026 360.399C99.4818 360.313 99.8019 359.857 99.7192 359.377L99.7089 359.318C99.6255 358.834 99.1645 358.511 98.6813 358.597C98.2021 358.682 97.882 359.139 97.9647 359.618L97.975 359.678Z" fill="white"/>
<path d="M77.9326 326.005C78.0186 326.503 78.4923 326.837 78.9904 326.751C79.4885 326.665 79.8232 326.192 79.7372 325.694C79.6513 325.196 79.1776 324.862 78.6795 324.947C78.1814 325.033 77.8467 325.507 77.9326 326.005Z" fill="white"/>
<path d="M251.557 106.921C251.642 107.4 252.098 107.72 252.578 107.638L252.639 107.627C253.123 107.544 253.446 107.083 253.36 106.6C253.274 106.121 252.818 105.801 252.339 105.884L252.277 105.894C251.794 105.978 251.471 106.438 251.557 106.921Z" fill="white"/>
<path d="M220.32 142.611C220.404 143.094 220.865 143.418 221.348 143.331C221.827 143.246 222.147 142.789 222.065 142.31L222.054 142.25C221.971 141.767 221.51 141.443 221.027 141.529C220.547 141.615 220.227 142.071 220.31 142.551L220.32 142.611Z" fill="white"/>
<path d="M200.276 108.959C200.363 109.446 200.827 109.771 201.314 109.688L201.351 109.681C201.841 109.597 202.17 109.131 202.085 108.641C201.999 108.14 201.514 107.81 201.016 107.913L200.979 107.921C200.502 108.019 200.19 108.48 200.276 108.959Z" fill="white"/>
<path d="M161.384 85.6759C161.47 86.1739 161.943 86.5079 162.441 86.4221C162.94 86.3363 163.274 85.8627 163.188 85.3646C163.102 84.8666 162.629 84.5325 162.131 84.6184C161.632 84.7042 161.298 85.1777 161.384 85.6759Z" fill="white"/>
<path d="M109.67 124.953C109.756 125.434 110.216 125.754 110.697 125.669C111.178 125.583 111.499 125.123 111.413 124.642C111.327 124.161 110.867 123.841 110.386 123.927C109.905 124.013 109.584 124.472 109.67 124.953Z" fill="white"/>
<path d="M161.948 115.742C162.031 116.226 162.493 116.549 162.976 116.463C163.455 116.377 163.775 115.921 163.692 115.441L163.682 115.382C163.599 114.898 163.138 114.575 162.654 114.661C162.175 114.746 161.855 115.203 161.938 115.682L161.948 115.742Z" fill="white"/>
<path d="M110.106 87.698C110.192 88.1789 110.652 88.499 111.132 88.4131C111.613 88.3273 111.934 87.8677 111.848 87.3867C111.762 86.9059 111.302 86.5858 110.822 86.6716C110.341 86.7574 110.02 87.217 110.106 87.698Z" fill="white"/>
<path d="M194.801 128.499C194.887 128.98 195.347 129.3 195.828 129.214C196.309 129.128 196.63 128.668 196.544 128.187C196.458 127.707 195.998 127.387 195.517 127.472C195.036 127.558 194.715 128.018 194.801 128.499Z" fill="white"/>
<path d="M228.966 259.392C229.052 259.89 229.526 260.224 230.024 260.138C230.522 260.052 230.857 259.579 230.771 259.08C230.685 258.582 230.211 258.248 229.713 258.334C229.215 258.42 228.88 258.894 228.966 259.392Z" fill="white"/>
<path d="M208.99 225.743C209.076 226.241 209.55 226.575 210.048 226.489C210.546 226.404 210.881 225.93 210.795 225.432C210.709 224.934 210.235 224.6 209.737 224.686C209.239 224.772 208.904 225.245 208.99 225.743Z" fill="white"/>
<path d="M203.514 245.304C203.6 245.785 204.059 246.105 204.54 246.02C205.021 245.934 205.342 245.474 205.256 244.993C205.17 244.512 204.71 244.192 204.23 244.278C203.749 244.364 203.428 244.823 203.514 245.304Z" fill="white"/>
<path d="M163.504 164.193C163.587 164.677 164.048 165 164.531 164.914C165.011 164.828 165.331 164.372 165.248 163.892L165.238 163.833C165.154 163.349 164.693 163.026 164.21 163.112C163.731 163.197 163.411 163.654 163.494 164.134L163.504 164.193Z" fill="white"/>
<path d="M143.524 130.552C143.61 131.032 144.069 131.352 144.55 131.267C145.031 131.181 145.352 130.721 145.266 130.24C145.18 129.759 144.72 129.439 144.239 129.525C143.758 129.611 143.438 130.071 143.524 130.552Z" fill="white"/>
<path d="M211.915 200.087C212.001 200.568 212.461 200.888 212.941 200.802C213.422 200.716 213.743 200.257 213.657 199.776C213.571 199.295 213.111 198.975 212.631 199.061C212.15 199.147 211.829 199.606 211.915 200.087Z" fill="white"/>
<path d="M255.103 165.693C255.189 166.173 255.648 166.494 256.129 166.408C256.61 166.322 256.931 165.862 256.845 165.381C256.759 164.9 256.299 164.58 255.819 164.666C255.338 164.752 255.017 165.212 255.103 165.693Z" fill="white"/>
<path d="M276.261 128.188C276.347 128.669 276.807 128.989 277.288 128.903C277.769 128.817 278.09 128.357 278.004 127.876C277.918 127.396 277.458 127.076 276.977 127.161C276.496 127.247 276.175 127.707 276.261 128.188Z" fill="white"/>
<path d="M173.581 206.867C173.667 207.348 174.127 207.668 174.607 207.582C175.088 207.496 175.409 207.037 175.323 206.556C175.237 206.075 174.778 205.755 174.297 205.841C173.816 205.926 173.495 206.386 173.581 206.867Z" fill="white"/>
<path d="M203.829 167.738C203.913 168.222 204.374 168.545 204.857 168.459C205.336 168.374 205.656 167.917 205.573 167.438L205.563 167.378C205.48 166.895 205.019 166.571 204.536 166.657C204.056 166.743 203.736 167.199 203.819 167.679L203.829 167.738Z" fill="white"/>
<path d="M361.518 161.903C361.604 162.382 362.06 162.702 362.539 162.62L362.6 162.609C363.084 162.526 363.407 162.065 363.321 161.582C363.235 161.103 362.779 160.783 362.3 160.866L362.239 160.876C361.755 160.959 361.432 161.42 361.518 161.903Z" fill="white"/>
<path d="M292.318 134.723C292.403 135.202 292.859 135.522 293.339 135.439L293.4 135.429C293.883 135.345 294.207 134.885 294.12 134.402C294.035 133.923 293.579 133.603 293.099 133.685L293.038 133.696C292.555 133.779 292.231 134.24 292.318 134.723Z" fill="white"/>
<path d="M241.039 136.74C241.125 137.238 241.598 137.572 242.097 137.486C242.595 137.4 242.929 136.927 242.843 136.429C242.758 135.931 242.284 135.596 241.786 135.682C241.288 135.768 240.953 136.242 241.039 136.74Z" fill="white"/>
<path d="M27.5268 286.048C27.6123 286.527 28.0684 286.847 28.5477 286.765L28.609 286.754C29.0925 286.671 29.4158 286.21 29.3295 285.727C29.2439 285.248 28.7879 284.928 28.3085 285.011L28.2473 285.021C27.7638 285.104 27.4405 285.565 27.5268 286.048Z" fill="white"/>
<path d="M52.2356 307.308C52.319 307.791 52.7801 308.115 53.2632 308.029C53.7424 307.943 54.0626 307.487 53.9798 307.007L53.9696 306.947C53.8861 306.464 53.4251 306.14 52.942 306.227C52.4628 306.312 52.1426 306.769 52.2253 307.248L52.2356 307.308Z" fill="white"/>
<path d="M474.092 273.759C474.178 274.257 473.843 274.731 473.345 274.817C472.847 274.902 472.373 274.568 472.288 274.07C472.202 273.572 472.536 273.099 473.034 273.013C473.532 272.927 474.006 273.261 474.092 273.759Z" fill="white"/>
<path d="M385.849 207.208C385.935 207.706 385.6 208.18 385.102 208.266C384.604 208.352 384.13 208.018 384.044 207.52C383.958 207.021 384.293 206.548 384.791 206.462C385.289 206.376 385.763 206.71 385.849 207.208Z" fill="white"/>
<path d="M393.074 168.806C393.157 169.285 392.837 169.742 392.357 169.827C391.874 169.914 391.413 169.59 391.33 169.107L391.319 169.047C391.237 168.568 391.557 168.111 392.036 168.026C392.519 167.939 392.98 168.263 393.064 168.746L393.074 168.806Z" fill="white"/>
<path d="M442.666 127.69C442.751 128.171 442.431 128.631 441.95 128.716C441.469 128.802 441.009 128.482 440.923 128.001C440.837 127.52 441.158 127.061 441.639 126.975C442.12 126.889 442.58 127.209 442.666 127.69Z" fill="white"/>
<path d="M504.715 146.913C504.798 147.392 504.478 147.849 503.999 147.934C503.516 148.021 503.055 147.697 502.971 147.214L502.961 147.154C502.878 146.674 503.198 146.218 503.678 146.132C504.161 146.046 504.622 146.37 504.705 146.853L504.715 146.913Z" fill="white"/>
<path d="M452.436 156.114C452.522 156.595 452.201 157.055 451.72 157.141C451.239 157.227 450.779 156.906 450.693 156.426C450.608 155.945 450.928 155.485 451.409 155.399C451.89 155.313 452.35 155.633 452.436 156.114Z" fill="white"/>
<path d="M491.578 112.011C491.664 112.494 491.341 112.955 490.857 113.039L490.796 113.049C490.317 113.132 489.861 112.812 489.775 112.333C489.689 111.85 490.012 111.389 490.496 111.306L490.557 111.295C491.036 111.213 491.492 111.533 491.578 112.011Z" fill="white"/>
<path d="M404.96 185.288C405.043 185.767 404.723 186.224 404.243 186.309C403.76 186.396 403.299 186.072 403.216 185.589L403.205 185.529C403.123 185.049 403.443 184.593 403.922 184.507C404.405 184.421 404.866 184.745 404.95 185.228L404.96 185.288Z" fill="white"/>
<path d="M182.604 332.069C182.69 332.55 182.369 333.009 181.888 333.095C181.408 333.181 180.948 332.861 180.862 332.38C180.776 331.899 181.097 331.44 181.578 331.354C182.059 331.268 182.518 331.588 182.604 332.069Z" fill="white"/>
<path d="M232.202 290.988C232.288 291.486 231.953 291.96 231.455 292.046C230.957 292.131 230.483 291.797 230.397 291.299C230.312 290.801 230.646 290.328 231.144 290.242C231.642 290.156 232.116 290.49 232.202 290.988Z" fill="white"/>
<path d="M314.85 281.195C314.933 281.675 314.613 282.132 314.134 282.217C313.65 282.303 313.189 281.98 313.106 281.496L313.096 281.437C313.013 280.957 313.333 280.501 313.812 280.415C314.295 280.329 314.756 280.652 314.84 281.136L314.85 281.195Z" fill="white"/>
<path d="M194.49 348.551C194.576 349.032 194.255 349.491 193.775 349.577C193.294 349.663 192.834 349.343 192.748 348.862C192.662 348.381 192.983 347.921 193.464 347.836C193.945 347.75 194.404 348.07 194.49 348.551Z" fill="white"/>
<path d="M467.619 202.134C467.705 202.617 467.382 203.078 466.899 203.162L466.837 203.172C466.358 203.255 465.902 202.935 465.816 202.456C465.73 201.973 466.053 201.512 466.537 201.429L466.598 201.418C467.077 201.336 467.534 201.656 467.619 202.134Z" fill="white"/>
<path d="M474.839 163.702C474.925 164.183 474.604 164.642 474.123 164.728C473.642 164.814 473.182 164.494 473.096 164.013C473.01 163.532 473.331 163.072 473.812 162.987C474.293 162.901 474.753 163.221 474.839 163.702Z" fill="white"/>
<path d="M403.895 253.633C403.981 254.116 403.658 254.577 403.175 254.66L403.113 254.671C402.634 254.753 402.178 254.433 402.092 253.955C402.006 253.472 402.329 253.011 402.813 252.927L402.874 252.917C403.353 252.834 403.81 253.154 403.895 253.633Z" fill="white"/>
<path d="M451.378 249.472C451.464 249.953 451.143 250.412 450.662 250.498C450.181 250.584 449.721 250.264 449.636 249.783C449.55 249.302 449.87 248.842 450.351 248.757C450.832 248.671 451.292 248.991 451.378 249.472Z" fill="white"/>
<path d="M409.558 223.032C409.644 223.515 409.321 223.976 408.837 224.06L408.776 224.07C408.297 224.153 407.841 223.833 407.755 223.354C407.669 222.871 407.992 222.41 408.476 222.327L408.537 222.316C409.016 222.234 409.472 222.554 409.558 223.032Z" fill="white"/>
<path d="M424.929 272.728C425.015 273.211 424.692 273.672 424.209 273.755L424.147 273.766C423.668 273.849 423.212 273.529 423.126 273.05C423.04 272.567 423.363 272.106 423.847 272.023L423.908 272.012C424.388 271.929 424.844 272.249 424.929 272.728Z" fill="white"/>
<path d="M473.787 257.126C473.87 257.605 473.55 258.062 473.07 258.147C472.587 258.233 472.126 257.91 472.043 257.426L472.032 257.367C471.95 256.887 472.27 256.431 472.749 256.345C473.232 256.259 473.693 256.583 473.777 257.066L473.787 257.126Z" fill="white"/>
<path d="M364.94 337.044C365.026 337.525 364.705 337.985 364.224 338.071C363.743 338.157 363.283 337.837 363.197 337.356C363.111 336.875 363.432 336.415 363.913 336.329C364.394 336.243 364.854 336.564 364.94 337.044Z" fill="white"/>
<path d="M342.232 312.792C342.314 313.271 341.994 313.728 341.515 313.813C341.032 313.9 340.571 313.576 340.487 313.092L340.477 313.033C340.394 312.553 340.715 312.097 341.194 312.011C341.677 311.925 342.138 312.249 342.221 312.732L342.232 312.792Z" fill="white"/>
<path d="M315.778 335.987C315.864 336.468 315.543 336.928 315.062 337.014C314.581 337.1 314.121 336.779 314.035 336.299C313.949 335.818 314.27 335.358 314.751 335.272C315.232 335.186 315.692 335.506 315.778 335.987Z" fill="white"/>
<path d="M364.629 320.376C364.715 320.857 364.394 321.317 363.913 321.402C363.432 321.488 362.972 321.168 362.886 320.687C362.8 320.206 363.121 319.747 363.602 319.661C364.083 319.575 364.543 319.895 364.629 320.376Z" fill="white"/>
<path d="M298.602 129.68C298.688 130.161 298.367 130.621 297.886 130.707C297.405 130.792 296.945 130.472 296.86 129.991C296.774 129.511 297.094 129.051 297.575 128.965C298.056 128.879 298.516 129.199 298.602 129.68Z" fill="white"/>
<path d="M305.882 91.2375C305.968 91.7205 305.645 92.1814 305.162 92.2647L305.1 92.2753C304.621 92.3579 304.165 92.038 304.079 91.5592C303.993 91.0762 304.316 90.6152 304.8 90.5319L304.861 90.5214C305.34 90.4388 305.796 90.7587 305.882 91.2375Z" fill="white"/>
<path d="M334.447 56.0395C334.533 56.5205 334.212 56.9801 333.731 57.066C333.25 57.1518 332.79 56.8317 332.704 56.3509C332.618 55.8699 332.939 55.4103 333.42 55.3244C333.901 55.2386 334.361 55.5587 334.447 56.0395Z" fill="white"/>
<path d="M396.491 75.2578C396.577 75.7388 396.256 76.1984 395.775 76.2842C395.294 76.3701 394.834 76.05 394.748 75.5691C394.662 75.0881 394.983 74.6285 395.464 74.5427C395.945 74.4568 396.405 74.777 396.491 75.2578Z" fill="white"/>
<path d="M344.217 84.4629C344.303 84.9438 343.982 85.4035 343.501 85.4893C343.02 85.5751 342.561 85.255 342.475 84.7742C342.389 84.2932 342.709 83.8336 343.19 83.7477C343.671 83.6619 344.131 83.982 344.217 84.4629Z" fill="white"/>
<path d="M383.36 40.3968C383.446 40.895 383.111 41.3685 382.613 41.4543C382.115 41.5402 381.641 41.2061 381.555 40.7081C381.469 40.21 381.804 39.7364 382.302 39.6506C382.8 39.5648 383.274 39.8988 383.36 40.3968Z" fill="white"/>
<path d="M317.768 107.719C317.854 108.202 317.531 108.663 317.048 108.747L316.986 108.757C316.507 108.84 316.051 108.52 315.965 108.041C315.879 107.558 316.202 107.097 316.686 107.014L316.747 107.003C317.227 106.921 317.683 107.241 317.768 107.719Z" fill="white"/>
<path d="M184.845 371.942C184.931 372.421 185.387 372.741 185.866 372.659L185.928 372.648C186.411 372.565 186.735 372.104 186.648 371.621C186.563 371.142 186.107 370.822 185.627 370.905L185.566 370.915C185.083 370.999 184.759 371.459 184.845 371.942Z" fill="white"/>
<path d="M200.967 378.523C201.05 379.007 201.511 379.33 201.994 379.244C202.473 379.158 202.794 378.702 202.711 378.222L202.701 378.163C202.617 377.679 202.156 377.356 201.673 377.442C201.194 377.528 200.874 377.984 200.956 378.464L200.967 378.523Z" fill="white"/>
<path d="M207.248 373.461C207.334 373.959 206.999 374.432 206.501 374.518C206.003 374.604 205.529 374.27 205.443 373.772C205.357 373.274 205.692 372.8 206.19 372.715C206.688 372.629 207.162 372.963 207.248 373.461Z" fill="white"/>
<path d="M226.358 351.54C226.441 352.02 226.121 352.476 225.642 352.562C225.159 352.648 224.698 352.325 224.614 351.841L224.604 351.782C224.521 351.302 224.841 350.845 225.32 350.76C225.804 350.674 226.265 350.997 226.348 351.481L226.358 351.54Z" fill="white"/>
<path d="M359.401 130.519C359.487 131.018 359.152 131.491 358.654 131.577C358.156 131.663 357.682 131.329 357.597 130.831C357.511 130.333 357.845 129.859 358.343 129.773C358.841 129.687 359.315 130.021 359.401 130.519Z" fill="white"/>
<path d="M366.626 92.1173C366.709 92.597 366.389 93.0534 365.909 93.139C365.426 93.2252 364.965 92.9018 364.882 92.4182L364.872 92.3587C364.789 91.879 365.109 91.4226 365.588 91.3371C366.071 91.2508 366.532 91.5742 366.616 92.0578L366.626 92.1173Z" fill="white"/>
<path d="M326.17 180.869C326.256 181.35 325.935 181.809 325.454 181.895C324.973 181.981 324.514 181.661 324.428 181.18C324.342 180.699 324.663 180.239 325.143 180.154C325.624 180.068 326.084 180.388 326.17 180.869Z" fill="white"/>
<path d="M343.532 179.997C343.618 180.478 343.298 180.938 342.817 181.023C342.336 181.109 341.876 180.789 341.79 180.308C341.704 179.827 342.025 179.368 342.506 179.282C342.987 179.196 343.446 179.516 343.532 179.997Z" fill="white"/>
<path d="M322.685 147.655C322.771 148.136 322.45 148.596 321.969 148.682C321.489 148.768 321.029 148.447 320.943 147.967C320.857 147.486 321.178 147.026 321.659 146.94C322.139 146.854 322.599 147.174 322.685 147.655Z" fill="white"/>
<path d="M528.855 198.501C528.941 198.999 528.606 199.473 528.108 199.558C527.61 199.644 527.136 199.31 527.05 198.812C526.964 198.314 527.299 197.84 527.797 197.755C528.295 197.669 528.769 198.003 528.855 198.501Z" fill="white"/>
<path d="M570.486 221.291C570.573 221.774 570.249 222.235 569.766 222.318L569.704 222.329C569.225 222.411 568.769 222.091 568.684 221.612C568.597 221.129 568.921 220.668 569.404 220.585L569.465 220.575C569.945 220.492 570.401 220.812 570.486 221.291Z" fill="white"/>
<path d="M512.93 226.96C513.013 227.44 512.693 227.896 512.213 227.982C511.73 228.068 511.269 227.745 511.186 227.261L511.176 227.201C511.093 226.722 511.413 226.265 511.892 226.18C512.375 226.094 512.836 226.417 512.92 226.901L512.93 226.96Z" fill="white"/>
<path d="M38.2294 393.923C38.3154 394.421 38.7892 394.755 39.2872 394.67C39.7853 394.584 40.12 394.11 40.0341 393.612C39.9482 393.114 39.4744 392.78 38.9764 392.866C38.4782 392.952 38.1435 393.425 38.2294 393.923Z" fill="white"/>
<path d="M3.94048 491.293C4.02639 491.774 4.48621 492.094 4.96708 492.008C5.44807 491.922 5.76877 491.462 5.68284 490.981C5.59692 490.501 5.13711 490.18 4.65624 490.266C4.17525 490.352 3.85455 490.812 3.94048 491.293Z" fill="white"/>
<path d="M453.183 459.821C453.268 460.302 452.948 460.761 452.467 460.847C451.986 460.933 451.526 460.613 451.44 460.132C451.354 459.651 451.675 459.192 452.156 459.106C452.637 459.02 453.097 459.34 453.183 459.821Z" fill="white"/>
<path d="M515.288 479.035C515.374 479.518 515.051 479.979 514.567 480.062L514.506 480.073C514.027 480.155 513.57 479.835 513.485 479.357C513.399 478.874 513.722 478.413 514.205 478.329L514.267 478.319C514.746 478.236 515.202 478.556 515.288 479.035Z" fill="white"/>
<path d="M462.953 488.245C463.039 488.726 462.718 489.185 462.237 489.271C461.756 489.357 461.296 489.037 461.21 488.556C461.124 488.075 461.445 487.615 461.926 487.529C462.407 487.444 462.867 487.764 462.953 488.245Z" fill="white"/>
<path d="M502.095 444.204C502.181 444.687 501.858 445.148 501.374 445.232L501.313 445.242C500.834 445.325 500.378 445.005 500.292 444.526C500.206 444.043 500.529 443.582 501.013 443.499L501.074 443.488C501.553 443.406 502.009 443.725 502.095 444.204Z" fill="white"/>
<path d="M478.137 534.302C478.223 534.8 477.888 535.273 477.39 535.359C476.892 535.445 476.418 535.111 476.332 534.613C476.247 534.115 476.581 533.641 477.079 533.555C477.577 533.47 478.051 533.804 478.137 534.302Z" fill="white"/>
<path d="M485.362 495.899C485.445 496.379 485.124 496.835 484.645 496.921C484.162 497.007 483.701 496.684 483.618 496.2L483.607 496.14C483.525 495.661 483.845 495.204 484.324 495.119C484.807 495.033 485.268 495.356 485.352 495.84L485.362 495.899Z" fill="white"/>
<path d="M483.301 577.865C483.388 578.348 483.064 578.809 482.581 578.893L482.519 578.903C482.04 578.986 481.584 578.666 481.498 578.187C481.412 577.704 481.735 577.243 482.219 577.16L482.28 577.149C482.76 577.067 483.216 577.387 483.301 577.865Z" fill="white"/>
<path d="M498.43 623.963C498.513 624.442 498.193 624.899 497.714 624.984C497.231 625.07 496.769 624.747 496.686 624.263L496.676 624.204C496.593 623.724 496.913 623.268 497.392 623.182C497.876 623.096 498.337 623.419 498.42 623.903L498.43 623.963Z" fill="white"/>
<path d="M505.705 585.49C505.791 585.988 505.456 586.461 504.958 586.547C504.46 586.633 503.987 586.299 503.901 585.801C503.815 585.303 504.149 584.829 504.648 584.743C505.146 584.658 505.619 584.992 505.705 585.49Z" fill="white"/>
<path d="M413.48 375.513C413.565 376.011 413.231 376.484 412.733 376.57C412.235 376.656 411.761 376.322 411.675 375.824C411.589 375.326 411.924 374.852 412.422 374.766C412.92 374.68 413.394 375.015 413.48 375.513Z" fill="white"/>
<path d="M420.703 337.071C420.787 337.542 420.483 337.995 420.015 338.095C419.522 338.201 419.04 337.875 418.954 337.378L418.95 337.354C418.867 336.873 419.188 336.416 419.669 336.33C420.152 336.244 420.613 336.565 420.699 337.047L420.703 337.071Z" fill="white"/>
<path d="M449.324 301.872C449.41 302.37 449.076 302.844 448.577 302.929C448.079 303.015 447.606 302.681 447.52 302.183C447.434 301.685 447.769 301.212 448.267 301.126C448.765 301.04 449.238 301.374 449.324 301.872Z" fill="white"/>
<path d="M511.368 321.057C511.454 321.539 511.133 322 510.65 322.086L510.625 322.091C510.154 322.175 509.702 321.871 509.602 321.403C509.496 320.91 509.822 320.429 510.318 320.343L510.344 320.339C510.824 320.256 511.282 320.577 511.368 321.057Z" fill="white"/>
<path d="M459.095 330.296C459.181 330.794 458.846 331.267 458.348 331.353C457.85 331.439 457.376 331.105 457.29 330.607C457.204 330.109 457.539 329.635 458.037 329.55C458.535 329.464 459.009 329.798 459.095 330.296Z" fill="white"/>
<path d="M432.59 353.592C432.673 354.072 432.353 354.529 431.874 354.614C431.391 354.7 430.93 354.377 430.846 353.893L430.836 353.834C430.753 353.354 431.073 352.898 431.552 352.812C432.036 352.726 432.497 353.049 432.58 353.533L432.59 353.592Z" fill="white"/>
<path d="M474.216 376.353C474.302 376.834 473.982 377.293 473.501 377.379C473.02 377.465 472.56 377.145 472.474 376.664C472.388 376.183 472.709 375.723 473.19 375.637C473.671 375.552 474.131 375.872 474.216 376.353Z" fill="white"/>
<path d="M481.497 337.91C481.583 338.393 481.26 338.854 480.776 338.937L480.715 338.948C480.235 339.03 479.779 338.71 479.694 338.232C479.608 337.749 479.931 337.288 480.414 337.204L480.476 337.194C480.955 337.111 481.411 337.431 481.497 337.91Z" fill="white"/>
<path d="M214.031 284.27C214.117 284.768 213.782 285.242 213.284 285.328C212.786 285.414 212.312 285.08 212.226 284.582C212.14 284.084 212.475 283.61 212.973 283.524C213.471 283.438 213.945 283.772 214.031 284.27Z" fill="white"/>
<path d="M221.255 245.868C221.338 246.347 221.018 246.804 220.539 246.889C220.056 246.976 219.595 246.652 219.511 246.169L219.501 246.109C219.418 245.63 219.738 245.173 220.218 245.088C220.701 245.001 221.162 245.325 221.245 245.808L221.255 245.868Z" fill="white"/>
<path d="M249.875 210.63C249.961 211.128 249.627 211.601 249.128 211.687C248.63 211.773 248.157 211.439 248.071 210.941C247.985 210.443 248.32 209.969 248.818 209.883C249.316 209.798 249.789 210.132 249.875 210.63Z" fill="white"/>
<path d="M311.918 229.812C312.005 230.295 311.681 230.756 311.198 230.839L311.137 230.85C310.657 230.933 310.201 230.613 310.116 230.134C310.029 229.651 310.353 229.19 310.836 229.107L310.897 229.096C311.377 229.013 311.833 229.333 311.918 229.812Z" fill="white"/>
<path d="M259.646 239.054C259.732 239.552 259.397 240.025 258.899 240.111C258.401 240.197 257.927 239.863 257.841 239.365C257.755 238.867 258.09 238.393 258.588 238.307C259.086 238.221 259.56 238.556 259.646 239.054Z" fill="white"/>
<path d="M233.141 262.35C233.224 262.829 232.904 263.286 232.425 263.371C231.942 263.458 231.481 263.134 231.397 262.651L231.387 262.591C231.304 262.111 231.624 261.655 232.104 261.569C232.587 261.483 233.048 261.807 233.131 262.29L233.141 262.35Z" fill="white"/>
<path d="M338.124 248.48C338.207 248.959 337.887 249.416 337.408 249.501C336.925 249.587 336.464 249.264 336.38 248.78L336.37 248.721C336.287 248.241 336.607 247.785 337.086 247.699C337.57 247.613 338.031 247.937 338.114 248.42L338.124 248.48Z" fill="white"/>
<path d="M282.048 246.667C282.134 247.15 281.811 247.611 281.327 247.694L281.266 247.705C280.787 247.788 280.33 247.468 280.245 246.989C280.159 246.506 280.482 246.045 280.965 245.962L281.027 245.951C281.506 245.868 281.962 246.188 282.048 246.667Z" fill="white"/>
<path d="M441.047 426.665C441.133 427.148 440.81 427.609 440.326 427.692L440.265 427.703C439.786 427.785 439.33 427.465 439.244 426.986C439.158 426.503 439.481 426.042 439.964 425.959L440.026 425.949C440.505 425.866 440.961 426.186 441.047 426.665Z" fill="white"/>
<path d="M479.388 419.957C479.47 420.436 479.15 420.893 478.671 420.978C478.188 421.065 477.727 420.741 477.643 420.258L477.633 420.198C477.55 419.718 477.871 419.262 478.35 419.176C478.833 419.09 479.294 419.414 479.377 419.897L479.388 419.957Z" fill="white"/>
<path d="M437.563 393.488C437.649 393.986 437.314 394.459 436.816 394.545C436.318 394.631 435.844 394.297 435.758 393.799C435.672 393.301 436.007 392.827 436.505 392.741C437.003 392.656 437.477 392.99 437.563 393.488Z" fill="white"/>
<path d="M452.933 443.147C453.019 443.63 452.696 444.091 452.212 444.174L452.151 444.184C451.672 444.267 451.216 443.947 451.13 443.468C451.044 442.985 451.367 442.524 451.851 442.441L451.912 442.431C452.391 442.348 452.847 442.668 452.933 443.147Z" fill="white"/>
<path d="M494.565 465.973C494.651 466.456 494.328 466.917 493.844 467.001L493.783 467.011C493.304 467.094 492.848 466.774 492.762 466.295C492.676 465.812 492.999 465.351 493.483 465.268L493.544 465.257C494.023 465.175 494.479 465.494 494.565 465.973Z" fill="white"/>
<path d="M501.791 427.545C501.873 428.024 501.553 428.481 501.074 428.566C500.591 428.652 500.13 428.329 500.047 427.845L500.036 427.786C499.953 427.306 500.274 426.85 500.753 426.764C501.236 426.678 501.697 427.001 501.78 427.485L501.791 427.545Z" fill="white"/>
<path d="M535.457 372.749C535.54 373.228 535.22 373.685 534.741 373.77C534.258 373.857 533.797 373.533 533.713 373.05L533.703 372.99C533.62 372.51 533.94 372.054 534.42 371.968C534.903 371.882 535.364 372.206 535.447 372.689L535.457 372.749Z" fill="white"/>
<path d="M577.084 395.509C577.17 395.99 576.849 396.45 576.368 396.536C575.887 396.622 575.427 396.301 575.341 395.821C575.255 395.34 575.576 394.88 576.057 394.794C576.538 394.708 576.998 395.028 577.084 395.509Z" fill="white"/>
<path d="M519.583 401.107C519.669 401.588 519.348 402.048 518.867 402.133C518.386 402.219 517.926 401.899 517.84 401.418C517.754 400.937 518.075 400.478 518.556 400.392C519.037 400.306 519.497 400.626 519.583 401.107Z" fill="white"/>
<path d="M159.703 593.669C159.789 594.15 160.249 594.47 160.73 594.384C161.211 594.298 161.532 593.838 161.446 593.357C161.36 592.877 160.9 592.556 160.419 592.642C159.938 592.728 159.617 593.188 159.703 593.669Z" fill="white"/>
<path d="M108.364 595.727C108.45 596.205 108.906 596.525 109.385 596.443L109.446 596.432C109.93 596.349 110.253 595.888 110.167 595.405C110.081 594.926 109.625 594.606 109.146 594.689L109.085 594.699C108.601 594.783 108.278 595.244 108.364 595.727Z" fill="white"/>
<path d="M159.766 558.341C159.852 558.822 160.311 559.142 160.792 559.056C161.273 558.97 161.594 558.511 161.508 558.03C161.422 557.549 160.962 557.229 160.481 557.315C160.001 557.4 159.68 557.86 159.766 558.341Z" fill="white"/>
<path d="M121.37 565.126C121.456 565.604 121.912 565.924 122.391 565.842L122.453 565.831C122.936 565.748 123.259 565.287 123.173 564.804C123.088 564.325 122.632 564.005 122.152 564.088L122.091 564.098C121.607 564.182 121.284 564.643 121.37 565.126Z" fill="white"/>
<path d="M154.231 577.926C154.315 578.41 154.776 578.733 155.259 578.647C155.738 578.561 156.058 578.105 155.976 577.625L155.965 577.566C155.882 577.082 155.421 576.759 154.938 576.845C154.459 576.93 154.138 577.387 154.221 577.866L154.231 577.926Z" fill="white"/>
<path d="M102.949 579.923C103.035 580.404 103.495 580.724 103.976 580.638C104.457 580.552 104.778 580.093 104.692 579.612C104.606 579.131 104.146 578.811 103.665 578.897C103.184 578.983 102.863 579.442 102.949 579.923Z" fill="white"/>
<path d="M21.2406 575.632C21.3265 576.112 21.7863 576.433 22.2672 576.347C22.7482 576.261 23.0689 575.801 22.983 575.32C22.8971 574.839 22.4372 574.519 21.9564 574.605C21.4754 574.691 21.1546 575.151 21.2406 575.632Z" fill="white"/>
<path d="M77.1858 561.202C77.2717 561.683 77.7316 562.003 78.2125 561.917C78.6934 561.831 79.0142 561.372 78.9283 560.891C78.8423 560.41 78.3825 560.09 77.9016 560.175C77.4206 560.261 77.0999 560.721 77.1858 561.202Z" fill="white"/>
<path d="M354.8 300.715C354.884 301.199 355.345 301.522 355.828 301.436C356.307 301.35 356.627 300.894 356.545 300.414L356.534 300.355C356.451 299.871 355.99 299.548 355.507 299.634C355.028 299.719 354.707 300.176 354.79 300.656L354.8 300.715Z" fill="white"/>
<path d="M286.84 221.545C286.926 222.026 287.386 222.346 287.867 222.26C288.348 222.174 288.669 221.715 288.583 221.234C288.497 220.753 288.037 220.433 287.556 220.519C287.075 220.605 286.755 221.064 286.84 221.545Z" fill="white"/>
<path d="M354.863 265.387C354.946 265.871 355.407 266.194 355.89 266.108C356.369 266.023 356.69 265.566 356.607 265.087L356.597 265.027C356.513 264.543 356.052 264.22 355.569 264.306C355.09 264.392 354.77 264.848 354.852 265.328L354.863 265.387Z" fill="white"/>
<path d="M299.847 190.945C299.932 191.425 300.392 191.746 300.873 191.66C301.354 191.574 301.675 191.114 301.589 190.633C301.503 190.152 301.043 189.832 300.562 189.918C300.081 190.004 299.761 190.464 299.847 190.945Z" fill="white"/>
<path d="M349.321 284.929C349.406 285.408 349.862 285.728 350.342 285.645L350.403 285.634C350.886 285.551 351.21 285.09 351.123 284.607C351.038 284.128 350.582 283.808 350.103 283.891L350.041 283.902C349.558 283.985 349.234 284.446 349.321 284.929Z" fill="white"/>
<path d="M281.364 205.778C281.45 206.276 281.924 206.61 282.422 206.525C282.92 206.439 283.255 205.965 283.169 205.467C283.083 204.969 282.609 204.635 282.111 204.721C281.613 204.807 281.278 205.28 281.364 205.778Z" fill="white"/>
<path d="M272.279 268.224C272.364 268.722 272.838 269.056 273.336 268.97C273.834 268.884 274.169 268.411 274.083 267.912C273.997 267.414 273.523 267.08 273.025 267.166C272.527 267.252 272.193 267.726 272.279 268.224Z" fill="white"/>
<path d="M562.335 477.734C562.421 478.215 562.1 478.674 561.619 478.76C561.138 478.846 560.678 478.526 560.592 478.045C560.507 477.564 560.827 477.105 561.308 477.019C561.789 476.933 562.249 477.253 562.335 477.734Z" fill="white"/>
<path d="M627.987 557.465C628.074 557.947 627.75 558.408 627.267 558.492L627.205 558.502C626.726 558.585 626.27 558.265 626.184 557.786C626.098 557.303 626.421 556.842 626.905 556.759L626.966 556.748C627.446 556.666 627.902 556.986 627.987 557.465Z" fill="white"/>
<path d="M300.064 597.369C299.583 597.455 299.124 597.135 299.038 596.654C298.952 596.173 299.272 595.713 299.753 595.628C300.234 595.542 300.694 595.862 300.78 596.343C300.866 596.824 300.545 597.283 300.064 597.369Z" fill="white"/>
<path d="M280.83 659.386C280.351 659.468 279.895 659.148 279.809 658.67C279.723 658.187 280.046 657.726 280.53 657.642L280.591 657.632C281.07 657.549 281.526 657.869 281.612 658.348C281.698 658.831 281.375 659.292 280.891 659.375L280.83 659.386Z" fill="white"/>
<path d="M271.625 607.134C271.144 607.22 270.684 606.9 270.598 606.419C270.512 605.938 270.833 605.479 271.314 605.393C271.795 605.307 272.255 605.627 272.341 606.108C272.427 606.589 272.106 607.048 271.625 607.134Z" fill="white"/>
<path d="M315.715 646.256C315.217 646.341 314.743 646.007 314.658 645.509C314.572 645.011 314.906 644.538 315.404 644.452C315.902 644.366 316.376 644.7 316.462 645.198C316.548 645.696 316.213 646.17 315.715 646.256Z" fill="white"/>
<path d="M225.543 622.31C225.045 622.396 224.571 622.062 224.485 621.564C224.399 621.066 224.734 620.592 225.232 620.507C225.73 620.421 226.204 620.755 226.29 621.253C226.376 621.751 226.041 622.224 225.543 622.31Z" fill="white"/>
<path d="M264.033 629.525C263.552 629.611 263.092 629.291 263.006 628.81C262.92 628.329 263.241 627.869 263.722 627.783C264.203 627.698 264.663 628.018 264.749 628.499C264.835 628.979 264.514 629.439 264.033 629.525Z" fill="white"/>
<path d="M181.967 627.475C181.477 627.559 181.011 627.231 180.927 626.741L180.921 626.706C180.837 626.218 181.162 625.754 181.649 625.667C182.129 625.581 182.59 625.893 182.688 626.37L182.696 626.405C182.799 626.904 182.469 627.389 181.967 627.475Z" fill="white"/>
<path d="M135.9 642.586C135.419 642.672 134.959 642.352 134.874 641.871C134.788 641.39 135.108 640.931 135.589 640.845C136.07 640.759 136.53 641.079 136.616 641.56C136.702 642.041 136.381 642.501 135.9 642.586Z" fill="white"/>
<path d="M174.364 649.863C173.881 649.949 173.42 649.626 173.336 649.142L173.326 649.083C173.243 648.603 173.563 648.147 174.043 648.061C174.526 647.975 174.987 648.298 175.07 648.782L175.081 648.841C175.163 649.321 174.843 649.778 174.364 649.863Z" fill="white"/>
<path d="M384.454 557.687C383.971 557.774 383.51 557.45 383.427 556.967L383.416 556.907C383.334 556.427 383.654 555.971 384.133 555.885C384.616 555.799 385.077 556.123 385.16 556.606L385.171 556.666C385.253 557.145 384.933 557.602 384.454 557.687Z" fill="white"/>
<path d="M422.907 564.902C422.426 564.988 421.967 564.668 421.881 564.187C421.795 563.706 422.115 563.247 422.596 563.161C423.077 563.075 423.537 563.395 423.623 563.876C423.709 564.357 423.388 564.817 422.907 564.902Z" fill="white"/>
<path d="M458.135 593.512C457.652 593.598 457.191 593.275 457.107 592.791L457.097 592.732C457.014 592.252 457.335 591.796 457.814 591.71C458.297 591.624 458.758 591.947 458.841 592.431L458.852 592.49C458.934 592.97 458.614 593.426 458.135 593.512Z" fill="white"/>
<path d="M438.906 655.523C438.423 655.609 437.962 655.286 437.878 654.802L437.868 654.742C437.785 654.263 438.105 653.806 438.585 653.721C439.068 653.635 439.529 653.958 439.612 654.442L439.622 654.501C439.705 654.981 439.385 655.437 438.906 655.523Z" fill="white"/>
<path d="M429.696 603.277C429.212 603.363 428.751 603.039 428.668 602.556L428.658 602.496C428.575 602.017 428.895 601.56 429.374 601.475C429.857 601.389 430.319 601.712 430.402 602.196L430.412 602.255C430.495 602.735 430.175 603.191 429.696 603.277Z" fill="white"/>
<path d="M573.573 702.356C573.09 702.442 572.628 702.119 572.545 701.635L572.535 701.576C572.452 701.096 572.772 700.64 573.251 700.554C573.735 700.468 574.196 700.791 574.279 701.275L574.289 701.335C574.372 701.814 574.052 702.271 573.573 702.356Z" fill="white"/>
<path d="M406.416 576.782C405.935 576.868 405.476 576.548 405.39 576.067C405.304 575.586 405.624 575.127 406.105 575.041C406.586 574.955 407.046 575.275 407.132 575.756C407.218 576.237 406.897 576.696 406.416 576.782Z" fill="white"/>
<path d="M383.573 618.398C383.094 618.481 382.638 618.161 382.552 617.682C382.466 617.199 382.789 616.738 383.273 616.655L383.334 616.644C383.813 616.562 384.269 616.882 384.355 617.361C384.441 617.843 384.118 618.304 383.634 618.388L383.573 618.398Z" fill="white"/>
<path d="M497.766 794.353C497.287 794.436 496.83 794.116 496.745 793.637C496.659 793.154 496.982 792.693 497.465 792.61L497.527 792.599C498.006 792.516 498.462 792.836 498.548 793.315C498.634 793.798 498.311 794.259 497.827 794.342L497.766 794.353Z" fill="white"/>
<path d="M422.067 625.669C421.569 625.754 421.095 625.42 421.009 624.922C420.923 624.424 421.258 623.951 421.756 623.865C422.254 623.779 422.728 624.113 422.814 624.611C422.9 625.109 422.565 625.583 422.067 625.669Z" fill="white"/>
<path d="M333.238 585.241C332.755 585.327 332.294 585.003 332.211 584.52L332.201 584.46C332.118 583.981 332.438 583.524 332.917 583.439C333.4 583.352 333.861 583.676 333.945 584.159L333.955 584.219C334.038 584.699 333.718 585.155 333.238 585.241Z" fill="white"/>
<path d="M340.016 623.554C339.535 623.64 339.076 623.32 338.99 622.839C338.904 622.358 339.225 621.899 339.705 621.813C340.186 621.727 340.646 622.047 340.732 622.528C340.818 623.009 340.497 623.468 340.016 623.554Z" fill="white"/>
<path d="M366.469 581.757C365.986 581.843 365.525 581.52 365.442 581.036L365.432 580.977C365.349 580.497 365.669 580.041 366.148 579.955C366.631 579.869 367.092 580.192 367.176 580.676L367.186 580.735C367.269 581.215 366.949 581.672 366.469 581.757Z" fill="white"/>
<path d="M316.747 597.119C316.264 597.206 315.803 596.882 315.72 596.399L315.709 596.339C315.627 595.859 315.947 595.403 316.426 595.318C316.909 595.231 317.37 595.555 317.454 596.038L317.464 596.098C317.547 596.577 317.226 597.034 316.747 597.119Z" fill="white"/>
<path d="M293.935 638.73C293.436 638.816 292.963 638.482 292.877 637.984C292.791 637.486 293.126 637.012 293.624 636.926C294.122 636.841 294.596 637.175 294.681 637.673C294.767 638.171 294.433 638.644 293.935 638.73Z" fill="white"/>
<path d="M332.397 645.95C331.926 646.034 331.474 645.73 331.373 645.262C331.268 644.769 331.594 644.288 332.09 644.202L332.116 644.198C332.596 644.115 333.054 644.436 333.14 644.916C333.226 645.398 332.905 645.859 332.422 645.945L332.397 645.95Z" fill="white"/>
<path d="M387.249 679.593C386.768 679.679 386.309 679.359 386.223 678.878C386.137 678.397 386.458 677.938 386.939 677.852C387.419 677.766 387.879 678.086 387.965 678.567C388.051 679.048 387.73 679.507 387.249 679.593Z" fill="white"/>
<path d="M364.406 721.209C363.927 721.291 363.47 720.972 363.385 720.493C363.299 720.01 363.622 719.549 364.105 719.466L364.167 719.455C364.646 719.372 365.102 719.692 365.188 720.171C365.274 720.654 364.951 721.115 364.467 721.198L364.406 721.209Z" fill="white"/>
<path d="M358.815 663.732C358.332 663.818 357.871 663.495 357.788 663.011L357.777 662.952C357.695 662.472 358.015 662.016 358.494 661.93C358.977 661.844 359.438 662.167 359.521 662.651L359.532 662.711C359.614 663.19 359.294 663.647 358.815 663.732Z" fill="white"/>
<path d="M282.142 706.462C281.661 706.548 281.201 706.228 281.115 705.747C281.029 705.266 281.35 704.807 281.831 704.721C282.312 704.635 282.772 704.955 282.858 705.436C282.944 705.917 282.623 706.377 282.142 706.462Z" fill="white"/>
<path d="M202.362 772.018C201.881 772.103 201.422 771.783 201.336 771.302C201.25 770.822 201.57 770.362 202.051 770.276C202.532 770.19 202.992 770.51 203.078 770.991C203.164 771.472 202.843 771.932 202.362 772.018Z" fill="white"/>
</g>
<path d="M1360.56 627.798L1433 537.799L1317.75 529.278L1360.56 627.798Z" stroke="white" strokeWidth="0.9" strokeLinecap="round" strokeLinejoin="round"/>
<path d="M915.304 541.715L1068.27 546.442L985.314 417.881L915.304 541.715Z" stroke="white" strokeWidth="0.9" strokeLinecap="round" strokeLinejoin="round"/>
<path d="M901.551 222.833L1054.58 227.56L971.623 98.999L901.551 222.833Z" stroke="white" strokeWidth="0.9" strokeLinecap="round" strokeLinejoin="round"/>
<path d="M974.112 657.714L1028.94 514.848L880.144 550.86L974.112 657.714Z" stroke="white" strokeWidth="0.9" strokeLinecap="round" strokeLinejoin="round"/>
<path d="M1067.21 276.322L1122.03 133.456L973.241 169.468L1067.21 276.322Z" stroke="white" strokeWidth="0.9" strokeLinecap="round" strokeLinejoin="round"/>
<path opacity="0.1" d="M1287.44 615.856L1402.44 604.412L1327.71 516.279L1287.44 615.856Z" fill="white"/>
<path opacity="0.1" d="M714.144 609.648L795.542 527.673L681.784 507.21L714.144 609.648Z" fill="white"/>
<path opacity="0.1" d="M731.923 335L748 242L662 281.639L731.923 335Z" fill="white"/>
<path opacity="0.1" d="M533.709 325L541 282L502 300.328L533.709 325Z" fill="white"/>
<path opacity="0.1" d="M588.222 397.595L648.2 378.843L599.169 340.75L588.222 397.595Z" fill="white"/>
<path opacity="0.1" d="M703.355 405.289L666.54 353.066L644.997 412.277L703.355 405.289Z" fill="white"/>
<path opacity="0.1" d="M818.718 348L829 287L774 313L818.718 348Z" fill="white"/>
<path opacity="0.1" d="M749.7 489.008L756.991 446.008L717.991 464.336L749.7 489.008Z" fill="white"/>
<path opacity="0.1" d="M653.098 298.222L586.559 303.991L628.755 354.727L653.098 298.222Z" fill="white"/>
<path opacity="0.1" d="M812.655 382.245L738.18 345.259L750.209 426.145L812.655 382.245Z" fill="white"/>
<path opacity="0.1" d="M803.698 530.01L810.989 487.01L771.989 505.338L803.698 530.01Z" fill="white"/>
<path opacity="0.1" d="M1122.06 107.877L1202.21 24.6581L1088.14 5.99902L1122.06 107.877Z" fill="white"/>
<path opacity="0.15" d="M1117.86 353.632L1040.39 353.695L1084.45 417.384L1117.86 353.632Z" fill="white"/>
<path opacity="0.1" d="M1197.12 115.374L1201.91 -0.000976562L1104.14 61.5117L1197.12 115.374Z" fill="white"/>
<path opacity="0.1" d="M1239.65 258.534L1244.5 143.159L1146.68 204.671L1239.65 258.534Z" fill="white"/>
<path opacity="0.1" d="M1299.45 256.978L1276.3 296.846L1322.29 293.239L1299.45 256.978Z" fill="white"/>
<path d="M1378.73 515.595L1357.27 508.691L1363.74 530.273L1378.73 515.595Z" stroke="white" strokeWidth="0.9" strokeLinecap="round" strokeLinejoin="round"/>
</g>
<defs>
<filter id="filter0_f_3760_20775" x="-5.78955" y="37.6372" width="635.791" height="758.729" filterUnits="userSpaceOnUse" color-interpolation-filters="sRGB">
<feFlood flood-opacity="0" result="BackgroundImageFix"/>
<feBlend mode="normal" in="SourceGraphic" in2="BackgroundImageFix" result="shape"/>
<feGaussianBlur stdDeviation="1" result="effect1_foregroundBlur_3760_20775"/>
</filter>
</defs>
</svg>
