<svg width="1434" height="797" viewBox="0 0 1434 797" fill="none" xmlns="http://www.w3.org/2000/svg">
<g style="mix-blend-mode:overlay">
<path d="M455.746 566.863L443.175 566.055L418.781 559.337L401.107 538.253L388.661 507.465L380.073 481.156L368.436 446.885L353.501 412.18L360.222 368.828L372.046 340.715L389.657 311.607L400.298 299.106L334.521 312.913L254.803 349.485L205.89 325.726M205.89 325.726L270.672 273.232L222.381 263.405L213.109 294.006L205.89 325.726ZM205.89 325.726L202.53 364.786L204.459 404.778L208.193 440.355L217.901 476.802L235.574 502.241L263.205 531.846L300.854 568.791L343.918 583.905L367.627 593.67" stroke="white" stroke-linecap="round" stroke-linejoin="round"/>
<path d="M149.945 418.026L204.459 404.778L262.52 393.023M262.52 393.023L319.71 411.869L353.501 412.18L394.573 368.642L418.159 352.409L428.924 345.007L389.657 311.608L334.521 312.914L283.181 250.53L270.672 273.232L260.591 307.627L254.803 349.485L262.52 393.023ZM262.52 393.023L280.754 419.519L290.835 437.183L306.206 445.455L301.787 463.803L308.944 485.634L310.313 512.13L332.654 543.042L346.718 564.749L365.449 581.604L367.627 593.67L382.874 598.273" stroke="white" stroke-linecap="round" stroke-linejoin="round"/>
<path d="M145.838 402.539L158.471 350.169L174.402 326.099L213.109 294.006L270.672 273.232L343.918 283.059L389.657 311.607L418.159 352.408L423.448 382.574L408.077 399.243L413.865 400.051L413.242 407.701L403.908 421.26L421.021 434.881L429.733 446.015L435.272 464.301L439.193 482.151L441.868 497.016L450.27 504.293M450.27 504.293L457.799 509.082L426.933 518.847M450.27 504.293L442.366 509.455L426.933 518.847M450.27 504.293L459.417 498.82M426.933 518.847L460.226 529.918L453.692 530.105L446.1 528.674L437.948 525.875L426.933 518.847Z" stroke="white" stroke-linecap="round" stroke-linejoin="round"/>
<path d="M202.53 364.786L254.803 349.486L320.457 355.892L360.222 368.829L394.573 368.642L423.448 382.574L428.924 345.007L434.587 385.684L431.725 404.405L437.077 422.131L444.855 435.131L452.261 443.154L462.965 451.239L479.269 456.215L461.533 465.172L453.941 467.97L443.051 472.635L444.918 480.596L439.192 482.151L432.036 492.103L415.047 508.087L401.107 538.253L381.443 549.448L346.718 564.749L343.917 583.905L338.628 610.961L338.379 655.121" stroke="white" stroke-linecap="round" stroke-linejoin="round"/>
<path d="M319.71 411.869L302.534 424.495L306.206 445.455" stroke="white" stroke-linecap="round" stroke-linejoin="round"/>
<path d="M129.347 466.664L208.193 440.355L280.754 419.519L302.534 424.495L290.835 437.183L275.713 440.542L260.84 447.321L258.351 460.756L259.72 478.295L269.863 490.175L282.683 499.504L299.174 506.657" stroke="white" stroke-linecap="round" stroke-linejoin="round"/>
<path d="M436.081 403.846L431.725 404.405L403.908 421.261L395.445 420.328L387.479 418.213L375.282 416.969" stroke="white" stroke-linecap="round" stroke-linejoin="round"/>
<path d="M445.976 420.514L437.077 422.131L403.908 421.261" stroke="white" stroke-linecap="round" stroke-linejoin="round"/>
<path d="M466.387 445.766L462.965 451.239L456.804 457.707L451.514 463.803L443.362 465.233L435.272 464.3L428.053 472.324L408.077 476.802L380.073 481.156L343.42 489.801L310.313 512.13L263.205 531.846L249.949 494.217M249.949 494.217L269.863 490.174L273.473 474.687L258.351 460.755L249.949 494.217ZM249.949 494.217L235.574 502.24L245.593 469.711" stroke="white" stroke-linecap="round" stroke-linejoin="round"/>
<path d="M457.862 473.63L453.941 467.97L451.514 463.803L445.913 451.675L429.733 446.015L424.382 459.76L422.39 448.378L406.273 443.154L385.985 432.083L375.282 416.969L403.037 391.344L423.448 382.574L438.881 386.866" stroke="white" stroke-linecap="round" stroke-linejoin="round"/>
<path d="M478.958 471.205L466.201 480.472" stroke="white" stroke-linecap="round" stroke-linejoin="round"/>
<path d="M158.471 350.17L205.89 325.726L260.591 307.627L334.521 312.914L372.046 340.716L394.573 368.642L403.037 391.344L404.53 399.865M404.53 399.865L408.077 399.243L413.242 407.702L395.445 420.328L412.682 428.227L411.749 435.877L389.408 425.49L387.479 418.213L404.53 399.865Z" stroke="white" stroke-linecap="round" stroke-linejoin="round"/>
<path d="M411.749 435.877L422.39 448.379L421.021 434.882L406.273 443.154L368.436 446.886" stroke="white" stroke-linecap="round" stroke-linejoin="round"/>
<path d="M380.073 481.156L333.276 451.675" stroke="white" stroke-linecap="round" stroke-linejoin="round"/>
<path d="M450.643 430.528L444.855 435.13L445.913 451.675L456.804 457.708L461.533 465.171L462.902 473.07L466.201 480.472L451.203 484.328" stroke="white" stroke-linecap="round" stroke-linejoin="round"/>
<path d="M424.382 459.76L428.053 472.324L388.661 507.465L415.047 508.087" stroke="white" stroke-linecap="round" stroke-linejoin="round"/>
<path d="M434.214 503.485L432.036 492.103L428.053 472.324L415.047 508.087L421.395 518.225L426.933 518.847L452.883 518.536L446.1 528.675" stroke="white" stroke-linecap="round" stroke-linejoin="round"/>
<path d="M453.692 530.105L446.411 547.271L437.761 546.463L427.12 544.286L414.674 536.262L421.395 518.225L434.214 503.485L441.868 497.016L449.71 493.906" stroke="white" stroke-linecap="round" stroke-linejoin="round"/>
<path d="M443.175 566.055L407.953 575.197L418.781 559.337L437.761 546.463L446.1 528.674L427.12 544.286L401.107 538.253L361.28 524.756L310.313 512.13L300.854 568.791L338.628 610.961" stroke="white" stroke-linecap="round" stroke-linejoin="round"/>
<path d="M407.953 575.198L367.627 593.67L437.699 587.886L443.175 566.055L446.411 547.271" stroke="white" stroke-linecap="round" stroke-linejoin="round"/>
<path d="M437.948 525.875L414.674 536.262L418.781 559.337L381.443 549.448L365.449 581.603L343.918 583.905" stroke="white" stroke-linecap="round" stroke-linejoin="round"/>
<path d="M443.175 566.055L447.469 590.312L437.699 587.886L407.953 575.198L381.443 549.448L361.28 524.756L343.42 489.801L333.276 451.675L319.71 411.869L320.457 355.892L334.521 312.914L343.918 283.059L352.256 263.965L372.046 340.716" stroke="white" stroke-linecap="round" stroke-linejoin="round"/>
<path d="M365.449 581.604L407.953 575.197L332.654 543.042" stroke="white" stroke-linecap="round" stroke-linejoin="round"/>
<path d="M404.53 399.865L395.444 420.328L406.273 443.154L380.073 481.156L422.39 448.379L429.733 446.015L437.077 422.132L445.913 451.675L435.272 464.301" stroke="white" stroke-linecap="round" stroke-linejoin="round"/>
<path d="M303.032 458.579L293.2 450.68L286.977 463.617L273.473 474.688L284.736 485.883L308.944 485.634" stroke="white" stroke-linecap="round" stroke-linejoin="round"/>
<path d="M290.835 437.183L293.2 450.68L260.84 447.321L286.977 463.617L284.736 485.883" stroke="white" stroke-linecap="round" stroke-linejoin="round"/>
<path d="M247.087 448.938L208.193 440.355L263.018 429.222" stroke="white" stroke-linecap="round" stroke-linejoin="round"/>
<path d="M144.655 575.135L235.574 502.241" stroke="white" stroke-linecap="round" stroke-linejoin="round"/>
<path d="M293.324 519.221L284.736 485.883L260.84 447.321L280.754 419.519L263.018 429.222L247.087 448.938L245.593 469.712L249.95 494.218L268.37 507.092L293.324 519.221ZM293.324 519.221L308.944 485.634L333.276 451.675L368.436 446.886L385.985 432.083L389.408 425.49L395.445 420.328L413.865 400.052L434.588 385.684L436.081 403.846L437.077 422.131L421.021 434.882" stroke="white" stroke-linecap="round" stroke-linejoin="round"/>
<path d="M204.459 404.778L280.753 419.519L319.71 411.869L254.803 349.485" stroke="white" stroke-linecap="round" stroke-linejoin="round"/>
<path d="M343.918 283.059L400.298 299.106M400.298 299.106L283.181 250.53M400.298 299.106L352.257 263.965L283.181 250.53M400.298 299.106L428.925 345.007L438.881 386.866L436.081 403.845L445.976 420.514L450.643 430.528L455.933 436.81L466.387 445.766L479.269 456.215L478.958 471.205L457.862 473.63L444.918 480.596L451.203 484.328L449.71 493.906L459.417 498.82L457.8 509.082L452.883 518.536L460.226 529.918L457.239 539.248L446.411 547.271L455.746 566.863L447.469 590.311L412.807 596.407L382.874 598.273L368.561 628.189L365.947 650.642M283.181 250.53L213.109 294.006L161.707 301.967L222.381 263.405L283.181 250.53Z" stroke="white" stroke-linecap="round" stroke-linejoin="round"/>
<path d="M400.298 299.105L418.159 352.408L372.046 340.715L320.457 355.891L353.501 412.179M353.501 412.179L306.206 445.455L333.276 451.674L353.501 412.179ZM353.501 412.179L375.282 416.968L360.222 368.828" stroke="white" stroke-linecap="round" stroke-linejoin="round"/>
<path d="M352.256 263.965L270.672 273.232" stroke="white" stroke-linecap="round" stroke-linejoin="round"/>
<path d="M260.591 307.627L222.381 263.405" stroke="white" stroke-linecap="round" stroke-linejoin="round"/>
<path d="M466.387 445.766L444.855 435.13L445.976 420.514" stroke="white" stroke-linecap="round" stroke-linejoin="round"/>
<path d="M479.269 456.215L462.902 473.07L451.203 484.328L457.862 473.63L443.051 472.635L437.139 474.874L430.356 479.787L411.624 492.787L388.661 507.465L361.28 524.756L332.654 543.042L300.854 568.791L298.116 604.243L288.843 651.451" stroke="white" stroke-linecap="round" stroke-linejoin="round"/>
<path d="M443.362 465.233L443.051 472.635" stroke="white" stroke-linecap="round" stroke-linejoin="round"/>
<path d="M444.918 480.596L441.868 497.016L426.933 518.847L415.047 508.087L380.074 481.156L361.28 524.756L308.944 485.634L268.37 507.092L301.787 463.803M301.787 463.803L263.018 429.222L260.84 447.321L247.087 448.938L258.351 460.755L245.593 469.712L217.901 476.802L259.72 478.295L286.977 463.617L301.787 463.803Z" stroke="white" stroke-linecap="round" stroke-linejoin="round"/>
<path d="M415.047 508.087L434.214 503.484L450.27 504.293" stroke="white" stroke-linecap="round" stroke-linejoin="round"/>
<g opacity="0.5" filter="url(#filter0_f_3760_20775)">
<path d="M347.154 413.299C347.776 416.845 351.136 419.208 354.621 418.586C358.168 417.964 360.533 414.543 359.911 411.06C359.289 407.515 355.928 405.152 352.381 405.774C348.834 406.396 346.531 409.754 347.154 413.299Z" fill="white"/>
<path d="M386.172 311.919C386.545 314.034 388.537 315.464 390.653 315.091C392.768 314.718 394.2 312.665 393.826 310.55C393.453 308.436 391.462 307.067 389.284 307.441C387.168 307.814 385.799 309.804 386.172 311.919Z" fill="white"/>
<path d="M414.114 353.466C414.487 355.581 416.541 357.011 418.657 356.638C420.772 356.265 422.141 354.213 421.768 352.098C421.395 349.983 419.403 348.553 417.287 348.926C415.172 349.299 413.74 351.352 414.114 353.466Z" fill="white"/>
<path d="M409.384 408.386C409.758 410.501 411.811 411.869 413.927 411.496C416.043 411.123 417.474 409.133 417.101 407.018C416.665 404.903 414.674 403.473 412.558 403.846C410.442 404.219 409.011 406.272 409.384 408.386Z" fill="white"/>
<path d="M397.249 538.937C397.623 541.052 399.676 542.483 401.792 542.109C403.908 541.736 405.277 539.746 404.904 537.569C404.53 535.454 402.539 534.086 400.423 534.459C398.307 534.832 396.876 536.823 397.249 538.937Z" fill="white"/>
<path d="M361.653 582.475C362.027 584.59 364.08 586.021 366.196 585.647C368.312 585.274 369.743 583.284 369.37 581.169C368.996 578.992 366.943 577.624 364.827 577.997C362.711 578.37 361.28 580.361 361.653 582.475Z" fill="white"/>
<path d="M377.896 549.822C378.269 551.936 380.26 553.367 382.376 552.994C384.492 552.621 385.923 550.568 385.55 548.453C385.177 546.339 383.185 544.97 381.069 545.343C378.891 545.717 377.522 547.707 377.896 549.822Z" fill="white"/>
<path d="M456.368 530.603C456.742 532.718 458.733 534.148 460.849 533.775C462.965 533.402 464.396 531.349 464.023 529.235C463.649 527.12 461.596 525.689 459.48 526.063C457.364 526.436 455.995 528.488 456.368 530.603Z" fill="white"/>
<path d="M330.289 452.67C330.663 454.785 332.654 456.215 334.77 455.842C336.886 455.469 338.317 453.479 337.943 451.364C337.57 449.187 335.579 447.819 333.401 448.192C331.285 448.565 329.916 450.556 330.289 452.67Z" fill="white"/>
<path d="M258.973 393.894C259.346 396.009 261.4 397.44 263.516 397.066C265.632 396.693 267.063 394.703 266.69 392.588C266.254 390.411 264.263 389.043 262.147 389.416C260.031 389.789 258.6 391.78 258.973 393.894Z" fill="white"/>
<path d="M201.908 326.784C202.281 328.899 204.272 330.33 206.388 329.957C208.504 329.583 209.935 327.593 209.562 325.478C209.189 323.301 207.135 321.933 205.019 322.306C202.903 322.679 201.534 324.67 201.908 326.784Z" fill="white"/>
<path d="M251.07 350.17C251.443 352.285 253.497 353.715 255.613 353.342C257.728 352.969 259.16 350.916 258.724 348.802C258.351 346.687 256.359 345.256 254.244 345.63C252.128 346.003 250.696 348.055 251.07 350.17Z" fill="white"/>
<path d="M330.6 313.909C330.974 316.024 333.027 317.455 335.143 317.081C337.259 316.708 338.69 314.718 338.317 312.603C337.943 310.426 335.89 309.058 333.774 309.431C331.658 309.804 330.227 311.795 330.6 313.909Z" fill="white"/>
<path d="M356.426 369.825C356.799 371.939 358.853 373.308 360.969 372.935C363.085 372.561 364.516 370.571 364.143 368.456C363.769 366.342 361.716 364.911 359.6 365.284C357.484 365.657 356.053 367.71 356.426 369.825Z" fill="white"/>
<path d="M296.996 569.04C297.369 571.155 299.361 572.586 301.476 572.213C303.592 571.839 305.023 569.787 304.65 567.672C304.277 565.557 302.223 564.127 300.107 564.5C297.991 564.873 296.622 566.926 296.996 569.04Z" fill="white"/>
<path d="M334.521 611.707C334.894 613.822 336.886 615.253 339.064 614.879C341.179 614.506 342.549 612.454 342.175 610.339C341.802 608.224 339.81 606.856 337.695 607.229C335.579 607.602 334.147 609.593 334.521 611.707Z" fill="white"/>
<path d="M289.466 519.905C289.839 522.02 291.893 523.45 294.009 523.077C296.125 522.704 297.556 520.652 297.183 518.537C296.809 516.422 294.756 515.054 292.64 515.427C290.524 515.8 289.093 517.79 289.466 519.905Z" fill="white"/>
<path d="M198.672 365.471C199.045 367.585 201.099 369.016 203.214 368.643C205.33 368.27 206.699 366.217 206.326 364.102C205.953 361.988 203.961 360.557 201.845 360.93C199.73 361.303 198.298 363.356 198.672 365.471Z" fill="white"/>
<path d="M200.663 405.774C201.036 407.889 203.028 409.319 205.143 408.946C207.321 408.573 208.691 406.52 208.317 404.406C207.944 402.291 205.952 400.86 203.837 401.234C201.721 401.607 200.289 403.659 200.663 405.774Z" fill="white"/>
<path d="M214.042 477.425C214.416 479.601 216.469 480.97 218.585 480.597C220.701 480.223 222.132 478.233 221.759 476.118C221.386 474.004 219.332 472.573 217.216 472.946C215.1 473.32 213.669 475.31 214.042 477.425Z" fill="white"/>
<path d="M339.997 584.341C340.37 586.456 342.424 587.824 344.54 587.451C346.656 587.078 348.025 585.088 347.651 582.973C347.278 580.858 345.287 579.428 343.171 579.801C341.055 580.174 339.624 582.164 339.997 584.341Z" fill="white"/>
<path d="M340.682 283.433C341.055 285.548 343.046 286.978 345.162 286.605C347.278 286.232 348.709 284.179 348.336 282.065C347.963 279.95 345.971 278.582 343.855 278.955C341.74 279.328 340.308 281.318 340.682 283.433Z" fill="white"/>
<path d="M280.318 251.277C280.691 253.391 282.683 254.822 284.799 254.449C286.914 254.076 288.346 252.085 287.972 249.971C287.599 247.794 285.545 246.425 283.43 246.798C281.314 247.172 279.945 249.162 280.318 251.277Z" fill="white"/>
<path d="M400.734 400.55C401.107 402.664 403.161 404.095 405.277 403.722C407.393 403.349 408.824 401.296 408.451 399.181C408.077 397.067 406.024 395.636 403.908 396.009C401.792 396.383 400.361 398.435 400.734 400.55Z" fill="white"/>
<path d="M433.032 422.816C433.405 424.93 435.397 426.361 437.512 425.988C439.628 425.614 441.06 423.562 440.686 421.447C440.313 419.333 438.321 417.902 436.206 418.337C434.09 418.711 432.658 420.701 433.032 422.816Z" fill="white"/>
<path d="M313.362 413.051C313.985 416.534 317.345 418.897 320.892 418.276C324.377 417.654 326.742 414.295 326.12 410.75C325.497 407.267 322.137 404.903 318.59 405.525C315.105 406.147 312.74 409.506 313.362 413.051Z" fill="white"/>
<path d="M443.86 505.413C444.482 508.958 447.843 511.322 451.39 510.7C454.937 510.078 457.302 506.719 456.679 503.174C456.057 499.629 452.697 497.328 449.149 497.95C445.602 498.571 443.237 501.93 443.86 505.413Z" fill="white"/>
<path d="M420.337 520.03C420.959 523.575 424.319 525.939 427.867 525.254C431.414 524.632 433.716 521.274 433.094 517.791C432.472 514.246 429.111 511.882 425.564 512.504C422.079 513.126 419.714 516.485 420.337 520.03Z" fill="white"/>
<path d="M442.428 547.956C442.802 550.071 444.793 551.501 446.909 551.128C449.025 550.755 450.456 548.702 450.083 546.588C449.709 544.473 447.656 543.105 445.54 543.478C443.424 543.851 442.055 545.841 442.428 547.956Z" fill="white"/>
<path d="M412.247 559.898C412.869 563.381 416.229 565.744 419.777 565.122C423.324 564.5 425.688 561.142 425.066 557.596C424.444 554.113 421.021 551.75 417.536 552.372C413.989 552.994 411.624 556.352 412.247 559.898Z" fill="white"/>
<path d="M401.605 576.318C402.228 579.863 405.588 582.164 409.135 581.542C412.62 580.92 414.985 577.562 414.363 574.016C413.74 570.533 410.38 568.17 406.833 568.792C403.348 569.414 400.983 572.772 401.605 576.318Z" fill="white"/>
<path d="M441.122 591.432C441.744 594.977 445.104 597.34 448.652 596.718C452.199 596.097 454.563 592.738 453.941 589.193C453.319 585.647 449.958 583.284 446.411 583.906C442.864 584.528 440.499 587.887 441.122 591.432Z" fill="white"/>
<path d="M354.621 525.689C355.244 529.234 358.604 531.598 362.151 530.976C365.698 530.354 368.063 526.995 367.441 523.45C366.818 519.905 363.458 517.541 359.911 518.163C356.364 518.785 353.999 522.144 354.621 525.689Z" fill="white"/>
<path d="M321.826 544.908C322.884 550.879 328.547 554.86 334.521 553.802C340.495 552.807 344.478 547.085 343.42 541.114C342.362 535.143 336.699 531.163 330.725 532.22C324.751 533.277 320.768 538.937 321.826 544.908Z" fill="white"/>
<path d="M253.061 533.775C254.119 539.746 259.844 543.727 265.818 542.669C271.73 541.612 275.775 535.952 274.717 529.981C273.659 524.01 267.934 520.03 261.96 521.087C255.986 522.144 252.003 527.804 253.061 533.775Z" fill="white"/>
<path d="M439.504 452.609C440.126 456.154 443.486 458.517 447.034 457.895C450.581 457.273 452.945 453.852 452.323 450.369C451.701 446.824 448.278 444.461 444.793 445.083C441.246 445.705 438.881 449.063 439.504 452.609Z" fill="white"/>
<path d="M434.027 436.873C435.085 442.844 440.748 446.824 446.722 445.767C452.697 444.71 456.679 439.05 455.621 433.079C454.563 427.108 448.9 423.127 442.926 424.185C436.952 425.242 432.969 430.902 434.027 436.873Z" fill="white"/>
<path d="M389.035 421.696C389.657 425.242 393.017 427.605 396.565 426.983C400.049 426.361 402.414 423.003 401.792 419.457C401.17 415.912 397.809 413.549 394.262 414.171C390.777 414.793 388.412 418.213 389.035 421.696Z" fill="white"/>
<path d="M414.923 435.94C415.545 439.423 418.905 441.786 422.452 441.164C426 440.542 428.364 437.184 427.742 433.638C427.058 430.155 423.697 427.792 420.212 428.414C416.665 429.036 414.3 432.394 414.923 435.94Z" fill="white"/>
<path d="M348.46 264.649C348.834 266.764 350.825 268.195 352.941 267.821C355.057 267.448 356.488 265.396 356.115 263.281C355.741 261.166 353.75 259.736 351.572 260.109C349.456 260.482 348.087 262.535 348.46 264.649Z" fill="white"/>
<path d="M393.329 300.35C393.951 303.833 397.311 306.197 400.858 305.575C404.406 304.953 406.77 301.594 406.148 298.049C405.526 294.566 402.165 292.203 398.618 292.824C395.071 293.446 392.706 296.805 393.329 300.35Z" fill="white"/>
<path d="M422.515 346.19C423.199 349.735 426.56 352.098 430.045 351.476C433.592 350.854 435.957 347.496 435.334 343.951C434.712 340.405 431.352 338.042 427.804 338.664C424.257 339.286 421.893 342.644 422.515 346.19Z" fill="white"/>
<path d="M388.288 370.322C388.91 373.805 392.271 376.168 395.818 375.546C399.365 374.924 401.73 371.565 401.107 368.02C400.485 364.537 397.125 362.174 393.577 362.796C390.03 363.418 387.666 366.776 388.288 370.322Z" fill="white"/>
<path d="M254.243 308.747C254.866 312.292 258.226 314.655 261.773 314.033C265.258 313.411 267.623 310.053 267.001 306.508C266.378 302.962 263.018 300.599 259.471 301.221C255.986 301.843 253.621 305.202 254.243 308.747Z" fill="white"/>
<path d="M259.533 275.222C260.591 281.193 266.254 285.174 272.228 284.116C278.202 283.059 282.185 277.337 281.127 271.366C280.069 265.395 274.406 261.415 268.432 262.472C262.458 263.529 258.475 269.251 259.533 275.222Z" fill="white"/>
<path d="M273.97 420.701C274.593 424.247 278.015 426.61 281.5 425.988C285.047 425.366 287.412 422.007 286.79 418.462C286.168 414.917 282.807 412.554 279.26 413.175C275.713 413.797 273.348 417.156 273.97 420.701Z" fill="white"/>
<path d="M250.012 449.249C251.07 455.22 256.795 459.201 262.769 458.144C268.743 457.086 272.726 451.364 271.668 445.455C270.61 439.485 264.885 435.504 258.973 436.499C252.999 437.556 249.016 443.279 250.012 449.249Z" fill="white"/>
<path d="M296.685 459.947C297.307 463.492 300.667 465.856 304.215 465.234C307.762 464.612 310.126 461.191 309.504 457.708C308.882 454.163 305.521 451.799 301.974 452.421C298.427 453.043 296.062 456.402 296.685 459.947Z" fill="white"/>
<path d="M280.629 486.568C281.003 488.682 283.056 490.113 285.172 489.74C287.288 489.367 288.657 487.376 288.284 485.262C287.91 483.147 285.919 481.716 283.803 482.089C281.687 482.463 280.256 484.453 280.629 486.568Z" fill="white"/>
<path d="M261.836 508.212C262.458 511.757 265.818 514.121 269.365 513.499C272.913 512.877 275.215 509.518 274.593 505.973C273.97 502.428 270.61 500.126 267.063 500.748C263.578 501.37 261.213 504.729 261.836 508.212Z" fill="white"/>
<path d="M339.81 490.424C340.184 492.538 342.237 493.969 344.353 493.596C346.469 493.223 347.9 491.17 347.527 489.055C347.091 486.941 345.1 485.572 342.984 485.946C340.868 486.319 339.437 488.309 339.81 490.424Z" fill="white"/>
<path d="M373.664 482.276C374.286 485.821 377.647 488.185 381.194 487.563C384.741 486.941 387.106 483.582 386.483 480.037C385.861 476.492 382.501 474.128 378.953 474.75C375.406 475.372 373.041 478.731 373.664 482.276Z" fill="white"/>
<path d="M368.25 341.4C368.623 343.514 370.615 344.945 372.73 344.572C374.846 344.199 376.278 342.146 375.904 340.031C375.531 337.917 373.539 336.548 371.424 336.922C369.245 337.295 367.876 339.285 368.25 341.4Z" fill="white"/>
<path d="M309.94 358.318C310.998 364.289 316.723 368.269 322.697 367.212C328.671 366.155 332.654 360.495 331.596 354.524C330.538 348.553 324.813 344.572 318.839 345.63C312.865 346.687 308.882 352.347 309.94 358.318Z" fill="white"/>
<path d="M429.671 404.779C430.293 408.324 433.654 410.688 437.201 410.066C440.748 409.444 443.113 406.085 442.491 402.54C441.868 398.995 438.446 396.631 434.961 397.253C431.414 397.875 429.049 401.234 429.671 404.779Z" fill="white"/>
<path d="M421.643 473.444C422.266 476.989 425.688 479.353 429.173 478.731C432.721 478.109 435.085 474.688 434.463 471.205C433.841 467.66 430.48 465.296 426.933 465.918C423.386 466.54 421.021 469.899 421.643 473.444Z" fill="white"/>
</g>
<path d="M517.914 649.958L590.351 559.959L475.1 551.438L517.914 649.958Z" stroke="white" stroke-width="0.9" stroke-linecap="round" stroke-linejoin="round"/>
<path d="M72.6548 563.878L225.617 568.605L142.664 440.044L72.6548 563.878Z" stroke="white" stroke-width="0.9" stroke-linecap="round" stroke-linejoin="round"/>
<path d="M58.9018 244.995L211.927 249.721L128.973 121.161L58.9018 244.995Z" stroke="white" stroke-width="0.9" stroke-linecap="round" stroke-linejoin="round"/>
<path d="M131.463 679.875L186.288 537.009L37.4944 573.021L131.463 679.875Z" stroke="white" stroke-width="0.9" stroke-linecap="round" stroke-linejoin="round"/>
<path d="M224.559 298.484L279.385 155.618L130.591 191.63L224.559 298.484Z" stroke="white" stroke-width="0.9" stroke-linecap="round" stroke-linejoin="round"/>
<path opacity="0.1" d="M444.793 638.017L559.795 626.572L485.056 538.439L444.793 638.017Z" fill="white"/>
<path opacity="0.1" d="M200.103 651.762L281.5 569.786L167.743 549.324L200.103 651.762Z" fill="white"/>
<path opacity="0.1" d="M213.358 436.934L232.961 323.114L128.102 371.627L213.358 436.934Z" fill="white"/>
<path opacity="0.1" d="M261.462 601.445L341.615 518.225L227.547 499.566L261.462 601.445Z" fill="white"/>
<path opacity="0.15" d="M275.215 375.795L197.738 375.857L241.797 439.547L275.215 375.795Z" fill="white"/>
<path opacity="0.1" d="M328.049 680.87L332.841 565.495L235.077 627.008L328.049 680.87Z" fill="white"/>
<path opacity="0.1" d="M397 280.695L401.854 165.32L304.028 226.833L397 280.695Z" fill="white"/>
<path opacity="0.1" d="M456.804 279.141L433.654 319.009L479.642 315.401L456.804 279.141Z" fill="white"/>
<path d="M536.085 537.755L514.616 530.852L521.088 552.434L536.085 537.755Z" stroke="white" stroke-width="0.9" stroke-linecap="round" stroke-linejoin="round"/>
<g filter="url(#filter1_f_3760_20775)">
<path d="M134.543 339.752C134.629 340.25 135.103 340.584 135.601 340.498C136.099 340.412 136.434 339.938 136.348 339.44C136.262 338.942 135.788 338.608 135.29 338.694C134.792 338.78 134.457 339.253 134.543 339.752Z" fill="white"/>
<path d="M82.8295 379.029C82.9154 379.51 83.3752 379.83 83.8561 379.744C84.337 379.658 84.6577 379.199 84.5718 378.718C84.4859 378.237 84.0261 377.917 83.5452 378.003C83.0642 378.088 82.7435 378.548 82.8295 379.029Z" fill="white"/>
<path d="M135.107 369.817C135.191 370.301 135.652 370.624 136.135 370.538C136.614 370.452 136.934 369.996 136.852 369.516L136.841 369.457C136.758 368.973 136.297 368.65 135.814 368.736C135.335 368.822 135.014 369.278 135.097 369.758L135.107 369.817Z" fill="white"/>
<path d="M83.2651 341.773C83.351 342.254 83.8108 342.574 84.2917 342.488C84.7727 342.402 85.0934 341.943 85.0075 341.462C84.9216 340.981 84.4617 340.661 83.9809 340.747C83.4999 340.833 83.1791 341.292 83.2651 341.773Z" fill="white"/>
<path d="M136.663 418.269C136.747 418.752 137.208 419.076 137.691 418.99C138.17 418.904 138.49 418.448 138.407 417.968L138.397 417.908C138.314 417.425 137.853 417.101 137.369 417.188C136.89 417.273 136.57 417.73 136.653 418.209L136.663 418.269Z" fill="white"/>
<path d="M116.683 384.627C116.769 385.108 117.229 385.428 117.709 385.342C118.19 385.256 118.511 384.797 118.425 384.316C118.339 383.835 117.879 383.515 117.399 383.601C116.918 383.687 116.597 384.146 116.683 384.627Z" fill="white"/>
<path d="M146.74 460.943C146.826 461.423 147.286 461.744 147.767 461.658C148.248 461.572 148.569 461.112 148.483 460.631C148.397 460.15 147.937 459.83 147.456 459.916C146.975 460.002 146.654 460.462 146.74 460.943Z" fill="white"/>
<path d="M148.235 509.399C148.32 509.877 148.776 510.197 149.256 510.115L149.317 510.104C149.8 510.021 150.124 509.56 150.037 509.077C149.952 508.598 149.496 508.278 149.016 508.361L148.955 508.371C148.472 508.455 148.148 508.916 148.235 509.399Z" fill="white"/>
<path d="M128.259 475.75C128.344 476.229 128.8 476.549 129.28 476.466L129.341 476.456C129.824 476.372 130.148 475.911 130.061 475.428C129.976 474.95 129.52 474.63 129.041 474.712L128.979 474.723C128.496 474.806 128.172 475.267 128.259 475.75Z" fill="white"/>
<path d="M143.006 246.923C143.092 247.404 143.552 247.724 144.033 247.638C144.514 247.552 144.835 247.093 144.749 246.612C144.663 246.131 144.203 245.811 143.722 245.897C143.241 245.983 142.92 246.442 143.006 246.923Z" fill="white"/>
<path d="M123.03 213.275C123.116 213.756 123.576 214.076 124.057 213.99C124.538 213.904 124.859 213.444 124.773 212.963C124.687 212.483 124.227 212.162 123.746 212.248C123.265 212.334 122.945 212.794 123.03 213.275Z" fill="white"/>
<path d="M84.075 190.018C84.1605 190.497 84.6166 190.817 85.0959 190.734L85.1572 190.724C85.6407 190.64 85.9641 190.179 85.8778 189.696C85.7922 189.218 85.3361 188.898 84.8568 188.98L84.7955 188.991C84.312 189.074 83.9887 189.535 84.075 190.018Z" fill="white"/>
<path d="M32.3614 229.264C32.447 229.743 32.9031 230.063 33.3824 229.98L33.4436 229.97C33.9271 229.886 34.2504 229.426 34.1641 228.943C34.0786 228.464 33.6225 228.144 33.1432 228.226L33.082 228.237C32.5985 228.32 32.2751 228.781 32.3614 229.264Z" fill="white"/>
<path d="M84.6351 220.06C84.7207 220.538 85.1767 220.858 85.6561 220.776L85.7173 220.765C86.2008 220.682 86.5241 220.221 86.4378 219.738C86.3523 219.259 85.8962 218.939 85.4169 219.022L85.3556 219.032C84.8721 219.116 84.5488 219.577 84.6351 220.06Z" fill="white"/>
<path d="M32.7962 192.034C32.8821 192.532 33.3559 192.866 33.8539 192.781C34.3521 192.695 34.6867 192.221 34.6008 191.723C34.5149 191.225 34.0411 190.891 33.5431 190.977C33.0449 191.063 32.7102 191.536 32.7962 192.034Z" fill="white"/>
<path d="M117.496 232.86C117.58 233.344 118.041 233.667 118.524 233.581C119.003 233.495 119.323 233.039 119.24 232.559L119.23 232.5C119.147 232.016 118.686 231.693 118.202 231.779C117.723 231.864 117.403 232.321 117.486 232.801L117.496 232.86Z" fill="white"/>
<path d="M86.1899 268.505C86.2758 268.986 86.7356 269.306 87.2165 269.22C87.6975 269.134 88.0182 268.675 87.9322 268.194C87.8463 267.713 87.3865 267.393 86.9056 267.479C86.4246 267.565 86.1039 268.024 86.1899 268.505Z" fill="white"/>
<path d="M66.2139 234.857C66.2998 235.338 66.7597 235.658 67.2405 235.572C67.7215 235.486 68.0423 235.026 67.9563 234.545C67.8704 234.065 67.4106 233.744 66.9297 233.83C66.4487 233.916 66.128 234.376 66.2139 234.857Z" fill="white"/>
<path d="M134.605 304.424C134.691 304.922 135.165 305.256 135.663 305.171C136.161 305.085 136.496 304.611 136.41 304.113C136.324 303.615 135.85 303.281 135.352 303.367C134.854 303.453 134.519 303.926 134.605 304.424Z" fill="white"/>
<path d="M96.2754 311.228C96.3588 311.711 96.8199 312.035 97.303 311.949C97.7822 311.863 98.1024 311.407 98.0196 310.927L98.0094 310.867C97.9259 310.384 97.4649 310.06 96.9818 310.147C96.5026 310.232 96.1824 310.689 96.2651 311.168L96.2754 311.228Z" fill="white"/>
<path d="M126.516 272.055C126.602 272.534 127.058 272.854 127.537 272.771L127.598 272.761C128.082 272.677 128.405 272.217 128.319 271.734C128.233 271.255 127.777 270.935 127.298 271.017L127.237 271.028C126.753 271.111 126.43 271.572 126.516 272.055Z" fill="white"/>
<path d="M129.129 323.985C129.215 324.465 129.675 324.786 130.156 324.7C130.637 324.614 130.957 324.154 130.871 323.673C130.785 323.192 130.326 322.872 129.845 322.958C129.364 323.044 129.043 323.504 129.129 323.985Z" fill="white"/>
<path d="M97.8312 359.679C97.9146 360.163 98.3756 360.486 98.8588 360.4C99.338 360.315 99.6581 359.858 99.5754 359.379L99.5651 359.319C99.4817 358.835 99.0207 358.512 98.5375 358.598C98.0583 358.684 97.7382 359.14 97.8209 359.62L97.8312 359.679Z" fill="white"/>
<path d="M77.7888 326.006C77.8748 326.504 78.3485 326.839 78.8466 326.753C79.3447 326.667 79.6794 326.193 79.5934 325.695C79.5075 325.197 79.0338 324.863 78.5357 324.949C78.0376 325.035 77.7029 325.508 77.7888 326.006Z" fill="white"/>
<path d="M251.413 106.923C251.499 107.402 251.955 107.722 252.434 107.639L252.495 107.628C252.979 107.545 253.302 107.084 253.216 106.601C253.13 106.122 252.674 105.803 252.195 105.885L252.134 105.896C251.65 105.979 251.327 106.44 251.413 106.923Z" fill="white"/>
<path d="M220.177 142.612C220.26 143.096 220.721 143.419 221.204 143.333C221.683 143.247 222.003 142.791 221.921 142.311L221.91 142.252C221.827 141.768 221.366 141.445 220.883 141.531C220.404 141.616 220.084 142.073 220.166 142.553L220.177 142.612Z" fill="white"/>
<path d="M200.132 108.961C200.219 109.448 200.683 109.773 201.17 109.689L201.207 109.683C201.697 109.598 202.026 109.133 201.941 108.643C201.855 108.141 201.37 107.811 200.872 107.914L200.836 107.922C200.358 108.021 200.047 108.481 200.132 108.961Z" fill="white"/>
<path d="M161.24 85.6774C161.326 86.1754 161.8 86.5094 162.298 86.4236C162.796 86.3377 163.131 85.8642 163.045 85.366C162.959 84.868 162.485 84.534 161.987 84.6198C161.489 84.7057 161.154 85.1792 161.24 85.6774Z" fill="white"/>
<path d="M109.526 124.955C109.612 125.436 110.072 125.756 110.553 125.67C111.034 125.584 111.355 125.125 111.269 124.644C111.183 124.163 110.723 123.843 110.242 123.928C109.761 124.014 109.44 124.474 109.526 124.955Z" fill="white"/>
<path d="M161.804 115.743C161.888 116.227 162.349 116.55 162.832 116.464C163.311 116.379 163.631 115.922 163.548 115.443L163.538 115.383C163.455 114.899 162.994 114.576 162.511 114.662C162.031 114.748 161.711 115.204 161.794 115.684L161.804 115.743Z" fill="white"/>
<path d="M109.962 87.6995C110.048 88.1803 110.508 88.5004 110.989 88.4146C111.47 88.3288 111.79 87.8691 111.704 87.3882C111.618 86.9073 111.159 86.5872 110.678 86.673C110.197 86.7589 109.876 87.2185 109.962 87.6995Z" fill="white"/>
<path d="M194.658 128.5C194.744 128.981 195.203 129.301 195.684 129.215C196.165 129.13 196.486 128.67 196.4 128.189C196.314 127.708 195.854 127.388 195.373 127.474C194.892 127.56 194.572 128.019 194.658 128.5Z" fill="white"/>
<path d="M228.822 259.393C228.908 259.891 229.382 260.225 229.88 260.139C230.378 260.054 230.713 259.58 230.627 259.082C230.541 258.584 230.067 258.25 229.569 258.336C229.071 258.421 228.736 258.895 228.822 259.393Z" fill="white"/>
<path d="M208.846 225.745C208.932 226.243 209.406 226.577 209.904 226.491C210.402 226.405 210.737 225.932 210.651 225.433C210.565 224.935 210.091 224.601 209.593 224.687C209.095 224.773 208.76 225.247 208.846 225.745Z" fill="white"/>
<path d="M203.37 245.306C203.456 245.787 203.916 246.107 204.397 246.021C204.878 245.935 205.198 245.476 205.112 244.995C205.026 244.514 204.567 244.194 204.086 244.279C203.605 244.365 203.284 244.825 203.37 245.306Z" fill="white"/>
<path d="M163.36 164.195C163.443 164.678 163.904 165.002 164.388 164.915C164.867 164.83 165.187 164.373 165.104 163.894L165.094 163.834C165.01 163.351 164.549 163.027 164.066 163.113C163.587 163.199 163.267 163.655 163.35 164.135L163.36 164.195Z" fill="white"/>
<path d="M143.38 130.553C143.466 131.034 143.926 131.354 144.406 131.268C144.887 131.182 145.208 130.723 145.122 130.242C145.036 129.761 144.576 129.441 144.096 129.527C143.615 129.612 143.294 130.072 143.38 130.553Z" fill="white"/>
<path d="M211.771 200.089C211.857 200.569 212.317 200.89 212.798 200.804C213.279 200.718 213.599 200.258 213.513 199.777C213.428 199.296 212.968 198.976 212.487 199.062C212.006 199.148 211.685 199.608 211.771 200.089Z" fill="white"/>
<path d="M254.959 165.694C255.045 166.175 255.505 166.495 255.986 166.409C256.467 166.323 256.787 165.864 256.701 165.383C256.615 164.902 256.156 164.582 255.675 164.668C255.194 164.754 254.873 165.213 254.959 165.694Z" fill="white"/>
<path d="M276.117 128.189C276.203 128.67 276.663 128.99 277.144 128.904C277.625 128.819 277.946 128.359 277.86 127.878C277.774 127.397 277.314 127.077 276.833 127.163C276.352 127.249 276.031 127.708 276.117 128.189Z" fill="white"/>
<path d="M173.437 206.868C173.523 207.349 173.983 207.669 174.464 207.584C174.945 207.498 175.265 207.038 175.179 206.557C175.094 206.076 174.634 205.756 174.153 205.842C173.672 205.928 173.351 206.387 173.437 206.868Z" fill="white"/>
<path d="M203.685 167.74C203.769 168.224 204.23 168.547 204.713 168.461C205.192 168.375 205.512 167.919 205.43 167.439L205.419 167.38C205.336 166.896 204.875 166.573 204.392 166.659C203.913 166.744 203.592 167.201 203.675 167.681L203.685 167.74Z" fill="white"/>
<path d="M361.374 161.905C361.46 162.384 361.916 162.704 362.395 162.621L362.456 162.61C362.94 162.527 363.263 162.066 363.177 161.583C363.091 161.104 362.635 160.784 362.156 160.867L362.095 160.878C361.611 160.961 361.288 161.422 361.374 161.905Z" fill="white"/>
<path d="M292.174 134.725C292.259 135.203 292.715 135.523 293.195 135.441L293.256 135.43C293.74 135.347 294.063 134.886 293.977 134.403C293.891 133.924 293.435 133.604 292.956 133.687L292.894 133.697C292.411 133.781 292.088 134.242 292.174 134.725Z" fill="white"/>
<path d="M240.895 136.741C240.981 137.239 241.455 137.573 241.953 137.488C242.451 137.402 242.786 136.928 242.7 136.43C242.614 135.932 242.14 135.598 241.642 135.684C241.144 135.77 240.809 136.243 240.895 136.741Z" fill="white"/>
<path d="M27.383 286.05C27.4685 286.529 27.9246 286.849 28.4039 286.766L28.4652 286.755C28.9487 286.672 29.272 286.211 29.1857 285.728C29.1001 285.249 28.6441 284.929 28.1647 285.012L28.1035 285.023C27.62 285.106 27.2967 285.567 27.383 286.05Z" fill="white"/>
<path d="M52.0918 307.309C52.1752 307.793 52.6363 308.116 53.1194 308.03C53.5986 307.945 53.9188 307.488 53.836 307.008L53.8258 306.949C53.7423 306.465 53.2813 306.142 52.7982 306.228C52.319 306.314 51.9988 306.77 52.0815 307.25L52.0918 307.309Z" fill="white"/>
<path d="M473.948 273.761C474.034 274.259 473.7 274.732 473.201 274.818C472.703 274.904 472.23 274.57 472.144 274.072C472.058 273.574 472.393 273.1 472.891 273.014C473.389 272.929 473.862 273.263 473.948 273.761Z" fill="white"/>
<path d="M385.705 207.21C385.791 207.708 385.457 208.181 384.958 208.267C384.46 208.353 383.987 208.019 383.901 207.521C383.815 207.023 384.149 206.549 384.648 206.464C385.146 206.378 385.619 206.712 385.705 207.21Z" fill="white"/>
<path d="M392.93 168.807C393.013 169.287 392.693 169.743 392.214 169.829C391.73 169.915 391.269 169.592 391.186 169.108L391.176 169.049C391.093 168.569 391.413 168.113 391.892 168.027C392.375 167.941 392.836 168.264 392.92 168.748L392.93 168.807Z" fill="white"/>
<path d="M442.522 127.691C442.608 128.172 442.287 128.632 441.806 128.718C441.325 128.804 440.865 128.484 440.779 128.003C440.693 127.522 441.014 127.062 441.495 126.976C441.976 126.89 442.436 127.211 442.522 127.691Z" fill="white"/>
<path d="M504.572 146.914C504.654 147.394 504.334 147.85 503.855 147.936C503.372 148.022 502.911 147.699 502.827 147.215L502.817 147.156C502.734 146.676 503.055 146.219 503.534 146.134C504.017 146.048 504.478 146.371 504.561 146.855L504.572 146.914Z" fill="white"/>
<path d="M452.292 156.116C452.378 156.597 452.057 157.056 451.576 157.142C451.095 157.228 450.636 156.908 450.55 156.427C450.464 155.946 450.784 155.486 451.265 155.401C451.746 155.315 452.206 155.635 452.292 156.116Z" fill="white"/>
<path d="M491.434 112.013C491.52 112.496 491.197 112.957 490.714 113.04L490.652 113.051C490.173 113.133 489.717 112.813 489.631 112.335C489.545 111.852 489.868 111.391 490.352 111.307L490.413 111.297C490.892 111.214 491.348 111.534 491.434 112.013Z" fill="white"/>
<path d="M404.816 185.289C404.899 185.769 404.579 186.225 404.1 186.311C403.616 186.397 403.155 186.074 403.072 185.59L403.062 185.531C402.979 185.051 403.299 184.594 403.778 184.509C404.261 184.423 404.722 184.746 404.806 185.23L404.816 185.289Z" fill="white"/>
<path d="M182.46 332.07C182.546 332.551 182.226 333.011 181.745 333.097C181.264 333.183 180.804 332.862 180.718 332.382C180.632 331.901 180.953 331.441 181.434 331.355C181.915 331.269 182.375 331.589 182.46 332.07Z" fill="white"/>
<path d="M232.058 290.99C232.144 291.488 231.81 291.961 231.311 292.047C230.813 292.133 230.34 291.799 230.254 291.301C230.168 290.803 230.502 290.329 231.001 290.243C231.499 290.158 231.972 290.492 232.058 290.99Z" fill="white"/>
<path d="M314.706 281.197C314.789 281.677 314.469 282.133 313.99 282.219C313.507 282.305 313.046 281.981 312.962 281.498L312.952 281.438C312.869 280.959 313.189 280.502 313.669 280.417C314.152 280.33 314.613 280.654 314.696 281.137L314.706 281.197Z" fill="white"/>
<path d="M194.346 348.552C194.432 349.033 194.112 349.493 193.631 349.579C193.15 349.664 192.69 349.344 192.604 348.864C192.518 348.383 192.839 347.923 193.32 347.837C193.801 347.751 194.261 348.071 194.346 348.552Z" fill="white"/>
<path d="M467.475 202.136C467.562 202.619 467.238 203.08 466.755 203.163L466.693 203.174C466.214 203.256 465.758 202.936 465.673 202.458C465.586 201.975 465.91 201.514 466.393 201.43L466.454 201.42C466.934 201.337 467.39 201.657 467.475 202.136Z" fill="white"/>
<path d="M474.695 163.703C474.781 164.184 474.46 164.644 473.979 164.73C473.498 164.815 473.039 164.495 472.953 164.014C472.867 163.533 473.187 163.074 473.668 162.988C474.149 162.902 474.609 163.222 474.695 163.703Z" fill="white"/>
<path d="M403.751 253.634C403.838 254.117 403.514 254.578 403.031 254.662L402.97 254.672C402.49 254.755 402.034 254.435 401.949 253.956C401.862 253.473 402.186 253.012 402.669 252.929L402.73 252.918C403.21 252.836 403.666 253.156 403.751 253.634Z" fill="white"/>
<path d="M451.234 249.473C451.32 249.954 450.999 250.414 450.518 250.5C450.038 250.585 449.578 250.265 449.492 249.784C449.406 249.303 449.727 248.844 450.208 248.758C450.688 248.672 451.148 248.992 451.234 249.473Z" fill="white"/>
<path d="M409.414 223.034C409.5 223.517 409.177 223.978 408.694 224.061L408.632 224.072C408.153 224.154 407.697 223.834 407.611 223.356C407.525 222.873 407.848 222.412 408.332 222.328L408.393 222.318C408.873 222.235 409.329 222.555 409.414 223.034Z" fill="white"/>
<path d="M424.785 272.73C424.872 273.213 424.548 273.674 424.065 273.757L424.004 273.767C423.524 273.85 423.068 273.53 422.983 273.051C422.896 272.568 423.22 272.107 423.703 272.024L423.764 272.014C424.244 271.931 424.7 272.251 424.785 272.73Z" fill="white"/>
<path d="M473.643 257.127C473.726 257.607 473.406 258.063 472.927 258.149C472.443 258.235 471.982 257.912 471.899 257.428L471.889 257.368C471.806 256.889 472.126 256.432 472.605 256.347C473.088 256.261 473.549 256.584 473.633 257.068L473.643 257.127Z" fill="white"/>
<path d="M364.796 337.046C364.882 337.527 364.561 337.986 364.08 338.072C363.599 338.158 363.139 337.838 363.054 337.357C362.968 336.876 363.288 336.417 363.769 336.331C364.25 336.245 364.71 336.565 364.796 337.046Z" fill="white"/>
<path d="M342.088 312.793C342.171 313.273 341.85 313.729 341.371 313.815C340.888 313.901 340.427 313.578 340.344 313.094L340.333 313.035C340.251 312.555 340.571 312.098 341.05 312.013C341.533 311.927 341.994 312.25 342.078 312.734L342.088 312.793Z" fill="white"/>
<path d="M315.634 335.989C315.72 336.47 315.399 336.929 314.918 337.015C314.437 337.101 313.977 336.781 313.891 336.3C313.805 335.819 314.126 335.359 314.607 335.274C315.088 335.188 315.548 335.508 315.634 335.989Z" fill="white"/>
<path d="M364.485 320.377C364.571 320.858 364.25 321.318 363.769 321.404C363.288 321.49 362.828 321.17 362.742 320.689C362.656 320.208 362.977 319.748 363.458 319.662C363.939 319.576 364.399 319.897 364.485 320.377Z" fill="white"/>
<path d="M298.458 129.682C298.544 130.163 298.223 130.622 297.742 130.708C297.262 130.794 296.802 130.474 296.716 129.993C296.63 129.512 296.951 129.052 297.432 128.966C297.912 128.881 298.372 129.201 298.458 129.682Z" fill="white"/>
<path d="M305.738 91.2389C305.825 91.7219 305.501 92.1829 305.018 92.2662L304.956 92.2767C304.477 92.3593 304.021 92.0394 303.935 91.5606C303.849 91.0776 304.172 90.6167 304.656 90.5334L304.717 90.5228C305.197 90.4402 305.653 90.7601 305.738 91.2389Z" fill="white"/>
<path d="M334.303 56.041C334.389 56.522 334.068 56.9816 333.587 57.0674C333.106 57.1533 332.646 56.8332 332.56 56.3523C332.475 55.8713 332.795 55.4117 333.276 55.3259C333.757 55.2401 334.217 55.5602 334.303 56.041Z" fill="white"/>
<path d="M396.347 75.2593C396.433 75.7402 396.112 76.1999 395.631 76.2857C395.15 76.3715 394.69 76.0514 394.604 75.5706C394.519 75.0896 394.839 74.63 395.32 74.5441C395.801 74.4583 396.261 74.7784 396.347 75.2593Z" fill="white"/>
<path d="M344.073 84.4643C344.159 84.9453 343.838 85.4049 343.357 85.4908C342.877 85.5766 342.417 85.2565 342.331 84.7756C342.245 84.2947 342.566 83.8351 343.047 83.7492C343.527 83.6634 343.987 83.9835 344.073 84.4643Z" fill="white"/>
<path d="M383.216 40.3983C383.302 40.8964 382.967 41.37 382.469 41.4558C381.971 41.5416 381.497 41.2076 381.411 40.7096C381.326 40.2114 381.66 39.7379 382.158 39.652C382.656 39.5662 383.13 39.9003 383.216 40.3983Z" fill="white"/>
<path d="M317.624 107.721C317.711 108.204 317.387 108.665 316.904 108.748L316.843 108.759C316.363 108.841 315.907 108.521 315.822 108.043C315.735 107.56 316.059 107.099 316.542 107.015L316.603 107.005C317.083 106.922 317.539 107.242 317.624 107.721Z" fill="white"/>
<path d="M184.702 371.944C184.787 372.423 185.243 372.743 185.723 372.66L185.784 372.649C186.267 372.566 186.591 372.105 186.504 371.622C186.419 371.143 185.963 370.824 185.484 370.906L185.422 370.917C184.939 371 184.615 371.461 184.702 371.944Z" fill="white"/>
<path d="M200.823 378.525C200.906 379.008 201.367 379.332 201.85 379.245C202.33 379.16 202.65 378.703 202.567 378.224L202.557 378.164C202.473 377.681 202.012 377.357 201.529 377.444C201.05 377.529 200.73 377.985 200.812 378.465L200.823 378.525Z" fill="white"/>
<path d="M207.104 373.462C207.19 373.96 206.855 374.434 206.357 374.52C205.859 374.606 205.385 374.272 205.299 373.774C205.213 373.275 205.548 372.802 206.046 372.716C206.544 372.63 207.018 372.964 207.104 373.462Z" fill="white"/>
<path d="M226.215 351.542C226.297 352.021 225.977 352.478 225.498 352.563C225.015 352.65 224.554 352.326 224.47 351.843L224.46 351.783C224.377 351.303 224.698 350.847 225.177 350.761C225.66 350.675 226.121 350.999 226.204 351.482L226.215 351.542Z" fill="white"/>
<path d="M359.257 130.521C359.343 131.019 359.009 131.493 358.51 131.578C358.012 131.664 357.539 131.33 357.453 130.832C357.367 130.334 357.701 129.86 358.2 129.775C358.698 129.689 359.171 130.023 359.257 130.521Z" fill="white"/>
<path d="M366.482 92.1188C366.565 92.5985 366.245 93.0549 365.766 93.1404C365.283 93.2267 364.822 92.9033 364.738 92.4197L364.728 92.3602C364.645 91.8805 364.965 91.424 365.444 91.3385C365.928 91.2523 366.389 91.5757 366.472 92.0593L366.482 92.1188Z" fill="white"/>
<path d="M326.026 180.87C326.112 181.351 325.792 181.811 325.311 181.897C324.83 181.982 324.37 181.662 324.284 181.181C324.198 180.7 324.519 180.241 325 180.155C325.481 180.069 325.94 180.389 326.026 180.87Z" fill="white"/>
<path d="M343.389 179.999C343.475 180.479 343.154 180.939 342.673 181.025C342.192 181.111 341.732 180.791 341.646 180.31C341.56 179.829 341.881 179.369 342.362 179.283C342.843 179.198 343.303 179.518 343.389 179.999Z" fill="white"/>
<path d="M322.541 147.657C322.627 148.138 322.307 148.597 321.826 148.683C321.345 148.769 320.885 148.449 320.799 147.968C320.713 147.487 321.034 147.027 321.515 146.942C321.996 146.856 322.456 147.176 322.541 147.657Z" fill="white"/>
<path d="M528.711 198.502C528.797 199 528.462 199.474 527.964 199.56C527.466 199.646 526.992 199.312 526.907 198.814C526.821 198.315 527.155 197.842 527.653 197.756C528.152 197.67 528.625 198.004 528.711 198.502Z" fill="white"/>
<path d="M570.342 221.292C570.429 221.775 570.105 222.236 569.622 222.319L569.561 222.33C569.081 222.413 568.625 222.093 568.54 221.614C568.453 221.131 568.777 220.67 569.26 220.587L569.322 220.576C569.801 220.493 570.257 220.813 570.342 221.292Z" fill="white"/>
<path d="M512.786 226.962C512.869 227.441 512.549 227.898 512.07 227.983C511.586 228.069 511.125 227.746 511.042 227.262L511.032 227.203C510.949 226.723 511.269 226.267 511.748 226.181C512.231 226.095 512.693 226.418 512.776 226.902L512.786 226.962Z" fill="white"/>
<path d="M38.0857 393.925C38.1716 394.423 38.6454 394.757 39.1434 394.671C39.6415 394.585 39.9762 394.112 39.8903 393.614C39.8044 393.116 39.3306 392.782 38.8326 392.867C38.3344 392.953 37.9997 393.427 38.0857 393.925Z" fill="white"/>
<path d="M3.79668 491.294C3.88259 491.775 4.34241 492.095 4.82328 492.009C5.30427 491.924 5.62497 491.464 5.53904 490.983C5.45313 490.502 4.99331 490.182 4.51244 490.268C4.03145 490.354 3.71075 490.813 3.79668 491.294Z" fill="white"/>
<path d="M453.039 459.822C453.125 460.303 452.804 460.763 452.323 460.849C451.842 460.935 451.382 460.614 451.296 460.134C451.21 459.653 451.531 459.193 452.012 459.107C452.493 459.021 452.953 459.341 453.039 459.822Z" fill="white"/>
<path d="M515.144 479.036C515.23 479.519 514.907 479.98 514.423 480.064L514.362 480.074C513.883 480.157 513.427 479.837 513.341 479.358C513.255 478.875 513.578 478.414 514.062 478.331L514.123 478.32C514.602 478.238 515.058 478.557 515.144 479.036Z" fill="white"/>
<path d="M462.809 488.246C462.895 488.727 462.574 489.187 462.093 489.273C461.612 489.358 461.153 489.038 461.067 488.557C460.981 488.076 461.301 487.617 461.782 487.531C462.263 487.445 462.723 487.765 462.809 488.246Z" fill="white"/>
<path d="M501.951 444.206C502.037 444.689 501.714 445.15 501.23 445.233L501.169 445.244C500.69 445.326 500.234 445.006 500.148 444.527C500.062 444.044 500.385 443.583 500.869 443.5L500.93 443.49C501.409 443.407 501.865 443.727 501.951 444.206Z" fill="white"/>
<path d="M477.993 534.303C478.079 534.801 477.745 535.275 477.246 535.361C476.748 535.446 476.275 535.112 476.189 534.614C476.103 534.116 476.437 533.643 476.936 533.557C477.434 533.471 477.907 533.805 477.993 534.303Z" fill="white"/>
<path d="M485.218 495.9C485.301 496.38 484.981 496.837 484.501 496.922C484.018 497.008 483.557 496.685 483.474 496.201L483.464 496.142C483.381 495.662 483.701 495.206 484.18 495.12C484.663 495.034 485.124 495.357 485.208 495.841L485.218 495.9Z" fill="white"/>
<path d="M483.157 577.867C483.244 578.35 482.92 578.811 482.437 578.894L482.376 578.905C481.896 578.987 481.44 578.667 481.355 578.189C481.268 577.706 481.592 577.245 482.075 577.161L482.136 577.151C482.616 577.068 483.072 577.388 483.157 577.867Z" fill="white"/>
<path d="M498.286 623.964C498.369 624.444 498.049 624.9 497.57 624.986C497.087 625.072 496.626 624.749 496.542 624.265L496.532 624.205C496.449 623.726 496.769 623.269 497.249 623.184C497.732 623.098 498.193 623.421 498.276 623.905L498.286 623.964Z" fill="white"/>
<path d="M505.561 585.491C505.647 585.989 505.313 586.463 504.815 586.549C504.316 586.634 503.843 586.3 503.757 585.802C503.671 585.304 504.006 584.831 504.504 584.745C505.002 584.659 505.476 584.993 505.561 585.491Z" fill="white"/>
<path d="M413.336 375.514C413.422 376.012 413.087 376.486 412.589 376.572C412.091 376.657 411.617 376.323 411.531 375.825C411.445 375.327 411.78 374.854 412.278 374.768C412.776 374.682 413.25 375.016 413.336 375.514Z" fill="white"/>
<path d="M420.559 337.072C420.643 337.543 420.339 337.996 419.871 338.096C419.378 338.202 418.896 337.876 418.811 337.379L418.807 337.356C418.724 336.875 419.045 336.417 419.525 336.331C420.008 336.245 420.469 336.566 420.555 337.049L420.559 337.072Z" fill="white"/>
<path d="M449.181 301.873C449.267 302.372 448.932 302.845 448.434 302.931C447.936 303.017 447.462 302.683 447.376 302.185C447.29 301.687 447.625 301.213 448.123 301.127C448.621 301.041 449.095 301.375 449.181 301.873Z" fill="white"/>
<path d="M511.224 321.058C511.31 321.541 510.989 322.002 510.506 322.088L510.481 322.092C510.011 322.176 509.558 321.872 509.458 321.405C509.352 320.912 509.678 320.43 510.175 320.345L510.2 320.34C510.681 320.257 511.138 320.578 511.224 321.058Z" fill="white"/>
<path d="M458.951 330.297C459.037 330.795 458.702 331.269 458.204 331.355C457.706 331.441 457.232 331.107 457.146 330.609C457.06 330.11 457.395 329.637 457.893 329.551C458.391 329.465 458.865 329.799 458.951 330.297Z" fill="white"/>
<path d="M432.446 353.594C432.529 354.074 432.209 354.53 431.73 354.616C431.247 354.702 430.786 354.378 430.702 353.895L430.692 353.835C430.609 353.356 430.929 352.899 431.409 352.814C431.892 352.727 432.353 353.051 432.436 353.534L432.446 353.594Z" fill="white"/>
<path d="M474.073 376.354C474.159 376.835 473.838 377.295 473.357 377.38C472.876 377.466 472.416 377.146 472.33 376.665C472.244 376.184 472.565 375.725 473.046 375.639C473.527 375.553 473.987 375.873 474.073 376.354Z" fill="white"/>
<path d="M481.353 337.911C481.439 338.394 481.116 338.855 480.632 338.939L480.571 338.949C480.092 339.032 479.636 338.712 479.55 338.233C479.464 337.75 479.787 337.289 480.271 337.206L480.332 337.195C480.811 337.113 481.267 337.432 481.353 337.911Z" fill="white"/>
<path d="M213.887 284.272C213.973 284.77 213.638 285.243 213.14 285.329C212.642 285.415 212.168 285.081 212.082 284.583C211.996 284.085 212.331 283.611 212.829 283.526C213.327 283.44 213.801 283.774 213.887 284.272Z" fill="white"/>
<path d="M221.112 245.869C221.194 246.349 220.874 246.805 220.395 246.891C219.912 246.977 219.451 246.654 219.368 246.17L219.357 246.111C219.274 245.631 219.595 245.175 220.074 245.089C220.557 245.003 221.018 245.326 221.101 245.81L221.112 245.869Z" fill="white"/>
<path d="M249.732 210.631C249.818 211.129 249.483 211.603 248.985 211.689C248.487 211.775 248.013 211.441 247.927 210.942C247.841 210.444 248.176 209.971 248.674 209.885C249.172 209.799 249.646 210.133 249.732 210.631Z" fill="white"/>
<path d="M311.775 229.814C311.861 230.297 311.538 230.758 311.054 230.841L310.993 230.851C310.513 230.934 310.057 230.614 309.972 230.135C309.886 229.652 310.209 229.191 310.692 229.108L310.754 229.098C311.233 229.015 311.689 229.335 311.775 229.814Z" fill="white"/>
<path d="M259.502 239.055C259.588 239.553 259.253 240.027 258.755 240.113C258.257 240.198 257.783 239.864 257.697 239.366C257.611 238.868 257.946 238.395 258.444 238.309C258.942 238.223 259.416 238.557 259.502 239.055Z" fill="white"/>
<path d="M232.998 262.351C233.08 262.831 232.76 263.287 232.281 263.373C231.798 263.459 231.337 263.136 231.253 262.652L231.243 262.593C231.16 262.113 231.481 261.656 231.96 261.571C232.443 261.485 232.904 261.808 232.987 262.292L232.998 262.351Z" fill="white"/>
<path d="M337.981 248.481C338.063 248.961 337.743 249.417 337.264 249.503C336.781 249.589 336.32 249.266 336.236 248.782L336.226 248.722C336.143 248.243 336.463 247.786 336.943 247.701C337.426 247.615 337.887 247.938 337.97 248.422L337.981 248.481Z" fill="white"/>
<path d="M281.904 246.669C281.99 247.152 281.667 247.613 281.183 247.696L281.122 247.706C280.643 247.789 280.187 247.469 280.101 246.99C280.015 246.507 280.338 246.046 280.822 245.963L280.883 245.953C281.362 245.87 281.818 246.19 281.904 246.669Z" fill="white"/>
<path d="M440.903 426.666C440.989 427.149 440.666 427.61 440.182 427.693L440.121 427.704C439.642 427.787 439.186 427.467 439.1 426.988C439.014 426.505 439.337 426.044 439.821 425.961L439.882 425.95C440.361 425.867 440.817 426.187 440.903 426.666Z" fill="white"/>
<path d="M479.244 419.958C479.327 420.438 479.006 420.894 478.527 420.98C478.044 421.066 477.583 420.743 477.5 420.259L477.489 420.2C477.407 419.72 477.727 419.263 478.206 419.178C478.689 419.092 479.15 419.415 479.234 419.899L479.244 419.958Z" fill="white"/>
<path d="M437.419 393.489C437.505 393.987 437.17 394.461 436.672 394.547C436.174 394.632 435.7 394.298 435.614 393.8C435.528 393.302 435.863 392.829 436.361 392.743C436.859 392.657 437.333 392.991 437.419 393.489Z" fill="white"/>
<path d="M452.789 443.148C452.875 443.631 452.552 444.092 452.068 444.175L452.007 444.186C451.528 444.269 451.072 443.949 450.986 443.47C450.9 442.987 451.223 442.526 451.707 442.443L451.768 442.432C452.247 442.349 452.703 442.669 452.789 443.148Z" fill="white"/>
<path d="M494.421 465.975C494.507 466.458 494.184 466.919 493.701 467.002L493.639 467.013C493.16 467.095 492.704 466.775 492.618 466.296C492.532 465.813 492.855 465.353 493.339 465.269L493.4 465.259C493.879 465.176 494.336 465.496 494.421 465.975Z" fill="white"/>
<path d="M501.647 427.546C501.73 428.026 501.41 428.482 500.93 428.568C500.447 428.654 499.986 428.331 499.903 427.847L499.892 427.787C499.81 427.308 500.13 426.851 500.609 426.766C501.092 426.68 501.553 427.003 501.637 427.487L501.647 427.546Z" fill="white"/>
<path d="M535.314 372.75C535.396 373.23 535.076 373.686 534.597 373.772C534.114 373.858 533.653 373.535 533.569 373.051L533.559 372.992C533.476 372.512 533.797 372.055 534.276 371.97C534.759 371.884 535.22 372.207 535.303 372.691L535.314 372.75Z" fill="white"/>
<path d="M576.94 395.511C577.026 395.992 576.705 396.451 576.224 396.537C575.743 396.623 575.283 396.303 575.197 395.822C575.111 395.341 575.432 394.881 575.913 394.796C576.394 394.71 576.854 395.03 576.94 395.511Z" fill="white"/>
<path d="M519.439 401.108C519.525 401.589 519.204 402.049 518.723 402.135C518.242 402.221 517.782 401.901 517.696 401.42C517.611 400.939 517.931 400.479 518.412 400.393C518.893 400.307 519.353 400.628 519.439 401.108Z" fill="white"/>
<path d="M159.56 593.67C159.646 594.151 160.105 594.471 160.586 594.385C161.067 594.299 161.388 593.84 161.302 593.359C161.216 592.878 160.756 592.558 160.275 592.644C159.794 592.73 159.474 593.189 159.56 593.67Z" fill="white"/>
<path d="M108.22 595.728C108.306 596.207 108.762 596.527 109.241 596.444L109.303 596.434C109.786 596.35 110.109 595.889 110.023 595.406C109.938 594.928 109.482 594.608 109.002 594.69L108.941 594.701C108.457 594.784 108.134 595.245 108.22 595.728Z" fill="white"/>
<path d="M159.622 558.343C159.708 558.823 160.168 559.143 160.649 559.058C161.13 558.972 161.45 558.512 161.364 558.031C161.278 557.55 160.819 557.23 160.338 557.316C159.857 557.402 159.536 557.862 159.622 558.343Z" fill="white"/>
<path d="M121.227 565.127C121.312 565.606 121.768 565.926 122.248 565.843L122.309 565.833C122.792 565.749 123.116 565.288 123.029 564.805C122.944 564.327 122.488 564.007 122.008 564.089L121.947 564.1C121.464 564.183 121.14 564.644 121.227 565.127Z" fill="white"/>
<path d="M154.088 577.928C154.171 578.411 154.632 578.734 155.115 578.648C155.594 578.563 155.914 578.106 155.832 577.627L155.821 577.567C155.738 577.083 155.277 576.76 154.794 576.846C154.315 576.932 153.995 577.388 154.077 577.868L154.088 577.928Z" fill="white"/>
<path d="M102.805 579.925C102.891 580.405 103.351 580.726 103.832 580.64C104.313 580.554 104.634 580.094 104.548 579.613C104.462 579.132 104.002 578.812 103.521 578.898C103.04 578.984 102.72 579.444 102.805 579.925Z" fill="white"/>
<path d="M21.0968 575.633C21.1827 576.114 21.6425 576.434 22.1234 576.348C22.6044 576.262 22.9251 575.803 22.8392 575.322C22.7533 574.841 22.2934 574.521 21.8126 574.607C21.3316 574.692 21.0108 575.152 21.0968 575.633Z" fill="white"/>
<path d="M77.042 561.203C77.1279 561.684 77.5878 562.004 78.0687 561.919C78.5496 561.833 78.8704 561.373 78.7845 560.892C78.6985 560.411 78.2387 560.091 77.7578 560.177C77.2769 560.263 76.9561 560.722 77.042 561.203Z" fill="white"/>
<path d="M354.657 300.717C354.74 301.2 355.201 301.524 355.684 301.437C356.163 301.352 356.484 300.895 356.401 300.416L356.391 300.356C356.307 299.873 355.846 299.549 355.363 299.635C354.884 299.721 354.564 300.177 354.646 300.657L354.657 300.717Z" fill="white"/>
<path d="M286.697 221.547C286.783 222.027 287.242 222.348 287.723 222.262C288.204 222.176 288.525 221.716 288.439 221.235C288.353 220.754 287.893 220.434 287.412 220.52C286.932 220.606 286.611 221.066 286.697 221.547Z" fill="white"/>
<path d="M354.719 265.389C354.802 265.873 355.263 266.196 355.746 266.11C356.226 266.024 356.546 265.568 356.463 265.088L356.453 265.029C356.369 264.545 355.908 264.222 355.425 264.308C354.946 264.393 354.626 264.85 354.709 265.329L354.719 265.389Z" fill="white"/>
<path d="M299.703 190.946C299.789 191.427 300.248 191.747 300.729 191.661C301.21 191.575 301.531 191.116 301.445 190.635C301.359 190.154 300.899 189.834 300.419 189.92C299.938 190.005 299.617 190.465 299.703 190.946Z" fill="white"/>
<path d="M349.177 284.93C349.262 285.409 349.719 285.729 350.198 285.646L350.259 285.636C350.743 285.553 351.066 285.092 350.98 284.609C350.894 284.13 350.438 283.81 349.959 283.892L349.897 283.903C349.414 283.986 349.091 284.447 349.177 284.93Z" fill="white"/>
<path d="M281.22 205.78C281.306 206.278 281.78 206.612 282.278 206.526C282.776 206.44 283.111 205.967 283.025 205.469C282.939 204.971 282.465 204.637 281.967 204.722C281.469 204.808 281.134 205.282 281.22 205.78Z" fill="white"/>
<path d="M272.135 268.225C272.221 268.723 272.694 269.057 273.192 268.971C273.691 268.886 274.025 268.412 273.939 267.914C273.853 267.416 273.38 267.082 272.882 267.168C272.383 267.254 272.049 267.727 272.135 268.225Z" fill="white"/>
<path d="M562.191 477.735C562.277 478.216 561.956 478.676 561.475 478.762C560.994 478.848 560.535 478.527 560.449 478.047C560.363 477.566 560.683 477.106 561.164 477.02C561.645 476.934 562.105 477.254 562.191 477.735Z" fill="white"/>
<path d="M627.843 557.466C627.93 557.949 627.606 558.41 627.123 558.493L627.062 558.504C626.582 558.586 626.126 558.266 626.041 557.788C625.954 557.305 626.278 556.844 626.761 556.76L626.823 556.75C627.302 556.667 627.758 556.987 627.843 557.466Z" fill="white"/>
<path d="M299.92 597.371C299.44 597.456 298.98 597.136 298.894 596.656C298.808 596.175 299.129 595.715 299.61 595.629C300.09 595.543 300.55 595.863 300.636 596.344C300.722 596.825 300.401 597.285 299.92 597.371Z" fill="white"/>
<path d="M280.686 659.387C280.207 659.47 279.751 659.15 279.665 658.671C279.579 658.188 279.902 657.727 280.386 657.644L280.447 657.633C280.927 657.551 281.383 657.87 281.468 658.349C281.555 658.832 281.231 659.293 280.748 659.377L280.686 659.387Z" fill="white"/>
<path d="M271.481 607.136C271 607.222 270.54 606.902 270.454 606.421C270.369 605.94 270.689 605.48 271.17 605.394C271.651 605.308 272.111 605.629 272.197 606.109C272.283 606.59 271.962 607.05 271.481 607.136Z" fill="white"/>
<path d="M315.571 646.257C315.073 646.343 314.6 646.009 314.514 645.511C314.428 645.013 314.762 644.539 315.261 644.453C315.759 644.367 316.232 644.702 316.318 645.2C316.404 645.698 316.07 646.171 315.571 646.257Z" fill="white"/>
<path d="M225.399 622.312C224.901 622.398 224.427 622.064 224.342 621.566C224.256 621.067 224.59 620.594 225.088 620.508C225.586 620.422 226.06 620.756 226.146 621.254C226.232 621.752 225.897 622.226 225.399 622.312Z" fill="white"/>
<path d="M263.889 629.526C263.408 629.612 262.948 629.292 262.862 628.811C262.776 628.33 263.097 627.871 263.578 627.785C264.059 627.699 264.519 628.019 264.605 628.5C264.691 628.981 264.37 629.441 263.889 629.526Z" fill="white"/>
<path d="M181.823 627.476C181.333 627.561 180.867 627.232 180.783 626.742L180.777 626.707C180.693 626.219 181.018 625.755 181.505 625.668C181.985 625.583 182.446 625.895 182.545 626.372L182.552 626.407C182.655 626.905 182.325 627.39 181.823 627.476Z" fill="white"/>
<path d="M135.756 642.588C135.275 642.674 134.816 642.354 134.73 641.873C134.644 641.392 134.965 640.932 135.445 640.846C135.926 640.761 136.386 641.081 136.472 641.562C136.558 642.042 136.237 642.502 135.756 642.588Z" fill="white"/>
<path d="M174.22 649.865C173.737 649.951 173.276 649.627 173.193 649.144L173.182 649.084C173.099 648.605 173.42 648.148 173.899 648.063C174.382 647.976 174.843 648.3 174.926 648.783L174.937 648.843C175.019 649.323 174.699 649.779 174.22 649.865Z" fill="white"/>
<path d="M384.31 557.689C383.827 557.775 383.366 557.452 383.283 556.968L383.272 556.909C383.19 556.429 383.51 555.972 383.989 555.887C384.472 555.801 384.933 556.124 385.017 556.608L385.027 556.667C385.11 557.147 384.79 557.603 384.31 557.689Z" fill="white"/>
<path d="M422.764 564.904C422.283 564.99 421.823 564.67 421.737 564.189C421.651 563.708 421.972 563.248 422.453 563.162C422.934 563.076 423.393 563.397 423.479 563.877C423.565 564.358 423.244 564.818 422.764 564.904Z" fill="white"/>
<path d="M457.991 593.513C457.508 593.6 457.047 593.276 456.964 592.793L456.953 592.733C456.871 592.254 457.191 591.797 457.67 591.712C458.153 591.625 458.614 591.949 458.698 592.432L458.708 592.492C458.791 592.971 458.47 593.428 457.991 593.513Z" fill="white"/>
<path d="M438.762 655.524C438.279 655.61 437.818 655.287 437.734 654.803L437.724 654.744C437.641 654.264 437.962 653.808 438.441 653.722C438.924 653.636 439.385 653.959 439.468 654.443L439.479 654.503C439.561 654.982 439.241 655.439 438.762 655.524Z" fill="white"/>
<path d="M429.552 603.278C429.069 603.364 428.608 603.041 428.524 602.557L428.514 602.498C428.431 602.018 428.751 601.562 429.231 601.476C429.714 601.39 430.175 601.713 430.258 602.197L430.268 602.256C430.351 602.736 430.031 603.193 429.552 603.278Z" fill="white"/>
<path d="M573.429 702.358C572.946 702.444 572.485 702.121 572.401 701.637L572.391 701.577C572.308 701.098 572.628 700.641 573.108 700.556C573.591 700.47 574.052 700.793 574.135 701.277L574.145 701.336C574.228 701.816 573.908 702.272 573.429 702.358Z" fill="white"/>
<path d="M406.272 576.784C405.792 576.87 405.332 576.549 405.246 576.069C405.16 575.588 405.481 575.128 405.962 575.042C406.442 574.956 406.902 575.276 406.988 575.757C407.074 576.238 406.753 576.698 406.272 576.784Z" fill="white"/>
<path d="M383.429 618.4C382.95 618.482 382.494 618.162 382.408 617.684C382.322 617.201 382.645 616.74 383.129 616.656L383.19 616.646C383.669 616.563 384.125 616.883 384.211 617.362C384.297 617.845 383.974 618.306 383.49 618.389L383.429 618.4Z" fill="white"/>
<path d="M497.622 794.354C497.143 794.437 496.687 794.117 496.601 793.638C496.515 793.155 496.838 792.694 497.322 792.611L497.383 792.6C497.862 792.518 498.318 792.838 498.404 793.317C498.49 793.8 498.167 794.261 497.683 794.344L497.622 794.354Z" fill="white"/>
<path d="M421.923 625.67C421.425 625.756 420.951 625.422 420.866 624.924C420.78 624.426 421.114 623.952 421.612 623.866C422.11 623.781 422.584 624.115 422.67 624.613C422.756 625.111 422.421 625.584 421.923 625.67Z" fill="white"/>
<path d="M333.095 585.242C332.611 585.328 332.15 585.005 332.067 584.521L332.057 584.462C331.974 583.982 332.294 583.526 332.773 583.44C333.256 583.354 333.717 583.677 333.801 584.161L333.811 584.22C333.894 584.7 333.574 585.156 333.095 585.242Z" fill="white"/>
<path d="M339.873 623.556C339.392 623.642 338.932 623.321 338.846 622.841C338.76 622.36 339.081 621.9 339.562 621.814C340.043 621.728 340.502 622.048 340.588 622.529C340.674 623.01 340.354 623.47 339.873 623.556Z" fill="white"/>
<path d="M366.326 581.759C365.842 581.845 365.381 581.521 365.298 581.038L365.288 580.978C365.205 580.499 365.525 580.042 366.004 579.957C366.487 579.87 366.949 580.194 367.032 580.677L367.042 580.737C367.125 581.217 366.805 581.673 366.326 581.759Z" fill="white"/>
<path d="M316.603 597.121C316.12 597.207 315.659 596.884 315.576 596.4L315.566 596.341C315.483 595.861 315.803 595.405 316.282 595.319C316.765 595.233 317.226 595.556 317.31 596.04L317.32 596.099C317.403 596.579 317.083 597.035 316.603 597.121Z" fill="white"/>
<path d="M293.791 638.732C293.293 638.817 292.819 638.483 292.733 637.985C292.647 637.487 292.982 637.014 293.48 636.928C293.978 636.842 294.452 637.176 294.538 637.674C294.624 638.172 294.289 638.646 293.791 638.732Z" fill="white"/>
<path d="M332.253 645.951C331.782 646.035 331.33 645.731 331.23 645.264C331.124 644.771 331.45 644.289 331.947 644.203L331.972 644.199C332.453 644.116 332.91 644.437 332.996 644.917C333.082 645.4 332.761 645.861 332.278 645.947L332.253 645.951Z" fill="white"/>
<path d="M387.106 679.595C386.625 679.681 386.165 679.36 386.079 678.88C385.993 678.399 386.314 677.939 386.795 677.853C387.276 677.767 387.735 678.088 387.821 678.568C387.907 679.049 387.587 679.509 387.106 679.595Z" fill="white"/>
<path d="M364.262 721.21C363.783 721.293 363.327 720.973 363.241 720.494C363.155 720.011 363.478 719.55 363.962 719.467L364.023 719.456C364.502 719.374 364.958 719.694 365.044 720.173C365.13 720.656 364.807 721.116 364.323 721.2L364.262 721.21Z" fill="white"/>
<path d="M358.671 663.734C358.188 663.82 357.727 663.497 357.644 663.013L357.633 662.953C357.551 662.474 357.871 662.017 358.35 661.932C358.833 661.846 359.294 662.169 359.378 662.653L359.388 662.712C359.471 663.192 359.15 663.648 358.671 663.734Z" fill="white"/>
<path d="M281.998 706.464C281.517 706.55 281.057 706.23 280.971 705.749C280.885 705.268 281.206 704.808 281.687 704.722C282.168 704.637 282.628 704.957 282.714 705.437C282.8 705.918 282.479 706.378 281.998 706.464Z" fill="white"/>
<path d="M202.218 772.019C201.738 772.105 201.278 771.785 201.192 771.304C201.106 770.823 201.427 770.363 201.908 770.278C202.388 770.192 202.848 770.512 202.934 770.993C203.02 771.474 202.699 771.933 202.218 772.019Z" fill="white"/>
</g>
<path d="M1360.42 627.798L1432.86 537.799L1317.61 529.278L1360.42 627.798Z" stroke="white" stroke-width="0.9" stroke-linecap="round" stroke-linejoin="round"/>
<path d="M915.16 541.717L1068.12 546.444L985.17 417.883L915.16 541.717Z" stroke="white" stroke-width="0.9" stroke-linecap="round" stroke-linejoin="round"/>
<path d="M901.407 222.834L1054.43 227.561L971.479 99L901.407 222.834Z" stroke="white" stroke-width="0.9" stroke-linecap="round" stroke-linejoin="round"/>
<path d="M973.968 657.714L1028.79 514.848L880 550.86L973.968 657.714Z" stroke="white" stroke-width="0.9" stroke-linecap="round" stroke-linejoin="round"/>
<path d="M1067.07 276.323L1121.89 133.457L973.097 169.469L1067.07 276.323Z" stroke="white" stroke-width="0.9" stroke-linecap="round" stroke-linejoin="round"/>
<path opacity="0.1" d="M1287.3 615.856L1402.3 604.412L1327.56 516.279L1287.3 615.856Z" fill="white"/>
<path opacity="0.1" d="M714 609.648L795.398 527.673L681.641 507.21L714 609.648Z" fill="white"/>
<path opacity="0.1" d="M727.256 394.82L746.858 281L642 329.514L727.256 394.82Z" fill="white"/>
<path opacity="0.1" d="M1121.92 107.878L1202.07 24.659L1088 6L1121.92 107.878Z" fill="white"/>
<path opacity="0.15" d="M1117.72 353.634L1040.24 353.696L1084.3 417.386L1117.72 353.634Z" fill="white"/>
<path opacity="0.1" d="M1196.97 115.375L1201.76 0L1104 61.5127L1196.97 115.375Z" fill="white"/>
<path opacity="0.1" d="M1239.51 258.535L1244.36 143.16L1146.53 204.672L1239.51 258.535Z" fill="white"/>
<path opacity="0.1" d="M1299.31 256.98L1276.16 296.848L1322.15 293.241L1299.31 256.98Z" fill="white"/>
<path d="M1378.59 515.595L1357.12 508.691L1363.59 530.273L1378.59 515.595Z" stroke="white" stroke-width="0.9" stroke-linecap="round" stroke-linejoin="round"/>
</g>
<defs>
<filter id="filter0_f_3760_20775" x="192.612" y="240.737" width="277.469" height="380.201" filterUnits="userSpaceOnUse" color-interpolation-filters="sRGB">
<feFlood flood-opacity="0" result="BackgroundImageFix"/>
<feBlend mode="normal" in="SourceGraphic" in2="BackgroundImageFix" result="shape"/>
<feGaussianBlur stdDeviation="3" result="effect1_foregroundBlur_3760_20775"/>
</filter>
<filter id="filter1_f_3760_20775" x="-5.93335" y="37.6387" width="635.791" height="758.729" filterUnits="userSpaceOnUse" color-interpolation-filters="sRGB">
<feFlood flood-opacity="0" result="BackgroundImageFix"/>
<feBlend mode="normal" in="SourceGraphic" in2="BackgroundImageFix" result="shape"/>
<feGaussianBlur stdDeviation="1" result="effect1_foregroundBlur_3760_20775"/>
</filter>
</defs>
</svg>
