<svg width="414" height="244" viewBox="0 0 414 244" fill="none" xmlns="http://www.w3.org/2000/svg">
<path d="M115.793 159.464C115.793 159.175 115.918 158.9 116.136 158.71L296.55 1.44447C297.197 0.880509 298.207 1.34001 298.207 2.19829V84.0187C298.207 84.3077 298.082 84.5826 297.864 84.7725L117.45 242.038C116.803 242.602 115.793 242.143 115.793 241.284V159.464Z" fill="#4C96D7"/>
<path d="M0 159.463C0 159.174 0.124395 158.9 0.341282 158.71L179.962 1.45222C180.609 0.886186 181.621 1.34531 181.621 2.2046V84.02C181.621 84.3083 181.496 84.5825 181.279 84.7724L1.65873 242.031C1.0122 242.597 0 242.137 0 241.278V159.463Z" fill="#8DCAFF"/>
<path d="M232.379 159.463C232.379 159.174 232.503 158.9 232.72 158.71L412.341 1.45222C412.987 0.886186 414 1.34531 414 2.2046V84.02C414 84.3083 413.875 84.5825 413.658 84.7724L234.038 242.031C233.391 242.597 232.379 242.137 232.379 241.278V159.463Z" fill="#1761A0"/>
</svg>
